<svg width="1920" height="1044" viewBox="0 0 1920 1044" fill="none" xmlns="http://www.w3.org/2000/svg">
<g clip-path="url(#clip0_627_6747)">
<mask id="mask0_627_6747" style="mask-type:alpha" maskUnits="userSpaceOnUse" x="-100" y="20" width="2098" height="1000">
<path opacity="0.05" d="M-85.2942 561.812C-103.179 547.446 -104.778 527.594 -89.9403 502.355C-75.1527 477.116 -52.1719 450.58 -21.0478 422.797C10.0762 395.014 40.9505 369.924 71.5249 347.578C102.099 325.232 123.981 309.57 137.22 300.641C138.769 299.494 140.118 298.496 141.317 297.748C161.15 283.732 191.825 263.331 233.29 236.546C274.755 209.71 321.267 181.578 372.873 151.999C424.43 122.471 475.238 96.9821 525.296 75.6336C575.305 54.2351 618.918 41.9148 656.087 38.6228C693.256 35.3307 718.285 46.5038 731.125 72.142C741.266 100.923 733.473 145.814 707.794 206.817C682.115 267.82 647.245 335.657 603.281 410.277C559.268 484.897 515.105 557.023 470.742 626.556C438.019 679.029 409.743 725.268 385.763 765.321C361.833 805.375 346.545 835.003 339.901 854.257C333.257 873.51 339.301 878.249 357.986 868.522C398.052 845.977 440.417 817.495 484.98 783.128C529.543 748.711 569.759 716.589 605.579 686.661C643.348 655.586 684.014 620.769 727.628 582.312C797.719 520.112 870.508 459.209 945.995 399.553C1021.53 339.897 1093.32 294.705 1161.47 264.029C1216.37 241.085 1253.14 235.847 1271.82 248.267C1290.51 260.737 1298.3 283.233 1295.2 315.904C1292.11 348.576 1285.66 383.541 1275.92 420.851C1273.97 429.032 1272.02 436.963 1270.07 444.744C1268.53 451.378 1266.78 459.109 1264.83 468.088C1256.64 500.709 1246.94 543.107 1235.65 595.181C1224.36 647.256 1214.42 700.777 1205.88 755.794C1197.34 810.811 1193.34 858.995 1193.89 900.395C1194.44 941.796 1202.73 968.132 1218.72 979.405C1237 987.934 1260.48 981.749 1289.06 960.75C1317.69 939.751 1345.31 914.761 1371.99 885.831C1398.67 856.85 1417.8 835.203 1429.49 820.837C1430.64 819.69 1431.64 818.493 1432.39 817.346C1530.86 697.235 1624.68 568.994 1713.85 432.573C1802.98 296.152 1888.06 161.477 1969.04 28.5471C1973.34 22.3121 1978.18 19.5188 1983.63 20.0675C1989.07 20.6661 1993.17 23.3596 1995.92 28.2478C1998.62 33.136 1998.27 39.0218 1994.77 46.005C1912.24 181.678 1824.56 319.047 1731.69 458.211C1638.87 597.376 1541.4 727.762 1439.43 849.418C1430.49 860.292 1416.45 876.403 1397.37 897.802C1378.28 919.15 1356.8 940.549 1332.82 961.947C1308.89 983.346 1285.11 999.656 1261.58 1010.93C1238 1022.2 1217.67 1022.95 1200.58 1013.27C1179.15 998.509 1167.01 968.681 1164.06 923.789C1161.12 878.897 1163.66 827.322 1171.66 769.012C1179.65 710.703 1189.54 654.339 1201.43 599.92C1213.32 545.501 1223.51 501.407 1232.11 467.589C1234.8 455.568 1237.15 445.642 1239.1 437.86C1241.45 428.134 1243.95 417.659 1246.69 406.386C1254.49 380.349 1259.93 355.359 1263.03 331.467C1266.13 307.574 1261.68 290.865 1249.59 281.338C1237.5 271.811 1212.22 275.801 1173.71 293.309C1109.46 322.439 1041.17 365.435 968.726 422.148C896.337 478.911 825.646 537.57 756.753 598.224C706.145 642.517 659.235 682.172 616.021 717.137C614.072 718.683 611.524 720.828 608.427 723.572C594.039 735.244 572.407 752.253 543.631 774.599C514.805 796.945 484.081 819.291 451.358 841.637C418.635 863.983 389.16 881.092 362.882 892.963C336.604 904.835 318.819 906.082 309.476 896.754C301.683 886.629 305.18 864.881 319.968 831.462C334.755 798.042 356.537 756.941 385.363 708.159C414.189 659.376 445.912 607.003 480.534 551.038C521.399 485.745 560.517 421.3 597.886 357.753C635.255 294.207 664.33 237.942 685.163 188.96C705.996 139.978 712.29 104.614 704.147 82.8661C695.205 65.0092 673.573 59.8217 639.351 67.4034C605.08 74.9851 564.114 90.3481 516.454 113.442C468.743 136.587 420.284 162.624 371.075 191.554C321.816 220.534 277.853 247.619 239.085 272.858C200.367 298.147 172.591 316.403 155.855 327.676C147.661 333.113 130.526 345.084 104.447 363.54C78.3692 381.995 50.3426 403.094 20.3676 426.787C-9.60738 450.48 -34.1369 472.826 -53.221 493.825C-72.3051 514.825 -78.8996 530.188 -73.0544 539.865C-66.8096 546.499 -52.7214 546.947 -30.7397 541.311C-8.75809 535.675 13.4234 528.193 35.8547 518.865C58.236 509.538 73.7231 502.355 82.266 497.317C84.9637 495.372 86.5624 493.526 86.9121 491.78C87.3118 490.035 87.1119 488.389 86.3126 486.842C85.9129 485.296 85.7131 483.85 85.7131 482.453C85.7131 481.056 86.4125 479.759 87.7614 478.363C89.1103 477.016 91.5582 475.37 95.0553 473.425C106.746 469.135 116.288 468.686 123.681 471.978C131.075 475.27 135.372 480.258 136.521 486.842C137.67 493.476 134.572 499.661 127.178 505.497C110.043 517.568 88.6606 530.587 62.9321 544.553C37.2535 558.52 11.0754 568.246 -15.6024 573.683C-42.2801 579.12 -65.5107 575.229 -85.3941 562.011L-85.2942 561.812Z" fill="#307FE2"/>
</mask>
<g mask="url(#mask0_627_6747)">
<path d="M-2336 0H180L-514.764 1036H-2336V0Z" fill="#307FE2"/>
</g>
<path d="M1056.69 360.521C1057.72 353.032 1047.14 346.855 1039.19 346.22C1035.4 345.924 1031.47 346.495 1027.87 345.247C1020.09 342.539 1016.98 332.469 1009.38 329.275C1003.71 326.884 997.175 329.021 991.654 331.792C986.132 334.563 980.716 338.054 974.56 338.435C969.208 338.773 963.411 336.785 958.715 339.408C955.224 341.354 953.405 345.374 950.189 347.743C947.037 350.07 942.933 350.557 939.04 350.768C935.148 350.98 931.107 351.022 927.553 352.651C923.999 354.28 921.058 358.025 921.799 361.875L1056.69 360.542V360.521Z" fill="#EBEBEB"/>
<path d="M645.487 160.92C646.566 153.071 635.502 146.619 627.188 145.963C623.232 145.646 619.107 146.259 615.341 144.948C607.196 142.113 603.938 131.599 596.005 128.235C590.06 125.739 583.227 127.96 577.473 130.858C571.719 133.756 566.028 137.395 559.596 137.818C554.011 138.178 547.919 136.105 543.032 138.834C539.393 140.865 537.468 145.075 534.104 147.55C530.825 149.983 526.531 150.49 522.448 150.702C518.365 150.913 514.134 150.956 510.431 152.669C506.708 154.362 503.641 158.297 504.402 162.316L645.508 160.92H645.487Z" fill="#EBEBEB"/>
<path d="M1649.84 431.688C1650.64 425.786 1642.33 420.941 1636.09 420.433C1633.1 420.201 1630.01 420.645 1627.18 419.672C1621.07 417.535 1618.61 409.644 1612.65 407.127C1608.18 405.244 1603.04 406.915 1598.73 409.094C1594.39 411.273 1590.12 414.002 1585.29 414.319C1581.08 414.594 1576.51 413.029 1572.85 415.081C1570.1 416.604 1568.69 419.777 1566.15 421.639C1563.67 423.458 1560.46 423.839 1557.39 424.008C1554.32 424.178 1551.15 424.199 1548.35 425.489C1545.56 426.759 1543.26 429.72 1543.83 432.746L1649.86 431.709L1649.84 431.688Z" fill="#F5F5F5"/>
<path d="M332.123 359.548C332.715 355.275 326.686 351.763 322.159 351.403C320.001 351.234 317.758 351.551 315.706 350.853C311.264 349.309 309.508 343.576 305.171 341.756C301.934 340.381 298.211 341.608 295.08 343.195C291.949 344.782 288.839 346.77 285.348 346.982C282.302 347.172 278.98 346.051 276.315 347.532C274.326 348.632 273.29 350.938 271.449 352.292C269.651 353.603 267.324 353.9 265.102 354.005C262.881 354.132 260.575 354.153 258.544 355.084C256.513 356.015 254.842 358.152 255.265 360.331L332.144 359.569L332.123 359.548Z" fill="#F5F5F5"/>
<path d="M970.351 641.571C971.155 635.668 962.841 630.824 956.6 630.316C953.617 630.083 950.528 630.528 947.694 629.554C941.58 627.418 939.126 619.527 933.16 617.009C928.696 615.126 923.555 616.798 919.24 618.977C914.924 621.156 910.629 623.885 905.806 624.202C901.596 624.477 897.027 622.912 893.367 624.964C890.616 626.487 889.199 629.66 886.66 631.522C884.185 633.341 880.97 633.722 877.902 633.891C874.835 634.061 871.661 634.082 868.869 635.372C866.076 636.641 863.77 639.603 864.341 642.628L970.372 641.592L970.351 641.571Z" fill="#F5F5F5"/>
<path d="M1130.28 196.123C1131.09 190.22 1122.77 185.376 1116.53 184.868C1113.55 184.635 1110.46 185.08 1107.63 184.106C1101.51 181.97 1099.06 174.079 1093.09 171.561C1088.63 169.678 1083.49 171.35 1079.17 173.529C1074.84 175.708 1070.56 178.437 1065.74 178.754C1061.53 179.029 1056.96 177.464 1053.3 179.516C1050.55 181.039 1049.13 184.212 1046.59 186.074C1044.12 187.893 1040.9 188.274 1037.84 188.443C1034.77 188.612 1031.59 188.634 1028.8 189.924C1026.01 191.193 1023.7 194.155 1024.28 197.18L1130.31 196.144L1130.28 196.123Z" fill="#F5F5F5"/>
<path d="M1548.86 157.472C1549.88 150.173 1539.55 144.144 1531.81 143.53C1528.11 143.234 1524.28 143.805 1520.77 142.578C1513.17 139.934 1510.15 130.139 1502.74 127.008C1497.2 124.681 1490.83 126.754 1485.48 129.462C1480.13 132.17 1474.82 135.555 1468.81 135.936C1463.6 136.274 1457.93 134.328 1453.36 136.888C1449.96 138.792 1448.18 142.705 1445.05 145.011C1441.98 147.275 1437.98 147.74 1434.18 147.952C1430.37 148.164 1426.43 148.206 1422.96 149.792C1419.49 151.379 1416.64 155.039 1417.36 158.784L1548.84 157.493L1548.86 157.472Z" fill="#F5F5F5"/>
<path d="M1262.86 694.713H882.787V706.349H1262.86V694.713Z" fill="#EBEBEB"/>
<path d="M894.994 697.844H882.787V1044.88H894.994V697.844Z" fill="#EBEBEB"/>
<path d="M976.866 697.844H968.256V1044.88H976.866V697.844Z" fill="#EBEBEB"/>
<path d="M920.505 697.844H911.895V1044.88H920.505V697.844Z" fill="#EBEBEB"/>
<path d="M1024.48 697.844H1020.17V1044.88H1024.48V697.844Z" fill="#EBEBEB"/>
<path d="M1089.58 683.31H1085.27V1044.86H1089.58V683.31Z" fill="#EBEBEB"/>
<path d="M1077.14 697.844H1062.99V1044.88H1077.14V697.844Z" fill="#EBEBEB"/>
<path d="M1217.09 678H1212.77V1044.88H1217.09V678Z" fill="#EBEBEB"/>
<path d="M1120.3 697.844H1115.98V1044.88H1120.3V697.844Z" fill="#EBEBEB"/>
<path d="M1254.11 697.844H1234.5V1044.88H1254.11V697.844Z" fill="#EBEBEB"/>
<path d="M1413.47 760.062H888.9V770.534H1413.47V760.062Z" fill="#EBEBEB"/>
<path d="M1413.47 943.796H888.9V959.853H1413.47V943.796Z" fill="#EBEBEB"/>
<path d="M1413.47 851.474H888.9V859.514H1413.47V851.474Z" fill="#EBEBEB"/>
<path d="M1417.66 760.062H1401.09V1044.86H1417.66V760.062Z" fill="#EBEBEB"/>
<path d="M1145.3 869.498H1111.01C1106.6 869.498 1103.01 873.08 1103.01 877.498V1036.88C1103.01 1041.29 1106.6 1044.88 1111.01 1044.88H1145.3C1149.72 1044.88 1153.3 1041.29 1153.3 1036.88V877.498C1153.3 873.08 1149.72 869.498 1145.3 869.498Z" fill="#EBEBEB"/>
<path d="M1287.38 858.307C1287.61 859.513 1373.86 945.044 1373.86 945.044H1385.63V936.159H1375.05V928.226H1366.4V920.06H1359.9V913.1H1352.69V904.447H1344.75V897.001H1335.38V888.348H1328.17V882.742H1321.21V874.893H1313.99V865.754H1305.83V859.513H1288.38" fill="#EBEBEB"/>
<path d="M1389.61 766.874C1389.38 768.08 1303.13 853.611 1303.13 853.611H1291.36V844.726H1301.94V836.792H1310.59V828.626H1317.09V821.666H1324.3V813.014H1332.24V805.567H1341.61V796.914H1348.82V791.308H1355.78V783.46H1363V774.321H1371.16V768.08H1388.61" fill="#EBEBEB"/>
<path d="M1389.61 957.251C1389.38 958.457 1303.13 1043.99 1303.13 1043.99H1291.36V1035.1H1301.94V1027.17H1310.59V1019H1317.09V1012.04H1324.3V1003.39H1332.24V995.944H1341.61V987.292H1348.82V981.686H1355.78V973.837H1363V964.698H1371.16V958.457H1388.61" fill="#EBEBEB"/>
<path d="M894.252 831.694H1240.67C1242.55 831.694 1242.55 828.775 1240.67 828.775H894.252C892.369 828.775 892.369 831.694 894.252 831.694Z" fill="#EBEBEB"/>
<path d="M935.529 932.764C943.992 949.328 958.885 961.979 976.127 968.749C994.511 975.963 1015.29 975.751 1033.71 968.812C1043.93 964.962 1053.28 959.123 1061.07 951.486C1062.42 950.153 1060.35 948.101 1058.99 949.413C1031.64 976.302 986.429 978.269 956.706 954.173C948.963 947.911 942.574 940.168 938.047 931.283C937.201 929.612 934.662 931.092 935.508 932.764H935.529Z" fill="#EBEBEB"/>
<path d="M1157.84 860.253C1176.28 869.96 1195.5 880.053 1217.3 883.053C1235.76 885.604 1254.93 882.925 1271.66 875.939C1281.4 871.889 1290.17 866.317 1297.52 859.567C1299.04 858.174 1296.58 856.052 1295.04 857.467C1282.61 868.867 1266.06 876.56 1248.11 879.625C1228.23 883.011 1208.6 879.796 1190.43 872.553C1179.73 868.267 1169.63 862.974 1159.59 857.681C1157.67 856.674 1155.92 859.224 1157.82 860.253H1157.84Z" fill="#EBEBEB"/>
<path d="M1260.58 766.874V948.091C1260.58 949.974 1263.5 949.974 1263.5 948.091V766.874C1263.5 764.991 1260.58 764.991 1260.58 766.874Z" fill="#EBEBEB"/>
<path d="M1051.12 669.665V850.882C1051.12 852.765 1054.04 852.765 1054.04 850.882V669.665C1054.04 667.782 1051.12 667.782 1051.12 669.665Z" fill="#EBEBEB"/>
<path d="M1195 821H1161C1156.58 821 1153 824.582 1153 829V845C1153 849.418 1156.58 853 1161 853H1195C1199.42 853 1203 849.418 1203 845V829C1203 824.582 1199.42 821 1195 821Z" fill="#EBEBEB"/>
<path d="M1003.25 852.024L987.655 830.763L974.835 852.003L958.99 830.721L944.16 851.982L943.927 851.644L928.822 830.721L911.898 851.94L911.665 851.665L894.783 831.906L895.227 831.525L911.898 851.03L928.843 829.748L944.16 850.967L958.969 829.727L974.793 850.967L987.613 829.705L987.867 830.065L1003.18 850.945L1014.97 829.727L1034.09 851.009L1047.69 829.705L1062.97 850.945L1074.33 832.329L1074.84 832.625L1063.01 852.003L1062.76 851.644L1047.72 830.742L1034.15 851.961L1033.9 851.686L1015.07 830.721L1003.25 852.024Z" fill="#EBEBEB"/>
<path d="M1050.78 853.992L1033.01 831.588L1018.2 852.934L1017.95 852.68L999.883 833.577L988.84 852.998L988.565 852.659L972.593 831.631L960.217 852.003L959.942 851.665L944.541 831.61L929.838 852.955L912.427 831.567L895.227 851.665L894.783 851.284L912.427 830.658L929.817 851.982L944.498 830.615L960.153 850.967L972.529 830.594L972.783 830.933L988.755 851.94L999.756 832.604L1018.12 852.003L1032.99 830.615L1050.74 852.998L1065.7 830.933L1066.18 831.271L1050.78 853.992Z" fill="#EBEBEB"/>
<path d="M1240.65 978.216H891.27V1044.86H1240.65V978.216Z" fill="#EBEBEB"/>
<path d="M1022.33 875.486H888.9V945.045H1022.33V875.486Z" fill="#EBEBEB"/>
<path d="M541.593 652.212H525.324V1046H541.593V652.212Z" fill="#F5F5F5"/>
<path d="M717.521 645.823H525.324V658.601H717.521V645.823Z" fill="#F5F5F5"/>
<path d="M730.556 748.998H538.359V761.776H730.556V748.998Z" fill="#F5F5F5"/>
<path d="M730.556 775.844H538.359V788.622H730.556V775.844Z" fill="#F5F5F5"/>
<path d="M538.359 802.923V1046H730.535V802.923H538.359ZM600.81 939.841H570.452V891.056H600.81V939.841ZM600.81 874.132H570.452V825.348H600.81V874.132ZM647.013 941.025H616.655V892.241H647.013V941.025ZM647.013 874.132H616.655V825.348H647.013V874.132Z" fill="#F5F5F5"/>
<path d="M802.415 645.823H707.809V1046H802.415V645.823Z" fill="#F5F5F5"/>
<path d="M723.149 564.396H711.852V675.504H723.149V564.396Z" fill="#F5F5F5"/>
<path d="M795.018 564.396H783.721V675.504H795.018V564.396Z" fill="#F5F5F5"/>
<path d="M794.379 564.354H711.852V573.704H794.379V564.354Z" fill="#F5F5F5"/>
<path d="M590.083 758.708H579.252V803.367H590.083V758.708Z" fill="#F5F5F5"/>
<path d="M650.267 758.708H639.436V803.367H650.267V758.708Z" fill="#F5F5F5"/>
<path d="M540.412 735.564H728.589C730.472 735.564 730.472 732.645 728.589 732.645H540.412C538.529 732.645 538.529 735.564 540.412 735.564Z" fill="#F5F5F5"/>
<path d="M545.951 657.818V749.548C545.951 751.431 548.871 751.431 548.871 749.548V657.818C548.871 655.935 545.951 655.935 545.951 657.818Z" fill="#F5F5F5"/>
<path d="M595.566 807.589C627.416 779.257 644.126 735.695 650.688 693.713C652.768 680.392 653.851 666.939 654 653.465C654.021 651.512 651.091 651.512 651.07 653.465C650.581 697.971 640.05 744.364 614.803 781.079C608.646 790.033 601.554 798.284 593.485 805.46C592.041 806.733 594.144 808.884 595.566 807.611V807.589Z" fill="#F5F5F5"/>
<path d="M659.03 656.126C655.814 697.061 645.554 737.637 630.512 775.78C626.514 785.956 622.092 795.941 617.205 805.736C616.359 807.408 618.898 808.91 619.744 807.217C637.895 770.809 650.462 731.248 657.485 691.201C659.516 679.587 661.039 667.888 661.97 656.147C662.118 654.264 659.199 654.285 659.051 656.147L659.03 656.126Z" fill="#F5F5F5"/>
<path d="M497.444 778.996H487.564V1046.02H497.444V778.996Z" fill="#F5F5F5"/>
<path d="M529.897 778.996H492.494V788.643H529.897V778.996Z" fill="#F5F5F5"/>
<path d="M531.823 874.132H493.934V892.241H531.823V874.132Z" fill="#F5F5F5"/>
<path d="M529.897 1031.3H492.494V1046H529.897V1031.3Z" fill="#F5F5F5"/>
<path d="M503.283 783.82V1035.27C503.283 1037.16 506.203 1037.16 506.203 1035.27V783.82C506.203 781.937 503.283 781.937 503.283 783.82Z" fill="#F5F5F5"/>
<path d="M509.736 783.82V1035.27C509.736 1037.16 512.656 1037.16 512.656 1035.27V783.82C512.656 781.937 509.736 781.937 509.736 783.82Z" fill="#F5F5F5"/>
<path d="M1472.15 1044.37H1482.32V551.83H1472.15V1044.37ZM1481.69 1043.65H1472.8V552.528H1481.69V1043.65Z" fill="#E0E0E0"/>
<path d="M1472.46 718.831H1482V721.665H1472.46V718.831Z" fill="#E0E0E0"/>
<path d="M1472.46 723.4H1482V726.235H1472.46V723.4Z" fill="#E0E0E0"/>
<path d="M1472.46 729.027H1482V729.747H1472.46V729.027Z" fill="#E0E0E0"/>
<path d="M1472.46 733.597H1482V734.316H1472.46V733.597Z" fill="#E0E0E0"/>
<path d="M1472.46 738.167H1482V738.886H1472.46V738.167Z" fill="#E0E0E0"/>
<path d="M1472.46 742.736H1482V743.455H1472.46V742.736Z" fill="#E0E0E0"/>
<path d="M1472.46 747.306H1482V748.025H1472.46V747.306Z" fill="#E0E0E0"/>
<path d="M1472.46 750.796H1482V753.631H1472.46V750.796Z" fill="#E0E0E0"/>
<path d="M1472.46 756.445H1482V757.164H1472.46V756.445Z" fill="#E0E0E0"/>
<path d="M1472.46 759.935H1482V762.77H1472.46V759.935Z" fill="#E0E0E0"/>
<path d="M1472.46 765.584H1482V766.303H1472.46V765.584Z" fill="#E0E0E0"/>
<path d="M1472.46 770.132H1482V770.851H1472.46V770.132Z" fill="#E0E0E0"/>
<path d="M1472.46 774.702H1482V775.421H1472.46V774.702Z" fill="#E0E0E0"/>
<path d="M1472.46 779.271H1482V779.99H1472.46V779.271Z" fill="#E0E0E0"/>
<path d="M1472.46 783.841H1482V784.56H1472.46V783.841Z" fill="#E0E0E0"/>
<path d="M1472.46 788.411H1482V789.13H1472.46V788.411Z" fill="#E0E0E0"/>
<path d="M1472.46 791.922H1482V794.757H1472.46V791.922Z" fill="#E0E0E0"/>
<path d="M1472.46 797.55H1482V798.269H1472.46V797.55Z" fill="#E0E0E0"/>
<path d="M1472.46 802.119H1482V802.839H1472.46V802.119Z" fill="#E0E0E0"/>
<path d="M1472.46 805.631H1482V808.466H1472.46V805.631Z" fill="#E0E0E0"/>
<path d="M1472.46 811.258H1482V811.977H1472.46V811.258Z" fill="#E0E0E0"/>
<path d="M1472.46 815.828H1482V816.547H1472.46V815.828Z" fill="#E0E0E0"/>
<path d="M1472.46 820.397H1482V821.116H1472.46V820.397Z" fill="#E0E0E0"/>
<path d="M1472.46 824.967H1482V825.686H1472.46V824.967Z" fill="#E0E0E0"/>
<path d="M1472.46 829.537H1482V830.256H1472.46V829.537Z" fill="#E0E0E0"/>
<path d="M1472.46 833.027H1482V835.862H1472.46V833.027Z" fill="#E0E0E0"/>
<path d="M1472.46 837.597H1482V840.432H1472.46V837.597Z" fill="#E0E0E0"/>
<path d="M1472.46 843.245H1482V843.964H1472.46V843.245Z" fill="#E0E0E0"/>
<path d="M1472.46 847.815H1482V848.534H1472.46V847.815Z" fill="#E0E0E0"/>
<path d="M1472.46 852.385H1482V853.104H1472.46V852.385Z" fill="#E0E0E0"/>
<path d="M1472.46 856.933H1482V857.652H1472.46V856.933Z" fill="#E0E0E0"/>
<path d="M1472.46 861.502H1482V862.222H1472.46V861.502Z" fill="#E0E0E0"/>
<path d="M1472.46 866.072H1482V866.791H1472.46V866.072Z" fill="#E0E0E0"/>
<path d="M1472.46 869.584H1482V872.418H1472.46V869.584Z" fill="#E0E0E0"/>
<path d="M1472.46 875.211H1482V875.93H1472.46V875.211Z" fill="#E0E0E0"/>
<path d="M1472.46 878.723H1482V881.558H1472.46V878.723Z" fill="#E0E0E0"/>
<path d="M1472.46 884.35H1482V885.069H1472.46V884.35Z" fill="#E0E0E0"/>
<path d="M1472.46 887.862H1482V890.697H1472.46V887.862Z" fill="#E0E0E0"/>
<path d="M1472.46 893.489H1482V894.209H1472.46V893.489Z" fill="#E0E0E0"/>
<path d="M1472.46 898.059H1482V898.778H1472.46V898.059Z" fill="#E0E0E0"/>
<path d="M1472.46 902.628H1482V903.348H1472.46V902.628Z" fill="#E0E0E0"/>
<path d="M1472.46 907.198H1482V907.917H1472.46V907.198Z" fill="#E0E0E0"/>
<path d="M1472.46 911.768H1482V912.487H1472.46V911.768Z" fill="#E0E0E0"/>
<path d="M1472.46 915.258H1482V918.093H1472.46V915.258Z" fill="#E0E0E0"/>
<path d="M1472.46 920.906H1482V921.626H1472.46V920.906Z" fill="#E0E0E0"/>
<path d="M1472.46 924.397H1482V927.232H1472.46V924.397Z" fill="#E0E0E0"/>
<path d="M1472.46 930.046H1482V930.765H1472.46V930.046Z" fill="#E0E0E0"/>
<path d="M1472.46 934.615H1482V935.334H1472.46V934.615Z" fill="#E0E0E0"/>
<path d="M1472.46 939.163H1482V939.883H1472.46V939.163Z" fill="#E0E0E0"/>
<path d="M1472.46 943.733H1482V944.452H1472.46V943.733Z" fill="#E0E0E0"/>
<path d="M1472.46 948.303H1482V949.022H1472.46V948.303Z" fill="#E0E0E0"/>
<path d="M1472.46 952.872H1482V953.592H1472.46V952.872Z" fill="#E0E0E0"/>
<path d="M1472.46 957.442H1482V958.161H1472.46V957.442Z" fill="#E0E0E0"/>
<path d="M1472.46 962.011H1482V962.731H1472.46V962.011Z" fill="#E0E0E0"/>
<path d="M1472.46 965.523H1482V968.358H1472.46V965.523Z" fill="#E0E0E0"/>
<path d="M1472.46 971.151H1482V971.87H1472.46V971.151Z" fill="#E0E0E0"/>
<path d="M1472.46 975.72H1482V976.439H1472.46V975.72Z" fill="#E0E0E0"/>
<path d="M1472.46 980.29H1482V981.009H1472.46V980.29Z" fill="#E0E0E0"/>
<path d="M1472.46 984.859H1482V985.579H1472.46V984.859Z" fill="#E0E0E0"/>
<path d="M1472.46 989.429H1482V990.148H1472.46V989.429Z" fill="#E0E0E0"/>
<path d="M1472.46 993.999H1482V994.718H1472.46V993.999Z" fill="#E0E0E0"/>
<path d="M1472.46 998.568H1482V999.287H1472.46V998.568Z" fill="#E0E0E0"/>
<path d="M1472.46 1003.14H1482V1003.86H1472.46V1003.14Z" fill="#E0E0E0"/>
<path d="M1472.46 1006.63H1482V1009.46H1472.46V1006.63Z" fill="#E0E0E0"/>
<path d="M1472.46 1012.28H1482V1013H1472.46V1012.28Z" fill="#E0E0E0"/>
<path d="M1472.46 1016.85H1482V1017.57H1472.46V1016.85Z" fill="#E0E0E0"/>
<path d="M1472.46 1021.39H1482V1022.11H1472.46V1021.39Z" fill="#E0E0E0"/>
<path d="M1472.46 1025.96H1482V1026.68H1472.46V1025.96Z" fill="#E0E0E0"/>
<path d="M1472.46 1030.53H1482V1031.25H1472.46V1030.53Z" fill="#E0E0E0"/>
<path d="M1472.46 1035.1H1482V1035.82H1472.46V1035.1Z" fill="#E0E0E0"/>
<path d="M1472.46 714.578H1482V717.413H1472.46V714.578Z" fill="#E0E0E0"/>
<path d="M1472.46 711.384H1482V712.103H1472.46V711.384Z" fill="#E0E0E0"/>
<path d="M1472.46 707.11H1482V707.83H1472.46V707.11Z" fill="#E0E0E0"/>
<path d="M1472.46 702.858H1482V703.577H1472.46V702.858Z" fill="#E0E0E0"/>
<path d="M1472.46 698.606H1482V699.325H1472.46V698.606Z" fill="#E0E0E0"/>
<path d="M1472.46 694.332H1482V695.052H1472.46V694.332Z" fill="#E0E0E0"/>
<path d="M1472.46 690.08H1482V690.799H1472.46V690.08Z" fill="#E0E0E0"/>
<path d="M1472.46 685.828H1482V686.547H1472.46V685.828Z" fill="#E0E0E0"/>
<path d="M1472.46 680.497H1482V683.332H1472.46V680.497Z" fill="#E0E0E0"/>
<path d="M1472.46 677.302H1482V678.022H1472.46V677.302Z" fill="#E0E0E0"/>
<path d="M1472.46 671.992H1482V674.827H1472.46V671.992Z" fill="#E0E0E0"/>
<path d="M1472.46 668.798H1482V669.517H1472.46V668.798Z" fill="#E0E0E0"/>
<path d="M1472.46 664.525H1482V665.244H1472.46V664.525Z" fill="#E0E0E0"/>
<path d="M1472.46 660.272H1482V660.992H1472.46V660.272Z" fill="#E0E0E0"/>
<path d="M1472.46 656.02H1482V656.739H1472.46V656.02Z" fill="#E0E0E0"/>
<path d="M1472.46 651.747H1482V652.466H1472.46V651.747Z" fill="#E0E0E0"/>
<path d="M1472.46 647.494H1482V648.214H1472.46V647.494Z" fill="#E0E0E0"/>
<path d="M1472.46 643.242H1482V643.961H1472.46V643.242Z" fill="#E0E0E0"/>
<path d="M1472.46 638.99H1482V639.709H1472.46V638.99Z" fill="#E0E0E0"/>
<path d="M1472.46 634.716H1482V635.436H1472.46V634.716Z" fill="#E0E0E0"/>
<path d="M1472.46 629.407H1482V632.242H1472.46V629.407Z" fill="#E0E0E0"/>
<path d="M1472.46 626.212H1482V626.931H1472.46V626.212Z" fill="#E0E0E0"/>
<path d="M1472.46 621.939H1482V622.658H1472.46V621.939Z" fill="#E0E0E0"/>
<path d="M1472.46 617.687H1482V618.406H1472.46V617.687Z" fill="#E0E0E0"/>
<path d="M1472.46 613.434H1482V614.154H1472.46V613.434Z" fill="#E0E0E0"/>
<path d="M1472.46 609.182H1482V609.901H1472.46V609.182Z" fill="#E0E0E0"/>
<path d="M1472.46 604.909H1482V605.628H1472.46V604.909Z" fill="#E0E0E0"/>
<path d="M1472.46 600.656H1482V601.376H1472.46V600.656Z" fill="#E0E0E0"/>
<path d="M1472.46 596.404H1482V597.124H1472.46V596.404Z" fill="#E0E0E0"/>
<path d="M1472.46 591.073H1482V593.908H1472.46V591.073Z" fill="#E0E0E0"/>
<path d="M1472.46 587.879H1482V588.598H1472.46V587.879Z" fill="#E0E0E0"/>
<path d="M1472.46 583.627H1482V584.346H1472.46V583.627Z" fill="#E0E0E0"/>
<path d="M1472.46 579.353H1482V580.072H1472.46V579.353Z" fill="#E0E0E0"/>
<path d="M1472.46 575.101H1482V575.82H1472.46V575.101Z" fill="#E0E0E0"/>
<path d="M1472.46 570.849H1482V571.568H1472.46V570.849Z" fill="#E0E0E0"/>
<path d="M1472.46 566.596H1482V567.316H1472.46V566.596Z" fill="#E0E0E0"/>
<path d="M1472.46 562.323H1482V563.042H1472.46V562.323Z" fill="#E0E0E0"/>
<path d="M1472.46 558.071H1482V558.79H1472.46V558.071Z" fill="#E0E0E0"/>
<path d="M1453.83 1045C1454.47 1045 1455 1044.51 1455 1043.93C1455 971.056 1454.85 882.078 1454.67 796C1454.52 709.945 1454.34 620.944 1454.34 548.067C1454.34 547.487 1453.81 547 1453.17 547C1452.53 547 1452 547.487 1452 548.067C1452 620.944 1452.15 709.922 1452.33 796C1452.48 882.055 1452.66 971.056 1452.66 1043.93C1452.66 1044.51 1453.19 1045 1453.83 1045Z" fill="#EBEBEB"/>
<path d="M1454 669.263C1454.29 669.263 1454.59 669.115 1454.78 668.84L1504.73 594.838C1505.04 594.373 1504.96 593.696 1504.52 593.358C1504.09 593.019 1503.48 593.104 1503.16 593.569L1453.21 667.571C1452.9 668.036 1452.98 668.713 1453.43 669.052C1453.59 669.2 1453.81 669.263 1454 669.263Z" fill="#EBEBEB"/>
<path d="M1454 629.872C1454.29 629.872 1454.59 629.724 1454.78 629.449L1504.73 555.447C1505.04 554.982 1504.96 554.305 1504.52 553.966C1504.09 553.628 1503.48 553.712 1503.16 554.178L1453.21 628.179C1452.9 628.645 1452.98 629.322 1453.43 629.66C1453.59 629.808 1453.81 629.872 1454 629.872Z" fill="#EBEBEB"/>
<path d="M1454 711.024C1454.29 711.024 1454.59 710.876 1454.78 710.601L1504.73 636.599C1505.04 636.134 1504.96 635.457 1504.52 635.118C1504.09 634.78 1503.48 634.865 1503.16 635.33L1453.21 709.331C1452.9 709.797 1452.98 710.474 1453.43 710.812C1453.59 710.96 1453.81 711.024 1454 711.024Z" fill="#EBEBEB"/>
<path d="M1454 752.763C1454.29 752.763 1454.59 752.615 1454.78 752.34L1504.73 678.339C1505.04 677.873 1504.96 677.196 1504.52 676.858C1504.09 676.519 1503.48 676.604 1503.16 677.069L1453.21 751.071C1452.9 751.536 1452.98 752.213 1453.43 752.552C1453.59 752.7 1453.81 752.763 1454 752.763Z" fill="#EBEBEB"/>
<path d="M1454 794.524C1454.29 794.524 1454.59 794.376 1454.78 794.101L1504.73 720.099C1505.04 719.634 1504.96 718.957 1504.52 718.618C1504.09 718.28 1503.48 718.365 1503.16 718.83L1453.21 792.831C1452.9 793.297 1452.98 793.974 1453.43 794.312C1453.59 794.46 1453.81 794.524 1454 794.524Z" fill="#EBEBEB"/>
<path d="M1454 836.285C1454.29 836.285 1454.59 836.137 1454.78 835.862L1504.73 761.86C1505.04 761.395 1504.96 760.718 1504.52 760.379C1504.09 760.041 1503.48 760.126 1503.16 760.591L1453.21 834.593C1452.9 835.058 1452.98 835.735 1453.43 836.073C1453.59 836.222 1453.81 836.285 1454 836.285Z" fill="#EBEBEB"/>
<path d="M1454 878.046C1454.29 878.046 1454.59 877.897 1454.78 877.622L1504.73 803.621C1505.04 803.156 1504.96 802.479 1504.52 802.14C1504.09 801.802 1503.48 801.886 1503.16 802.352L1453.21 876.353C1452.9 876.819 1452.98 877.496 1453.43 877.834C1453.59 877.982 1453.81 878.046 1454 878.046Z" fill="#EBEBEB"/>
<path d="M1454 919.806C1454.29 919.806 1454.59 919.658 1454.78 919.383L1504.73 845.382C1505.04 844.916 1504.96 844.239 1504.52 843.901C1504.09 843.562 1503.48 843.647 1503.16 844.112L1453.21 918.114C1452.9 918.579 1452.98 919.256 1453.43 919.595C1453.59 919.743 1453.81 919.806 1454 919.806Z" fill="#EBEBEB"/>
<path d="M1454 961.567C1454.29 961.567 1454.59 961.419 1454.78 961.144L1504.73 887.143C1505.04 886.677 1504.96 886 1504.52 885.662C1504.09 885.323 1503.48 885.408 1503.16 885.873L1453.21 959.875C1452.9 960.34 1452.98 961.017 1453.43 961.356C1453.59 961.504 1453.81 961.567 1454 961.567Z" fill="#EBEBEB"/>
<path d="M1454.52 1000.7C1454.82 1000.7 1455.1 1000.56 1455.31 1000.28L1504.75 928.903C1505.06 928.437 1504.98 927.76 1504.56 927.422C1504.13 927.062 1503.52 927.168 1503.2 927.633L1453.76 999.012C1453.45 999.477 1453.53 1000.15 1453.95 1000.49C1454.12 1000.64 1454.33 1000.7 1454.55 1000.7H1454.52Z" fill="#EBEBEB"/>
<path d="M1454 1045.09H1504.41C1504.94 1045.09 1505.38 1044.6 1505.38 1044.03V550.306C1505.38 549.714 1504.94 549.249 1504.41 549.249C1503.88 549.249 1503.44 549.735 1503.44 550.306V969.141C1503.44 969.141 1503.25 969.31 1503.16 969.416L1453.21 1043.42C1453 1043.73 1452.96 1044.18 1453.13 1044.54C1453.3 1044.9 1453.64 1045.13 1454 1045.13V1045.09ZM1503.44 1042.95H1455.92L1503.44 972.568V1042.95Z" fill="#EBEBEB"/>
<path d="M1504.41 663.509C1504.62 663.509 1504.81 663.445 1504.98 663.297C1505.4 662.937 1505.51 662.282 1505.17 661.816L1454.48 587.603C1454.16 587.138 1453.55 587.032 1453.13 587.391C1452.7 587.751 1452.6 588.407 1452.94 588.872L1503.63 663.085C1503.82 663.36 1504.11 663.509 1504.41 663.509Z" fill="#EBEBEB"/>
<path d="M1504.41 623.504C1504.6 623.504 1504.81 623.44 1504.98 623.292C1505.42 622.954 1505.51 622.277 1505.19 621.811L1455.24 546.689C1454.93 546.202 1454.31 546.117 1453.89 546.456C1453.45 546.794 1453.36 547.471 1453.68 547.937L1503.63 623.06C1503.82 623.356 1504.11 623.504 1504.41 623.504Z" fill="#EBEBEB"/>
<path d="M1504.41 705.904C1504.6 705.904 1504.81 705.84 1504.98 705.692C1505.42 705.354 1505.51 704.677 1505.19 704.211L1455.24 629.089C1454.93 628.602 1454.31 628.518 1453.89 628.856C1453.45 629.195 1453.36 629.871 1453.68 630.337L1503.63 705.46C1503.82 705.756 1504.11 705.904 1504.41 705.904Z" fill="#EBEBEB"/>
<path d="M1504.41 748.3C1504.6 748.3 1504.81 748.236 1504.98 748.088C1505.42 747.749 1505.51 747.073 1505.19 746.607L1454.5 670.384C1454.19 669.898 1453.57 669.813 1453.15 670.152C1452.71 670.49 1452.62 671.167 1452.94 671.632L1503.63 747.855C1503.82 748.151 1504.11 748.3 1504.41 748.3Z" fill="#EBEBEB"/>
<path d="M1504.41 790.695C1504.6 790.695 1504.81 790.632 1504.98 790.484C1505.42 790.145 1505.51 789.468 1505.19 789.003L1455.24 713.88C1454.93 713.393 1454.31 713.309 1453.89 713.647C1453.45 713.986 1453.36 714.663 1453.68 715.128L1503.63 790.251C1503.82 790.547 1504.11 790.695 1504.41 790.695Z" fill="#EBEBEB"/>
<path d="M1504.41 833.09C1504.6 833.09 1504.81 833.026 1504.98 832.878C1505.42 832.54 1505.51 831.863 1505.19 831.398L1455.24 756.275C1454.93 755.788 1454.31 755.704 1453.89 756.042C1453.45 756.381 1453.36 757.058 1453.68 757.523L1503.63 832.646C1503.82 832.942 1504.11 833.09 1504.41 833.09Z" fill="#EBEBEB"/>
<path d="M1504.41 875.486C1504.6 875.486 1504.81 875.422 1504.98 875.274C1505.42 874.936 1505.51 874.259 1505.19 873.793L1455.24 798.67C1454.93 798.184 1454.31 798.099 1453.89 798.438C1453.45 798.776 1453.36 799.453 1453.68 799.919L1503.63 875.041C1503.82 875.338 1504.11 875.486 1504.41 875.486Z" fill="#EBEBEB"/>
<path d="M1504.41 917.881C1504.6 917.881 1504.81 917.818 1504.98 917.669C1505.42 917.331 1505.51 916.654 1505.19 916.189L1455.24 841.066C1454.93 840.579 1454.31 840.495 1453.89 840.833C1453.45 841.172 1453.36 841.849 1453.68 842.314L1503.63 917.437C1503.82 917.733 1504.11 917.881 1504.41 917.881Z" fill="#EBEBEB"/>
<path d="M1504.41 960.276C1504.6 960.276 1504.81 960.213 1504.98 960.065C1505.42 959.726 1505.51 959.049 1505.19 958.584L1455.24 883.461C1454.93 882.975 1454.31 882.89 1453.89 883.228C1453.45 883.567 1453.36 884.244 1453.68 884.709L1503.63 959.832C1503.82 960.128 1504.11 960.276 1504.41 960.276Z" fill="#EBEBEB"/>
<path d="M1504.41 1002.69C1504.6 1002.69 1504.81 1002.63 1504.98 1002.48C1505.42 1002.14 1505.51 1001.47 1505.19 1001L1455.24 925.878C1454.93 925.391 1454.31 925.307 1453.89 925.645C1453.45 925.984 1453.36 926.661 1453.68 927.126L1503.63 1002.25C1503.82 1002.54 1504.11 1002.69 1504.41 1002.69Z" fill="#EBEBEB"/>
<path d="M1504.41 1045.09C1504.6 1045.09 1504.81 1045.02 1504.98 1044.88C1505.42 1044.54 1505.51 1043.86 1505.19 1043.4L1455.24 968.273C1454.93 967.787 1454.31 967.702 1453.89 968.041C1453.45 968.379 1453.36 969.056 1453.68 969.521L1503.63 1044.64C1503.82 1044.94 1504.11 1045.09 1504.41 1045.09Z" fill="#EBEBEB"/>
<path d="M1462.51 480.959L1464.24 479.034L1440.38 457.73H1439.89C1389.1 457.73 1337.33 457.815 1285.56 457.9C1233.8 457.984 1182.05 458.069 1131.24 458.069V460.65C1182.03 460.65 1233.8 460.565 1285.56 460.481C1337.16 460.396 1388.76 460.311 1439.38 460.311L1462.51 480.959Z" fill="#EBEBEB"/>
<path d="M1455.88 487.803C1455.88 487.832 1455.91 487.856 1455.94 487.855C1456.28 487.841 1456.62 487.693 1456.86 487.411C1457.32 486.882 1457.28 486.057 1456.75 485.592L1426.12 458.365C1425.61 457.921 1424.87 457.921 1424.38 458.365L1398.9 482.154C1397.34 483.607 1394.92 483.586 1393.39 482.107L1368.83 458.386C1368.34 457.921 1367.58 457.9 1367.07 458.344L1339.85 482.337C1338.3 483.711 1335.94 483.662 1334.44 482.225L1309.53 458.365C1309.04 457.9 1308.28 457.878 1307.78 458.344L1280.76 482.347C1279.21 483.718 1276.88 483.689 1275.37 482.279L1249.75 458.344C1249.26 457.9 1248.52 457.878 1248.01 458.323L1220.58 482.315C1219.01 483.688 1216.65 483.624 1215.16 482.169L1190.72 458.365C1190.24 457.878 1189.45 457.878 1188.95 458.344L1162.91 482.231C1161.37 483.649 1158.99 483.633 1157.47 482.196L1132.14 458.344C1131.66 457.878 1130.92 457.878 1130.41 458.323L1099.29 485.55C1098.76 486.015 1098.7 486.84 1099.16 487.369C1099.63 487.919 1100.45 487.961 1100.98 487.496L1128.48 463.441C1130.03 462.086 1132.36 462.128 1133.86 463.539L1159.26 487.454C1159.77 487.919 1160.53 487.919 1161.02 487.454L1186.98 463.63C1188.55 462.195 1190.96 462.231 1192.48 463.712L1216.83 487.432C1217.32 487.898 1218.08 487.919 1218.58 487.475L1246.09 463.41C1247.64 462.059 1249.96 462.096 1251.46 463.497L1277.12 487.454C1277.61 487.898 1278.37 487.919 1278.86 487.454L1305.84 463.481C1307.4 462.097 1309.76 462.141 1311.27 463.583L1336.17 487.432C1336.65 487.898 1337.41 487.919 1337.92 487.475L1365.13 463.492C1366.69 462.114 1369.05 462.168 1370.55 463.616L1395.21 487.432C1395.7 487.919 1396.5 487.919 1396.99 487.432L1422.61 463.497C1424.12 462.087 1426.45 462.058 1428 463.43L1455.02 487.432C1455.26 487.632 1455.53 487.738 1455.83 487.749C1455.86 487.75 1455.88 487.774 1455.88 487.803Z" fill="#EBEBEB"/>
<path d="M1597.65 463.442H1633.82C1638.23 463.442 1641.82 467.024 1641.82 471.442V516.856C1641.82 521.275 1638.23 524.856 1633.82 524.856H1597.65C1593.23 524.856 1589.65 521.275 1589.65 516.856V471.442C1589.65 467.024 1593.23 463.442 1597.65 463.442Z" fill="#E0E0E0"/>
<path d="M1099.46 488.321H1646.75V479.351H1099.46V488.321ZM1645.43 487.031H1100.75V480.642H1645.43V487.031Z" fill="#EBEBEB"/>
<path d="M1463.37 488.321C1463.5 488.321 1463.63 488.279 1463.73 488.215L1492.67 468.689C1492.97 468.498 1493.05 468.096 1492.84 467.8C1492.65 467.504 1492.23 467.419 1491.95 467.631L1463.01 487.157C1462.72 487.348 1462.63 487.75 1462.84 488.046C1462.97 488.236 1463.18 488.342 1463.37 488.342V488.321Z" fill="#EBEBEB"/>
<path d="M1463.37 488.173C1463.69 488.173 1463.96 487.94 1464 487.602L1466.48 468.329L1495.04 488.046C1495.25 488.194 1495.53 488.194 1495.74 488.046C1495.95 487.919 1496.08 487.665 1496.03 487.411L1485.43 404.355C1485.43 404.355 1485.43 404.334 1485.43 404.313L1484.1 393.947C1484.1 393.947 1484.1 393.926 1484.1 393.905L1482.56 381.804V381.761L1481.27 371.734C1481.22 371.416 1480.95 371.163 1480.63 371.163H1478.22C1477.9 371.163 1477.63 371.395 1477.59 371.734L1472.11 414.404C1472.11 414.404 1472.11 414.446 1472.11 414.468L1470.73 425.151C1470.73 425.151 1470.73 425.172 1470.73 425.193L1469.29 436.363C1469.29 436.363 1469.25 436.448 1469.25 436.469C1469.23 436.575 1469.21 436.681 1469.25 436.787L1462.76 487.433C1462.71 487.792 1462.97 488.11 1463.31 488.152C1463.33 488.152 1463.37 488.152 1463.39 488.152L1463.37 488.173ZM1490 450.411L1494.57 486.163L1468.47 468.139L1491.53 468.625C1491.8 468.625 1492.03 468.456 1492.14 468.202C1492.22 467.948 1492.14 467.652 1491.93 467.483L1470.24 450.411H1489.98H1490ZM1468.72 450.855L1489.62 467.293L1466.67 466.806L1468.72 450.855ZM1488.31 449.12H1468.93L1470.39 437.76L1488.31 449.12ZM1488.31 437.294L1489.75 448.485L1472.06 437.294H1488.31ZM1486.66 436.004H1470.63L1471.87 426.357L1486.68 436.004H1486.66ZM1486.87 425.892L1488.08 435.39L1473.52 425.892H1486.87ZM1485.41 424.601H1472.09L1473.23 415.695L1485.41 424.601ZM1485.5 415.166L1486.6 423.861L1474.71 415.166H1485.5ZM1484.23 413.875H1473.46L1474.5 405.794L1484.23 413.875ZM1484.23 405.096L1485.24 413.008L1475.81 405.159L1484.23 405.096ZM1483.34 403.805L1474.75 403.869L1475.81 395.534L1483.32 403.784L1483.34 403.805ZM1482.9 394.666L1483.89 402.473L1476.82 394.708L1482.9 394.666ZM1482.39 393.376L1476.1 393.418L1477.33 383.835L1482.39 393.376ZM1481.33 382.502L1482.37 390.583L1478.03 382.417L1481.33 382.502ZM1480.04 372.453L1481.16 381.19L1477.67 381.106L1478.77 372.453H1480.04Z" fill="#EBEBEB"/>
<path d="M1475.3 394.814C1475.53 394.814 1475.77 394.687 1475.87 394.476L1482.39 382.206C1482.56 381.888 1482.43 381.508 1482.11 381.338C1481.8 381.169 1481.41 381.296 1481.25 381.613L1474.73 393.883C1474.56 394.201 1474.69 394.582 1475 394.751C1475.11 394.793 1475.19 394.835 1475.3 394.835V394.814Z" fill="#EBEBEB"/>
<path d="M1473.97 405.244C1474.14 405.244 1474.33 405.181 1474.46 405.032L1483.89 394.666C1484.12 394.412 1484.12 393.989 1483.85 393.757C1483.59 393.524 1483.17 393.524 1482.94 393.799L1473.5 404.165C1473.27 404.419 1473.27 404.842 1473.55 405.075C1473.67 405.181 1473.82 405.244 1473.99 405.244H1473.97Z" fill="#EBEBEB"/>
<path d="M1472.72 415.314C1472.86 415.314 1473.01 415.271 1473.14 415.166L1485.15 405.18C1485.43 404.948 1485.47 404.546 1485.24 404.271C1485.01 403.996 1484.6 403.953 1484.33 404.186L1472.31 414.171C1472.04 414.404 1472 414.806 1472.23 415.081C1472.36 415.229 1472.55 415.314 1472.74 415.314H1472.72Z" fill="#EBEBEB"/>
<path d="M1471.34 426.04C1471.47 426.04 1471.62 425.997 1471.72 425.913L1486.39 415.187C1486.68 414.975 1486.75 414.573 1486.53 414.277C1486.32 413.981 1485.92 413.918 1485.62 414.129L1470.96 424.855C1470.67 425.067 1470.6 425.469 1470.82 425.765C1470.94 425.934 1471.13 426.04 1471.34 426.04Z" fill="#EBEBEB"/>
<path d="M1469.91 437.442C1470.03 437.442 1470.16 437.4 1470.27 437.337L1487.76 425.934C1488.06 425.743 1488.14 425.341 1487.95 425.045C1487.76 424.749 1487.36 424.664 1487.06 424.855L1469.57 436.258C1469.27 436.448 1469.19 436.85 1469.38 437.146C1469.5 437.337 1469.72 437.442 1469.93 437.442H1469.91Z" fill="#EBEBEB"/>
<path d="M1468.21 450.559C1468.34 450.559 1468.45 450.516 1468.55 450.453L1489.24 437.337C1489.54 437.146 1489.64 436.744 1489.43 436.448C1489.24 436.152 1488.84 436.067 1488.54 436.258L1467.85 449.374C1467.56 449.564 1467.45 449.966 1467.66 450.263C1467.79 450.453 1468 450.559 1468.21 450.559Z" fill="#EBEBEB"/>
<path d="M1466.31 468.097C1466.44 468.097 1466.58 468.054 1466.69 467.97L1490.74 450.432C1491.04 450.22 1491.1 449.818 1490.89 449.522C1490.68 449.226 1490.28 449.163 1489.98 449.374L1465.93 466.912C1465.63 467.124 1465.57 467.526 1465.78 467.822C1465.91 467.991 1466.1 468.097 1466.31 468.097Z" fill="#EBEBEB"/>
<path d="M1479.38 513.644C1479.74 513.644 1480.04 513.348 1480.04 512.988V370.168C1480.04 369.809 1479.74 369.512 1479.38 369.512C1479.02 369.512 1478.73 369.809 1478.73 370.168V512.988C1478.73 513.348 1479.02 513.644 1479.38 513.644Z" fill="#EBEBEB"/>
<path d="M1485.01 487.665H1499.74V537.676H1485.01V487.665Z" fill="#EBEBEB"/>
<path d="M1453 512H1486C1488.21 512 1490 513.791 1490 516V534C1490 536.209 1488.21 538 1486 538H1453C1450.79 538 1449 536.209 1449 534V516C1449 513.791 1450.79 512 1453 512Z" fill="#EBEBEB"/>
<path d="M1496 518H1507C1509.21 518 1511 519.791 1511 522V534C1511 536.209 1509.21 538 1507 538H1496C1493.79 538 1492 536.209 1492 534V522C1492 519.791 1493.79 518 1496 518Z" fill="#EBEBEB"/>
<path d="M1450.91 546.202H1506.65C1508.86 546.202 1510.65 547.993 1510.65 550.202V551.532C1510.65 553.741 1508.86 555.532 1506.65 555.532H1450.91C1448.7 555.532 1446.91 553.741 1446.91 551.532V550.202C1446.91 547.993 1448.7 546.202 1450.91 546.202Z" fill="#EBEBEB"/>
<path d="M1455.81 537.169H1503.13C1504.24 537.169 1505.13 538.064 1505.13 539.169V540.352C1505.13 541.457 1504.24 542.352 1503.13 542.352H1455.81C1454.71 542.352 1453.81 541.457 1453.81 540.352V539.169C1453.81 538.064 1454.71 537.169 1455.81 537.169Z" fill="#EBEBEB"/>
<path d="M1458 541H1501C1502.1 541 1503 541.895 1503 543V545C1503 546.105 1502.1 547 1501 547H1458C1456.9 547 1456 546.105 1456 545V543C1456 541.895 1456.9 541 1458 541Z" fill="#EBEBEB"/>
<path d="M1453.75 676.054H1504.46V681.237H1453.75V676.054Z" fill="#EBEBEB"/>
<path d="M1454 788.41H1504.46V793.593H1454V788.41Z" fill="#EBEBEB"/>
<path d="M1454 906.732H1504.46V911.915H1454V906.732Z" fill="#EBEBEB"/>
<path d="M1637.9 469.958L1638.58 468.858L1479.26 370.549L1478.98 370.634L1219.22 458.64L1219.62 459.867L1479.11 371.966L1637.9 469.958Z" fill="#EBEBEB"/>
<path d="M1497.32 479.552C1497.32 479.733 1497.47 479.88 1497.65 479.88C1497.83 479.88 1497.98 479.733 1497.98 479.552V473.725C1497.98 471.516 1499.77 469.725 1501.98 469.725H1641.77C1643.98 469.725 1645.77 471.516 1645.77 473.725V479.563C1645.77 479.738 1645.91 479.88 1646.09 479.88C1646.26 479.88 1646.41 479.738 1646.41 479.563V473.07C1646.41 470.86 1644.62 469.07 1642.41 469.07H1501.32C1499.12 469.07 1497.32 470.86 1497.32 473.07V479.552Z" fill="#EBEBEB"/>
<path d="M1637.92 469.408H1638.58V479.626H1637.92V469.408Z" fill="#EBEBEB"/>
<path d="M1631.22 469.408H1631.87V479.626H1631.22V469.408Z" fill="#EBEBEB"/>
<path d="M1624.51 469.408H1625.17V479.626H1624.51V469.408Z" fill="#EBEBEB"/>
<path d="M1617.8 469.408H1618.46V479.626H1617.8V469.408Z" fill="#EBEBEB"/>
<path d="M1611.1 469.408H1611.75V479.626H1611.1V469.408Z" fill="#EBEBEB"/>
<path d="M1604.41 469.408H1605.07V479.626H1604.41V469.408Z" fill="#EBEBEB"/>
<path d="M1597.7 469.408H1598.36V479.626H1597.7V469.408Z" fill="#EBEBEB"/>
<path d="M1591 469.408H1591.65V479.626H1591V469.408Z" fill="#EBEBEB"/>
<path d="M1584.29 469.408H1584.95V479.626H1584.29V469.408Z" fill="#EBEBEB"/>
<path d="M1577.59 469.408H1578.24V479.626H1577.59V469.408Z" fill="#EBEBEB"/>
<path d="M1570.88 469.408H1571.53V479.626H1570.88V469.408Z" fill="#EBEBEB"/>
<path d="M1564.19 469.408H1564.85V479.626H1564.19V469.408Z" fill="#EBEBEB"/>
<path d="M1557.49 469.408H1558.14V479.626H1557.49V469.408Z" fill="#EBEBEB"/>
<path d="M1550.78 469.408H1551.44V479.626H1550.78V469.408Z" fill="#EBEBEB"/>
<path d="M1544.08 469.408H1544.73V479.626H1544.08V469.408Z" fill="#EBEBEB"/>
<path d="M1537.37 469.408H1538.03V479.626H1537.37V469.408Z" fill="#EBEBEB"/>
<path d="M1530.68 469.408H1531.34V479.626H1530.68V469.408Z" fill="#EBEBEB"/>
<path d="M1523.98 469.408H1524.63V479.626H1523.98V469.408Z" fill="#EBEBEB"/>
<path d="M1517.27 469.408H1517.93V479.626H1517.27V469.408Z" fill="#EBEBEB"/>
<path d="M1510.57 469.408H1511.22V479.626H1510.57V469.408Z" fill="#EBEBEB"/>
<path d="M1503.86 469.408H1504.52V479.626H1503.86V469.408Z" fill="#EBEBEB"/>
<path d="M1537.34 479.986H1543.22C1545.35 479.986 1547.06 481.705 1547.06 483.825C1547.06 485.946 1545.35 487.665 1543.22 487.665H1537.34C1535.22 487.665 1533.5 485.946 1533.5 483.825C1533.5 481.705 1535.22 479.986 1537.34 479.986Z" fill="#EBEBEB"/>
<path d="M1508.42 479.986H1514.3C1516.43 479.986 1518.14 481.705 1518.14 483.825C1518.14 485.946 1516.43 487.665 1514.3 487.665H1508.42C1506.3 487.665 1504.58 485.946 1504.58 483.825C1504.58 481.705 1506.3 479.986 1508.42 479.986Z" fill="#EBEBEB"/>
<path d="M1431.99 479.986H1437.87C1439.99 479.986 1441.71 481.705 1441.71 483.825C1441.71 485.946 1439.99 487.665 1437.87 487.665H1431.99C1429.87 487.665 1428.15 485.946 1428.15 483.825C1428.15 481.705 1429.87 479.986 1431.99 479.986Z" fill="#EBEBEB"/>
<path d="M1393.06 479.986H1398.94C1401.06 479.986 1402.78 481.705 1402.78 483.825C1402.78 485.946 1401.06 487.665 1398.94 487.665H1393.06C1390.94 487.665 1389.22 485.946 1389.22 483.825C1389.22 481.705 1390.94 479.986 1393.06 479.986Z" fill="#EBEBEB"/>
<path d="M1354.13 479.986H1360.02C1362.14 479.986 1363.86 481.705 1363.86 483.825C1363.86 485.946 1362.14 487.665 1360.02 487.665H1354.13C1352.01 487.665 1350.29 485.946 1350.29 483.825C1350.29 481.705 1352.01 479.986 1354.13 479.986Z" fill="#EBEBEB"/>
<path d="M1315.19 479.986H1321.07C1323.19 479.986 1324.91 481.705 1324.91 483.825C1324.91 485.946 1323.19 487.665 1321.07 487.665H1315.19C1313.07 487.665 1311.35 485.946 1311.35 483.825C1311.35 481.705 1313.07 479.986 1315.19 479.986Z" fill="#EBEBEB"/>
<path d="M1276.27 479.986H1282.15C1284.27 479.986 1285.99 481.705 1285.99 483.825C1285.99 485.946 1284.27 487.665 1282.15 487.665H1276.27C1274.14 487.665 1272.43 485.946 1272.43 483.825C1272.43 481.705 1274.14 479.986 1276.27 479.986Z" fill="#EBEBEB"/>
<path d="M1237.34 479.986H1243.22C1245.34 479.986 1247.06 481.705 1247.06 483.825C1247.06 485.946 1245.34 487.665 1243.22 487.665H1237.34C1235.22 487.665 1233.5 485.946 1233.5 483.825C1233.5 481.705 1235.22 479.986 1237.34 479.986Z" fill="#EBEBEB"/>
<path d="M1198.41 479.986H1204.29C1206.41 479.986 1208.13 481.705 1208.13 483.825C1208.13 485.946 1206.41 487.665 1204.29 487.665H1198.41C1196.29 487.665 1194.57 485.946 1194.57 483.825C1194.57 481.705 1196.29 479.986 1198.41 479.986Z" fill="#EBEBEB"/>
<path d="M1159.48 479.986H1165.37C1167.49 479.986 1169.21 481.705 1169.21 483.825C1169.21 485.946 1167.49 487.665 1165.37 487.665H1159.48C1157.36 487.665 1155.64 485.946 1155.64 483.825C1155.64 481.705 1157.36 479.986 1159.48 479.986Z" fill="#EBEBEB"/>
<path d="M1120.56 479.986H1126.44C1128.56 479.986 1130.28 481.705 1130.28 483.825C1130.28 485.946 1128.56 487.665 1126.44 487.665H1120.56C1118.44 487.665 1116.72 485.946 1116.72 483.825C1116.72 481.705 1118.44 479.986 1120.56 479.986Z" fill="#EBEBEB"/>
<path d="M1567.04 479.986H1572.92C1575.04 479.986 1576.76 481.705 1576.76 483.825C1576.76 485.946 1575.04 487.665 1572.92 487.665H1567.04C1564.92 487.665 1563.2 485.946 1563.2 483.825C1563.2 481.705 1564.92 479.986 1567.04 479.986Z" fill="#EBEBEB"/>
<path d="M1596.72 479.986H1602.6C1604.72 479.986 1606.44 481.705 1606.44 483.825C1606.44 485.946 1604.72 487.665 1602.6 487.665H1596.72C1594.6 487.665 1592.88 485.946 1592.88 483.825C1592.88 481.705 1594.6 479.986 1596.72 479.986Z" fill="#EBEBEB"/>
<path d="M1626.43 479.986H1632.31C1634.43 479.986 1636.15 481.705 1636.15 483.825C1636.15 485.946 1634.43 487.665 1632.31 487.665H1626.43C1624.3 487.665 1622.59 485.946 1622.59 483.825C1622.59 481.705 1624.3 479.986 1626.43 479.986Z" fill="#EBEBEB"/>
<path d="M1481 371.224L1616.13 468.893L1615.37 469.939L1480.25 372.27L1481 371.224Z" fill="#EBEBEB"/>
<path d="M1099.16 496.001C1096.03 496.001 1093.49 493.462 1093.49 490.331C1093.49 487.2 1096.03 484.661 1099.16 484.661C1102.29 484.661 1104.83 487.2 1104.83 490.331C1104.83 493.462 1102.29 496.001 1099.16 496.001Z" fill="#EBEBEB"/>
<path d="M1122.37 496.001C1119.24 496.001 1116.7 493.462 1116.7 490.331C1116.7 487.2 1119.24 484.661 1122.37 484.661C1125.5 484.661 1128.04 487.2 1128.04 490.331C1128.04 493.462 1125.5 496.001 1122.37 496.001Z" fill="#EBEBEB"/>
<path d="M1099.16 478.463H1131.21V488.702H1099.16V478.463Z" fill="#EBEBEB"/>
<path d="M1476.8 368.984H1481.56V373.744H1476.8V368.984Z" fill="#EBEBEB"/>
<path d="M1475.51 375.034H1482.87V367.672H1475.51V375.034ZM1480.27 372.453H1478.09V370.274H1480.27V372.453Z" fill="#EBEBEB"/>
<path d="M1458.46 487.538C1458.46 487.538 1452.39 488.384 1452.39 495.281V512.036H1485.46L1485.03 487.707L1458.46 487.559V487.538Z" fill="#F5F5F5"/>
<path d="M1499.32 538.311C1499.7 538.311 1499.99 527.12 1499.99 513.327C1499.99 499.533 1499.7 488.321 1499.32 488.321C1498.93 488.321 1498.64 499.512 1498.64 513.327C1498.64 527.141 1498.93 538.311 1499.32 538.311Z" fill="#EBEBEB"/>
<path d="M1214.35 455.869H1232.67V459.359H1214.35V455.869Z" fill="#EBEBEB"/>
<path d="M519.289 1020.44H505.312V385.908H519.289V1020.44ZM505.82 1019.93H518.781V386.416H505.82V1019.93Z" fill="#D9D9D6"/>
<path d="M519.048 601.785H505.58V603.816H519.048V601.785Z" fill="#D9D9D6"/>
<path d="M519.048 607.676H505.58V609.707H519.048V607.676Z" fill="#D9D9D6"/>
<path d="M519.048 614.318H505.58V614.826H519.048V614.318Z" fill="#D9D9D6"/>
<path d="M519.048 620.209H505.58V620.717H519.048V620.209Z" fill="#D9D9D6"/>
<path d="M519.048 626.1H505.58V626.608H519.048V626.1Z" fill="#D9D9D6"/>
<path d="M519.048 631.991H505.58V632.499H519.048V631.991Z" fill="#D9D9D6"/>
<path d="M519.048 637.883H505.58V638.39H519.048V637.883Z" fill="#D9D9D6"/>
<path d="M519.048 643.002H505.58V645.033H519.048V643.002Z" fill="#D9D9D6"/>
<path d="M519.048 649.644H505.58V650.152H519.048V649.644Z" fill="#D9D9D6"/>
<path d="M519.048 654.784H505.58V656.815H519.048V654.784Z" fill="#D9D9D6"/>
<path d="M519.048 661.426H505.58V661.934H519.048V661.426Z" fill="#D9D9D6"/>
<path d="M519.048 667.318H505.58V667.825H519.048V667.318Z" fill="#D9D9D6"/>
<path d="M519.048 673.209H505.58V673.717H519.048V673.209Z" fill="#D9D9D6"/>
<path d="M519.048 679.1H505.58V679.607H519.048V679.1Z" fill="#D9D9D6"/>
<path d="M519.048 684.991H505.58V685.499H519.048V684.991Z" fill="#D9D9D6"/>
<path d="M519.048 690.882H505.58V691.39H519.048V690.882Z" fill="#D9D9D6"/>
<path d="M519.048 696.001H505.58V698.032H519.048V696.001Z" fill="#D9D9D6"/>
<path d="M519.048 702.664H505.58V703.172H519.048V702.664Z" fill="#D9D9D6"/>
<path d="M519.048 708.555H505.58V709.063H519.048V708.555Z" fill="#D9D9D6"/>
<path d="M519.048 713.674H505.58V715.705H519.048V713.674Z" fill="#D9D9D6"/>
<path d="M519.048 720.337H505.58V720.845H519.048V720.337Z" fill="#D9D9D6"/>
<path d="M519.048 726.208H505.58V726.716H519.048V726.208Z" fill="#D9D9D6"/>
<path d="M519.048 732.099H505.58V732.607H519.048V732.099Z" fill="#D9D9D6"/>
<path d="M519.048 737.99H505.58V738.498H519.048V737.99Z" fill="#D9D9D6"/>
<path d="M519.048 743.881H505.58V744.389H519.048V743.881Z" fill="#D9D9D6"/>
<path d="M519.048 749.02H505.58V751.052H519.048V749.02Z" fill="#D9D9D6"/>
<path d="M519.048 754.891H505.58V756.923H519.048V754.891Z" fill="#D9D9D6"/>
<path d="M519.048 761.554H505.58V762.062H519.048V761.554Z" fill="#D9D9D6"/>
<path d="M519.048 767.445H505.58V767.953H519.048V767.445Z" fill="#D9D9D6"/>
<path d="M519.048 773.336H505.58V773.844H519.048V773.336Z" fill="#D9D9D6"/>
<path d="M519.048 779.227H505.58V779.735H519.048V779.227Z" fill="#D9D9D6"/>
<path d="M519.048 785.118H505.58V785.626H519.048V785.118Z" fill="#D9D9D6"/>
<path d="M519.048 791.01H505.58V791.517H519.048V791.01Z" fill="#D9D9D6"/>
<path d="M519.048 796.129H505.58V798.16H519.048V796.129Z" fill="#D9D9D6"/>
<path d="M519.048 802.771H505.58V803.279H519.048V802.771Z" fill="#D9D9D6"/>
<path d="M519.048 807.911H505.58V809.942H519.048V807.911Z" fill="#D9D9D6"/>
<path d="M519.048 814.553H505.58V815.061H519.048V814.553Z" fill="#D9D9D6"/>
<path d="M519.048 819.693H505.58V821.724H519.048V819.693Z" fill="#D9D9D6"/>
<path d="M519.048 826.335H505.58V826.843H519.048V826.335Z" fill="#D9D9D6"/>
<path d="M519.048 832.227H505.58V832.734H519.048V832.227Z" fill="#D9D9D6"/>
<path d="M519.048 838.117H505.58V838.625H519.048V838.117Z" fill="#D9D9D6"/>
<path d="M519.048 844.009H505.58V844.516H519.048V844.009Z" fill="#D9D9D6"/>
<path d="M519.048 849.9H505.58V850.408H519.048V849.9Z" fill="#D9D9D6"/>
<path d="M519.048 855.019H505.58V857.05H519.048V855.019Z" fill="#D9D9D6"/>
<path d="M519.048 861.662H505.58V862.169H519.048V861.662Z" fill="#D9D9D6"/>
<path d="M519.048 866.801H505.58V868.832H519.048V866.801Z" fill="#D9D9D6"/>
<path d="M519.048 873.444H505.58V873.951H519.048V873.444Z" fill="#D9D9D6"/>
<path d="M519.048 879.335H505.58V879.842H519.048V879.335Z" fill="#D9D9D6"/>
<path d="M519.048 885.226H505.58V885.734H519.048V885.226Z" fill="#D9D9D6"/>
<path d="M519.048 891.117H505.58V891.625H519.048V891.117Z" fill="#D9D9D6"/>
<path d="M519.048 897.008H505.58V897.515H519.048V897.008Z" fill="#D9D9D6"/>
<path d="M519.048 902.899H505.58V903.407H519.048V902.899Z" fill="#D9D9D6"/>
<path d="M519.048 908.79H505.58V909.298H519.048V908.79Z" fill="#D9D9D6"/>
<path d="M519.048 914.681H505.58V915.189H519.048V914.681Z" fill="#D9D9D6"/>
<path d="M519.048 919.8H505.58V921.831H519.048V919.8Z" fill="#D9D9D6"/>
<path d="M519.048 926.443H505.58V926.95H519.048V926.443Z" fill="#D9D9D6"/>
<path d="M519.048 932.334H505.58V932.841H519.048V932.334Z" fill="#D9D9D6"/>
<path d="M519.048 938.225H505.58V938.733H519.048V938.225Z" fill="#D9D9D6"/>
<path d="M519.048 944.116H505.58V944.624H519.048V944.116Z" fill="#D9D9D6"/>
<path d="M519.048 950.007H505.58V950.515H519.048V950.007Z" fill="#D9D9D6"/>
<path d="M519.048 955.898H505.58V956.406H519.048V955.898Z" fill="#D9D9D6"/>
<path d="M519.048 961.789H505.58V962.297H519.048V961.789Z" fill="#D9D9D6"/>
<path d="M519.048 967.68H505.58V968.188H519.048V967.68Z" fill="#D9D9D6"/>
<path d="M519.048 972.799H505.58V974.831H519.048V972.799Z" fill="#D9D9D6"/>
<path d="M519.048 979.462H505.58V979.97H519.048V979.462Z" fill="#D9D9D6"/>
<path d="M519.048 985.353H505.58V985.861H519.048V985.353Z" fill="#D9D9D6"/>
<path d="M519.048 991.244H505.58V991.752H519.048V991.244Z" fill="#D9D9D6"/>
<path d="M519.048 997.115H505.58V997.623H519.048V997.115Z" fill="#D9D9D6"/>
<path d="M519.048 1003.01H505.58V1003.51H519.048V1003.01Z" fill="#D9D9D6"/>
<path d="M519.048 1008.9H505.58V1009.41H519.048V1008.9Z" fill="#D9D9D6"/>
<path d="M519.048 596.28H505.58V598.311H519.048V596.28Z" fill="#D9D9D6"/>
<path d="M519.048 591.567H505.58V592.074H519.048V591.567Z" fill="#D9D9D6"/>
<path d="M519.048 586.082H505.58V586.59H519.048V586.082Z" fill="#D9D9D6"/>
<path d="M519.048 580.577H505.58V581.084H519.048V580.577Z" fill="#D9D9D6"/>
<path d="M519.048 575.092H505.58V575.6H519.048V575.092Z" fill="#D9D9D6"/>
<path d="M519.048 569.607H505.58V570.115H519.048V569.607Z" fill="#D9D9D6"/>
<path d="M519.048 564.122H505.58V564.63H519.048V564.122Z" fill="#D9D9D6"/>
<path d="M519.048 558.617H505.58V559.125H519.048V558.617Z" fill="#D9D9D6"/>
<path d="M519.048 552.381H505.58V554.412H519.048V552.381Z" fill="#D9D9D6"/>
<path d="M519.048 547.648H505.58V548.156H519.048V547.648Z" fill="#D9D9D6"/>
<path d="M519.048 541.391H505.58V543.423H519.048V541.391Z" fill="#D9D9D6"/>
<path d="M519.048 536.658H505.58V537.166H519.048V536.658Z" fill="#D9D9D6"/>
<path d="M519.048 531.173H505.58V531.681H519.048V531.173Z" fill="#D9D9D6"/>
<path d="M519.048 525.689H505.58V526.196H519.048V525.689Z" fill="#D9D9D6"/>
<path d="M519.048 520.204H505.58V520.711H519.048V520.204Z" fill="#D9D9D6"/>
<path d="M519.048 514.699H505.58V515.206H519.048V514.699Z" fill="#D9D9D6"/>
<path d="M519.048 509.214H505.58V509.722H519.048V509.214Z" fill="#D9D9D6"/>
<path d="M519.048 503.729H505.58V504.237H519.048V503.729Z" fill="#D9D9D6"/>
<path d="M519.048 498.244H505.58V498.752H519.048V498.244Z" fill="#D9D9D6"/>
<path d="M519.048 492.739H505.58V493.247H519.048V492.739Z" fill="#D9D9D6"/>
<path d="M519.048 486.503H505.58V488.534H519.048V486.503Z" fill="#D9D9D6"/>
<path d="M519.048 481.77H505.58V482.277H519.048V481.77Z" fill="#D9D9D6"/>
<path d="M519.048 476.285H505.58V476.793H519.048V476.285Z" fill="#D9D9D6"/>
<path d="M519.048 470.78H505.58V471.288H519.048V470.78Z" fill="#D9D9D6"/>
<path d="M519.048 465.295H505.58V465.803H519.048V465.295Z" fill="#D9D9D6"/>
<path d="M519.048 459.81H505.58V460.318H519.048V459.81Z" fill="#D9D9D6"/>
<path d="M519.048 454.326H505.58V454.833H519.048V454.326Z" fill="#D9D9D6"/>
<path d="M519.048 448.82H505.58V449.328H519.048V448.82Z" fill="#D9D9D6"/>
<path d="M519.048 443.336H505.58V443.843H519.048V443.336Z" fill="#D9D9D6"/>
<path d="M519.048 437.079H505.58V439.11H519.048V437.079Z" fill="#D9D9D6"/>
<path d="M519.048 432.366H505.58V432.874H519.048V432.366Z" fill="#D9D9D6"/>
<path d="M519.048 426.881H505.58V427.389H519.048V426.881Z" fill="#D9D9D6"/>
<path d="M519.048 421.376H505.58V421.884H519.048V421.376Z" fill="#D9D9D6"/>
<path d="M519.048 415.891H505.58V416.399H519.048V415.891Z" fill="#D9D9D6"/>
<path d="M519.048 410.407H505.58V410.914H519.048V410.407Z" fill="#D9D9D6"/>
<path d="M519.048 404.922H505.58V405.43H519.048V404.922Z" fill="#D9D9D6"/>
<path d="M519.048 399.417H505.58V399.925H519.048V399.417Z" fill="#D9D9D6"/>
<path d="M519.048 393.932H505.58V394.44H519.048V393.932Z" fill="#D9D9D6"/>
<path d="M545.152 1020.94C544.725 1020.94 544.4 1020.6 544.4 1020.17C544.4 926.321 544.583 811.689 544.786 700.836C544.969 589.982 545.172 475.351 545.172 381.5C545.172 381.073 545.518 380.728 545.924 380.728C546.33 380.728 546.676 381.073 546.676 381.5C546.676 475.351 546.493 589.982 546.29 700.856C546.107 811.709 545.904 926.341 545.904 1020.19C545.904 1020.62 545.558 1020.96 545.152 1020.96V1020.94Z" fill="#307FE2"/>
<path d="M545.15 536.455C544.906 536.455 544.683 536.353 544.541 536.15L473.97 440.756C473.726 440.41 473.787 439.943 474.132 439.699C474.478 439.455 474.945 439.516 475.189 439.862L545.759 535.256C546.003 535.602 545.942 536.069 545.597 536.313C545.455 536.414 545.292 536.455 545.15 536.455Z" fill="#307FE2"/>
<path d="M545.15 485.67C544.906 485.67 544.683 485.568 544.541 485.365L473.97 389.971C473.726 389.625 473.787 389.158 474.132 388.914C474.478 388.671 474.945 388.732 475.189 389.077L545.759 484.471C546.003 484.817 545.942 485.284 545.597 485.528C545.455 485.629 545.292 485.67 545.15 485.67Z" fill="#307FE2"/>
<path d="M545.15 590.287C544.906 590.287 544.683 590.185 544.541 589.982L473.97 494.588C473.726 494.242 473.787 493.775 474.132 493.531C474.478 493.287 474.945 493.348 475.189 493.694L545.759 589.088C546.003 589.434 545.942 589.901 545.597 590.145C545.455 590.246 545.292 590.287 545.15 590.287Z" fill="#307FE2"/>
<path d="M545.15 644.119C544.906 644.119 544.683 644.017 544.541 643.814L473.97 548.42C473.726 548.074 473.787 547.607 474.132 547.363C474.478 547.12 474.945 547.181 475.189 547.526L545.759 642.92C546.003 643.266 545.942 643.733 545.597 643.977C545.455 644.078 545.292 644.119 545.15 644.119Z" fill="#307FE2"/>
<path d="M545.15 697.951C544.906 697.951 544.683 697.849 544.541 697.646L473.97 602.252C473.726 601.906 473.787 601.439 474.132 601.195C474.478 600.952 474.945 601.012 475.189 601.358L545.759 696.752C546.003 697.098 545.942 697.565 545.597 697.809C545.455 697.91 545.292 697.951 545.15 697.951Z" fill="#307FE2"/>
<path d="M545.15 751.783C544.906 751.783 544.683 751.681 544.541 751.478L473.97 656.084C473.726 655.738 473.787 655.271 474.132 655.027C474.478 654.784 474.945 654.845 475.189 655.19L545.759 750.584C546.003 750.93 545.942 751.397 545.597 751.641C545.455 751.742 545.292 751.783 545.15 751.783Z" fill="#307FE2"/>
<path d="M545.15 805.615C544.906 805.615 544.683 805.513 544.541 805.31L473.97 709.916C473.726 709.57 473.787 709.103 474.132 708.859C474.478 708.616 474.945 708.676 475.189 709.022L545.759 804.416C546.003 804.762 545.942 805.229 545.597 805.473C545.455 805.574 545.292 805.615 545.15 805.615Z" fill="#307FE2"/>
<path d="M545.15 859.447C544.906 859.447 544.683 859.345 544.541 859.142L473.97 763.748C473.726 763.403 473.787 762.935 474.132 762.692C474.478 762.448 474.945 762.509 475.189 762.854L545.759 858.249C546.003 858.594 545.942 859.061 545.597 859.305C545.455 859.406 545.292 859.447 545.15 859.447Z" fill="#307FE2"/>
<path d="M545.15 913.279C544.906 913.279 544.683 913.178 544.541 912.975L473.97 817.58C473.726 817.235 473.787 816.767 474.132 816.524C474.478 816.28 474.945 816.341 475.189 816.686L545.759 912.081C546.003 912.426 545.942 912.893 545.597 913.137C545.455 913.239 545.292 913.279 545.15 913.279Z" fill="#307FE2"/>
<path d="M544.403 963.739C544.179 963.739 543.935 963.638 543.793 963.434L473.954 871.412C473.71 871.067 473.771 870.599 474.096 870.335C474.441 870.092 474.908 870.153 475.173 870.478L545.012 962.5C545.256 962.845 545.195 963.312 544.87 963.577C544.728 963.678 544.565 963.739 544.403 963.739Z" fill="#307FE2"/>
<path d="M545.152 1020.94H473.931C473.505 1020.94 473.18 1020.6 473.18 1020.17V383.694C473.18 383.267 473.525 382.922 473.931 382.922C474.338 382.922 474.683 383.267 474.683 383.694V924.046C474.886 924.066 475.069 924.167 475.191 924.35L545.762 1019.74C545.924 1019.97 545.965 1020.27 545.823 1020.54C545.701 1020.8 545.437 1020.96 545.152 1020.96V1020.94ZM474.683 1019.42H543.629L474.683 926.219V1019.42Z" fill="#307FE2"/>
<path d="M473.909 529.04C473.747 529.04 473.584 529 473.462 528.898C473.117 528.654 473.056 528.167 473.3 527.842L544.907 432.183C545.15 431.838 545.638 431.777 545.963 432.021C546.308 432.265 546.369 432.752 546.126 433.077L474.519 528.736C474.377 528.939 474.133 529.04 473.909 529.04Z" fill="#307FE2"/>
<path d="M473.909 477.463C473.747 477.463 473.605 477.423 473.462 477.321C473.117 477.077 473.056 476.59 473.3 476.265L543.871 379.408C544.114 379.062 544.602 379.001 544.927 379.245C545.272 379.489 545.333 379.977 545.09 380.302L474.519 477.159C474.377 477.362 474.133 477.463 473.909 477.463Z" fill="#307FE2"/>
<path d="M473.909 583.685C473.747 583.685 473.605 583.644 473.462 583.543C473.117 583.299 473.056 582.812 473.3 582.487L543.871 485.629C544.114 485.284 544.602 485.223 544.927 485.467C545.272 485.711 545.333 486.198 545.09 486.523L474.519 583.38C474.377 583.583 474.133 583.685 473.909 583.685Z" fill="#307FE2"/>
<path d="M473.909 638.35C473.747 638.35 473.605 638.309 473.462 638.208C473.117 637.964 473.056 637.476 473.3 637.151L544.907 538.872C545.15 538.527 545.638 538.466 545.963 538.71C546.308 538.954 546.369 539.441 546.126 539.766L474.519 638.045C474.377 638.248 474.133 638.35 473.909 638.35Z" fill="#307FE2"/>
<path d="M473.909 692.995C473.747 692.995 473.605 692.954 473.462 692.853C473.117 692.609 473.056 692.121 473.3 691.796L543.871 594.939C544.114 594.594 544.602 594.512 544.927 594.777C545.272 595.02 545.333 595.508 545.09 595.833L474.519 692.69C474.377 692.893 474.133 692.995 473.909 692.995Z" fill="#307FE2"/>
<path d="M473.909 747.66C473.747 747.66 473.605 747.619 473.462 747.517C473.117 747.274 473.056 746.786 473.3 746.461L543.871 649.604C544.114 649.259 544.602 649.177 544.927 649.441C545.272 649.685 545.333 650.173 545.09 650.498L474.519 747.355C474.377 747.558 474.133 747.66 473.909 747.66Z" fill="#307FE2"/>
<path d="M473.909 802.324C473.747 802.324 473.605 802.284 473.462 802.182C473.117 801.938 473.056 801.451 473.3 801.126L543.871 704.269C544.114 703.923 544.602 703.863 544.927 704.106C545.272 704.35 545.333 704.838 545.09 705.163L474.519 802.02C474.377 802.223 474.133 802.324 473.909 802.324Z" fill="#307FE2"/>
<path d="M473.909 856.969C473.747 856.969 473.605 856.928 473.462 856.827C473.117 856.583 473.056 856.095 473.3 855.77L543.871 758.913C544.114 758.568 544.602 758.487 544.927 758.751C545.272 758.995 545.333 759.482 545.09 759.807L474.519 856.664C474.377 856.867 474.133 856.969 473.909 856.969Z" fill="#307FE2"/>
<path d="M473.909 911.634C473.747 911.634 473.605 911.593 473.462 911.492C473.117 911.248 473.056 910.761 473.3 910.436L543.871 813.578C544.114 813.233 544.602 813.152 544.927 813.416C545.272 813.66 545.333 814.147 545.09 814.472L474.519 911.329C474.377 911.533 474.133 911.634 473.909 911.634Z" fill="#307FE2"/>
<path d="M473.909 966.279C473.747 966.279 473.605 966.238 473.462 966.136C473.117 965.893 473.056 965.405 473.3 965.08L543.871 868.223C544.114 867.878 544.602 867.796 544.927 868.06C545.272 868.304 545.333 868.792 545.09 869.117L474.519 965.974C474.377 966.177 474.133 966.279 473.909 966.279Z" fill="#307FE2"/>
<path d="M473.909 1020.94C473.747 1020.94 473.605 1020.9 473.462 1020.8C473.117 1020.56 473.056 1020.07 473.3 1019.74L543.871 922.888C544.114 922.542 544.602 922.461 544.927 922.725C545.272 922.969 545.333 923.457 545.09 923.782L474.519 1020.64C474.377 1020.84 474.133 1020.94 473.909 1020.94Z" fill="#307FE2"/>
<path d="M518.595 296.928L517.254 295.404L564.732 254.253H565.118C636.888 254.253 711.217 254.375 783.128 254.497C855.019 254.619 929.369 254.74 1001.14 254.74V256.772C929.369 256.772 855.04 256.65 783.128 256.528C711.359 256.406 637.152 256.284 565.524 256.284L518.635 296.928H518.595Z" fill="#307FE2"/>
<path d="M540.001 295.95C540.011 295.974 539.993 296 539.968 295.999C539.701 295.985 539.439 295.867 539.249 295.663C538.883 295.246 538.924 294.632 539.35 294.255L584.738 255.33C585.125 254.993 585.714 254.993 586.1 255.33L623.698 289.562C625.341 291.057 627.858 291.036 629.475 289.512L665.737 255.33C666.123 254.973 666.713 254.953 667.119 255.29L707.159 289.728C708.803 291.142 711.248 291.091 712.832 289.611L749.541 255.31C749.927 254.953 750.517 254.933 750.923 255.29L790.673 289.739C792.3 291.15 794.726 291.12 796.318 289.669L834.056 255.29C834.443 254.953 835.032 254.933 835.418 255.27L875.779 289.707C877.435 291.12 879.89 291.054 881.467 289.554L917.494 255.29C917.881 254.913 918.49 254.913 918.897 255.27L957.247 289.603C958.876 291.061 961.346 291.045 962.956 289.566L1000.3 255.27C1000.69 254.913 1001.28 254.913 1001.66 255.25L1045.65 292.788C1046.08 293.145 1046.12 293.779 1045.75 294.196C1045.39 294.612 1044.73 294.652 1044.33 294.295L1003.9 259.795C1002.26 258.4 999.845 258.444 998.263 259.897L960.829 294.275C960.443 294.632 959.833 294.632 959.447 294.275L921.168 259.989C919.518 258.511 917.01 258.548 915.404 260.074L879.444 294.255C879.058 294.612 878.469 294.632 878.062 294.295L837.618 259.784C835.989 258.394 833.581 258.433 831.998 259.875L794.218 294.275C793.831 294.612 793.242 294.632 792.856 294.275L753.143 259.857C751.5 258.433 749.047 258.479 747.458 259.964L710.759 294.255C710.373 294.612 709.784 294.632 709.377 294.275L669.35 259.848C667.701 258.429 665.247 258.485 663.664 259.978L627.301 294.255C626.915 294.632 626.305 294.632 625.898 294.255L588.125 259.861C586.539 258.417 584.125 258.381 582.497 259.777L540.651 295.663C540.482 295.81 540.26 295.889 540.034 295.9C540.009 295.901 539.991 295.927 540.001 295.95Z" fill="#307FE2"/>
<path d="M345.029 261.505H288.33C283.636 261.505 279.83 265.31 279.83 270.005V339.766C279.83 344.46 283.636 348.266 288.33 348.266H345.029C349.724 348.266 353.529 344.46 353.529 339.766V270.005C353.529 265.31 349.724 261.505 345.029 261.505Z" fill="#0047DD"/>
<path d="M303.597 348.266C303.312 348.266 303.068 328.846 303.068 304.896C303.068 280.945 303.312 261.505 303.597 261.505C303.881 261.505 304.125 280.925 304.125 304.896C304.125 328.866 303.881 348.266 303.597 348.266Z" fill="#D9D9D6"/>
<path d="M331.932 348.266C331.648 348.266 331.404 328.846 331.404 304.896C331.404 280.945 331.648 261.505 331.932 261.505C332.217 261.505 332.461 280.925 332.461 304.896C332.461 328.866 332.217 348.266 331.932 348.266Z" fill="#D9D9D6"/>
<path d="M1046 292C1046 294.209 1044.21 296 1042 296H273C270.791 296 269 294.209 269 292C269 289.791 270.791 288 273 288H1042C1044.21 288 1046 289.791 1046 292ZM270.022 292C270.022 293.831 271.506 295.315 273.337 295.315H1041.66C1043.49 295.315 1044.98 293.831 1044.98 292C1044.98 290.169 1043.49 288.685 1041.66 288.685H273.337C271.506 288.685 270.022 290.169 270.022 292Z" fill="#307FE2"/>
<path d="M531.924 296.242C531.924 296.242 531.72 296.222 531.639 296.161L490.747 268.554C490.524 268.392 490.442 268.087 490.605 267.843C490.768 267.62 491.072 267.559 491.316 267.701L532.208 295.308C532.432 295.47 532.492 295.775 532.35 296.019C532.249 296.161 532.086 296.242 531.924 296.242Z" fill="#307FE2"/>
<path d="M531.929 296.059C531.686 296.059 531.462 295.876 531.422 295.612L527.846 267.741L486.975 295.978C486.812 296.1 486.589 296.1 486.426 295.978C486.264 295.876 486.162 295.673 486.182 295.47L501.174 178.116C501.174 178.116 501.174 178.096 501.174 178.075L503.043 163.388C503.043 163.388 503.043 163.388 503.043 163.368L507.045 132.024C507.085 131.78 507.289 131.577 507.553 131.577H510.965C511.229 131.577 511.433 131.76 511.473 132.024L513.261 146.02C513.261 146.02 513.261 146.061 513.261 146.081L517.385 178.218C517.385 178.218 517.385 178.238 517.385 178.258L521.143 207.49C521.143 207.49 521.143 207.49 521.143 207.51L523.174 223.396C523.174 223.396 523.235 223.498 523.235 223.538C523.276 223.64 523.255 223.762 523.235 223.843L532.417 295.47C532.458 295.754 532.254 295.998 531.97 296.039C531.95 296.039 531.929 296.039 531.909 296.039L531.929 296.059ZM490.651 268.493L487.34 294.495L526.16 267.701L490.672 268.513L490.651 268.493ZM524.677 242.979L492.094 267.457L527.704 266.644L524.657 242.979H524.677ZM493.942 242.735L490.834 267.152L523.316 242.735H493.942ZM495.283 241.719H524.515L522.321 224.594L495.303 241.719H495.283ZM496.299 224.208L494.125 241.252L521.021 224.208H496.319H496.299ZM497.639 223.193H522.138L520.249 208.445L497.639 223.193ZM498.371 208.1L496.502 222.726L518.949 208.1H498.371ZM499.529 207.084H520.066L518.299 193.352L499.529 207.084ZM500.3 192.945L498.574 206.535L517.161 192.945H500.321H500.3ZM501.316 191.93H518.116L516.491 179.315L501.316 191.93ZM502.108 178.725L500.504 191.28L515.495 178.827L502.108 178.705V178.725ZM502.799 177.71L516.308 177.832L514.622 164.729L502.799 177.71ZM503.977 163.998L502.352 176.674L513.83 164.059L503.977 163.998ZM504.363 162.982L514.398 163.043L512.448 147.787L504.384 162.982H504.363ZM506.171 146.833L504.384 160.788L511.879 146.67L506.171 146.833ZM507.979 132.633L506.293 145.817L512.164 145.654L510.498 132.633H507.979Z" fill="#307FE2"/>
<path d="M515.047 164.16C514.864 164.16 514.681 164.059 514.6 163.896L505.398 146.548C505.276 146.304 505.357 146 505.601 145.857C505.845 145.736 506.149 145.817 506.292 146.061L515.494 163.409C515.616 163.653 515.534 163.957 515.291 164.099C515.209 164.14 515.128 164.16 515.047 164.16Z" fill="#307FE2"/>
<path d="M516.937 178.888C516.795 178.888 516.653 178.827 516.572 178.725L503.246 164.079C503.063 163.876 503.063 163.551 503.286 163.368C503.489 163.185 503.815 163.185 503.997 163.409L517.323 178.055C517.506 178.258 517.506 178.583 517.283 178.766C517.181 178.847 517.059 178.908 516.937 178.908V178.888Z" fill="#307FE2"/>
<path d="M518.683 193.108C518.561 193.108 518.46 193.067 518.358 192.986L501.376 178.888C501.152 178.705 501.132 178.38 501.315 178.177C501.498 177.953 501.823 177.933 502.026 178.116L519.008 192.214C519.232 192.397 519.252 192.722 519.069 192.925C518.968 193.047 518.825 193.108 518.683 193.108Z" fill="#307FE2"/>
<path d="M520.633 208.262C520.531 208.262 520.429 208.221 520.328 208.16L499.608 193.006C499.384 192.843 499.323 192.518 499.506 192.295C499.669 192.072 499.994 192.011 500.217 192.193L520.937 207.348C521.161 207.51 521.222 207.835 521.039 208.059C520.937 208.201 520.795 208.262 520.633 208.262Z" fill="#307FE2"/>
<path d="M522.667 224.391C522.667 224.391 522.484 224.371 522.383 224.31L497.661 208.201C497.417 208.038 497.356 207.734 497.518 207.49C497.681 207.267 497.986 207.185 498.229 207.348L522.952 223.457C523.195 223.619 523.256 223.924 523.094 224.168C522.992 224.31 522.83 224.391 522.667 224.391Z" fill="#307FE2"/>
<path d="M525.062 242.897C525.062 242.897 524.879 242.877 524.798 242.816L495.566 224.29C495.322 224.147 495.261 223.822 495.404 223.599C495.546 223.355 495.871 223.294 496.094 223.436L525.326 241.963C525.57 242.105 525.631 242.43 525.489 242.653C525.387 242.816 525.225 242.897 525.062 242.897Z" fill="#307FE2"/>
<path d="M527.807 267.64C527.705 267.64 527.604 267.599 527.502 267.538L493.456 242.796C493.232 242.633 493.171 242.308 493.334 242.085C493.497 241.861 493.822 241.8 494.045 241.963L528.091 266.705C528.315 266.868 528.376 267.193 528.213 267.416C528.112 267.559 527.969 267.619 527.807 267.619V267.64Z" fill="#307FE2"/>
<path d="M509.299 332.015C509.014 332.015 508.791 331.791 508.791 331.507V129.748C508.791 129.464 509.014 129.241 509.299 129.241C509.583 129.241 509.807 129.464 509.807 129.748V331.507C509.807 331.791 509.583 332.015 509.299 332.015Z" fill="#307FE2"/>
<path d="M500.787 295.935H480.6V367.122H500.787V295.935Z" fill="#307FE2"/>
<path d="M545.411 330.998H497.6C495.252 330.998 493.35 332.9 493.35 335.247V362.872C493.35 365.219 495.252 367.122 497.6 367.122H545.411C547.759 367.122 549.661 365.219 549.661 362.872V335.247C549.661 332.9 547.759 330.998 545.411 330.998Z" fill="#307FE2"/>
<path d="M491.224 338.435H472.1C469.752 338.435 467.85 340.338 467.85 342.685V362.872C467.85 365.219 469.752 367.122 472.1 367.122H491.224C493.572 367.122 495.474 365.219 495.474 362.872V342.685C495.474 340.338 493.572 338.435 491.224 338.435Z" fill="#307FE2"/>
<path d="M548.531 378.432H471.684C468.043 378.432 465.092 381.384 465.092 385.024C465.092 388.665 468.043 391.616 471.684 391.616H548.531C552.172 391.616 555.123 388.665 555.123 385.024C555.123 381.384 552.172 378.432 548.531 378.432Z" fill="#307FE2"/>
<path d="M542.224 367.122H476.35C474.589 367.122 473.162 368.549 473.162 370.31C473.162 372.07 474.589 373.497 476.35 373.497H542.224C543.984 373.497 545.411 372.07 545.411 370.31C545.411 368.549 543.984 367.122 542.224 367.122Z" fill="#307FE2"/>
<path d="M539.036 372.435H479.537C477.777 372.435 476.35 373.862 476.35 375.622C476.35 377.382 477.777 378.809 479.537 378.809H539.036C540.797 378.809 542.224 377.382 542.224 375.622C542.224 373.862 540.797 372.435 539.036 372.435Z" fill="#307FE2"/>
<path d="M545.515 563.493H473.867V567.555H545.515V563.493Z" fill="#307FE2"/>
<path d="M545.129 722.206H473.867V726.269H545.129V722.206Z" fill="#307FE2"/>
<path d="M545.129 889.349H473.867V893.412H545.129V889.349Z" fill="#307FE2"/>
<path d="M285.528 274L285 273.126L509.869 131L510.092 131.083L866.825 255.002L866.5 256L509.991 132.144L285.528 274Z" fill="#307FE2"/>
<path d="M487 288.742C487 288.884 486.884 289 486.741 289C486.599 289 486.483 288.884 486.483 288.742V278.755C486.483 276.408 484.58 274.505 482.233 274.505H277.767C275.42 274.505 273.517 276.408 273.517 278.755V288.742C273.517 288.884 273.401 289 273.259 289C273.116 289 273 288.884 273 288.742V278.25C273 275.903 274.903 274 277.25 274H482.75C485.097 274 487 275.903 487 278.25V288.742Z" fill="#307FE2"/>
<path d="M285.106 273.936H284.598V288.359H285.106V273.936Z" fill="#307FE2"/>
<path d="M294.572 273.936H294.064V288.359H294.572V273.936Z" fill="#307FE2"/>
<path d="M304.055 273.936H303.547V288.359H304.055V273.936Z" fill="#307FE2"/>
<path d="M313.527 273.936H313.02V288.359H313.527V273.936Z" fill="#307FE2"/>
<path d="M322.994 273.936H322.486V288.359H322.994V273.936Z" fill="#307FE2"/>
<path d="M332.461 273.936H331.953V288.359H332.461V273.936Z" fill="#307FE2"/>
<path d="M341.926 273.936H341.418V288.359H341.926V273.936Z" fill="#307FE2"/>
<path d="M351.391 273.936H350.883V288.359H351.391V273.936Z" fill="#307FE2"/>
<path d="M360.859 273.936H360.352V288.359H360.859V273.936Z" fill="#307FE2"/>
<path d="M370.326 273.936H369.818V288.359H370.326V273.936Z" fill="#307FE2"/>
<path d="M379.789 273.936H379.281V288.359H379.789V273.936Z" fill="#307FE2"/>
<path d="M389.258 273.936H388.75V288.359H389.258V273.936Z" fill="#307FE2"/>
<path d="M398.725 273.936H398.217V288.359H398.725V273.936Z" fill="#307FE2"/>
<path d="M408.188 273.936H407.68V288.359H408.188V273.936Z" fill="#307FE2"/>
<path d="M417.654 273.936H417.146V288.359H417.654V273.936Z" fill="#307FE2"/>
<path d="M427.119 273.936H426.611V288.359H427.119V273.936Z" fill="#307FE2"/>
<path d="M436.609 273.936H436.102V288.359H436.609V273.936Z" fill="#307FE2"/>
<path d="M446.074 273.936H445.566V288.359H446.074V273.936Z" fill="#307FE2"/>
<path d="M455.543 273.936H455.035V288.359H455.543V273.936Z" fill="#307FE2"/>
<path d="M465.01 273.936H464.502V288.359H465.01V273.936Z" fill="#307FE2"/>
<path d="M474.473 273.936H473.965V288.359H474.473V273.936Z" fill="#307FE2"/>
<path d="M429 288H418C415.791 288 414 289.791 414 292C414 294.209 415.791 296 418 296H429C431.209 296 433 294.209 433 292C433 289.791 431.209 288 429 288Z" fill="#307FE2"/>
<path d="M470 288H459C456.791 288 455 289.791 455 292C455 294.209 456.791 296 459 296H470C472.209 296 474 294.209 474 292C474 289.791 472.209 288 470 288Z" fill="#307FE2"/>
<path d="M578 288H566C563.791 288 562 289.791 562 292C562 294.209 563.791 296 566 296H578C580.209 296 582 294.209 582 292C582 289.791 580.209 288 578 288Z" fill="#307FE2"/>
<path d="M633 288H621C618.791 288 617 289.791 617 292C617 294.209 618.791 296 621 296H633C635.209 296 637 294.209 637 292C637 289.791 635.209 288 633 288Z" fill="#307FE2"/>
<path d="M688 288H676C673.791 288 672 289.791 672 292C672 294.209 673.791 296 676 296H688C690.209 296 692 294.209 692 292C692 289.791 690.209 288 688 288Z" fill="#307FE2"/>
<path d="M743 288H731C728.791 288 727 289.791 727 292C727 294.209 728.791 296 731 296H743C745.209 296 747 294.209 747 292C747 289.791 745.209 288 743 288Z" fill="#307FE2"/>
<path d="M798 288H786C783.791 288 782 289.791 782 292C782 294.209 783.791 296 786 296H798C800.209 296 802 294.209 802 292C802 289.791 800.209 288 798 288Z" fill="#307FE2"/>
<path d="M853 288H841C838.791 288 837 289.791 837 292C837 294.209 838.791 296 841 296H853C855.209 296 857 294.209 857 292C857 289.791 855.209 288 853 288Z" fill="#307FE2"/>
<path d="M908 288H896C893.791 288 892 289.791 892 292C892 294.209 893.791 296 896 296H908C910.209 296 912 294.209 912 292C912 289.791 910.209 288 908 288Z" fill="#307FE2"/>
<path d="M963 288H951C948.791 288 947 289.791 947 292C947 294.209 948.791 296 951 296H963C965.209 296 967 294.209 967 292C967 289.791 965.209 288 963 288Z" fill="#307FE2"/>
<path d="M1018 288H1006C1003.79 288 1002 289.791 1002 292C1002 294.209 1003.79 296 1006 296H1018C1020.21 296 1022 294.209 1022 292C1022 289.791 1020.21 288 1018 288Z" fill="#307FE2"/>
<path d="M387 288H376C373.791 288 372 289.791 372 292C372 294.209 373.791 296 376 296H387C389.209 296 391 294.209 391 292C391 289.791 389.209 288 387 288Z" fill="#307FE2"/>
<path d="M345 288H334C331.791 288 330 289.791 330 292C330 294.209 331.791 296 334 296H345C347.209 296 349 294.209 349 292C349 289.791 347.209 288 345 288Z" fill="#307FE2"/>
<path d="M303 288H292C289.791 288 288 289.791 288 292C288 294.209 289.791 296 292 296H303C305.209 296 307 294.209 307 292C307 289.791 305.209 288 303 288Z" fill="#307FE2"/>
<path d="M507.256 131.545L310.355 273.868L310.969 274.718L507.87 132.394L507.256 131.545Z" fill="#307FE2"/>
<path d="M556.924 1014.32H459.373C454.679 1014.32 450.873 1018.13 450.873 1022.82V1036.68C450.873 1041.37 454.679 1045.18 459.373 1045.18H556.924C561.618 1045.18 565.424 1041.37 565.424 1036.68V1022.82C565.424 1018.13 561.618 1014.32 556.924 1014.32Z" fill="#E0E0E0"/>
<path d="M565.424 1025.78H450.873V1033.31H565.424V1025.78Z" fill="white"/>
<path d="M450.873 1025.78L453.94 1033.31H459.832L456.398 1025.78H450.873Z" fill="#307FE2"/>
<path d="M462.449 1025.78L465.537 1033.31H471.408L467.975 1025.78H462.449Z" fill="#307FE2"/>
<path d="M474.049 1025.78L477.116 1033.31H483.007L479.574 1025.78H474.049Z" fill="#307FE2"/>
<path d="M485.627 1025.78L488.715 1033.31H494.606L491.152 1025.78H485.627Z" fill="#307FE2"/>
<path d="M497.227 1025.78L500.294 1033.31H506.185L502.752 1025.78H497.227Z" fill="#307FE2"/>
<path d="M508.807 1025.78L511.894 1033.31H517.785L514.352 1025.78H508.807Z" fill="#307FE2"/>
<path d="M520.408 1025.78L523.476 1033.31H529.367L525.934 1025.78H520.408Z" fill="#307FE2"/>
<path d="M531.986 1025.78L535.074 1033.31H540.965L537.532 1025.78H531.986Z" fill="#307FE2"/>
<path d="M543.586 1025.78L546.653 1033.31H552.544L549.111 1025.78H543.586Z" fill="#307FE2"/>
<path d="M555.164 1025.78L558.252 1033.31H564.143L560.71 1025.78H555.164Z" fill="#307FE2"/>
<path d="M566.179 1025.88C566.179 1026.16 540.319 1026.41 508.426 1026.41C476.534 1026.41 450.674 1026.16 450.674 1025.88C450.674 1025.59 476.534 1025.35 508.426 1025.35C540.319 1025.35 566.179 1025.59 566.179 1025.88Z" fill="white"/>
<path d="M566.179 1033.74C566.179 1034.03 540.319 1034.27 508.426 1034.27C476.534 1034.27 450.674 1034.03 450.674 1033.74C450.674 1033.46 476.534 1033.21 508.426 1033.21C540.319 1033.21 566.179 1033.46 566.179 1033.74Z" fill="white"/>
<path d="M511.412 127H507.162C505.988 127 505.037 127.951 505.037 129.125V132.312C505.037 133.486 505.988 134.437 507.162 134.437H511.412C512.586 134.437 513.537 133.486 513.537 132.312V129.125C513.537 127.951 512.586 127 511.412 127Z" fill="#307FE2"/>
<path d="M1023.53 366.06H1022.47V432.996H1023.53V366.06Z" fill="#101010"/>
<path d="M1037.8 314.057C1042.22 314.057 1045.81 310.474 1045.81 306.054C1045.81 301.633 1042.22 298.05 1037.8 298.05C1033.38 298.05 1029.8 301.633 1029.8 306.054C1029.8 310.474 1033.38 314.057 1037.8 314.057Z" fill="#101010"/>
<path d="M1009 314.057C1013.42 314.057 1017 310.474 1017 306.054C1017 301.633 1013.42 298.05 1009 298.05C1004.58 298.05 1001 301.633 1001 306.054C1001 310.474 1004.58 314.057 1009 314.057Z" fill="#101010"/>
<path d="M994.253 305.261C997.091 305.261 999.392 302.96 999.392 300.122C999.392 297.283 997.091 294.982 994.253 294.982C991.414 294.982 989.113 297.283 989.113 300.122C989.113 302.96 991.414 305.261 994.253 305.261Z" fill="#101010"/>
<path d="M1012.25 345.321C1011.96 345.321 1011.72 337.317 1011.72 327.465C1011.72 317.612 1011.96 309.588 1012.25 309.588C1012.53 309.588 1012.78 317.592 1012.78 327.465C1012.78 337.337 1012.53 345.321 1012.25 345.321Z" fill="#101010"/>
<path d="M1034.55 345.321C1034.27 345.321 1034.03 337.317 1034.03 327.465C1034.03 317.612 1034.27 309.588 1034.55 309.588C1034.84 309.588 1035.08 317.592 1035.08 327.465C1035.08 337.337 1034.84 345.321 1034.55 345.321Z" fill="#101010"/>
<path d="M1007.84 341.908C1007.84 342.395 1014.14 370.876 1014.14 370.876H1031.02L1037.15 341.908L1022.51 335.773L1007.86 341.908H1007.84Z" fill="#101010"/>
<path d="M1044.78 292.951H1001.06C998.713 292.951 996.811 294.854 996.811 297.201V301.803C996.811 304.151 998.713 306.053 1001.06 306.053H1044.78C1047.13 306.053 1049.03 304.151 1049.03 301.803V297.201C1049.03 294.854 1047.13 292.951 1044.78 292.951Z" fill="#307FE2"/>
<path d="M536.808 295.935C536.808 295.935 545.41 297.15 545.41 307.012V330.998H498.66L499.25 296.141L536.808 295.935Z" fill="#EBEBEB"/>
<path d="M545.903 367.28C545.903 367.564 529.286 367.808 508.769 367.808C488.252 367.808 471.635 367.564 471.635 367.28C471.635 366.996 488.252 366.752 508.769 366.752C529.286 366.752 545.903 366.996 545.903 367.28Z" fill="#D9D9D6"/>
<path d="M545.898 372.968C545.898 373.252 529.566 373.496 509.414 373.496C489.263 373.496 472.91 373.252 472.91 372.968C472.91 372.684 489.243 372.44 509.414 372.44C529.586 372.44 545.898 372.684 545.898 372.968Z" fill="#D9D9D6"/>
<path d="M545.898 378.432C545.898 378.717 529.566 378.961 509.414 378.961C489.263 378.961 472.91 378.717 472.91 378.432C472.91 378.148 489.243 377.904 509.414 377.904C529.586 377.904 545.898 378.148 545.898 378.432Z" fill="#D9D9D6"/>
<path d="M880.5 249H861.5C859.567 249 858 250.567 858 252.5C858 254.433 859.567 256 861.5 256H880.5C882.433 256 884 254.433 884 252.5C884 250.567 882.433 249 880.5 249Z" fill="#307FE2"/>
<path d="M720 920C720 915.582 723.582 912 728 912H772C776.418 912 780 915.582 780 920V1045H720V920Z" fill="white"/>
<path d="M916 1017C916 1012.58 919.582 1009 924 1009H968C972.418 1009 976 1012.58 976 1017V1045H916V1017Z" fill="white"/>
<path d="M1040 1017C1040 1012.58 1043.58 1009 1048 1009H1092C1096.42 1009 1100 1012.58 1100 1017V1045H1040V1017Z" fill="white"/>
<path d="M1164 1017C1164 1012.58 1167.58 1009 1172 1009H1216C1220.42 1009 1224 1012.58 1224 1017V1045H1164V1017Z" fill="white"/>
</g>
<defs>
<clipPath id="clip0_627_6747">
<rect width="1920" height="1044" fill="white"/>
</clipPath>
</defs>
</svg>
