<svg xmlns="http://www.w3.org/2000/svg" width="1920" height="676" viewBox="0 0 1920 676" fill="none">
    <path opacity="0.2"
        d="M-497.478 -534.621C-514.065 -561.602 -506.928 -588.156 -475.92 -614.085C-444.977 -640.037 -402.779 -663.872 -349.414 -685.549C-296.049 -707.226 -244.259 -725.516 -194.132 -740.378C-144.006 -755.241 -108.284 -765.448 -86.9263 -770.912C-84.3801 -771.684 -82.1632 -772.355 -80.2569 -772.772C-47.9628 -781.789 1.3907 -794.076 67.7386 -809.655C134.11 -825.299 207.643 -840.287 288.474 -854.79C369.217 -869.252 447.11 -878.808 522.107 -883.329C597.062 -887.939 659.488 -883.713 709.344 -870.739C759.2 -857.766 786.557 -831.62 791.35 -792.325C791.177 -750.196 760.205 -695.444 698.5 -628.047C636.795 -560.649 559.966 -488.633 468.165 -412.018C376.3 -335.426 285.397 -262.146 195.439 -192.332C128.535 -139.294 70.3053 -92.299 20.5334 -51.352C-29.1736 -10.3816 -62.8038 21.0457 -80.3804 42.9954C-97.9571 64.945 -92.2969 73.9123 -63.488 69.9388C-0.92699 59.2231 67.3773 41.8563 141.272 17.8571C215.19 -6.207 282.391 -29.3052 342.858 -51.5907C406.39 -74.4634 475.427 -100.855 549.986 -130.613C669.993 -178.951 792.906 -224.351 918.748 -266.876C1044.66 -309.379 1158.98 -334.813 1261.82 -343.067C1343.86 -347.414 1394.09 -337.156 1412.62 -312.334C1431.13 -287.447 1430.82 -254.58 1411.63 -213.538C1392.43 -172.496 1367.82 -130.024 1337.84 -86.0344C1331.51 -76.3027 1325.29 -66.8952 1319.15 -57.6823C1314.05 -49.7755 1308.19 -40.5346 1301.49 -29.7652C1275.69 8.84669 1243.41 59.4743 1204.56 121.942C1165.71 184.409 1127.94 249.384 1091.29 316.953C1054.64 384.522 1027.08 445.317 1008.58 499.401C990.074 553.486 988.631 591.579 1004.18 613.657C1024 633.235 1057.4 636.092 1104.3 622.053C1151.27 608.038 1198.79 588.369 1246.91 563.137C1295.05 537.84 1329.98 518.575 1351.84 505.324C1353.87 504.365 1355.73 503.273 1357.23 502.129C1541.02 391.666 1722.54 268.476 1901.81 132.493C2081.02 -3.5138 2254.16 -139.129 2421.16 -274.375C2429.64 -280.488 2437.23 -281.87 2444.06 -278.629C2450.86 -275.323 2454.94 -269.919 2456.24 -262.288C2457.48 -254.68 2454.29 -247.19 2446.5 -239.733C2276.22 -101.638 2098.45 36.2728 1913.1 174.107C1727.81 311.964 1540.55 436.251 1351.5 547.1C1334.83 557.088 1309.1 571.519 1274.35 590.483C1239.63 609.382 1201.76 627.233 1160.65 643.925C1119.6 660.639 1081.11 670.808 1045.28 674.543C1009.39 678.254 982.607 669.788 964.884 649.275C943.871 620.13 941.932 575.711 958.938 515.974C975.944 456.236 1003.2 390.359 1040.66 318.254C1078.12 246.149 1117.14 177.455 1157.86 112.218C1198.58 46.9803 1232.3 -5.62057 1259.18 -45.6034C1268.26 -59.9812 1275.92 -71.7973 1282.07 -81.0103C1289.64 -92.567 1297.75 -105.027 1306.55 -118.409C1328.77 -148.645 1347.45 -178.61 1362.57 -208.237C1377.69 -237.865 1379.66 -261.655 1368.37 -279.655C1357.07 -297.654 1322.35 -304.2 1264.14 -299.316C1167.08 -291.263 1058.33 -267.059 937.815 -226.945C817.343 -186.743 698.2 -143.289 580.469 -96.4044C494.107 -62.3051 414.705 -32.5212 342.287 -7.11753C339.036 -6.01148 334.727 -4.40547 329.427 -2.27628C305.301 6.22096 269.279 18.2951 221.491 33.9925C173.638 49.6666 123.316 64.4594 70.3965 78.3247C17.4767 92.19 -28.7897 100.753 -68.4677 103.99C-108.146 107.228 -131.849 100.593 -139.666 84.1289C-145.099 67.3456 -130.457 40.6923 -95.717 4.10383C-60.9767 -32.4845 -13.5766 -75.814 46.5481 -125.861C106.673 -175.908 172.232 -229.28 243.226 -285.976C326.669 -351.902 407.445 -417.536 485.531 -482.815C563.617 -548.094 627.539 -607.753 677.363 -661.77C727.188 -715.787 751.788 -758.847 751.295 -790.904C747.957 -818.273 722.239 -835.059 674.224 -841.087C626.144 -847.138 565.748 -846.178 493.058 -838.274C420.281 -830.328 345.187 -818.969 267.775 -804.195C190.275 -789.38 120.54 -774.571 58.4177 -759.751C-3.663 -744.842 -48.2534 -733.999 -75.2467 -727.11C-88.4235 -723.844 -116.261 -716.233 -158.735 -704.342C-201.21 -692.451 -247.445 -678.028 -297.417 -661.136C-347.389 -644.244 -389.656 -626.575 -424.217 -608.13C-458.779 -589.685 -474.484 -572.771 -471.376 -557.476C-466.336 -545.951 -448.227 -538.828 -417.029 -535.953C-385.832 -533.078 -353.518 -532.509 -320.022 -534.225C-286.592 -535.963 -263.121 -538.113 -249.675 -540.698C-245.264 -541.975 -242.329 -543.633 -241.064 -545.74C-239.734 -547.825 -239.229 -550.058 -239.551 -552.439C-239.353 -554.635 -238.941 -556.609 -238.293 -558.425C-237.644 -560.241 -236.133 -561.602 -233.731 -562.792C-231.352 -563.917 -227.405 -564.921 -221.955 -565.827C-204.764 -565.978 -192.149 -562.132 -184.063 -554.42C-175.978 -546.707 -172.707 -538.227 -174.269 -529.133C-175.854 -519.974 -182.753 -513.37 -195.076 -509.214C-222.959 -501.473 -256.804 -494.472 -296.74 -488.255C-336.611 -482.016 -375.163 -481.521 -412.374 -486.835C-449.585 -492.15 -477.984 -507.992 -497.701 -534.408L-497.478 -534.621Z"
        fill="#2C3EB1" />
</svg>