<svg xmlns="http://www.w3.org/2000/svg" width="1920" height="1712" viewBox="0 0 1920 1712"
    fill="none">
    <path opacity="0.3"
        d="M-905.898 384.711C-924.079 355.136 -916.256 326.028 -882.266 297.605C-848.347 269.157 -802.091 243.029 -743.593 219.268C-685.096 195.507 -628.326 175.457 -573.378 159.165C-518.431 142.873 -479.274 131.685 -455.862 125.696C-453.071 124.849 -450.641 124.113 -448.551 123.657C-413.151 113.772 -359.051 100.303 -286.322 83.2261C-213.568 66.0776 -132.962 49.6482 -44.3578 33.7501C44.1502 17.8976 129.534 7.42229 211.744 2.4663C293.907 -2.58621 362.337 2.04621 416.988 16.2671C471.639 30.4879 501.627 59.1483 506.881 102.223C506.691 148.403 472.741 208.421 405.101 282.3C337.462 356.18 253.244 435.121 152.615 519.105C51.9144 603.063 -47.7304 683.391 -146.34 759.92C-219.679 818.058 -283.509 869.572 -338.067 914.458C-392.555 959.368 -429.419 993.818 -448.686 1017.88C-467.953 1041.94 -461.749 1051.77 -430.169 1047.41C-361.592 1035.67 -286.718 1016.63 -205.717 990.323C-124.69 963.944 -51.0257 938.625 15.256 914.196C84.8984 889.124 160.574 860.193 242.304 827.574C373.853 774.587 508.587 724.821 646.532 678.205C784.547 631.615 909.863 603.735 1022.59 594.687C1112.52 589.922 1167.59 601.167 1187.9 628.376C1208.19 655.657 1207.85 691.685 1186.81 736.674C1165.77 781.663 1138.8 828.22 1105.93 876.44C1098.99 887.107 1092.17 897.419 1085.44 907.518C1079.85 916.186 1073.43 926.315 1066.08 938.12C1037.81 980.446 1002.42 1035.94 959.83 1104.42C917.241 1172.89 875.837 1244.12 835.667 1318.18C795.496 1392.25 765.282 1458.89 744.999 1518.18C724.716 1577.46 723.135 1619.22 740.185 1643.42C761.905 1664.88 798.519 1668.02 849.932 1652.63C901.418 1637.26 953.509 1615.7 1006.25 1588.04C1059.02 1560.31 1097.31 1539.2 1121.28 1524.67C1123.5 1523.62 1125.53 1522.42 1127.19 1521.17C1328.65 1400.08 1527.62 1265.04 1724.14 1115.98C1920.58 966.896 2110.37 818.239 2293.43 669.985C2302.73 663.285 2311.05 661.77 2318.54 665.322C2325.99 668.946 2330.46 674.87 2331.89 683.235C2333.25 691.575 2329.75 699.786 2321.22 707.959C2134.55 859.335 1939.69 1010.51 1736.51 1161.6C1533.4 1312.72 1328.14 1448.95 1120.91 1570.46C1102.63 1581.41 1074.42 1597.23 1036.33 1618.02C998.271 1638.74 956.764 1658.3 911.698 1676.6C866.703 1694.92 824.51 1706.07 785.237 1710.16C745.893 1714.23 716.532 1704.95 697.104 1682.47C674.07 1650.52 671.945 1601.83 690.587 1536.34C709.228 1470.86 739.103 1398.65 780.166 1319.61C821.229 1240.57 864.007 1165.27 908.644 1093.76C953.281 1022.25 990.243 964.587 1019.7 920.759C1029.66 904.998 1038.06 892.046 1044.79 881.947C1053.09 869.279 1061.98 855.62 1071.63 840.952C1095.99 807.807 1116.46 774.961 1133.04 742.484C1149.61 710.007 1151.77 683.929 1139.39 664.198C1127.01 644.468 1088.95 637.292 1025.14 642.646C918.75 651.473 799.536 678.005 667.432 721.977C535.374 766.045 404.773 813.679 275.72 865.072C181.052 902.451 94.0134 935.099 14.6301 962.946C11.0664 964.159 6.34356 965.919 0.53304 968.253C-25.9129 977.567 -65.3991 990.803 -117.783 1008.01C-170.238 1025.19 -225.4 1041.41 -283.409 1056.61C-341.418 1071.8 -392.134 1081.19 -435.628 1084.74C-479.122 1088.29 -505.105 1081.02 -513.674 1062.97C-519.63 1044.57 -503.579 1015.35 -465.498 975.247C-427.416 935.14 -375.458 887.643 -309.551 832.783C-243.644 777.922 -171.78 719.417 -93.958 657.269C-2.48982 585.003 86.0548 513.056 171.65 441.5C257.246 369.943 327.316 304.546 381.932 245.334C436.548 186.121 463.515 138.92 462.974 103.78C459.315 73.7792 431.123 55.3784 378.491 48.7713C325.787 42.1388 259.582 43.1902 179.902 51.8547C100.125 60.5647 17.8089 73.0169 -67.048 89.211C-152.001 105.451 -228.443 121.684 -296.54 137.93C-364.591 154.273 -413.469 166.159 -443.059 173.71C-457.503 177.29 -488.017 185.632 -534.577 198.667C-581.136 211.701 -631.817 227.512 -686.596 246.029C-741.374 264.545 -787.706 283.913 -825.591 304.132C-863.476 324.351 -880.692 342.892 -877.285 359.658C-871.76 372.291 -851.909 380.1 -817.711 383.251C-783.514 386.403 -748.092 387.026 -711.375 385.145C-674.729 383.24 -649.001 380.883 -634.262 378.049C-629.427 376.649 -626.21 374.832 -624.823 372.522C-623.365 370.237 -622.812 367.79 -623.165 365.179C-622.947 362.772 -622.496 360.608 -621.786 358.618C-621.075 356.627 -619.418 355.135 -616.785 353.831C-614.177 352.597 -609.851 351.497 -603.876 350.504C-585.032 350.338 -571.204 354.554 -562.341 363.008C-553.477 371.463 -549.892 380.758 -551.604 390.727C-553.342 400.767 -560.904 408.006 -574.412 412.562C-604.977 421.047 -642.077 428.722 -685.853 435.536C-729.559 442.375 -771.819 442.918 -812.609 437.092C-853.398 431.267 -884.528 413.901 -906.142 384.944L-905.898 384.711Z"
        fill="#D9D9D6" />
</svg>