<svg xmlns="http://www.w3.org/2000/svg" width="1920" height="886" viewBox="0 0 1920 886" fill="none">
    <path opacity="0.2" d="M-497.478 351.379C-514.065 324.398 -506.928 297.844 -475.92 271.915C-444.977 245.963 -402.779 222.128 -349.414 200.451C-296.049 178.774 -244.259 160.484 -194.132 145.622C-144.006 130.759 -108.284 120.552 -86.9263 115.088C-84.3801 114.316 -82.1632 113.645 -80.2569 113.228C-47.9628 104.211 1.3907 91.924 67.7386 76.3449C134.11 60.701 207.643 45.7131 288.474 31.2097C369.217 16.7481 447.11 7.19183 522.107 2.67065C597.062 -1.93858 659.488 2.28742 709.344 15.2606C759.2 28.2338 786.557 54.3796 791.35 93.6749C791.177 135.804 760.205 190.556 698.5 257.953C636.795 325.351 559.966 397.367 468.165 473.982C376.3 550.574 285.397 623.854 195.439 693.668C128.535 746.706 70.3053 793.701 20.5334 834.648C-29.1736 875.618 -62.8038 907.046 -80.3804 928.995C-97.9571 950.945 -92.2969 959.912 -63.488 955.939C-0.92699 945.223 67.3773 927.856 141.272 903.857C215.19 879.793 282.391 856.695 342.858 834.409C406.39 811.537 475.427 785.145 549.986 755.387C669.993 707.049 792.906 661.649 918.748 619.124C1044.66 576.621 1158.98 551.187 1261.82 542.933C1343.86 538.586 1394.09 548.844 1412.62 573.666C1431.13 598.553 1430.82 631.42 1411.63 672.462C1392.43 713.504 1367.82 755.976 1337.84 799.966C1331.51 809.697 1325.29 819.105 1319.15 828.318C1314.05 836.225 1308.19 845.465 1301.49 856.235C1275.69 894.847 1243.41 945.474 1204.56 1007.94C1165.71 1070.41 1127.94 1135.38 1091.29 1202.95C1054.64 1270.52 1027.08 1331.32 1008.58 1385.4C990.074 1439.49 988.631 1477.58 1004.18 1499.66C1024 1519.24 1057.4 1522.09 1104.3 1508.05C1151.27 1494.04 1198.79 1474.37 1246.91 1449.14C1295.05 1423.84 1329.98 1404.58 1351.84 1391.32C1353.87 1390.37 1355.73 1389.27 1357.23 1388.13C1541.02 1277.67 1722.54 1154.48 1901.81 1018.49C2081.02 882.486 2254.16 746.871 2421.16 611.625C2429.64 605.512 2437.23 604.13 2444.06 607.371C2450.86 610.677 2454.94 616.081 2456.24 623.712C2457.48 631.32 2454.29 638.81 2446.5 646.267C2276.22 784.362 2098.45 922.273 1913.1 1060.11C1727.81 1197.96 1540.55 1322.25 1351.5 1433.1C1334.83 1443.09 1309.1 1457.52 1274.35 1476.48C1239.63 1495.38 1201.76 1513.23 1160.65 1529.92C1119.6 1546.64 1081.11 1556.81 1045.28 1560.54C1009.39 1564.25 982.607 1555.79 964.884 1535.28C943.871 1506.13 941.932 1461.71 958.938 1401.97C975.944 1342.24 1003.2 1276.36 1040.66 1204.25C1078.12 1132.15 1117.14 1063.45 1157.86 998.218C1198.58 932.98 1232.3 880.379 1259.18 840.397C1268.26 826.019 1275.92 814.203 1282.07 804.99C1289.64 793.433 1297.75 780.973 1306.55 767.591C1328.77 737.355 1347.45 707.39 1362.57 677.763C1377.69 648.135 1379.66 624.345 1368.37 606.345C1357.07 588.346 1322.35 581.8 1264.14 586.684C1167.08 594.737 1058.33 618.941 937.815 659.055C817.343 699.257 698.2 742.711 580.469 789.596C494.107 823.695 414.705 853.479 342.287 878.882C339.036 879.989 334.727 881.595 329.427 883.724C305.301 892.221 269.279 904.295 221.491 919.992C173.638 935.667 123.316 950.459 70.3965 964.325C17.4767 978.19 -28.7897 986.753 -68.4677 989.99C-108.146 993.228 -131.849 986.593 -139.666 970.129C-145.099 953.346 -130.457 926.692 -95.717 890.104C-60.9767 853.516 -13.5766 810.186 46.5481 760.139C106.673 710.092 172.232 656.72 243.226 600.024C326.669 534.098 407.445 468.464 485.531 403.185C563.617 337.906 627.539 278.247 677.363 224.23C727.188 170.213 751.788 127.153 751.295 95.0959C747.957 67.7268 722.239 50.9405 674.224 44.9131C626.144 38.8625 565.748 39.8217 493.058 47.7259C420.281 55.6718 345.187 67.0314 267.775 81.8048C190.275 96.6198 120.54 111.429 58.4177 126.249C-3.663 141.158 -48.2534 152.001 -75.2467 158.89C-88.4235 162.156 -116.261 169.767 -158.735 181.658C-201.21 193.549 -247.445 207.972 -297.417 224.864C-347.389 241.756 -389.656 259.425 -424.217 277.87C-458.779 296.315 -474.484 313.229 -471.376 328.524C-466.336 340.049 -448.227 347.172 -417.029 350.047C-385.832 352.922 -353.518 353.491 -320.022 351.775C-286.592 350.037 -263.121 347.887 -249.675 345.302C-245.264 344.025 -242.329 342.367 -241.064 340.26C-239.734 338.175 -239.229 335.942 -239.551 333.561C-239.353 331.365 -238.941 329.391 -238.293 327.575C-237.644 325.759 -236.133 324.398 -233.731 323.208C-231.352 322.083 -227.405 321.079 -221.955 320.173C-204.764 320.022 -192.149 323.868 -184.063 331.58C-175.978 339.293 -172.707 347.773 -174.269 356.867C-175.854 366.026 -182.753 372.63 -195.076 376.786C-222.959 384.527 -256.804 391.528 -296.74 397.745C-336.611 403.984 -375.163 404.479 -412.374 399.165C-449.585 393.85 -477.984 378.008 -497.701 351.592L-497.478 351.379Z" fill="#2C3EB1"/>
</svg>