<svg xmlns="http://www.w3.org/2000/svg" width="1920" height="1712" viewBox="0 0 1920 1712"
    fill="none">
    <path opacity="0.2"
        d="M-368.219 385.187C-386.4 355.612 -378.578 326.504 -344.587 298.082C-310.668 269.633 -264.412 243.506 -205.915 219.745C-147.418 195.983 -90.647 175.934 -35.6995 159.642C19.2479 143.35 58.4048 132.161 81.817 126.172C84.6081 125.325 87.0382 124.59 89.1278 124.134C124.528 114.249 178.628 100.78 251.357 83.7029C324.111 66.5544 404.716 50.125 493.321 34.2269C581.829 18.3744 667.213 7.89906 749.422 2.94307C831.586 -2.10944 900.016 2.52298 954.667 16.7438C1009.32 30.9647 1039.31 59.625 1044.56 102.699C1044.37 148.88 1010.42 208.897 942.78 282.777C875.141 356.656 790.922 435.598 690.293 519.582C589.593 603.54 489.948 683.867 391.338 760.396C317.999 818.535 254.17 870.049 199.611 914.934C145.124 959.845 108.259 994.295 88.9924 1018.36C69.7253 1042.42 75.9299 1052.25 107.509 1047.89C176.087 1036.14 250.961 1017.11 331.962 990.799C412.988 964.421 486.653 939.101 552.935 914.673C622.577 889.6 698.253 860.67 779.983 828.05C911.532 775.064 1046.27 725.298 1184.21 678.682C1322.23 632.092 1447.54 604.212 1560.27 595.164C1650.2 590.399 1705.27 601.644 1725.58 628.853C1745.87 656.133 1745.53 692.161 1724.49 737.151C1703.45 782.14 1676.47 828.696 1643.6 876.916C1636.67 887.584 1629.85 897.896 1623.12 907.995C1617.53 916.662 1611.11 926.792 1603.76 938.597C1575.49 980.922 1540.1 1036.42 1497.51 1104.89C1454.92 1173.37 1413.52 1244.59 1373.35 1318.66C1333.17 1392.73 1302.96 1459.37 1282.68 1518.66C1262.4 1577.94 1260.81 1619.7 1277.86 1643.9C1299.58 1665.36 1336.2 1668.49 1387.61 1653.1C1439.1 1637.74 1491.19 1616.18 1543.93 1588.52C1596.7 1560.79 1634.99 1539.67 1658.96 1525.15C1661.18 1524.1 1663.21 1522.9 1664.87 1521.65C1866.33 1400.56 2065.3 1265.52 2261.82 1116.46C2458.26 967.373 2648.05 818.716 2831.11 670.462C2840.4 663.762 2848.73 662.246 2856.22 665.799C2863.67 669.423 2868.14 675.347 2869.57 683.712C2870.93 692.051 2867.43 700.262 2858.9 708.436C2672.23 859.812 2477.37 1010.99 2274.19 1162.08C2071.08 1313.19 1865.82 1449.43 1658.59 1570.94C1640.31 1581.89 1612.1 1597.71 1574.01 1618.5C1535.95 1639.21 1494.44 1658.78 1449.38 1677.08C1404.38 1695.4 1362.19 1706.55 1322.92 1710.64C1283.57 1714.71 1254.21 1705.43 1234.78 1682.94C1211.75 1650.99 1209.62 1602.3 1228.27 1536.82C1246.91 1471.34 1276.78 1399.13 1317.84 1320.09C1358.91 1241.05 1401.69 1165.75 1446.32 1094.23C1490.96 1022.72 1527.92 965.064 1557.38 921.236C1567.34 905.475 1575.74 892.523 1582.47 882.424C1590.77 869.755 1599.66 856.097 1609.31 841.428C1633.67 808.284 1654.14 775.438 1670.72 742.961C1687.29 710.484 1689.45 684.405 1677.07 664.675C1664.69 644.945 1626.63 637.769 1562.82 643.123C1456.43 651.95 1337.21 678.481 1205.11 722.453C1073.05 766.522 942.451 814.156 813.398 865.549C718.731 902.928 631.692 935.576 552.309 963.423C548.745 964.635 544.022 966.396 538.212 968.73C511.766 978.044 472.28 991.28 419.896 1008.49C367.44 1025.67 312.279 1041.88 254.27 1057.08C196.261 1072.28 145.545 1081.67 102.051 1085.22C58.5569 1088.77 32.5737 1081.49 24.0048 1063.44C18.0492 1045.05 34.0994 1015.83 72.1809 975.724C110.262 935.616 162.221 888.12 228.128 833.259C294.035 778.399 365.899 719.894 443.721 657.745C535.189 585.48 623.734 513.533 709.329 441.976C794.925 370.42 864.995 305.022 919.611 245.81C974.227 186.598 1001.19 139.397 1000.65 104.257C996.994 74.2559 968.802 55.8552 916.169 49.2481C863.465 42.6156 797.261 43.667 717.581 52.3314C637.804 61.0415 555.488 73.4936 470.631 89.6878C385.677 105.928 309.236 122.161 241.139 138.407C173.088 154.75 124.209 166.635 94.6198 174.186C80.1759 177.766 49.6615 186.109 3.1021 199.144C-43.4572 212.178 -94.1387 227.989 -148.917 246.506C-203.695 265.022 -250.027 284.39 -287.912 304.609C-325.797 324.828 -343.014 343.369 -339.607 360.135C-334.082 372.768 -314.231 380.576 -280.033 383.728C-245.835 386.88 -210.413 387.503 -173.696 385.622C-137.051 383.716 -111.323 381.359 -96.5833 378.526C-91.7485 377.126 -88.5309 375.309 -87.1441 372.999C-85.6862 370.714 -85.1334 368.266 -85.4858 365.656C-85.2687 363.249 -84.8175 361.085 -84.1068 359.095C-83.3962 357.104 -81.7394 355.612 -79.1062 354.307C-76.4984 353.074 -72.1719 351.974 -66.1978 350.981C-47.3533 350.815 -33.5248 355.031 -24.6618 363.485C-15.7987 371.939 -12.2132 381.235 -13.9257 391.203C-15.6637 401.243 -23.2255 408.483 -36.7333 413.038C-67.2984 421.523 -104.398 429.198 -148.175 436.013C-191.88 442.852 -234.14 443.395 -274.93 437.569C-315.719 431.744 -346.85 414.378 -368.463 385.421L-368.219 385.187Z"
        fill="#2C3EB1" />
</svg>