<svg xmlns="http://www.w3.org/2000/svg" width="1920" height="905" viewBox="0 0 1920 905" fill="none">
    <path opacity="0.1"
        d="M-279.766 382.758C-298.108 353.125 -290.299 324.012 -256.176 295.637C-222.124 267.236 -175.661 241.182 -116.885 217.521C-58.1079 193.859 -1.06005 173.909 54.1619 157.715C109.384 141.521 148.737 130.403 172.268 124.456C175.073 123.614 177.516 122.883 179.616 122.43C215.194 112.609 269.569 99.239 342.67 82.2945C415.797 65.279 496.82 48.9987 585.888 33.266C674.859 17.5788 760.7 7.26632 843.358 2.47078C925.971 -2.42139 994.793 2.35082 1049.78 16.6908C1104.76 31.0308 1134.97 59.7714 1140.34 102.887C1140.24 149.1 1106.22 209.092 1038.35 282.89C970.485 356.687 885.953 435.517 784.93 519.359C683.834 603.177 583.793 683.362 484.785 759.749C411.152 817.783 347.068 869.206 292.294 914.015C237.592 958.849 200.59 993.249 181.264 1017.29C161.937 1041.33 168.196 1051.18 199.943 1046.88C268.881 1035.26 344.134 1016.36 425.536 990.198C506.963 963.962 580.988 938.772 647.592 914.458C717.573 889.506 793.614 860.707 875.735 828.227C1007.91 775.465 1143.3 725.932 1281.92 679.559C1420.62 633.211 1546.58 605.561 1659.92 596.731C1750.34 592.142 1805.74 603.505 1826.22 630.774C1846.67 658.114 1846.41 694.167 1825.34 739.147C1804.27 784.126 1777.24 830.662 1744.28 878.85C1737.32 889.512 1730.49 899.818 1723.74 909.91C1718.14 918.573 1711.7 928.697 1704.34 940.496C1675.99 982.795 1640.51 1038.26 1597.82 1106.7C1555.13 1175.14 1513.64 1246.33 1473.39 1320.37C1433.15 1394.41 1402.89 1461.04 1382.62 1520.33C1362.34 1579.61 1360.83 1621.4 1378.03 1645.65C1399.91 1667.17 1436.73 1670.38 1488.41 1655.08C1540.15 1639.81 1592.49 1618.34 1645.47 1590.76C1698.48 1563.12 1736.94 1542.06 1761.01 1527.57C1763.25 1526.53 1765.29 1525.33 1766.95 1524.08C1969.29 1403.31 2169.11 1268.57 2366.42 1119.8C2563.67 970.997 2754.22 822.612 2938.01 674.618C2947.34 667.931 2955.71 666.432 2963.25 670.002C2970.75 673.643 2975.26 679.58 2976.71 687.954C2978.09 696.302 2974.6 704.512 2966.03 712.674C2778.62 863.785 2582.97 1014.68 2378.96 1165.47C2175.02 1316.29 1968.88 1452.22 1760.73 1573.4C1742.37 1584.32 1714.04 1600.09 1675.78 1620.82C1637.54 1641.48 1595.85 1660.97 1550.56 1679.19C1505.35 1697.44 1462.95 1708.51 1423.46 1712.53C1383.91 1716.52 1354.36 1707.18 1334.78 1684.64C1311.56 1652.62 1309.32 1603.89 1327.94 1538.4C1346.55 1472.9 1376.45 1400.7 1417.58 1321.69C1458.72 1242.67 1501.59 1167.4 1546.33 1095.93C1591.07 1024.46 1628.13 966.83 1657.66 923.029C1667.65 907.277 1676.06 894.332 1682.82 884.24C1691.13 871.579 1700.05 857.929 1709.72 843.269C1734.15 810.149 1754.68 777.32 1771.28 744.853C1787.88 712.386 1790 686.294 1777.51 666.524C1765.02 646.755 1726.73 639.499 1662.58 644.729C1555.61 653.35 1435.78 679.663 1303.03 723.403C1170.32 767.239 1039.08 814.647 909.412 865.819C814.29 903.035 726.831 935.533 647.059 963.241C643.478 964.448 638.733 966.2 632.894 968.524C606.319 977.792 566.639 990.958 513.996 1008.07C461.282 1025.16 405.845 1041.28 347.542 1056.37C289.239 1071.47 238.258 1080.76 194.528 1084.22C150.799 1087.69 124.656 1080.36 116.003 1062.28C109.977 1043.86 126.059 1014.65 164.273 974.593C202.487 934.533 254.642 887.107 320.807 832.339C386.973 777.57 459.122 719.167 537.255 657.13C629.09 584.995 717.986 513.174 803.917 441.737C889.848 370.3 960.179 304.996 1014.98 245.851C1069.79 186.705 1096.81 139.524 1096.19 104.358C1092.46 74.3283 1064.07 55.8583 1011.13 49.1415C958.118 42.3991 891.545 43.3192 811.437 51.8308C731.232 60.3879 648.481 72.6847 563.182 88.7211C477.786 104.803 400.95 120.895 332.505 137.017C264.106 153.236 214.978 165.032 185.238 172.53C170.721 176.084 140.053 184.371 93.2592 197.322C46.4657 210.273 -4.46749 225.994 -59.5149 244.415C-114.562 262.835 -161.114 282.124 -199.171 302.282C-237.227 322.44 -254.503 340.96 -251.043 357.745C-245.462 370.398 -225.485 378.251 -191.09 381.473C-156.694 384.695 -121.073 385.389 -84.1552 383.581C-47.3087 381.747 -21.4415 379.44 -6.62546 376.634C-1.76636 375.242 1.46562 373.431 2.8555 371.121C4.31702 368.838 4.86804 366.389 4.50839 363.776C4.72198 361.368 5.17137 359.204 5.88202 357.213C6.59268 355.223 8.25571 353.732 10.901 352.432C13.5209 351.204 17.8695 350.111 23.875 349.129C42.8245 349.001 56.7385 353.247 65.668 361.725C74.5975 370.203 78.2215 379.512 76.5193 389.485C74.7917 399.529 67.202 406.758 53.6279 411.29C22.9089 419.72 -14.3828 427.326 -58.3905 434.058C-102.327 440.815 -144.822 441.274 -185.851 435.363C-226.88 429.452 -258.219 412.012 -280.011 382.991L-279.766 382.758Z"
        fill="#D9D9D6" />
</svg>