<svg xmlns="http://www.w3.org/2000/svg" width="1920" height="1000" viewBox="0 0 1920 1000"
    fill="none">
    <path opacity="0.4"
        d="M-74.2942 541.812C-92.1793 527.446 -93.778 507.594 -78.9403 482.355C-64.1527 457.116 -41.1719 430.58 -10.0478 402.797C21.0762 375.014 51.9505 349.924 82.5249 327.578C113.099 305.232 134.981 289.57 148.22 280.641C149.769 279.494 151.118 278.496 152.317 277.748C172.15 263.732 202.825 243.331 244.29 216.546C285.755 189.71 332.267 161.578 383.873 131.999C435.43 102.471 486.238 76.9821 536.296 55.6336C586.305 34.2351 629.918 21.9148 667.087 18.6228C704.256 15.3307 729.285 26.5038 742.125 52.142C752.266 80.9226 744.473 125.814 718.794 186.817C693.115 247.82 658.245 315.657 614.281 390.277C570.268 464.897 526.105 537.023 481.742 606.556C449.019 659.029 420.743 705.268 396.763 745.321C372.833 785.375 357.545 815.003 350.901 834.257C344.257 853.51 350.301 858.249 368.986 848.522C409.052 825.977 451.417 797.495 495.98 763.128C540.543 728.711 580.759 696.589 616.579 666.661C654.348 635.586 695.014 600.769 738.628 562.312C808.719 500.112 881.508 439.209 956.995 379.553C1032.53 319.897 1104.32 274.705 1172.47 244.029C1227.37 221.085 1264.14 215.847 1282.82 228.267C1301.51 240.737 1309.3 263.233 1306.2 295.904C1303.11 328.576 1296.66 363.541 1286.92 400.851C1284.97 409.032 1283.02 416.963 1281.07 424.744C1279.53 431.378 1277.78 439.109 1275.83 448.088C1267.64 480.709 1257.94 523.107 1246.65 575.181C1235.36 627.256 1225.42 680.777 1216.88 735.794C1208.34 790.811 1204.34 838.995 1204.89 880.395C1205.44 921.796 1213.73 948.132 1229.72 959.405C1248 967.934 1271.48 961.749 1300.06 940.75C1328.69 919.751 1356.31 894.761 1382.99 865.831C1409.67 836.85 1428.8 815.203 1440.49 800.837C1441.64 799.69 1442.64 798.493 1443.39 797.346C1541.86 677.235 1635.68 548.994 1724.85 412.573C1813.98 276.152 1899.06 141.477 1980.04 8.54707C1984.34 2.3121 1989.18 -0.481171 1994.63 0.0675059C2000.07 0.666063 2004.17 3.35957 2006.92 8.24779C2009.62 13.136 2009.27 19.0218 2005.77 26.005C1923.24 161.678 1835.56 299.047 1742.69 438.211C1649.87 577.376 1552.4 707.762 1450.43 829.418C1441.49 840.292 1427.45 856.403 1408.37 877.802C1389.28 899.15 1367.8 920.549 1343.82 941.947C1319.89 963.346 1296.11 979.656 1272.58 990.929C1249 1002.2 1228.67 1002.95 1211.58 993.273C1190.15 978.509 1178.01 948.681 1175.06 903.789C1172.12 858.897 1174.66 807.322 1182.66 749.012C1190.65 690.703 1200.54 634.339 1212.43 579.92C1224.32 525.501 1234.51 481.407 1243.11 447.589C1245.8 435.568 1248.15 425.642 1250.1 417.86C1252.45 408.134 1254.95 397.659 1257.69 386.386C1265.49 360.349 1270.93 335.359 1274.03 311.467C1277.13 287.574 1272.68 270.865 1260.59 261.338C1248.5 251.811 1223.22 255.801 1184.71 273.309C1120.46 302.439 1052.17 345.435 979.726 402.148C907.337 458.911 836.646 517.57 767.753 578.224C717.145 622.517 670.235 662.172 627.021 697.137C625.072 698.683 622.524 700.828 619.427 703.572C605.039 715.244 583.407 732.253 554.631 754.599C525.805 776.945 495.081 799.291 462.358 821.637C429.635 843.983 400.16 861.092 373.882 872.963C347.604 884.835 329.819 886.082 320.476 876.754C312.683 866.629 316.18 844.881 330.968 811.462C345.755 778.042 367.537 736.941 396.363 688.159C425.189 639.376 456.912 587.003 491.534 531.038C532.399 465.745 571.517 401.3 608.886 337.753C646.255 274.207 675.33 217.942 696.163 168.96C716.996 119.978 723.29 84.6137 715.147 62.8661C706.205 45.0092 684.573 39.8217 650.351 47.4034C616.08 54.9851 575.114 70.3481 527.454 93.4424C479.743 116.587 431.284 142.624 382.075 171.554C332.816 200.534 288.853 227.619 250.085 252.858C211.367 278.147 183.591 296.403 166.855 307.676C158.661 313.113 141.526 325.084 115.447 343.54C89.3692 361.995 61.3426 383.094 31.3676 406.787C1.39262 430.48 -23.1369 452.826 -42.221 473.825C-61.3051 494.825 -67.8996 510.188 -62.0544 519.865C-55.8096 526.499 -41.7214 526.947 -19.7397 521.311C2.24191 515.675 24.4234 508.193 46.8547 498.865C69.236 489.538 84.7231 482.355 93.266 477.317C95.9637 475.372 97.5624 473.526 97.9121 471.78C98.3118 470.035 98.1119 468.389 97.3126 466.842C96.9129 465.296 96.7131 463.85 96.7131 462.453C96.7131 461.056 97.4125 459.759 98.7614 458.363C100.11 457.016 102.558 455.37 106.055 453.425C117.746 449.135 127.288 448.686 134.681 451.978C142.075 455.27 146.372 460.258 147.521 466.842C148.67 473.476 145.572 479.661 138.178 485.497C121.043 497.568 99.6606 510.587 73.9321 524.553C48.2535 538.52 22.0754 548.246 -4.60238 553.683C-31.2801 559.12 -54.5107 555.229 -74.3941 542.011L-74.2942 541.812Z"
        fill="#D9D9D6" />
</svg>