<svg xmlns="http://www.w3.org/2000/svg" width="1431" height="1714" viewBox="0 0 1431 1714"
    fill="none">
    <path opacity="0.05"
        d="M10.2343 382.758C-8.10773 353.125 -0.299133 324.012 33.8243 295.637C67.8761 267.236 114.339 241.182 173.115 217.521C231.892 193.859 288.94 173.909 344.162 157.715C399.384 141.521 438.737 130.403 462.268 124.456C465.073 123.614 467.516 122.883 469.616 122.43C505.194 112.609 559.569 99.239 632.67 82.2945C705.797 65.279 786.82 48.9987 875.888 33.266C964.859 17.5788 1050.7 7.26632 1133.36 2.47078C1215.97 -2.42139 1284.79 2.35082 1339.78 16.6908C1394.76 31.0308 1424.97 59.7714 1430.34 102.887C1430.24 149.1 1396.22 209.092 1328.35 282.89C1260.48 356.687 1175.95 435.517 1074.93 519.359C973.834 603.177 873.793 683.362 774.785 759.749C701.152 817.783 637.068 869.206 582.294 914.015C527.592 958.849 490.59 993.249 471.264 1017.29C451.937 1041.33 458.196 1051.18 489.943 1046.88C558.881 1035.26 634.134 1016.36 715.536 990.198C796.963 963.962 870.988 938.772 937.592 914.458C1007.57 889.506 1083.61 860.707 1165.74 828.227C1297.91 775.465 1433.3 725.932 1571.92 679.559C1710.62 633.211 1836.58 605.561 1949.92 596.731C2040.34 592.142 2095.74 603.505 2116.22 630.774C2136.67 658.114 2136.41 694.167 2115.34 739.147C2094.27 784.126 2067.24 830.662 2034.28 878.85C2027.32 889.512 2020.49 899.818 2013.74 909.91C2008.14 918.573 2001.7 928.697 1994.34 940.496C1965.99 982.795 1930.51 1038.26 1887.82 1106.7C1845.13 1175.14 1803.64 1246.33 1763.39 1320.37C1723.15 1394.41 1692.89 1461.04 1672.62 1520.33C1652.34 1579.61 1650.83 1621.4 1668.03 1645.65C1689.91 1667.17 1726.73 1670.38 1778.41 1655.08C1830.15 1639.81 1882.49 1618.34 1935.47 1590.76C1988.48 1563.12 2026.94 1542.06 2051.01 1527.57C2053.25 1526.53 2055.29 1525.33 2056.95 1524.08C2259.29 1403.31 2459.11 1268.57 2656.42 1119.8C2853.67 970.997 3044.22 822.612 3228.01 674.618C3237.34 667.931 3245.71 666.432 3253.25 670.002C3260.75 673.643 3265.26 679.58 3266.71 687.954C3268.09 696.302 3264.6 704.512 3256.03 712.674C3068.62 863.785 2872.97 1014.68 2668.96 1165.47C2465.02 1316.29 2258.88 1452.22 2050.73 1573.4C2032.37 1584.32 2004.04 1600.09 1965.78 1620.82C1927.54 1641.48 1885.85 1660.97 1840.56 1679.19C1795.35 1697.44 1752.95 1708.51 1713.46 1712.53C1673.91 1716.52 1644.36 1707.18 1624.78 1684.64C1601.56 1652.62 1599.32 1603.89 1617.94 1538.4C1636.55 1472.9 1666.45 1400.7 1707.58 1321.69C1748.72 1242.67 1791.59 1167.4 1836.33 1095.93C1881.07 1024.46 1918.13 966.83 1947.66 923.029C1957.65 907.277 1966.06 894.332 1972.82 884.24C1981.13 871.579 1990.05 857.929 1999.72 843.269C2024.15 810.149 2044.68 777.32 2061.28 744.853C2077.88 712.386 2080 686.294 2067.51 666.524C2055.02 646.755 2016.73 639.499 1952.58 644.729C1845.61 653.35 1725.78 679.663 1593.03 723.403C1460.32 767.239 1329.08 814.647 1199.41 865.819C1104.29 903.035 1016.83 935.533 937.059 963.241C933.478 964.448 928.733 966.2 922.894 968.524C896.319 977.792 856.639 990.958 803.996 1008.07C751.282 1025.16 695.845 1041.28 637.542 1056.37C579.239 1071.47 528.258 1080.76 484.528 1084.22C440.799 1087.69 414.656 1080.36 406.003 1062.28C399.977 1043.86 416.059 1014.65 454.273 974.593C492.487 934.533 544.642 887.107 610.807 832.339C676.973 777.57 749.122 719.167 827.255 657.13C919.09 584.995 1007.99 513.174 1093.92 441.737C1179.85 370.3 1250.18 304.996 1304.98 245.851C1359.79 186.705 1386.81 139.524 1386.19 104.358C1382.46 74.3283 1354.07 55.8583 1301.13 49.1415C1248.12 42.3991 1181.55 43.3192 1101.44 51.8308C1021.23 60.3879 938.481 72.6847 853.182 88.7211C767.786 104.803 690.95 120.895 622.505 137.017C554.106 153.236 504.978 165.032 475.238 172.53C460.721 176.084 430.053 184.371 383.259 197.322C336.466 210.273 285.533 225.994 230.485 244.415C175.438 262.835 128.886 282.124 90.8291 302.282C52.7726 322.44 35.4971 340.96 38.9567 357.745C44.5376 370.398 64.5153 378.251 98.9105 381.473C133.306 384.695 168.927 385.389 205.845 383.581C242.691 381.747 268.558 379.44 283.375 376.634C288.234 375.242 291.466 373.431 292.855 371.121C294.317 368.838 294.868 366.389 294.508 363.776C294.722 361.368 295.171 359.204 295.882 357.213C296.593 355.223 298.256 353.732 300.901 352.432C303.521 351.204 307.869 350.111 313.875 349.129C332.824 349.001 346.739 353.247 355.668 361.725C364.597 370.203 368.222 379.512 366.519 389.485C364.792 399.529 357.202 406.758 343.628 411.29C312.909 419.72 275.617 427.326 231.61 434.058C187.673 440.815 145.178 441.274 104.149 435.363C63.1202 429.452 31.7814 412.012 9.98949 382.991L10.2343 382.758Z"
        fill="#0047DD" />
</svg>