<svg xmlns="http://www.w3.org/2000/svg" width="763" height="1021" viewBox="0 0 763 1021" fill="none">
    <path opacity="0.05"
        d="M8.19354 298.871C-6.10524 275.771 -0.0179409 253.075 26.5835 230.955C53.129 208.815 89.3497 188.504 135.17 170.059C180.99 151.613 225.463 136.06 268.512 123.436C311.561 110.812 342.239 102.144 360.583 97.5085C362.77 96.8521 364.674 96.2821 366.311 95.9294C394.046 88.273 436.436 77.8501 493.423 64.6409C550.429 51.3762 613.592 38.6846 683.026 26.42C752.385 14.1908 819.303 6.15155 883.741 2.41314C948.143 -1.40064 1001.79 2.31964 1044.66 13.4986C1087.52 24.6775 1111.07 47.0827 1115.26 80.6941C1115.18 116.72 1088.66 163.488 1035.75 221.018C982.844 278.547 916.946 340 838.192 405.361C759.381 470.702 681.393 533.212 604.21 592.76C546.808 638.001 496.851 678.089 454.151 713.02C411.507 747.971 382.662 774.789 367.596 793.529C352.529 812.269 357.408 819.947 382.157 816.598C435.899 807.541 494.564 792.807 558.021 772.41C621.499 751.958 679.206 732.32 731.128 713.366C785.683 693.914 844.962 671.463 908.981 646.143C1012.02 605.011 1117.57 566.398 1225.63 530.247C1333.75 494.115 1431.95 472.56 1520.3 465.677C1590.79 462.1 1633.98 470.958 1649.95 492.216C1665.89 513.529 1665.68 541.635 1649.26 576.699C1632.84 611.764 1611.76 648.041 1586.07 685.607C1580.64 693.919 1575.32 701.953 1570.05 709.821C1565.69 716.573 1560.67 724.466 1554.93 733.664C1532.83 766.639 1505.17 809.878 1471.89 863.23C1438.61 916.583 1406.27 972.081 1374.89 1029.8C1343.52 1087.52 1319.94 1139.46 1304.13 1185.68C1288.32 1231.9 1287.15 1264.47 1300.55 1283.38C1317.61 1300.15 1346.32 1302.65 1386.6 1290.73C1426.93 1278.82 1467.73 1262.08 1509.04 1240.59C1550.36 1219.04 1580.34 1202.62 1599.11 1191.33C1600.85 1190.51 1602.44 1189.58 1603.74 1188.61C1761.48 1094.46 1917.25 989.421 2071.07 873.441C2224.83 757.441 2373.38 641.766 2516.66 526.395C2523.93 521.182 2530.46 520.013 2536.33 522.797C2542.18 525.635 2545.69 530.263 2546.83 536.791C2547.9 543.299 2545.18 549.699 2538.5 556.062C2392.4 673.863 2239.88 791.494 2080.84 909.047C1921.85 1026.62 1761.15 1132.58 1598.89 1227.05C1584.58 1235.57 1562.49 1247.86 1532.67 1264.02C1502.86 1280.12 1470.35 1295.32 1435.05 1309.53C1399.81 1323.75 1366.75 1332.38 1335.97 1335.51C1305.13 1338.63 1282.1 1331.34 1266.84 1313.77C1248.73 1288.81 1246.99 1250.82 1261.5 1199.77C1276.01 1148.71 1299.32 1092.42 1331.39 1030.83C1363.45 969.23 1396.87 910.553 1431.75 854.835C1466.63 799.117 1495.52 754.193 1518.54 720.048C1526.33 707.768 1532.89 697.676 1538.15 689.809C1544.64 679.939 1551.58 669.297 1559.13 657.869C1578.17 632.05 1594.17 606.458 1607.11 581.148C1620.05 555.838 1621.71 535.497 1611.97 520.086C1602.23 504.674 1572.39 499.017 1522.37 503.095C1438.99 509.816 1345.57 530.328 1242.08 564.426C1138.63 598.599 1036.32 635.556 935.234 675.448C861.081 704.461 792.9 729.795 730.713 751.396C727.921 752.336 724.222 753.702 719.67 755.514C698.954 762.739 668.02 773.003 626.982 786.345C585.888 799.667 542.671 812.231 497.22 823.998C451.769 835.764 412.027 843.008 377.936 845.709C343.846 848.41 323.466 842.696 316.72 828.603C312.023 814.242 324.56 791.474 354.35 760.245C384.141 729.016 424.798 692.043 476.379 649.348C527.959 606.653 584.204 561.124 645.113 512.762C716.705 456.528 786.005 400.539 852.994 344.849C919.983 289.159 974.81 238.251 1017.53 192.143C1060.26 146.036 1081.32 109.255 1080.84 81.841C1077.93 58.4307 1055.8 44.0321 1014.53 38.7959C973.203 33.5398 921.306 34.2571 858.856 40.8924C796.331 47.5633 731.821 57.1494 665.325 69.6508C598.754 82.1877 538.855 94.7324 485.498 107.301C432.177 119.944 393.878 129.14 370.694 134.985C359.377 137.755 335.469 144.216 298.99 154.312C262.512 164.409 222.806 176.664 179.893 191.024C136.98 205.384 100.69 220.421 71.0224 236.135C41.3548 251.85 27.8876 266.287 30.5845 279.372C34.9352 289.236 50.509 295.358 77.3223 297.87C104.136 300.382 131.904 300.923 160.684 299.513C189.409 298.083 209.574 296.285 221.124 294.097C224.912 293.013 227.431 291.6 228.515 289.8C229.654 288.02 230.084 286.111 229.803 284.074C229.97 282.196 230.32 280.509 230.874 278.958C231.428 277.406 232.725 276.244 234.787 275.231C236.829 274.273 240.219 273.421 244.901 272.656C259.673 272.556 270.52 275.866 277.481 282.475C284.442 289.084 287.268 296.341 285.941 304.115C284.594 311.945 278.677 317.581 268.095 321.114C244.148 327.686 215.077 333.615 180.77 338.863C146.519 344.131 113.391 344.488 81.4063 339.88C49.4215 335.272 24.9909 321.677 8.0027 299.053L8.19354 298.871Z"
        fill="#0047DD" />
</svg>