<svg xmlns="http://www.w3.org/2000/svg" width="1920" height="988" viewBox="0 0 1920 988" fill="none">
    <path opacity="0.2"
        d="M-74.2942 529.812C-92.1793 515.446 -93.778 495.594 -78.9403 470.355C-64.1527 445.116 -41.1719 418.58 -10.0478 390.797C21.0762 363.014 51.9505 337.924 82.5249 315.578C113.099 293.232 134.981 277.57 148.22 268.641C149.769 267.494 151.118 266.496 152.317 265.748C172.15 251.732 202.825 231.331 244.29 204.546C285.755 177.71 332.267 149.578 383.873 119.999C435.43 90.4707 486.238 64.9821 536.296 43.6336C586.305 22.2351 629.918 9.91484 667.087 6.62278C704.256 3.33071 729.285 14.5038 742.125 40.142C752.266 68.9226 744.473 113.814 718.794 174.817C693.115 235.82 658.245 303.657 614.281 378.277C570.268 452.897 526.105 525.023 481.742 594.556C449.019 647.029 420.743 693.268 396.763 733.321C372.833 773.375 357.545 803.003 350.901 822.257C344.257 841.51 350.301 846.249 368.986 836.522C409.052 813.977 451.417 785.495 495.98 751.128C540.543 716.711 580.759 684.589 616.579 654.661C654.348 623.586 695.014 588.769 738.628 550.312C808.719 488.112 881.508 427.209 956.995 367.553C1032.53 307.897 1104.32 262.705 1172.47 232.029C1227.37 209.085 1264.14 203.847 1282.82 216.267C1301.51 228.737 1309.3 251.233 1306.2 283.904C1303.11 316.576 1296.66 351.541 1286.92 388.851C1284.97 397.032 1283.02 404.963 1281.07 412.744C1279.53 419.378 1277.78 427.109 1275.83 436.088C1267.64 468.709 1257.94 511.107 1246.65 563.181C1235.36 615.256 1225.42 668.777 1216.88 723.794C1208.34 778.811 1204.34 826.995 1204.89 868.395C1205.44 909.796 1213.73 936.132 1229.72 947.405C1248 955.934 1271.48 949.749 1300.06 928.75C1328.69 907.751 1356.31 882.761 1382.99 853.831C1409.67 824.85 1428.8 803.203 1440.49 788.837C1441.64 787.69 1442.64 786.493 1443.39 785.346C1541.86 665.235 1635.68 536.994 1724.85 400.573C1813.98 264.152 1899.06 129.477 1980.04 -3.45293C1984.34 -9.6879 1989.18 -12.4812 1994.63 -11.9325C2000.07 -11.3339 2004.17 -8.64043 2006.92 -3.75221C2009.62 1.136 2009.27 7.02182 2005.77 14.005C1923.24 149.678 1835.56 287.047 1742.69 426.211C1649.87 565.376 1552.4 695.762 1450.43 817.418C1441.49 828.292 1427.45 844.403 1408.37 865.802C1389.28 887.15 1367.8 908.549 1343.82 929.947C1319.89 951.346 1296.11 967.656 1272.58 978.929C1249 990.202 1228.67 990.95 1211.58 981.273C1190.15 966.509 1178.01 936.681 1175.06 891.789C1172.12 846.897 1174.66 795.322 1182.66 737.012C1190.65 678.703 1200.54 622.339 1212.43 567.92C1224.32 513.501 1234.51 469.407 1243.11 435.589C1245.8 423.568 1248.15 413.642 1250.1 405.86C1252.45 396.134 1254.95 385.659 1257.69 374.386C1265.49 348.349 1270.93 323.359 1274.03 299.467C1277.13 275.574 1272.68 258.865 1260.59 249.338C1248.5 239.811 1223.22 243.801 1184.71 261.309C1120.46 290.439 1052.17 333.435 979.726 390.148C907.337 446.911 836.646 505.57 767.753 566.224C717.145 610.517 670.235 650.172 627.021 685.137C625.072 686.683 622.524 688.828 619.427 691.572C605.039 703.244 583.407 720.253 554.631 742.599C525.805 764.945 495.081 787.291 462.358 809.637C429.635 831.983 400.16 849.092 373.882 860.963C347.604 872.835 329.819 874.082 320.476 864.754C312.683 854.629 316.18 832.881 330.968 799.462C345.755 766.042 367.537 724.941 396.363 676.159C425.189 627.376 456.912 575.003 491.534 519.038C532.399 453.745 571.517 389.3 608.886 325.753C646.255 262.207 675.33 205.942 696.163 156.96C716.996 107.978 723.29 72.6137 715.147 50.8661C706.205 33.0092 684.573 27.8217 650.351 35.4034C616.08 42.9851 575.114 58.3481 527.454 81.4424C479.743 104.587 431.284 130.624 382.075 159.554C332.816 188.534 288.853 215.619 250.085 240.858C211.367 266.147 183.591 284.403 166.855 295.676C158.661 301.113 141.526 313.084 115.447 331.54C89.3692 349.995 61.3426 371.094 31.3676 394.787C1.39262 418.48 -23.1369 440.826 -42.221 461.825C-61.3051 482.825 -67.8996 498.188 -62.0544 507.865C-55.8096 514.499 -41.7214 514.947 -19.7397 509.311C2.24191 503.675 24.4234 496.193 46.8547 486.865C69.236 477.538 84.7231 470.355 93.266 465.317C95.9637 463.372 97.5624 461.526 97.9121 459.78C98.3118 458.035 98.1119 456.389 97.3126 454.842C96.9129 453.296 96.7131 451.85 96.7131 450.453C96.7131 449.056 97.4125 447.759 98.7614 446.363C100.11 445.016 102.558 443.37 106.055 441.425C117.746 437.135 127.288 436.686 134.681 439.978C142.075 443.27 146.372 448.258 147.521 454.842C148.67 461.476 145.572 467.661 138.178 473.497C121.043 485.568 99.6606 498.587 73.9321 512.553C48.2535 526.52 22.0754 536.246 -4.60238 541.683C-31.2801 547.12 -54.5107 543.229 -74.3941 530.011L-74.2942 529.812Z"
        fill="#307FE2" />
</svg>