<svg width="850" height="253" viewBox="0 0 850 253" fill="none" xmlns="http://www.w3.org/2000/svg">
<g clip-path="url(#clip0_470_2383)">
<path d="M0 2.51179H11.8743L28.1268 79.4538H31.2558L47.5083 2.51179H65.6405L81.8931 79.4538H85.022L101.263 2.51179H113.138L93.7561 90.0979H73.7555L58.122 13.1559H54.9931L39.3596 90.0979H19.359L0 2.51179Z" fill="white"/>
<path d="M116.897 90.0979L139.396 2.51179H173.781L196.28 90.0979H185.025L178.148 64.4506H135.018L128.141 90.0979H116.886H116.897ZM137.528 53.8177H175.66L165.035 13.1559H148.153L137.528 53.8177Z" fill="white"/>
<path d="M195.031 13.1447V2.51179H266.299V13.1447H236.292V90.0866H225.037V13.1447H195.031Z" fill="white"/>
<path d="M277.554 90.0979V2.51179H338.816V13.1447H288.809V40.673H329.441V51.3059H288.809V79.4538H338.816V90.0866H277.554V90.0979Z" fill="white"/>
<path d="M353.808 90.0979V2.51179H391.311C401.058 2.51179 408.813 5.10243 414.564 10.2724C420.315 15.4425 423.185 22.0317 423.185 30.0401C423.185 36.6294 421.16 42.2612 417.119 46.9356C413.078 51.61 407.383 54.7301 400.056 56.3182L422.555 90.0979H409.432L388.182 57.5685H365.052V90.0979H353.797H353.808ZM365.063 46.9356H391.322C398.075 46.9356 403.196 45.415 406.697 42.3738C410.197 39.3326 411.953 35.2214 411.953 30.0514C411.953 24.8814 410.208 20.7702 406.697 17.729C403.196 14.6878 398.064 13.1672 391.322 13.1672H365.063V46.9469V46.9356Z" fill="white"/>
<path d="M434.452 65.0701H445.707C446.619 68.2464 448.127 71.0736 450.209 73.5741C454.88 79.1609 461.712 81.9543 470.716 81.9543C477.886 81.9543 483.322 80.5351 487.036 77.6966C490.739 74.8582 492.596 71.2763 492.596 66.9398C492.596 63.2679 491.1 60.3506 488.094 58.1767C485.089 56.0141 480.846 54.1331 475.342 52.5449C474.341 52.207 472.742 51.7564 470.525 51.1707C468.319 50.585 466.586 50.1232 465.336 49.7966C464.087 49.4587 462.421 48.9631 460.339 48.2985C458.257 47.634 456.591 47.0257 455.342 46.4851C454.092 45.9444 452.595 45.2348 450.84 44.3562C449.084 43.4777 447.688 42.6216 446.653 41.7881C445.606 40.9546 444.48 39.9296 443.276 38.7244C442.072 37.5192 441.149 36.2464 440.53 34.906C439.9 33.5769 439.359 32.0676 438.909 30.4006C438.448 28.7336 438.222 26.9426 438.222 25.0166C438.222 18.1795 441.093 12.2999 446.844 7.37769C452.595 2.45548 460.136 0 469.478 0C481.814 0 491.145 4.0887 497.481 12.2661C500.149 15.8592 502.062 19.9029 503.233 24.4083H491.977C491.223 22.0767 489.895 19.779 487.982 17.5262C483.401 12.9419 477.233 10.6441 469.478 10.6441C463.232 10.6441 458.336 12.0408 454.79 14.8342C451.245 17.6276 449.478 21.0292 449.478 25.0278C449.478 26.9426 450.018 28.6998 451.098 30.2879C452.179 31.8761 453.473 33.1827 454.97 34.2302C456.467 35.2777 458.572 36.314 461.284 37.3615C463.997 38.409 466.394 39.22 468.477 39.8057C470.559 40.3914 473.305 41.101 476.727 41.9346C480.565 42.937 483.93 44.0634 486.856 45.3136C489.771 46.5639 492.608 48.1521 495.354 50.0669C498.1 51.9817 500.205 54.3696 501.668 57.1968C503.131 60.0352 503.852 63.2904 503.852 66.9511C503.852 74.1261 500.892 80.1972 494.971 85.1532C489.051 90.1204 480.97 92.5984 470.716 92.5984C457.3 92.5984 447.249 88.0141 440.586 78.8343C437.671 74.9145 435.622 70.3302 434.463 65.0701H434.452Z" fill="white"/>
<path d="M519.463 90.0979V2.51179H530.718V90.0979H519.463Z" fill="white"/>
<path d="M550.719 90.0979V2.51179H579.476C592.644 2.51179 603.539 6.70187 612.172 15.082C620.794 23.4622 625.116 33.8698 625.116 46.2936C625.116 58.7174 620.805 69.125 612.172 77.5051C603.539 85.8853 592.644 90.0754 579.476 90.0754H550.719V90.0979ZM561.974 79.465H579.476C589.639 79.465 597.912 76.3788 604.293 70.2063C610.664 64.0338 613.86 56.0704 613.86 46.3048C613.86 36.5393 610.675 28.5759 604.293 22.4034C597.923 16.2309 589.639 13.1447 579.476 13.1447H561.974V79.465Z" fill="white"/>
<path d="M640.738 90.0979V2.51179H702V13.1447H651.993V40.673H692.625V51.3059H651.993V79.4538H702V90.0866H640.738V90.0979Z" fill="white"/>
</g>
<path d="M31.3123 112.964C35.496 112.964 39.2324 113.511 42.5215 114.63C45.8369 115.749 48.5997 117.266 50.8626 119.205C53.1255 121.144 54.8622 123.432 56.0726 126.067C57.283 128.703 57.8882 131.562 57.8882 134.645C57.8882 139.767 56.2305 144.193 52.8888 147.898C49.547 151.602 44.7844 154.089 38.6009 155.332L57.3883 181.961H46.4421L28.7072 156.327H9.3936V181.961H0V112.939H31.3123V112.964ZM44.2581 144.268C47.0999 141.806 48.5472 138.599 48.5472 134.645C48.5472 130.692 47.1262 127.509 44.2581 125.023C41.4163 122.562 37.1011 121.318 31.3123 121.318H9.3936V147.947H31.3123C37.0748 147.947 41.39 146.704 44.2581 144.243V144.268Z" fill="white"/>
<path d="M138.142 121.343H96.4102V143.024H130.327V151.404H96.4102V173.582H138.142V181.961H87.0165V112.939H138.142V121.343Z" fill="white"/>
<path d="M183.427 183.005C180.795 182.384 178.454 181.563 176.428 180.544C174.401 179.524 172.638 178.381 171.112 177.088C169.586 175.82 168.297 174.477 167.244 173.085C164.745 169.927 163.034 166.322 162.14 162.244H171.533C172.217 164.731 173.48 166.968 175.296 168.957C176.822 170.673 178.954 172.19 181.664 173.532C184.374 174.875 187.953 175.546 192.399 175.546C195.531 175.546 198.241 175.223 200.53 174.601C202.819 173.98 204.714 173.11 206.214 172.041C207.714 170.971 208.819 169.703 209.555 168.236C210.292 166.794 210.661 165.278 210.661 163.711C210.661 161.598 210.029 159.857 208.74 158.49C207.45 157.097 205.74 155.929 203.582 154.934C201.425 153.94 199.004 153.094 196.267 152.373C193.557 151.652 190.794 150.906 187.979 150.16C185.163 149.414 182.401 148.544 179.69 147.55C176.98 146.555 174.533 145.337 172.375 143.895C170.218 142.453 168.507 140.662 167.218 138.524C165.929 136.386 165.297 133.775 165.297 130.692C165.297 128.131 165.902 125.645 167.113 123.258C168.323 120.871 170.06 118.757 172.27 116.942C174.507 115.127 177.217 113.685 180.453 112.616C183.69 111.522 187.321 111 191.347 111C194.399 111 197.162 111.273 199.635 111.845C202.109 112.392 204.266 113.113 206.161 114.008C208.056 114.904 209.687 115.923 211.108 117.116C212.529 118.31 213.739 119.479 214.713 120.672C217.002 123.506 218.607 126.689 219.502 130.245H210.108C209.476 128.28 208.371 126.465 206.766 124.824C205.372 123.506 203.451 122.288 201.03 121.12C198.583 119.976 195.373 119.404 191.321 119.404C188.61 119.404 186.216 119.727 184.111 120.349C182.032 120.97 180.269 121.816 178.848 122.86C177.427 123.904 176.375 125.123 175.664 126.515C174.98 127.882 174.612 129.3 174.612 130.742C174.612 133.427 175.717 135.565 177.954 137.107C180.19 138.648 182.979 139.966 186.348 141.06C189.716 142.154 193.373 143.174 197.294 144.118C201.214 145.063 204.872 146.331 208.24 147.873C211.608 149.414 214.423 151.428 216.633 153.94C218.87 156.426 219.975 159.733 219.975 163.811C219.975 166.496 219.37 169.082 218.16 171.543C216.949 174.005 215.16 176.168 212.792 178.008C210.424 179.848 207.529 181.315 204.135 182.384C200.741 183.478 196.794 184 192.347 184C189.005 184 186.005 183.677 183.374 183.055L183.427 183.005Z" fill="white"/>
<path d="M258.024 112.964V181.986H248.63V112.964H258.024Z" fill="white"/>
<path d="M314.386 112.964C319.885 112.964 324.963 113.859 329.621 115.625C334.278 117.39 338.304 119.827 341.725 122.91C345.145 125.993 347.777 129.648 349.645 133.85C351.513 138.052 352.46 142.602 352.46 147.45C352.46 152.299 351.513 156.849 349.645 161.051C347.777 165.253 345.119 168.908 341.725 171.991C338.304 175.074 334.278 177.51 329.621 179.276C324.963 181.041 319.885 181.936 314.386 181.936H290.388V112.914H314.386V112.964ZM326.121 171.668C329.647 170.375 332.647 168.584 335.146 166.247C337.646 163.91 339.593 161.15 340.988 157.968C342.383 154.785 343.067 151.279 343.067 147.475C343.067 143.671 342.356 140.165 340.988 136.983C339.593 133.8 337.646 131.04 335.146 128.703C332.647 126.366 329.621 124.576 326.121 123.283C322.622 121.99 318.701 121.368 314.386 121.368H299.782V173.607H314.386C318.701 173.607 322.622 172.96 326.121 171.692V171.668Z" fill="white"/>
<path d="M432.267 121.343H390.535V143.024H424.452V151.404H390.535V173.582H432.267V181.961H381.141V112.939H432.267V121.343Z" fill="white"/>
<path d="M474.026 112.964L509.916 171.121H510.127L510.021 170.126V112.939H519.415V181.961H505.838L469.947 123.805H469.737L469.842 124.799V181.887L460.448 181.986V112.964H474.026Z" fill="white"/>
<path d="M570.936 181.24C566.278 179.425 562.252 176.914 558.884 173.657C555.516 170.399 552.859 166.57 550.964 162.12C549.043 157.694 548.096 152.796 548.096 147.475C548.096 142.154 549.043 137.281 550.964 132.83C552.885 128.405 555.516 124.551 558.884 121.294C562.252 118.036 566.278 115.5 570.936 113.71C575.593 111.895 580.671 111 586.171 111C589.855 111 593.196 111.373 596.196 112.094C599.196 112.815 601.88 113.76 604.274 114.953C606.669 116.147 608.774 117.489 610.589 119.006C612.405 120.523 613.957 122.064 615.273 123.631C618.404 127.311 620.693 131.488 622.167 136.162H612.773C611.458 133.079 609.615 130.269 607.247 127.783C606.195 126.739 605.011 125.719 603.695 124.725C602.38 123.73 600.853 122.86 599.09 122.064C597.354 121.269 595.407 120.622 593.249 120.15C591.091 119.653 588.723 119.404 586.145 119.404C581.961 119.404 578.119 120.075 574.62 121.418C571.12 122.761 568.094 124.675 565.542 127.137C563.016 129.598 561.016 132.557 559.595 136.013C558.174 139.469 557.464 143.298 557.464 147.5C557.464 151.702 558.174 155.531 559.595 158.987C561.016 162.443 563.016 165.402 565.542 167.863C568.068 170.325 571.12 172.239 574.62 173.582C578.145 174.925 581.987 175.596 586.145 175.596C588.776 175.596 591.223 175.323 593.46 174.8C595.696 174.278 597.696 173.582 599.459 172.737C601.222 171.891 602.801 170.922 604.143 169.828C605.511 168.734 606.695 167.64 607.747 166.521C610.115 163.885 611.957 160.827 613.273 157.346H622.667C621.009 162.344 618.562 166.769 615.352 170.648C613.957 172.364 612.352 174.005 610.51 175.571C608.668 177.138 606.537 178.555 604.143 179.823C601.748 181.066 599.038 182.085 596.064 182.831C593.065 183.577 589.776 183.975 586.145 183.975C580.645 183.975 575.567 183.08 570.909 181.265L570.936 181.24Z" fill="white"/>
<path d="M702 121.343H660.268V143.024H694.185V151.404H660.268V173.582H702V181.961H650.874V112.939H702V121.343Z" fill="white"/>
<g clip-path="url(#clip1_470_2383)">
<mask id="mask0_470_2383" style="mask-type:alpha" maskUnits="userSpaceOnUse" x="263" y="133" width="647" height="120">
<path d="M263 133H910L840 253H263V133Z" fill="#D9D9D9"/>
</mask>
<g mask="url(#mask0_470_2383)">
<path d="M402.797 148.716C402.483 147.587 401.823 147.202 401.311 147.08C400.816 146.965 399.884 146.99 399.149 148.511C393.167 162.285 386.813 176.468 380.253 190.667C373.726 204.8 366.845 218.239 359.781 230.687C359.748 230.761 359.699 230.843 359.608 230.982C358.783 232.446 357.413 234.695 355.532 237.664C353.675 240.592 351.769 243.128 349.846 245.213C348.84 246.301 347.495 247.463 346.711 246.931C346.257 246.244 345.622 244.355 345.877 239.161C346.092 234.793 346.653 229.648 347.536 223.874C348.427 218.059 349.401 212.341 350.441 206.878C351.48 201.398 352.38 196.875 353.106 193.423C353.287 192.482 353.444 191.664 353.584 190.977C353.758 190.151 353.931 189.309 354.104 188.45C354.962 184.491 355.606 180.712 356.01 177.228C356.448 173.441 356.027 170.816 354.715 169.18C352.462 166.391 347.742 169.278 346.166 170.243C341.545 173.302 336.528 177.972 331.272 184.099C326.066 190.168 320.95 196.474 316.073 202.845C313.061 206.755 310.214 210.346 307.599 213.511C305.123 216.554 302.326 219.858 299.281 223.334C296.451 226.557 293.744 229.28 291.244 231.415C291.252 231.382 291.261 231.35 291.269 231.309C291.797 229.329 292.96 226.238 294.718 222.124C296.467 218.026 298.588 213.159 301.03 207.646C304.306 200.408 307.623 192.801 310.899 185.023C314.183 177.228 316.882 170.022 318.911 163.61C321.007 156.985 321.783 152.167 321.271 148.789C320.281 144.634 317.624 143.98 315.578 144.16C313.012 144.389 309.959 145.607 306.493 147.783C303.118 149.893 299.628 152.478 296.112 155.455C292.614 158.416 289.404 161.295 286.574 164.002C283.752 166.71 281.623 168.804 280.269 170.21C280.179 170.3 280.071 170.415 279.989 170.513C279.065 171.429 277.538 173.049 275.451 175.306C273.338 177.588 271.16 180.197 268.973 183.068C266.753 185.972 265.062 188.826 263.923 191.525C262.685 194.486 262.694 196.94 263.94 198.829L263.997 198.903C265.441 200.702 267.339 201.34 269.476 200.751C271.35 200.236 273.231 199.222 275.071 197.742C276.829 196.327 278.33 194.969 279.576 193.676C280.261 192.883 280.583 191.992 280.534 191.018C280.476 189.775 279.906 189.047 279.436 188.654C278.982 188.278 277.992 187.771 276.449 188.589L276.284 188.704C275.962 188.965 275.739 189.194 275.591 189.415C275.393 189.71 275.277 190.02 275.261 190.356C275.253 190.552 275.261 190.757 275.277 190.977L275.302 191.108C275.302 191.108 275.31 191.165 275.31 191.182C275.31 191.182 275.294 191.206 275.253 191.264C274.708 191.73 273.726 192.401 272.315 193.259C270.887 194.135 269.46 194.83 268.082 195.32C267.133 195.664 266.77 195.59 266.663 195.541C266.58 195.034 266.729 193.922 268.148 191.648C269.468 189.538 271.168 187.264 273.198 184.884C275.253 182.487 277.192 180.328 278.957 178.488C280.732 176.631 281.912 175.412 282.464 174.864C283.603 173.727 285.46 171.92 288.141 169.335C290.757 166.808 293.761 164.068 297.086 161.181C300.387 158.31 303.663 155.701 306.839 153.435C309.942 151.218 312.599 149.763 314.728 149.116C315.363 148.92 316.238 148.756 316.783 149.067C317.121 149.255 317.36 149.664 317.492 150.204C317.855 152.388 317.236 156.011 315.644 160.993C314.018 166.088 311.79 172.01 309.018 178.602C306.254 185.178 303.308 191.967 300.279 198.78C297.73 204.571 295.345 210.1 293.183 215.212C291.029 220.308 289.346 224.684 288.183 228.209C286.524 233.239 286.78 234.965 287.118 235.824L287.16 235.922C287.572 236.707 288.183 237.002 288.62 237.116C289.552 237.353 290.683 237.018 292.086 236.085C293.901 234.883 295.972 233.108 298.25 230.802C300.486 228.536 302.639 226.23 304.636 223.939C306.674 221.608 308.143 219.899 309.158 218.688C309.364 218.427 309.529 218.214 309.661 218.059C312.649 214.492 315.949 210.387 319.464 205.855C324.217 199.696 329.16 193.652 334.144 187.886C339.062 182.193 343.691 177.882 347.907 175.069C350.069 173.629 350.944 173.597 351.224 173.654C351.332 173.67 351.381 173.711 351.439 173.793C351.827 174.374 352.215 175.666 351.827 178.496C351.489 180.991 350.977 183.624 350.325 186.364L349.64 189.693C349.467 190.519 349.252 191.574 349.005 192.842C348.246 196.4 347.305 201.12 346.208 206.869C345.102 212.644 344.103 218.688 343.237 224.855C342.362 231.055 341.867 236.65 341.776 241.467C341.677 246.555 342.338 249.925 343.773 251.789L343.839 251.863C344.326 252.378 345.16 253 346.331 253C347.107 253 348.031 252.73 349.104 251.969C350.762 250.8 352.479 249.058 354.203 246.792C355.887 244.584 357.43 242.334 358.808 240.101C360.144 237.918 361.159 236.225 361.819 235.071C369.114 222.492 376.26 208.775 383.067 194.323C389.866 179.886 396.418 165.401 402.566 151.218C402.904 150.294 402.978 149.452 402.78 148.716H402.797Z" fill="#00D8EC"/>
<path d="M466.251 206.771C465.814 206.73 465.335 206.878 464.84 207.205C464.172 207.663 462.579 208.505 460.062 209.732C457.546 210.959 454.781 212.153 451.761 213.315C448.741 214.476 446.142 215.163 443.964 215.368C441.785 215.572 440.696 214.893 440.696 213.315C440.82 212.276 441.315 211.082 442.173 209.732C443.031 208.383 443.798 207.295 444.467 206.461C445.432 207.336 446.967 207.36 449.088 206.55C451.2 205.741 453.246 204.522 455.219 202.903C457.191 201.283 458.404 199.721 458.866 198.232C459.328 196.735 458.387 195.738 456.036 195.239C453.684 195.198 451.101 196.245 448.271 198.388C445.441 200.531 442.957 203.009 440.82 205.839C439.863 207.107 439.103 208.284 438.534 209.397C432.593 212.701 428.426 214.051 426.041 213.446C425.076 213.159 424.523 212.014 424.374 210.018C424.226 208.023 424.655 205.07 425.662 201.169C427.048 196.22 426.52 193.439 424.094 192.818C422.245 192.482 419.621 193.431 416.205 195.648C412.789 197.872 409.117 200.67 405.206 204.031C401.287 207.393 397.648 210.64 394.298 213.756C392.87 215.049 391.929 215.801 391.467 216.03C391.005 216.259 391.319 215.58 392.408 214.002L396.121 208.456C397.837 206.919 400.709 204.072 404.736 199.917C408.762 195.762 412.929 190.936 417.245 185.424C421.561 179.919 425.043 174.365 427.683 168.755C428.104 167.798 428.624 166.383 429.251 164.518C429.878 162.653 430.307 160.813 430.538 159.005C430.769 157.197 430.53 155.954 429.812 155.267C429.102 154.58 427.609 154.948 425.348 156.355L394.669 205.217C393.703 206.133 393.093 206.69 392.845 206.902L392.779 206.968C392.482 207.262 392.301 207.671 392.21 208.211C392.127 208.792 391.896 209.454 391.517 210.207L390.073 212.513C389.949 212.726 389.8 212.955 389.635 213.2C389.173 213.904 388.678 214.762 388.158 215.752C387.639 216.75 387.308 217.691 387.185 218.59C387.061 219.482 387.35 220.177 388.068 220.676C389.074 221.298 391.17 220.341 394.355 217.813C397.54 215.278 401.122 212.186 405.107 208.53C408.581 205.291 411.857 202.412 414.918 199.901C417.979 197.39 420.323 195.942 421.957 195.566C423.59 195.19 423.987 196.646 423.153 199.925C420.471 209.732 421.082 215.155 424.977 216.194C426.693 216.734 428.863 216.48 431.479 215.441C433.22 214.754 435.192 213.781 437.387 212.538C437.346 212.742 437.313 212.938 437.296 213.135C437.214 216.169 438.344 217.87 440.688 218.247C443.031 218.623 445.886 218.23 449.236 217.061C452.586 215.899 455.763 214.517 458.759 212.914C461.754 211.319 463.883 210.076 465.137 209.209C466.185 208.456 466.738 207.876 466.804 207.467C466.87 207.049 466.68 206.82 466.243 206.78L466.251 206.771ZM447.231 203.598C447.99 202.976 448.873 202.314 449.905 201.602C450.928 200.899 451.91 200.261 452.826 199.705C453.75 199.148 454.393 198.805 454.773 198.674C455.565 198.469 456.003 198.42 456.06 198.551C456.126 198.674 455.945 198.968 455.524 199.426C454.6 200.383 453.263 201.43 451.497 202.575C449.74 203.72 448.246 204.522 447.033 204.972C446.15 205.266 445.779 205.266 445.903 204.972C446.026 204.686 446.472 204.228 447.223 203.598H447.231ZM410.512 186.397C410.85 185.898 411.56 184.818 412.649 183.158C413.779 181.375 415.124 179.306 416.676 176.958C418.227 174.611 419.72 172.378 421.173 170.26C422.617 168.141 423.78 166.538 424.663 165.458C425.546 164.379 425.893 164.215 425.703 164.959C425.513 165.704 424.564 167.74 422.84 171.069C419.902 176.517 416.238 181.768 411.84 186.839C405.47 194.732 405.025 194.593 410.52 186.405L410.512 186.397Z" fill="#00D8EC"/>
<path d="M523.03 207.458C523.096 207.041 522.906 206.812 522.46 206.771C522.023 206.73 521.544 206.878 521.049 207.205C520.381 207.663 518.788 208.505 516.272 209.732C513.755 210.959 510.991 212.153 507.971 213.315C504.951 214.476 502.351 215.163 500.173 215.368C497.995 215.572 496.905 214.893 496.905 213.315C497.029 212.276 497.524 211.082 498.382 209.732C499.241 208.383 500.008 207.295 500.676 206.461C501.642 207.336 503.177 207.36 505.297 206.55C507.41 205.741 509.456 204.522 511.428 202.903C513.4 201.283 514.613 199.721 515.075 198.232C515.537 196.735 514.597 195.738 512.245 195.239C509.893 195.198 507.311 196.245 504.48 198.388C501.65 200.531 499.166 203.009 497.029 205.839C496.155 206.992 495.453 208.072 494.9 209.094C493.275 210.207 491.435 211.343 489.355 212.505C486.756 213.961 484.38 214.991 482.218 215.588C480.056 216.194 478.727 215.916 478.224 214.746C477.803 212.963 478.166 210.894 479.297 208.546C480.427 206.199 481.624 204.211 482.878 202.592C485.271 199.476 485.832 196.964 484.578 195.051C483.323 193.137 481.038 191.46 477.729 190.004C477.184 189.759 476.879 189.497 476.813 189.227C476.747 188.957 476.846 188.573 477.093 188.074C477.679 186.618 477.877 185.334 477.688 184.213C477.498 183.093 477.069 182.16 476.4 181.408C474.601 180.034 473.05 179.764 471.746 180.598C470.451 181.432 469.84 182.839 469.923 184.835C470.088 186.168 470.765 187.534 471.936 188.949C472.357 189.407 472.662 189.873 472.852 190.356C473.042 190.83 472.926 191.362 472.506 191.942C471.581 192.981 470.979 193.521 470.682 193.562C470.385 193.603 470.179 193.832 470.055 194.249C469.972 194.707 470.047 195.124 470.278 195.492C470.509 195.868 470.872 196.024 471.375 195.958C471.878 195.901 472.464 195.451 473.133 194.617C473.389 194.331 473.76 193.84 474.263 193.153C474.767 192.466 475.179 192.09 475.493 192.032C475.806 191.967 476.178 192.082 476.59 192.376C476.631 192.417 476.697 192.458 476.78 192.499C478.835 193.619 480.361 194.797 481.368 196.016C482.374 197.243 482.16 198.829 480.741 200.784C475.666 207.475 473.57 212.251 474.453 215.114C475.336 217.985 477.993 218.917 482.44 217.92C485.848 217.159 489.595 215.245 493.663 212.202C493.588 212.513 493.531 212.824 493.506 213.118C493.423 216.153 494.554 217.854 496.897 218.23C499.241 218.607 502.096 218.214 505.446 217.044C508.796 215.883 511.973 214.501 514.968 212.898C517.963 211.303 520.092 210.059 521.346 209.192C522.394 208.44 522.947 207.859 523.013 207.45L523.03 207.458ZM502.12 204.964C502.244 204.677 502.69 204.219 503.441 203.59C504.192 202.968 505.083 202.305 506.114 201.594C507.137 200.89 508.111 200.253 509.035 199.696C509.959 199.14 510.611 198.797 510.983 198.666C511.783 198.461 512.212 198.412 512.27 198.543C512.336 198.666 512.154 198.96 511.733 199.418C510.809 200.375 509.473 201.422 507.707 202.567C505.949 203.712 504.456 204.514 503.243 204.964C502.36 205.258 501.988 205.258 502.112 204.964H502.12ZM474.956 186.52C474.915 186.683 474.874 186.855 474.833 187.019C474.833 187.141 474.824 187.256 474.8 187.362C474.775 187.468 474.725 187.518 474.643 187.518C474.387 187.518 474.131 187.313 473.859 186.896C473.587 186.479 473.347 186.037 473.133 185.555C472.918 185.072 472.794 184.737 472.753 184.524C472.712 183.199 472.918 182.545 473.38 182.561C473.842 182.586 474.263 182.986 474.635 183.78C475.014 184.573 475.113 185.481 474.948 186.52H474.956Z" fill="#00D8EC"/>
<path d="M606.56 190.724C607.377 190.536 608.153 190.143 608.887 189.538C609.621 188.933 610.026 188.335 610.108 187.73C610.191 187.125 609.671 186.781 608.54 186.7C608.037 186.659 607.616 186.781 607.286 187.076C606.948 187.37 606.758 187.738 606.717 188.196C606.717 188.237 606.676 188.278 606.593 188.319C606.511 188.36 606.387 188.401 606.214 188.442C605.999 188.564 605.76 188.704 605.487 188.843C605.215 188.99 605.009 189.153 604.86 189.341C604.712 189.53 604.687 189.726 604.77 189.93C605.149 190.634 605.743 190.896 606.56 190.707V190.724Z" fill="#00D8EC"/>
<path d="M664.445 206.771C664.007 206.73 663.529 206.878 663.034 207.205C662.365 207.663 660.773 208.505 658.256 209.732C655.739 210.959 652.975 212.153 649.955 213.315C646.935 214.476 644.336 215.163 642.157 215.368C639.979 215.572 638.89 214.893 638.89 213.315C639.013 212.276 639.509 211.082 640.367 209.732C641.225 208.383 641.992 207.295 642.661 206.461C643.626 207.336 645.169 207.36 647.281 206.55C649.394 205.741 651.44 204.522 653.412 202.903C655.384 201.283 656.597 199.721 657.06 198.232C657.522 196.735 656.581 195.738 654.229 195.239C651.878 195.198 649.295 196.245 646.465 198.388C643.634 200.531 641.151 203.009 639.013 205.839C637.033 208.464 635.886 210.738 635.564 212.677C635.366 212.636 635.135 212.628 634.855 212.668C630.91 213.233 627.272 213.724 623.946 214.149C621.009 214.501 618.244 214.869 615.653 215.253C615.497 215.286 615.34 215.302 615.191 215.302C614.614 215.409 614.226 215.433 614.028 215.384C613.838 215.335 613.854 215.106 614.086 214.697C614.317 214.296 614.746 213.601 615.365 212.611C615.752 212.014 616.198 211.311 616.701 210.501C617.205 209.83 617.749 209.274 618.327 208.816C618.484 208.644 618.657 208.464 618.847 208.293C621.165 206.182 624.408 202.993 628.567 198.723C632.726 194.453 636.604 189.89 640.202 185.039C643.799 180.189 645.903 175.813 646.522 171.912C646.209 170.93 645.747 170.366 645.128 170.227C644.509 170.088 643.857 170.202 643.18 170.57C642.504 170.938 641.934 171.421 641.472 172.018C636.637 177.923 628.072 189.628 615.769 207.123C615.455 207.368 615.183 207.646 614.927 207.965C614.828 208.088 614.77 208.219 614.713 208.35C614.515 208.35 614.284 208.424 614.02 208.571C613.599 208.816 612.311 209.331 610.15 210.1C607.988 210.869 605.619 211.589 603.045 212.251C600.47 212.914 598.366 213.167 596.757 212.996C595.148 212.832 594.694 211.941 595.404 210.313C596.328 208.44 597.723 206.125 599.588 203.361C601.452 200.596 603.185 198.093 604.778 195.852C604.86 195.729 604.943 195.623 605.025 195.541C605.322 195.165 605.545 194.772 605.718 194.355C605.883 193.938 605.826 193.505 605.529 193.047C605.108 192.507 604.415 192.433 603.458 192.826C602.492 193.218 601.659 193.824 600.941 194.633C600.231 195.443 600 196.179 600.248 196.842C600.124 196.964 599.975 197.177 599.81 197.463C599.224 198.249 598.424 199.386 597.417 200.858C596.411 202.338 595.404 203.949 594.397 205.716C593.828 206.714 593.333 207.687 592.904 208.636C582.235 210.337 570.303 214.223 560.583 217.87C556.184 218.721 540.738 227.898 546.34 221.208C556.283 207.009 569.288 183.788 576.896 168.812C575.039 166.35 571.021 176.238 569.758 177.49C561.127 193.676 532.816 237.051 532.824 239.872C533.319 240.96 534.491 240.445 535.085 239.472C539.681 229.109 545.829 227.416 557.059 222.991C567.283 218.836 580.312 214.255 591.683 211.973C591.427 213.045 591.41 213.969 591.625 214.738C591.922 215.777 592.879 216.3 594.513 216.3C596.402 216.3 599.53 215.678 603.911 214.427C607.575 213.38 610.653 212.251 613.161 211.033C612.361 212.186 611.594 213.323 610.876 214.443C610.57 214.967 610.29 215.368 610.034 215.629C609.778 215.891 609.456 216.079 609.044 216.186C608.639 216.292 608.029 216.415 607.22 216.554C600.14 217.715 594.694 218.795 590.89 219.793C587.078 220.799 584.495 221.796 583.142 222.794C581.789 223.792 581.269 224.896 581.574 226.091C581.731 226.868 582.193 227.612 582.969 228.332C583.745 229.051 584.636 229.763 585.634 230.466C586.798 231.309 587.804 232.151 588.654 232.994C589.504 233.836 589.892 234.711 589.818 235.627C589.776 235.693 589.71 235.775 589.611 235.865C589.512 235.955 589.43 236.012 589.347 236.053C589.191 236.159 589.083 236.265 589.026 236.372C588.968 236.478 589.05 236.584 589.29 236.683C589.834 236.822 590.288 236.723 590.651 236.396C591.022 236.061 591.262 235.685 591.377 235.259C591.65 234.278 591.361 233.345 590.503 232.462C589.653 231.587 588.63 230.761 587.425 229.984C586.575 229.387 585.816 228.79 585.164 228.193C584.504 227.595 584.099 227.015 583.943 226.45C583.596 225.469 585.007 224.34 588.176 223.072C591.344 221.805 597.401 220.332 606.337 218.647C607.303 218.435 607.847 218.378 607.963 218.459C608.078 218.549 607.963 218.819 607.616 219.277C607.501 219.416 607.385 219.58 607.27 219.752C604.489 223.719 601.964 227.35 599.695 230.638C597.434 233.926 594.925 237.55 592.178 241.525C592.021 241.664 591.872 241.745 591.716 241.762C591.559 241.778 591.41 241.786 591.253 241.786C591.064 241.754 590.882 241.745 590.734 241.762C590.577 241.778 590.428 241.868 590.272 242.024C590.115 242.179 589.983 242.457 589.867 242.841C589.323 244.248 589.339 245.156 589.9 245.557C590.461 245.958 591.229 245.941 592.194 245.508C593.16 245.066 593.952 244.265 594.571 243.111C597.937 238.188 601.032 233.64 603.854 229.46C606.024 226.23 608.4 222.713 610.991 218.917C611.42 218.288 611.841 217.87 612.27 217.682C612.699 217.486 613.392 217.322 614.358 217.183C614.515 217.183 614.663 217.167 614.82 217.134C620.546 216.153 627.371 215.098 635.3 213.969C635.375 213.953 635.432 213.936 635.49 213.92C635.622 216.447 636.736 217.887 638.865 218.222C641.208 218.598 644.063 218.206 647.413 217.036C650.764 215.875 653.94 214.492 656.936 212.889C659.931 211.294 662.06 210.051 663.314 209.184C664.362 208.432 664.915 207.851 664.981 207.442C665.047 207.025 664.857 206.796 664.412 206.755L664.445 206.771ZM644.105 204.964C644.228 204.677 644.674 204.219 645.425 203.59C646.176 202.968 647.067 202.305 648.098 201.594C649.122 200.89 650.095 200.253 651.019 199.696C651.944 199.14 652.595 198.797 652.967 198.666C653.767 198.461 654.196 198.412 654.254 198.543C654.32 198.666 654.139 198.96 653.718 199.418C652.794 200.375 651.457 201.422 649.691 202.567C647.933 203.712 646.44 204.514 645.227 204.964C644.344 205.258 643.973 205.258 644.096 204.964H644.105ZM630.968 190.208C636.307 182.97 639.74 178.635 641.266 177.212C642.793 175.789 642.661 176.476 640.862 179.265C639.063 182.062 635.82 186.127 631.141 191.468C625.993 197.373 625.935 196.948 630.968 190.2V190.208Z" fill="#00D8EC"/>
<path d="M788.342 156.87C788.342 156.87 788.366 156.788 788.408 156.748C788.911 155.962 789.951 154.204 791.518 151.48C793.086 148.756 794.58 145.853 795.982 142.753C797.385 139.661 798.095 137.126 798.12 135.146C798.136 133.175 796.874 132.562 794.316 133.306C792.682 134.05 789.629 137.592 785.165 143.931C782.97 147.047 780.651 150.441 778.225 154.097C778.011 153.868 777.697 153.639 777.144 153.386L776.699 153.173C775.816 152.756 774.982 152.355 772.944 152.069C770.725 151.766 769.124 151.758 765.947 151.742H765.444C762.621 151.717 760.542 151.799 757.671 151.897L755.261 151.979C751.177 152.11 748.544 152.216 743.734 152.47C741.126 152.609 739.187 152.732 737.215 152.862C735.713 152.961 734.195 153.059 732.338 153.165C730.35 153.271 728.79 153.353 727.338 153.419C725.638 153.5 724.079 153.574 722.172 153.689C721.05 153.754 720.126 153.787 719.309 153.819C717.535 153.885 716.248 153.942 714.581 154.212C712.287 154.588 711.346 155.046 710.249 155.578L709.985 155.709C708.673 156.339 708.376 156.805 708.062 157.451C707.897 157.803 707.864 158.13 707.972 158.432C708.087 158.751 708.351 159.005 708.747 159.193C709.019 159.316 709.234 159.357 709.482 159.357C709.638 159.357 709.795 159.34 709.993 159.324C710.216 159.299 710.513 159.275 710.917 159.259C711.239 159.242 711.536 159.242 711.833 159.242C712.691 159.234 713.583 159.218 715.332 158.972C716.396 158.817 717.296 158.621 718.253 158.408C719.4 158.154 720.704 157.868 722.593 157.59C725.952 157.099 728.204 156.878 732.305 156.478L732.932 156.42C737.025 156.02 739.492 155.782 743.932 155.504C748.445 155.226 751.012 155.12 755.368 155.03C759.527 154.94 761.871 154.924 765.377 155.071C767.432 155.161 768.81 155.341 770.031 155.504C770.865 155.619 771.657 155.717 772.565 155.782C773.984 155.881 774.793 155.872 775.436 155.872C775.816 155.872 776.146 155.872 776.542 155.881C776.748 155.889 776.905 155.905 777.037 155.913C774.9 159.152 772.688 162.579 770.386 166.219C764.981 174.758 760.08 182.692 755.674 190.029C751.276 197.365 748.363 202.355 746.935 205.021C741.489 213.748 737 220.889 733.477 226.459C730.374 231.448 727.891 235.456 726.026 238.49C724.161 241.525 722.8 243.831 721.941 245.41C721.083 246.988 720.621 248.109 720.555 248.771C720.489 249.434 720.695 249.867 721.149 250.08C721.653 250.325 722.164 250.317 722.692 250.047C723.22 249.777 723.666 249.385 724.046 248.861C724.425 248.346 724.706 247.863 724.895 247.43C725.085 246.996 725.118 246.776 724.986 246.776L749.947 206.452C750.327 205.831 750.616 205.373 750.83 205.078C751.036 204.792 751.218 204.579 751.366 204.457C751.515 204.334 751.688 204.211 751.903 204.08C752.15 203.958 752.637 203.647 753.347 203.148C757.076 199.991 762.407 193.775 769.346 184.516C776.286 175.249 782.623 166.031 788.366 156.846L788.342 156.87ZM756.243 196.564C756.218 196.441 756.507 195.918 757.093 195.01C760.278 189.857 763.529 184.499 766.838 178.929C770.733 172.321 774.718 165.761 778.786 159.234C782.854 152.707 786.98 146.581 791.172 140.847C794.151 136.987 795.223 136.275 794.415 138.729C793.598 141.183 790.611 146.646 785.454 155.12C781.138 162.015 776.418 169.147 771.31 176.5C766.194 183.853 761.565 190.151 757.415 195.386C756.664 196.302 756.276 196.695 756.251 196.572L756.243 196.564Z" fill="#00D8EC"/>
<path d="M827.124 210.288C829.682 206.485 831.943 202.927 833.915 199.598C834.583 198.437 835.219 197.398 835.804 196.482C836.266 195.607 836.382 194.985 836.151 194.609C835.92 194.233 835.565 194.11 835.087 194.233C834.608 194.355 834.212 194.715 833.923 195.296C829.773 201.987 826.365 207.107 823.708 210.656C821.042 214.206 818.971 216.545 817.486 217.666C816.001 218.787 814.879 219.081 814.119 218.541C813.368 218.001 812.717 216.856 812.172 215.114C811.627 213.372 811.19 211.433 810.852 209.323C810.81 208.988 810.769 208.62 810.728 208.203C810.522 206.125 810.018 203.966 809.218 201.725C808.418 199.484 806.866 198.445 804.564 198.609C803.516 198.821 802.229 199.5 800.694 200.67C799.168 201.831 797.558 203.14 795.883 204.596C794.167 206.133 790.066 210.763 788.639 211.842C787.797 212.546 787.327 212.808 787.228 212.619C787.12 212.431 787.261 211.965 787.632 211.221C787.797 210.885 787.945 210.558 788.069 210.223C788.573 209.143 791.584 204.906 792.047 204.154C792.509 203.41 793.243 202.616 794.25 201.79C795.174 201.046 795.875 200.253 796.354 199.426C796.832 198.592 796.824 197.742 796.321 196.875C795.314 196.212 794.349 196.269 793.433 197.063C792.583 197.791 791.411 199.492 789.926 202.15C789.835 202.297 789.736 202.461 789.612 202.657C789.175 203.393 782.235 209.724 781.278 209.871C780.313 210.018 779.43 209.847 778.638 209.372C777.846 208.89 777.4 208.031 777.317 206.788C777.276 205.046 776.839 203.737 775.997 202.862C775.156 201.987 774.281 201.512 773.357 201.43C772.433 201.349 771.805 201.635 771.467 202.306C771.129 203.303 771.236 204.416 771.781 205.643C772.325 206.869 772.977 207.851 773.728 208.603C773.934 208.767 774.042 208.914 774.042 209.037C774.042 209.16 773.976 209.307 773.852 209.47C773.769 209.593 773.662 209.765 773.538 209.969C772.87 211.303 772.004 212.652 770.964 214.018C769.916 215.392 768.975 216.325 768.133 216.824C766.285 217.78 764.825 217.748 763.735 216.734C762.646 215.711 762.531 213.773 763.389 210.91C764.247 208.039 766.665 204.26 770.65 199.565C770.774 199.402 770.914 199.304 771.063 199.287C771.211 199.271 771.368 199.255 771.533 199.255C771.871 199.296 772.309 199.214 772.853 199.009C773.398 198.805 774.108 198.24 774.991 197.324C775.453 196.163 775.428 195.386 774.925 194.985C774.421 194.593 773.687 194.56 772.721 194.887C771.55 195.222 769.974 196.441 768.01 198.568C762.853 204.514 760.237 209.315 760.154 212.996C760.072 216.676 761.318 218.885 763.892 219.629C766.467 220.373 769.223 219.343 772.16 216.513C772.746 215.891 773.365 215.081 774.017 214.083C774.669 213.086 775.197 212.21 775.618 211.466C775.865 210.967 776.121 210.706 776.369 210.689C776.616 210.673 776.888 210.779 777.185 211.033C777.598 211.327 778.242 211.556 779.1 211.72C779.958 211.883 781.187 211.654 782.78 211.033C783.267 210.812 785.09 209.176 786.856 207.499C785.734 209.479 784.678 211.458 784.447 212.456C784.009 214.345 784.241 215.523 785.14 215.981C786.039 216.439 787.879 215.67 790.644 213.675C791.353 213.135 794.91 208.98 796.255 207.859C797.889 206.444 799.555 205.078 801.255 203.745C802.955 202.42 804.201 201.627 804.993 201.381C805.538 201.422 806.016 202.305 806.437 204.031C806.858 205.757 807.213 207.696 807.502 209.863C808.55 216.39 810.134 220.202 812.246 221.298C814.359 222.394 816.727 221.796 819.351 219.49C821.967 217.183 824.558 214.133 827.116 210.329L827.124 210.288Z" fill="#00D8EC"/>
<path d="M849.807 199.32C849.51 198.887 849.073 198.6 848.487 198.478C846.639 198.813 844.988 200.285 843.52 202.903C842.051 205.52 840.772 208.203 839.683 210.943C839.097 212.317 838.577 213.478 838.115 214.435C837.653 215.392 837.257 215.973 836.918 216.177C834.154 217.633 831.258 219.335 828.246 221.289C825.226 223.244 822.66 225.142 820.539 226.99C818.427 228.839 817.321 230.303 817.238 231.382C817.156 232.462 818.682 232.855 821.826 232.568C825.853 232.029 829.327 230.425 832.265 227.767C835.202 225.109 837.463 222.263 839.055 219.228C839.27 218.852 839.518 218.459 839.815 218.042C840.112 217.625 840.401 217.314 840.698 217.11C841.201 216.774 841.721 216.57 842.274 216.488C842.736 216.447 843.198 216.3 843.66 216.055C844.163 215.768 844.477 215.409 844.601 215C844.724 214.582 844.617 214.247 844.287 213.969C843.957 213.691 843.363 213.691 842.529 213.936C842.488 213.936 842.447 213.961 842.406 214.002C842.158 214.083 841.952 214.124 841.812 214.124C841.671 214.124 841.605 214.034 841.622 213.846C841.638 213.658 841.713 213.339 841.845 212.881C842.1 212.26 842.323 211.613 842.538 210.951C843.041 209.577 843.561 208.211 844.105 206.837C844.898 206.002 845.574 205.324 846.119 204.784C846.663 204.244 847.2 203.696 847.72 203.132C848.248 202.567 848.858 201.815 849.576 200.858C850.038 200.277 850.121 199.77 849.832 199.328L849.807 199.32ZM835.029 220.357C834.864 220.643 834.649 220.946 834.402 221.265C834.154 221.576 833.923 221.854 833.709 222.107C831.778 224.348 829.517 226.27 826.918 227.874C824.318 229.468 822.33 230.229 820.943 230.147C820.688 230.106 821.075 229.632 822.107 228.716C823.13 227.8 824.483 226.712 826.158 225.444C827.833 224.177 829.484 222.991 831.093 221.895C832.71 220.79 833.973 220.03 834.897 219.621C835.144 219.539 835.276 219.572 835.276 219.719C835.276 219.866 835.194 220.079 835.029 220.373V220.357Z" fill="#00D8EC"/>
<path d="M725.58 188.327C727.767 187.943 729.459 187.665 731.208 187.387C732.206 187.231 733.229 187.068 734.368 186.88C735.49 186.691 736.406 186.552 737.232 186.422C738.709 186.193 739.88 186.013 741.308 185.694C743.618 185.17 744.674 184.827 745.5 184.336C745.764 184.18 746.374 183.821 746.3 183.248C746.226 182.675 745.541 182.487 745.252 182.406C744.212 182.103 742.925 182.029 740.804 182.152C738.832 182.267 737.388 182.487 734.987 182.855L733.766 183.044C732.107 183.289 730.729 183.534 729.277 183.796C728.98 183.845 728.683 183.902 728.378 183.96C728.617 183.575 728.864 183.183 729.12 182.765C731.356 179.158 732.371 177.4 733.906 174.742C734.335 173.989 734.715 173.351 735.045 172.795C735.936 171.282 736.522 170.292 737.133 168.869C737.85 167.2 737.933 166.374 738.024 165.491C738.04 165.327 738.057 165.156 738.081 164.984C738.23 163.839 738.114 163.528 737.784 162.988C737.421 162.399 736.844 162.203 736.159 162.416C735.565 162.604 735.367 162.8 734.723 163.651L734.492 163.953C733.972 164.632 733.527 165.221 732.71 166.857C732.248 167.789 731.934 168.583 731.563 169.499C731.2 170.399 730.787 171.421 730.143 172.828C729.838 173.49 729.566 174.087 729.302 174.676C728.419 176.623 727.66 178.308 726.158 181.072C725.432 182.397 724.788 183.542 724.136 184.647C721.554 185.031 719.747 185.26 717.527 185.538L716.281 185.694C714.994 185.857 713.97 185.947 713.046 186.029C711.734 186.152 710.604 186.25 709.251 186.503C707.179 186.88 706.214 187.264 705.182 187.665L704.819 187.804C703.697 188.229 703.507 188.385 703.144 188.9C702.864 189.284 702.567 189.881 703.235 190.56L703.342 190.675C703.706 191.075 704.036 191.354 705.257 191.509L705.488 191.542C706.181 191.632 706.849 191.713 707.724 191.713C708.359 191.713 709.11 191.664 710.051 191.542C711.437 191.362 712.543 191.075 713.822 190.748C714.721 190.519 715.728 190.258 717.007 189.988C718.633 189.652 719.969 189.382 721.422 189.096C721.083 189.644 720.728 190.208 720.341 190.83C718.715 193.439 717.51 195.247 716.124 197.349C715.381 198.461 714.598 199.655 713.673 201.07C712.84 202.355 712.13 203.459 711.47 204.481C710.059 206.665 708.846 208.554 707.113 211.131C704.712 214.713 703.375 216.594 701.362 219.441L701.057 219.866C700.083 221.248 699.283 222.304 698.581 223.236C697.715 224.389 696.964 225.379 696.172 226.598C695 228.381 694.612 229.231 694.2 230.131C694.101 230.344 694.002 230.556 693.894 230.794C693.342 231.98 693.284 232.356 693.201 232.83L693.177 232.969C693.094 233.452 693.201 233.763 693.54 233.967C693.672 234.122 693.82 234.18 694.035 234.204C694.117 234.245 694.191 234.262 694.266 234.262C694.522 234.262 694.753 234.09 694.876 234C694.959 233.934 695.041 233.885 695.124 233.836C695.47 233.615 695.858 233.362 696.584 232.487C697.443 231.44 697.88 230.851 699.324 228.642C700.034 227.563 700.611 226.606 701.271 225.526C701.931 224.447 702.666 223.236 703.689 221.641C704.869 219.801 705.81 218.386 706.874 216.791C707.658 215.613 708.5 214.337 709.556 212.726C710.571 211.164 711.404 209.871 712.221 208.603C713.393 206.788 714.523 205.029 716.099 202.633C717.403 200.653 718.434 199.132 719.458 197.619C720.53 196.04 721.578 194.486 722.915 192.45C723.971 190.838 724.821 189.538 725.605 188.319L725.58 188.327Z" fill="#00D8EC"/>
</g>
</g>
<defs>
<clipPath id="clip0_470_2383">
<rect width="702" height="92.5984" fill="white"/>
</clipPath>
<clipPath id="clip1_470_2383">
<rect width="587" height="120" fill="white" transform="translate(263 133)"/>
</clipPath>
</defs>
</svg>
