<svg width="32" height="32" viewBox="0 0 32 32" fill="none" xmlns="http://www.w3.org/2000/svg">
<g clip-path="url(#clip0_1793_15997)">
<path d="M19.8346 31.9948H4.50152C4.22464 31.9948 4 31.77 4 31.4929V0.501879C4 0.2248 4.22464 0 4.50152 0H27.4985C27.6343 0 27.7597 0.052279 27.8537 0.146381C27.9478 0.240484 28 0.371181 28 0.501879L27.9112 23.8236C27.9112 23.9543 27.8589 24.0797 27.7649 24.1738L20.1898 31.8432C20.0958 31.9373 19.9652 31.9948 19.8346 31.9948ZM5.00827 30.9858H19.6256L26.9081 23.6144L26.9917 1.00376H5.00305V30.9858H5.00827Z" fill="#2C3EB1"/>
<path d="M19.829 31.9949C19.7663 31.9949 19.6984 31.9844 19.6357 31.9583C19.4476 31.8799 19.3223 31.6969 19.3223 31.493V27.6766C19.3223 24.6653 20.6492 23.3218 23.6218 23.3218H27.3989C27.6026 23.3218 27.7855 23.442 27.8638 23.6302C27.9422 23.8184 27.9004 24.0328 27.7594 24.1792L20.1843 31.8485C20.0902 31.9478 19.9596 32.0001 19.829 32.0001V31.9949ZM23.627 24.3255C21.2239 24.3255 20.3305 25.23 20.3305 27.6714V30.2644L26.1973 24.3255H23.6218H23.627Z" fill="#2C3EB1"/>
<path fill-rule="evenodd" clip-rule="evenodd" d="M4.55469 0.501953H27.4524V8.24971H4.55469V0.501953ZM10.5312 6.57223H11.3985V5.8036H10.5312V6.57223ZM13.1538 6.57223V4.97223H13.159H14.0262C14.5225 4.97223 14.9144 4.84151 15.2069 4.59576C15.489 4.33955 15.6353 4.01014 15.6353 3.58138C15.6353 3.15262 15.489 2.81798 15.2069 2.56177C14.9144 2.30556 14.5225 2.16962 14.0262 2.16962H12.2866V6.57223H13.1538ZM14.021 4.29249H13.1538V4.28726V2.84935H14.021C14.2666 2.84935 14.4546 2.91733 14.5696 3.05851C14.6949 3.19445 14.7524 3.37746 14.7524 3.58138C14.7524 3.7853 14.6949 3.96308 14.5696 4.0938C14.439 4.23498 14.2666 4.29249 14.021 4.29249ZM16.2674 2.16962V6.57223H17.7616C18.2944 6.57223 18.7385 6.40491 19.0781 6.05981C19.4176 5.72517 19.5952 5.28073 19.5952 4.73694V4.01537C19.5952 3.47158 19.4176 3.02713 19.0781 2.69249C18.7385 2.34739 18.2996 2.16962 17.7616 2.16962H16.2674ZM17.1451 5.88726V2.84935V2.84413H17.7198C18.0332 2.84413 18.2735 2.9487 18.4511 3.16831C18.6235 3.37746 18.7124 3.65458 18.7124 3.99968V4.73171C18.7124 5.07681 18.6288 5.35393 18.4511 5.56831C18.2735 5.77746 18.0332 5.88726 17.7198 5.88726H17.1451ZM21.1468 4.74217H22.9753V4.06243H21.1468V2.84935H23.2783V2.16962H20.2796V6.567H21.1468V4.74217Z" fill="#2C3EB1"/>
<path d="M20.1426 19.4896C19.6568 19.4896 19.0612 19.5576 18.3664 19.6883C17.3999 18.6427 16.3917 17.1318 15.6812 15.6419C16.3864 12.6306 16.0312 12.2071 15.8745 12.0085C15.7073 11.7941 15.4722 11.4438 15.211 11.4438C15.0961 11.4438 14.7931 11.4909 14.6729 11.5327C14.3594 11.6425 14.2027 11.8778 14.0669 12.1862C13.696 13.075 14.2132 14.5754 14.7304 15.7412C14.2811 17.5553 13.5288 19.7196 12.7295 21.4867C10.7286 22.412 9.66289 23.3216 9.57408 24.1895C9.53751 24.5032 9.61587 24.9684 10.1592 25.3814C10.3055 25.5017 10.4831 25.5592 10.6659 25.5592C11.1361 25.5592 11.5958 25.2037 12.1392 24.4352C12.531 23.8706 12.9594 23.1125 13.3982 22.1663C14.814 21.5442 16.5641 20.9743 18.0634 20.6554C18.8941 21.4657 19.6463 21.8787 20.2889 21.8787C20.7591 21.8787 21.1666 21.6592 21.4591 21.2357C21.7621 20.8123 21.8301 20.4149 21.6629 20.0908C21.4591 19.6883 20.9576 19.4896 20.1322 19.4896H20.1426ZM10.6816 24.66C10.4361 24.4613 10.4465 24.3359 10.457 24.2836C10.4883 23.9856 10.948 23.4628 12.0765 22.825C11.2197 24.4247 10.76 24.6286 10.6816 24.66ZM15.0177 12.411C15.049 12.4006 15.5767 13.0018 15.0752 14.131C14.3124 13.352 14.9655 12.4319 15.0177 12.411ZM13.9311 20.9691C14.4587 19.6883 14.9655 18.2558 15.3364 16.9331C15.9319 18.0101 16.6424 19.0557 17.3581 19.8921C16.2349 20.1588 15.0334 20.5456 13.9311 20.9691ZM20.7487 20.7234C20.5815 20.9534 20.2315 20.9534 20.1061 20.9534C19.824 20.9534 19.7247 20.7861 19.2963 20.4515C19.6463 20.4149 19.9807 20.4045 20.2524 20.4045C20.7225 20.4045 20.8009 20.4724 20.8688 20.5038C20.8584 20.5404 20.827 20.6136 20.7539 20.7286L20.7487 20.7234Z" fill="#2C3EB1"/>
</g>
<defs>
<clipPath id="clip0_1793_15997">
<rect width="32" height="32" fill="white"/>
</clipPath>
</defs>
</svg>
