<svg width="40" height="40" viewBox="0 0 40 40" fill="none" xmlns="http://www.w3.org/2000/svg">
<rect x="40" y="40" width="40" height="40" rx="20" transform="rotate(-180 40 40)" fill="white"/>
<path fill-rule="evenodd" clip-rule="evenodd" d="M15.189 11.7752C16.2329 9.67964 17.8608 7.99908 19.9586 7.99908C21.4427 7.99908 22.7004 8.8549 23.6534 10.057C24.5173 11.1467 25.2033 12.602 25.6774 14.2636C26.2552 14.4298 26.8045 14.6209 27.3197 14.8347C29.3163 15.663 30.9709 16.9055 31.6262 18.5248L32.0013 19.4518L30.1474 20.202L29.7723 19.2751C29.4117 18.384 28.3473 17.4263 26.5533 16.682C24.7973 15.9535 22.4994 15.4996 19.9592 15.4996C18.503 15.4996 17.1284 15.6487 15.8906 15.9123C15.6277 17.1559 15.479 18.537 15.479 20C15.479 21.4631 15.6277 22.8442 15.8906 24.0878C17.1284 24.3514 18.503 24.5005 19.9592 24.5005C21.8657 24.5005 23.6321 24.2452 25.1349 23.8114L23.0199 22.776L22.1218 22.3363L23.0011 20.54L23.8993 20.9797L27.6371 22.8095L28.086 22.5885L28.4673 23.3629C28.5189 23.4392 28.5596 23.522 28.5885 23.6088L28.9696 24.3827L28.3896 24.6683L26.5005 28.5568C26.2592 29.0535 25.6608 29.2606 25.164 29.0193C24.6673 28.7779 24.4602 28.1796 24.7016 27.6828L25.6422 25.7466C23.9448 26.2312 22.0049 26.5005 19.9592 26.5005C18.7629 26.5005 17.6025 26.4083 16.5055 26.2348C16.6511 26.6256 16.8096 26.9927 16.9792 27.333C17.9186 29.2189 19.0305 30.001 19.9586 30.001C20.1957 30.001 20.4352 29.9534 20.6774 29.8547L21.6036 29.4777L22.3577 31.3301L21.4315 31.7071C20.9658 31.8967 20.471 32.001 19.9586 32.001C17.8608 32.001 16.2329 30.3204 15.189 28.2248C14.8172 27.4784 14.4979 26.6419 14.2393 25.7361C13.3374 25.4765 12.5045 25.1561 11.7612 24.783C9.67034 23.7335 8 22.0996 8 20C8 17.9005 9.67034 16.2666 11.7612 15.2171C12.5045 14.844 13.3374 14.5236 14.2393 14.264C14.4979 13.3582 14.8172 12.5216 15.189 11.7752ZM16.5054 13.7653C17.6025 13.5918 18.7629 13.4996 19.9592 13.4996C21.1561 13.4996 22.3159 13.5918 23.4116 13.765C23.0371 12.7599 22.5827 11.9259 22.0861 11.2995C21.3522 10.3737 20.6137 9.99908 19.9586 9.99908C19.0305 9.99908 17.9186 10.7811 16.9792 12.667C16.8096 13.0074 16.6511 13.3744 16.5054 13.7653ZM13.7439 16.5323C13.3577 16.6776 12.995 16.8356 12.6584 17.0045C10.7829 17.9459 10 19.0622 10 20C10 20.9379 10.7829 22.0541 12.6584 22.9955C12.995 23.1645 13.3577 23.3225 13.7439 23.4678C13.5709 22.3664 13.479 21.2013 13.479 20C13.479 18.7988 13.5709 17.6336 13.7439 16.5323Z" fill="#0047DD"/>
</svg>
