<svg xmlns="http://www.w3.org/2000/svg" width="30" height="24" viewBox="0 0 30 24" fill="none">
    <path d="M2.27344 12C-0.0703125 14.3438 -0.0703125 18.1406 2.27344 20.4844C4.61719 22.8281 8.41406 22.8281 10.7578 20.4844L11.8172 19.425L10.7578 18.3656L9.69844 19.425C7.94062 21.1828 5.09062 21.1828 3.33281 19.425C1.575 17.6672 1.575 14.8172 3.33281 13.0594L9.17344 7.22344C10.9266 5.47031 13.7719 5.47031 15.5297 7.22344C17.1984 8.89219 17.2922 11.5641 15.75 13.3453L15.5016 13.6312L16.6359 14.6156L16.8844 14.3297C18.9422 11.9531 18.8156 8.39063 16.5938 6.16875C14.2453 3.82031 10.4531 3.82031 8.10938 6.15937L2.27344 12ZM27.7312 12C30.075 9.65625 30.075 5.85938 27.7312 3.51562C25.3875 1.17188 21.5906 1.17188 19.2469 3.51562L18.1828 4.575L19.2422 5.63437L20.3016 4.575C22.0594 2.81719 24.9094 2.81719 26.6672 4.575C28.425 6.33281 28.425 9.18281 26.6672 10.9406L20.8266 16.7766C19.0734 18.5297 16.2281 18.5297 14.4703 16.7766C12.8016 15.1078 12.7078 12.4359 14.25 10.6547L14.4984 10.3687L13.3641 9.38437L13.1156 9.67031C11.0578 12.0469 11.1844 15.6094 13.4062 17.8312C15.7453 20.1703 19.5422 20.1703 21.8812 17.8312L27.7266 12H27.7312Z" fill="#2C3EB1"/>
    </svg>