<svg width="158" height="158" viewBox="0 0 158 158" fill="none" xmlns="http://www.w3.org/2000/svg">
<g filter="url(#filter0_bd_577_4331)">
<rect x="29" y="22" width="100" height="100" rx="50" fill="#D9D9D9" fill-opacity="0.3" shape-rendering="crispEdges"/>
<g clip-path="url(#clip0_577_4331)">
<path d="M96.9375 72C96.9375 67.3587 95.0477 62.9075 91.6837 59.6256C88.3198 56.3437 83.7573 54.5 79 54.5C74.2427 54.5 69.6802 56.3437 66.3163 59.6256C62.9523 62.9075 61.0625 67.3587 61.0625 72C61.0625 76.6413 62.9523 81.0925 66.3163 84.3744C69.6802 87.6563 74.2427 89.5 79 89.5C83.7573 89.5 88.3198 87.6563 91.6837 84.3744C95.0477 81.0925 96.9375 76.6413 96.9375 72ZM58.5 72C58.5 66.6957 60.6598 61.6086 64.5043 57.8579C68.3488 54.1071 73.5631 52 79 52C84.4369 52 89.6512 54.1071 93.4957 57.8579C97.3402 61.6086 99.5 66.6957 99.5 72C99.5 77.3043 97.3402 82.3914 93.4957 86.1421C89.6512 89.8929 84.4369 92 79 92C73.5631 92 68.3488 89.8929 64.5043 86.1421C60.6598 82.3914 58.5 77.3043 58.5 72ZM75.1562 80.4609L72.5938 82V79.0625V64.9375V62L75.1562 63.5391L86.8076 70.5312L89.25 72L86.8076 73.4688L75.1562 80.4609ZM84.3572 72L75.1562 66.4766V77.5234L84.3572 72Z" fill="white"/>
</g>
<rect x="28.7817" y="21.7817" width="100.437" height="100.437" rx="50.2183" stroke="url(#paint0_angular_577_4331)" stroke-width="0.436681" shape-rendering="crispEdges"/>
</g>
<defs>
<filter id="filter0_bd_577_4331" x="0.615635" y="0.602778" width="156.769" height="156.768" filterUnits="userSpaceOnUse" color-interpolation-filters="sRGB">
<feFlood flood-opacity="0" result="BackgroundImageFix"/>
<feGaussianBlur in="BackgroundImageFix" stdDeviation="5.24017"/>
<feComposite in2="SourceAlpha" operator="in" result="effect1_backgroundBlur_577_4331"/>
<feColorMatrix in="SourceAlpha" type="matrix" values="0 0 0 0 0 0 0 0 0 0 0 0 0 0 0 0 0 0 127 0" result="hardAlpha"/>
<feOffset dy="6.9869"/>
<feGaussianBlur stdDeviation="13.9738"/>
<feComposite in2="hardAlpha" operator="out"/>
<feColorMatrix type="matrix" values="0 0 0 0 0 0 0 0 0 0.278431 0 0 0 0 0.866667 0 0 0 0.12 0"/>
<feBlend mode="normal" in2="effect1_backgroundBlur_577_4331" result="effect2_dropShadow_577_4331"/>
<feBlend mode="normal" in="SourceGraphic" in2="effect2_dropShadow_577_4331" result="shape"/>
</filter>
<radialGradient id="paint0_angular_577_4331" cx="0" cy="0" r="1" gradientUnits="userSpaceOnUse" gradientTransform="translate(79 72) rotate(89.7798) scale(36.2388 36.2441)">
<stop offset="0.144806" stop-color="#00D8EC"/>
<stop offset="0.347377" stop-color="white" stop-opacity="0.04"/>
<stop offset="0.653019" stop-color="#0047DD"/>
<stop offset="0.847291" stop-color="white" stop-opacity="0.07"/>
</radialGradient>
<clipPath id="clip0_577_4331">
<rect width="41" height="40" fill="white" transform="translate(58.5 52)"/>
</clipPath>
</defs>
</svg>
