<svg xmlns="http://www.w3.org/2000/svg" width="16" height="16" viewBox="0 0 16 16" fill="none">
    <path
        d="M1 0H3.70625L3.85313 0.146875L5.05312 1.34375C5.4 1.125 5.80937 1 6.25 1C6.88125 1 7.45312 1.25937 7.8625 1.68125L8.25 1.29375L8.95625 2L5 5.95625L4.29375 5.25L4.68125 4.8625C4.25938 4.45312 4 3.88125 4 3.25C4 2.80938 4.125 2.4 4.34375 2.05312L3.29375 1H2V8H16V9H0V8H1V0ZM1 10H2V11.5C2 12.3188 2.39375 13.0437 3 13.5C3.41875 13.8125 3.9375 14 4.5 14H11.5C12.0625 14 12.5813 13.8125 13 13.5C13.6062 13.0437 14 12.3188 14 11.5V10H15V11.5C15 12.4531 14.6187 13.3187 14 13.95V16H13V14.6625C12.5469 14.8781 12.0375 15 11.5 15H4.5C3.9625 15 3.45312 14.8781 3 14.6625V16H2V13.95C1.38125 13.3187 1 12.4531 1 11.5V10ZM6.25 2C5.55937 2 5 2.55938 5 3.25C5 3.60625 5.15 3.92812 5.3875 4.15625L7.15625 2.3875C6.92812 2.15 6.60625 2 6.25 2Z"
        fill="#101010" />
</svg>