<svg xmlns="http://www.w3.org/2000/svg" width="53" height="40" viewBox="0 0 53 40" fill="none">
    <path
        d="M0 23.871C0 16.129 1.96296 10.2366 5.88889 6.19355C9.81481 2.06452 15.2675 0 22.2469 0V8.3871C19.0189 8.3871 16.4453 9.24731 14.5259 10.9677C12.6938 12.6021 11.7778 14.7527 11.7778 17.4194V18.7097L12.6938 18.4516C13.7407 18.1935 14.5259 18.0645 15.0494 18.0645C17.7539 18.0645 19.935 19.0108 21.5926 20.9032C23.3374 22.7097 24.2099 25.2043 24.2099 28.3871C24.2099 31.6559 23.0757 34.4086 20.8074 36.6452C18.5391 38.8817 15.7473 40 12.4321 40C8.59342 40 5.53992 38.6667 3.27161 36C1.09054 33.2473 0 29.2043 0 23.871ZM28.7901 23.871C28.7901 16.129 30.7531 10.2366 34.679 6.19355C38.6049 2.06452 44.0576 0 51.037 0V8.3871C47.8091 8.3871 45.2354 9.24731 43.3161 10.9677C41.484 12.6021 40.5679 14.7527 40.5679 17.4194V18.7097L41.4839 18.4516C42.5309 18.1935 43.3161 18.0645 43.8395 18.0645C46.544 18.0645 48.7251 19.0108 50.3827 20.9032C52.1276 22.7097 53 25.2043 53 28.3871C53 31.6559 51.8658 34.4086 49.5975 36.6452C47.3292 38.8817 44.5374 40 41.2222 40C37.3835 40 34.33 38.6667 32.0617 36C29.8807 33.2473 28.7901 29.2043 28.7901 23.871Z"
        fill="#2C3EB1" />
</svg>