<svg xmlns="http://www.w3.org/2000/svg" width="22" height="24" viewBox="0 0 22 24" fill="none">
    <g clip-path="url(#clip0_313_939)">
        <path
            d="M7.83301 0H7.41582L7.19551 0.351562L5.54082 3H3.33301H1.83301H0.333008V4.5H1.83301V22.5V24H3.33301H18.333H19.833V22.5V4.5H21.333V3H19.833H18.333H16.1252L14.4705 0.351562L14.2502 0H13.833H7.83301ZM14.3533 3H7.3127L8.2502 1.5H13.4158L14.3533 3ZM3.33301 22.5V4.5H18.333V22.5H3.33301ZM7.08301 8.25V7.5H5.58301V8.25V18.75V19.5H7.08301V18.75V8.25ZM11.583 8.25V7.5H10.083V8.25V18.75V19.5H11.583V18.75V8.25ZM16.083 8.25V7.5H14.583V8.25V18.75V19.5H16.083V18.75V8.25Z"
            fill="#D9D9D6" />
    </g>
    <defs>
        <clipPath id="clip0_313_939">
            <rect width="21" height="24" fill="white" transform="translate(0.333008)" />
        </clipPath>
    </defs>
</svg>