<svg width="40" height="40" viewBox="0 0 40 40" fill="none" xmlns="http://www.w3.org/2000/svg">
<g filter="url(#filter0_b_1750_2686)">
<rect width="40" height="40" rx="20" transform="matrix(-1 0 0 1 40 0)" fill="#307FE2"/>
<path d="M27.4985 14.5026C27.4985 15.8836 26.38 17.0021 24.999 17.0021C24.2835 17.0021 23.6368 16.7022 23.1838 16.2211L17.4661 19.5798C17.4911 19.7172 17.5005 19.8578 17.5005 20.0016C17.5005 20.1453 17.488 20.2859 17.4661 20.4234L23.1838 23.7821C23.6399 23.3009 24.2835 23.001 24.999 23.001C26.38 23.001 27.4985 24.1195 27.4985 25.5005C27.4985 26.8815 26.38 28 24.999 28C23.618 28 22.4995 26.8815 22.4995 25.5005C22.4995 25.1974 22.5526 24.9069 22.6526 24.635L17.1006 21.3607C16.6538 22.048 15.8821 22.5011 15.001 22.5011C13.62 22.5011 12.5015 21.3825 12.5015 20.0016C12.5015 18.6206 13.62 17.5021 15.001 17.5021C15.8821 17.5021 16.6538 17.9551 17.1006 18.6425L22.6526 15.365C22.5526 15.0963 22.4995 14.8057 22.4995 14.4995C22.4995 13.1185 23.618 12 24.999 12C26.38 12 27.4985 13.1185 27.4985 14.4995V14.5026ZM15.001 21.5013C15.3987 21.5013 15.7802 21.3433 16.0614 21.062C16.3427 20.7808 16.5007 20.3993 16.5007 20.0016C16.5007 19.6038 16.3427 19.2224 16.0614 18.9411C15.7802 18.6599 15.3987 18.5019 15.001 18.5019C14.6032 18.5019 14.2218 18.6599 13.9405 18.9411C13.6593 19.2224 13.5013 19.6038 13.5013 20.0016C13.5013 20.3993 13.6593 20.7808 13.9405 21.062C14.2218 21.3433 14.6032 21.5013 15.001 21.5013ZM26.4987 14.5026C26.4987 14.1049 26.3407 13.7234 26.0595 13.4422C25.7782 13.1609 25.3968 13.0029 24.999 13.0029C24.6013 13.0029 24.2198 13.1609 23.9386 13.4422C23.6573 13.7234 23.4993 14.1049 23.4993 14.5026C23.4993 14.9004 23.6573 15.2818 23.9386 15.5631C24.2198 15.8443 24.6013 16.0023 24.999 16.0023C25.3968 16.0023 25.7782 15.8443 26.0595 15.5631C26.3407 15.2818 26.4987 14.9004 26.4987 14.5026ZM24.999 27.0002C25.196 27.0002 25.391 26.9614 25.5729 26.886C25.7549 26.8107 25.9202 26.7002 26.0595 26.5609C26.1987 26.4217 26.3092 26.2564 26.3846 26.0744C26.4599 25.8924 26.4987 25.6974 26.4987 25.5005C26.4987 25.3035 26.4599 25.1085 26.3846 24.9266C26.3092 24.7446 26.1987 24.5793 26.0595 24.44C25.9202 24.3008 25.7549 24.1903 25.5729 24.1149C25.391 24.0396 25.196 24.0008 24.999 24.0008C24.8021 24.0008 24.6071 24.0396 24.4251 24.1149C24.2432 24.1903 24.0778 24.3008 23.9386 24.44C23.7993 24.5793 23.6888 24.7446 23.6135 24.9266C23.5381 25.1085 23.4993 25.3035 23.4993 25.5005C23.4993 25.6974 23.5381 25.8924 23.6135 26.0744C23.6888 26.2564 23.7993 26.4217 23.9386 26.5609C24.0778 26.7002 24.2432 26.8107 24.4251 26.886C24.6071 26.9614 24.8021 27.0002 24.999 27.0002Z" fill="white"/>
</g>
<defs>
<filter id="filter0_b_1750_2686" x="-24" y="-24" width="88" height="88" filterUnits="userSpaceOnUse" color-interpolation-filters="sRGB">
<feFlood flood-opacity="0" result="BackgroundImageFix"/>
<feGaussianBlur in="BackgroundImageFix" stdDeviation="12"/>
<feComposite in2="SourceAlpha" operator="in" result="effect1_backgroundBlur_1750_2686"/>
<feBlend mode="normal" in="SourceGraphic" in2="effect1_backgroundBlur_1750_2686" result="shape"/>
</filter>
</defs>
</svg>
