<svg width="100" height="64" viewBox="0 0 100 64" fill="none" xmlns="http://www.w3.org/2000/svg">
<g clip-path="url(#clip0_1101_14908)">
<path d="M39.9308 54.234C43.7093 50.4656 45.5986 45.9132 45.5986 40.5771C45.5986 35.241 43.7093 30.6836 39.9308 26.9051C36.1624 23.1366 31.6101 21.2524 26.2739 21.2524C20.9378 21.2524 16.3804 23.1366 12.6019 26.9051C8.83345 30.6836 6.94922 35.241 6.94922 40.5771C6.94922 45.9132 8.83345 50.4656 12.6019 54.234C16.3804 58.0125 20.9378 59.9018 26.2739 59.9018C31.6101 59.9018 36.1624 58.0125 39.9308 54.234ZM42.3125 40.5771C42.3125 40.8358 42.3075 41.0921 42.2974 41.3459C42.135 45.1748 40.7533 48.5011 38.1521 51.3248C37.9804 51.5266 37.7996 51.7225 37.6095 51.9126C37.4197 52.1031 37.2237 52.284 37.0216 52.4553C34.2205 55.0435 30.9143 56.4253 27.103 56.6006C26.8291 56.6107 26.5527 56.6157 26.2739 56.6157C26.0101 56.6157 25.7488 56.6107 25.4901 56.6006C21.6685 56.4357 18.3472 55.064 15.5262 52.4855C15.3216 52.3009 15.1206 52.11 14.9233 51.9126C14.7381 51.7269 14.5572 51.536 14.3806 51.3398C11.792 48.5156 10.4153 45.1893 10.2504 41.3609C10.2403 41.1017 10.2353 40.8405 10.2353 40.5771C10.2353 40.298 10.2403 40.0216 10.2504 39.748C10.4254 35.9358 11.7971 32.6196 14.3656 29.7993C14.5476 29.6078 14.7335 29.4169 14.9233 29.2265C15.1137 29.0367 15.3047 28.8508 15.4961 28.6688C18.3241 26.0931 21.6504 24.7214 25.475 24.5536C25.7392 24.5435 26.0055 24.5385 26.2739 24.5385C26.548 24.5385 26.8193 24.5435 27.0879 24.5536C30.8986 24.7249 34.2048 26.0916 37.0065 28.6537C37.2135 28.8406 37.4145 29.0315 37.6095 29.2265C37.7975 29.4145 37.9784 29.6055 38.1521 29.7993C40.7371 32.6128 42.1138 35.9241 42.2824 39.733C42.3025 40.0119 42.3125 40.2933 42.3125 40.5771Z" fill="black"/>
<path d="M42.2965 41.346C42.3065 41.0922 42.3116 40.836 42.3116 40.5773C42.3116 40.2934 42.3015 40.0121 42.2814 39.7331H29.3782C29.3049 39.4558 29.1893 39.1895 29.0315 38.9342L38.1512 29.7994C37.9774 29.6056 37.7965 29.4147 37.6085 29.2266C37.4135 29.0317 37.2126 28.8407 37.0056 28.6538L27.8859 37.7886C27.6421 37.6447 27.3758 37.5342 27.087 37.457V24.5537C26.8184 24.5437 26.547 24.5387 26.273 24.5387C26.0045 24.5387 25.7382 24.5437 25.4741 24.5537V37.457C25.1782 37.5298 24.8968 37.6454 24.6299 37.8037L15.4952 28.6689C15.3037 28.8509 15.1128 29.0368 14.9224 29.2266C14.7326 29.4171 14.5466 29.608 14.3646 29.7994L23.4994 38.9342C23.3501 39.1881 23.2396 39.4544 23.1678 39.7331L10.2495 39.7482C10.2394 40.0218 10.2344 40.2981 10.2344 40.5773C10.2344 40.8406 10.2394 41.1019 10.2495 41.3611L23.1527 41.346C23.2238 41.6544 23.3394 41.9408 23.4994 42.2052L14.3797 51.34C14.5563 51.5361 14.7372 51.727 14.9224 51.9128C15.1197 52.1101 15.3207 52.3011 15.5253 52.4856L24.6299 43.3358C24.8993 43.5018 25.1807 43.6224 25.4741 43.6975L25.4891 56.6008C25.7479 56.6108 26.0092 56.6158 26.273 56.6158C26.5518 56.6158 26.8281 56.6108 27.102 56.6008L27.087 43.6825C27.38 43.6124 27.6513 43.4968 27.9009 43.3358L37.0206 52.4555C37.2228 52.2841 37.4187 52.1032 37.6085 51.9128C37.7986 51.7227 37.9795 51.5267 38.1512 51.3249L29.0315 42.2052C29.1997 41.9421 29.3203 41.6557 29.3933 41.346H42.2965Z" fill="#D6D6D6"/>
<path d="M94.3332 57.023C98.1117 53.2545 100.001 48.7022 100.001 43.366C100.001 38.0299 98.1117 33.4726 94.3332 29.694C90.5647 25.9256 86.0124 24.0414 80.6763 24.0414C75.3401 24.0414 70.7828 25.9256 67.0043 29.694C63.2358 33.4726 61.3516 38.0299 61.3516 43.366C61.3516 48.7022 63.2358 53.2545 67.0043 57.023C70.7828 60.8015 75.3401 62.6907 80.6763 62.6907C86.0124 62.6907 90.5647 60.8015 94.3332 57.023ZM96.6847 42.5219C96.7048 42.8009 96.7148 43.0822 96.7148 43.366C96.7148 43.6248 96.7098 43.881 96.6998 44.1348C96.5374 47.9637 95.1556 51.29 92.5545 54.1137C92.3828 54.3155 92.2019 54.5115 92.0118 54.7016C91.822 54.892 91.626 55.0729 91.4239 55.2442C88.6228 57.8324 85.3166 59.2142 81.5053 59.3896C81.2314 59.3996 80.955 59.4046 80.6763 59.4046C80.4125 59.4046 80.1512 59.3996 79.8924 59.3896C76.0708 59.2247 72.7496 57.853 69.9286 55.2744C69.724 55.0899 69.523 54.8989 69.3256 54.7016C69.1405 54.5158 68.9596 54.3249 68.783 54.1288C66.1944 51.3045 64.8177 47.9782 64.6527 44.1499C64.6427 43.8907 64.6377 43.6294 64.6377 43.366C64.6377 43.0869 64.6427 42.8105 64.6527 42.537C64.8277 38.7247 66.1994 35.4085 68.7679 32.5882C68.9499 32.3968 69.1358 32.2059 69.3256 32.0154C69.5161 31.8256 69.707 31.6397 69.8984 31.4577C72.7265 28.8821 76.0528 27.5103 79.8773 27.3425C80.1415 27.3325 80.4078 27.3275 80.6763 27.3275C80.9503 27.3275 81.2217 27.3325 81.4902 27.3425C85.301 27.5138 88.6072 28.8805 91.4088 31.4426C91.6158 31.6295 91.8168 31.8204 92.0118 32.0154C92.1998 32.2035 92.3807 32.3944 92.5545 32.5882C95.1394 35.4018 96.5162 38.713 96.6847 42.5219Z" fill="black"/>
<path d="M96.7139 43.366C96.7139 43.0822 96.7039 42.8008 96.6838 42.5219H83.7805C83.7072 42.2446 83.5917 41.9783 83.4338 41.723L92.5535 32.5882C92.3798 32.3944 92.1989 32.2035 92.0109 32.0154C91.8159 31.8204 91.6149 31.6295 91.4079 31.4426L82.2882 40.5774C82.0444 40.4335 81.7781 40.323 81.4893 40.2457V27.3425C81.2207 27.3325 80.9494 27.3275 80.6753 27.3275C80.4069 27.3275 80.1406 27.3325 79.8764 27.3425V40.2457C79.5806 40.3186 79.2992 40.4342 79.0323 40.5925L69.8975 31.4577C69.7061 31.6397 69.5151 31.8256 69.3247 32.0154C69.1349 32.2059 68.949 32.3968 68.767 32.5882L77.9017 41.723C77.7525 41.9769 77.6419 42.2432 77.5701 42.5219L64.6518 42.537C64.6417 42.8105 64.6367 43.0869 64.6367 43.366C64.6367 43.6294 64.6417 43.8907 64.6518 44.1499L77.555 44.1348C77.6262 44.4432 77.7417 44.7296 77.9017 44.994L68.782 54.1288C68.9586 54.3249 69.1395 54.5158 69.3247 54.7016C69.522 54.8989 69.723 55.0899 69.9276 55.2744L79.0323 46.1246C79.3017 46.2906 79.583 46.4112 79.8764 46.4863L79.8915 59.3896C80.1502 59.3996 80.4115 59.4046 80.6753 59.4046C80.9541 59.4046 81.2305 59.3996 81.5044 59.3896L81.4893 46.4713C81.7823 46.4011 82.0536 46.2856 82.3033 46.1246L91.423 55.2442C91.6251 55.0729 91.8211 54.892 92.0109 54.7016C92.201 54.5115 92.3819 54.3155 92.5535 54.1137L83.4338 44.994C83.602 44.7309 83.7226 44.4445 83.7956 44.1348H96.6988C96.7089 43.881 96.7139 43.6248 96.7139 43.366Z" fill="#D6D6D6"/>
<path d="M57.5061 5.45513C57.8176 5.55562 58.1241 5.53553 58.4256 5.39484C58.7271 5.25415 58.9381 5.02804 59.0587 4.71651C59.1592 4.40499 59.1391 4.09848 58.9984 3.797C58.8577 3.49553 58.6316 3.28952 58.3201 3.17898C50.7832 0.485781 45.9445 1.10883 43.804 5.04813C43.7839 5.06823 43.7688 5.09335 43.7587 5.1235L40.2315 12.3137C40.0908 12.6152 40.0757 12.9217 40.1862 13.2332C40.2867 13.5448 40.4877 13.7759 40.7892 13.9266C41.0907 14.0673 41.3972 14.0874 41.7087 13.9869C42.0202 13.8764 42.2514 13.6704 42.4021 13.3689L45.8992 6.23897C47.6578 3.57592 51.5268 3.31464 57.5061 5.45513Z" fill="#5F5F5F"/>
<path d="M60.6541 3.48264C60.3698 2.99034 59.9511 2.67007 59.3978 2.52183L55.6412 1.51539C55.088 1.36715 54.5652 1.43516 54.0729 1.71941C53.5806 2.00365 53.2603 2.42242 53.1121 2.97571C52.9638 3.529 53.0318 4.05179 53.3161 4.54409C53.6003 5.03639 54.0191 5.35666 54.5724 5.5049L58.3289 6.51134C58.8822 6.65958 59.405 6.59157 59.8973 6.30732C60.3896 6.02308 60.7099 5.6043 60.8581 5.05102C61.0063 4.49773 60.9383 3.97493 60.6541 3.48264Z" fill="black"/>
<path d="M77.722 39.0999C76.1871 38.8761 74.6396 38.8058 73.0793 38.8889C71.3709 38.9592 69.6675 39.0346 67.9692 39.115C66.1905 39.2054 64.4218 39.2657 62.6632 39.2959C61.9499 39.2413 61.2414 39.2312 60.5378 39.2657L67.1854 21.1017L63.1908 21.5539L56.3623 40.14C55.1648 40.6468 54.1397 41.4307 53.2873 42.4915C52.1075 41.8681 51.0774 40.4462 50.1971 38.2256V38.2407L41.7256 16.4439L43.7757 12.6302C44.0558 12.1143 44.1111 11.5766 43.9415 11.0173C43.7721 10.4654 43.4305 10.0483 42.9165 9.76616C42.4019 9.49574 41.8643 9.44549 41.3036 9.61543C40.752 9.78614 40.3349 10.1278 40.0524 10.6404L37.5954 15.2078C37.5783 15.2403 37.5582 15.2704 37.5351 15.2983L24.4359 39.5823C24.1665 40.1014 24.1162 40.639 24.2852 41.1952C24.4515 41.7514 24.7881 42.1685 25.2951 42.4463C25.8138 42.7242 26.3515 42.7794 26.908 42.6121C27.4659 42.4454 27.883 42.1037 28.1592 41.5871L39.0877 21.3278L46.2629 39.7782H46.2779C47.9498 43.9982 50.0853 46.425 52.6843 47.0589C53.0461 48.2146 53.629 49.2597 54.4329 50.1943C55.5584 51.5208 57.0055 52.2895 58.7742 52.5006C60.4122 52.7317 62.0703 52.7216 63.7485 52.4704C65.4167 52.1589 67.0748 51.8273 68.7229 51.4755C70.4916 51.0937 72.2201 50.6414 73.9083 50.1189C75.1971 49.743 76.4684 49.3259 77.722 48.8678C79.5192 48.3275 80.9512 47.7145 82.0181 47.0287C83.6189 46.0053 84.3978 44.8195 84.3545 43.4713C84.4196 41.9164 83.6408 40.7658 82.0181 40.0194C80.9511 39.5401 79.5191 39.2336 77.722 39.0999Z" fill="#FF0000"/>
<path d="M72.7771 21.177C72.7771 19.8002 72.2043 18.6245 71.0586 17.6497C69.9231 16.6749 68.5463 16.1875 66.9284 16.1875C65.309 16.1866 63.8619 16.5936 62.5871 17.4085C61.3137 18.2347 59.349 18.692 56.6932 18.7802C54.0479 18.868 53.2792 20.2095 54.3869 22.805C55.4928 25.4098 58.2614 26.6207 62.6926 26.4378C67.1346 26.2564 69.9233 25.6785 71.0586 24.7043C72.2043 23.7295 72.7771 22.5537 72.7771 21.177Z" fill="#F16922"/>
<path d="M58.5458 44.617C58.2699 44.5463 58.0036 44.5815 57.7469 44.7225C57.5024 44.8769 57.3417 45.093 57.2645 45.3707L54.8829 54.5205C54.8125 54.8063 54.8476 55.0726 54.9884 55.3194C55.1429 55.5741 55.359 55.7349 55.6365 55.8018C55.9225 55.8824 56.1888 55.8473 56.4355 55.6962C56.6899 55.5519 56.8507 55.3358 56.9178 55.0481L59.2995 45.8982C59.3799 45.6225 59.3448 45.3562 59.194 45.0993C59.0495 44.8547 58.8334 44.6939 58.5458 44.617Z" fill="#D6D6D6"/>
<path d="M59.5413 54.0533C59.5413 53.4403 59.2348 53.1338 58.6218 53.1338H53.0445C52.4315 53.1338 52.125 53.4403 52.125 54.0533V55.6511C52.125 56.2641 52.4315 56.5706 53.0445 56.5706H58.6218C59.2348 56.5706 59.5413 56.2641 59.5413 55.6511V54.0533Z" fill="#5F5F5F"/>
<path d="M34.7754 63.2934V51.9428C34.6548 48.1643 32.645 46.275 28.7459 46.275H0V63.2934H34.7754ZM31.7606 52.1237V60.0073H3.16551V49.2898H28.7459C30.6954 49.2898 31.7003 50.2344 31.7606 52.1237Z" fill="#5F5F5F"/>
</g>
<defs>
<clipPath id="clip0_1101_14908">
<rect width="100" height="62.3125" fill="white" transform="translate(0 0.980957)"/>
</clipPath>
</defs>
</svg>
