<svg width="24" height="24" viewBox="0 0 24 24" fill="none" xmlns="http://www.w3.org/2000/svg">
<path fill-rule="evenodd" clip-rule="evenodd" d="M17.8337 1.20258C17.8337 0.650291 17.386 0.202576 16.8337 0.202576C16.2814 0.202576 15.8337 0.650291 15.8337 1.20258V2.3763H8.16776V1.20258C8.16776 0.650291 7.72004 0.202576 7.16776 0.202576C6.61547 0.202576 6.16776 0.650291 6.16776 1.20258V2.3763H3.54296C1.75831 2.3763 0.126465 3.70024 0.126465 5.55V9.89728V20.7659C0.126465 22.6156 1.75831 23.9396 3.54296 23.9396H20.4584C22.243 23.9396 23.8749 22.6156 23.8749 20.7659V9.89728V5.55C23.8749 3.70024 22.243 2.3763 20.4584 2.3763H17.8337V1.20258ZM21.8749 8.89728V5.55C21.8749 4.99875 21.3429 4.3763 20.4584 4.3763H17.8337V5.54997C17.8337 6.10226 17.386 6.54997 16.8337 6.54997C16.2814 6.54997 15.8337 6.10226 15.8337 5.54997V4.3763H8.16776V5.54997C8.16776 6.10226 7.72004 6.54997 7.16776 6.54997C6.61547 6.54997 6.16776 6.10226 6.16776 5.54997V4.3763H3.54296C2.65842 4.3763 2.12646 4.99875 2.12646 5.55V8.89728H21.8749ZM2.12646 10.8973H21.8749V20.7659C21.8749 21.3171 21.3429 21.9396 20.4584 21.9396H3.54296C2.65842 21.9396 2.12646 21.3171 2.12646 20.7659V10.8973ZM6.16776 14.2448C6.16776 13.6925 6.61547 13.2448 7.16776 13.2448H7.18061C7.7329 13.2448 8.18061 13.6925 8.18061 14.2448C8.18061 14.7971 7.7329 15.2448 7.18061 15.2448H7.16776C6.61547 15.2448 6.16776 14.7971 6.16776 14.2448ZM12.0006 13.2448C11.4484 13.2448 11.0006 13.6925 11.0006 14.2448C11.0006 14.7971 11.4484 15.2448 12.0006 15.2448H12.0135C12.5658 15.2448 13.0135 14.7971 13.0135 14.2448C13.0135 13.6925 12.5658 13.2448 12.0135 13.2448H12.0006ZM15.8337 14.2448C15.8337 13.6925 16.2814 13.2448 16.8337 13.2448H16.8466C17.3989 13.2448 17.8466 13.6925 17.8466 14.2448C17.8466 14.7971 17.3989 15.2448 16.8466 15.2448H16.8337C16.2814 15.2448 15.8337 14.7971 15.8337 14.2448ZM7.16776 17.5922C6.61547 17.5922 6.16776 18.0399 6.16776 18.5922C6.16776 19.1445 6.61547 19.5922 7.16776 19.5922H7.18061C7.7329 19.5922 8.18061 19.1445 8.18061 18.5922C8.18061 18.0399 7.7329 17.5922 7.18061 17.5922H7.16776ZM11.0006 18.5922C11.0006 18.0399 11.4484 17.5922 12.0006 17.5922H12.0135C12.5658 17.5922 13.0135 18.0399 13.0135 18.5922C13.0135 19.1445 12.5658 19.5922 12.0135 19.5922H12.0006C11.4484 19.5922 11.0006 19.1445 11.0006 18.5922ZM16.8337 17.5922C16.2814 17.5922 15.8337 18.0399 15.8337 18.5922C15.8337 19.1445 16.2814 19.5922 16.8337 19.5922H16.8466C17.3989 19.5922 17.8466 19.1445 17.8466 18.5922C17.8466 18.0399 17.3989 17.5922 16.8466 17.5922H16.8337Z" fill="#602D90"/>
</svg>
