<svg width="18" height="22" viewBox="0 0 18 22" fill="none" xmlns="http://www.w3.org/2000/svg">
<path fill-rule="evenodd" clip-rule="evenodd" d="M5.12499 5.75C5.12499 3.74797 6.74796 2.125 8.74998 2.125C10.752 2.125 12.375 3.74797 12.375 5.75C12.375 7.75203 10.752 9.375 8.74998 9.375C6.74796 9.375 5.12499 7.75203 5.12499 5.75ZM8.74998 0.625C5.91952 0.625 3.62499 2.91954 3.62499 5.75C3.62499 8.58046 5.91952 10.875 8.74998 10.875C11.5804 10.875 13.875 8.58046 13.875 5.75C13.875 2.91954 11.5804 0.625 8.74998 0.625ZM5.37499 13.75C4.00485 13.75 2.67793 14.2432 1.68902 15.1405C0.697697 16.0401 0.125 17.2766 0.125 18.5833V20.625C0.125 21.0392 0.460786 21.375 0.875 21.375C1.28921 21.375 1.625 21.0392 1.625 20.625V18.5833C1.625 17.7241 2.00051 16.8834 2.69701 16.2514C3.39593 15.6172 4.35818 15.25 5.37499 15.25H12.125C13.1418 15.25 14.104 15.6172 14.8029 16.2514C15.4994 16.8834 15.875 17.7241 15.875 18.5833V20.625C15.875 21.0392 16.2107 21.375 16.625 21.375C17.0392 21.375 17.375 21.0392 17.375 20.625V18.5833C17.375 17.2766 16.8023 16.0401 15.8109 15.1405C14.822 14.2432 13.4951 13.75 12.125 13.75H5.37499Z" fill="white"/>
</svg>
