<svg width="32" height="32" viewBox="0 0 32 32" fill="none" xmlns="http://www.w3.org/2000/svg">
<rect width="32" height="32" rx="16" fill="#CC007A"/>
<path d="M21.8893 11.1109C21.5385 10.7588 21.1215 10.4794 20.6624 10.2888C20.2033 10.0981 19.7111 10 19.214 10C18.7169 10 18.2246 10.0981 17.7655 10.2888C17.3064 10.4794 16.8895 10.7588 16.5386 11.1109L16 11.6565L15.4614 11.1109C15.1105 10.7588 14.6936 10.4794 14.2345 10.2888C13.7754 10.0981 13.2831 10 12.786 10C12.2889 10 11.7967 10.0981 11.3376 10.2888C10.8785 10.4794 10.4615 10.7588 10.1107 11.1109C8.62782 12.5937 8.53689 15.0978 10.4044 17.0003L16 22.5958L21.5956 17.0003C23.4631 15.0978 23.3722 12.5937 21.8893 11.1109Z" fill="white"/>
</svg>
