<svg xmlns="http://www.w3.org/2000/svg" width="24" height="24" viewBox="0 0 24 24" fill="none">
    <path d="M8.82715 12.5183H8.83772" stroke="#602D90" stroke-width="2" stroke-linecap="round"
        stroke-linejoin="round" />
    <path d="M15.1729 12.5183H15.1834" stroke="#602D90" stroke-width="2" stroke-linecap="round"
        stroke-linejoin="round" />
    <path
        d="M9.88477 16.7487C10.4136 17.0659 11.1539 17.2775 11.9999 17.2775C12.846 17.2775 13.5863 17.0659 14.1151 16.7487"
        stroke="#602D90" stroke-width="2" stroke-linecap="round" stroke-linejoin="round" />
    <path
        d="M19.4031 6.49005C20.3613 7.69113 21.0144 9.1063 21.3068 10.6147C21.6644 10.7879 21.966 11.0583 22.177 11.395C22.3881 11.7317 22.5 12.121 22.5 12.5183C22.5 12.9157 22.3881 13.305 22.177 13.6417C21.966 13.9784 21.6644 14.2488 21.3068 14.422C20.8502 16.5514 19.6772 18.4599 17.9835 19.829C16.2898 21.198 14.1778 21.9448 12 21.9448C9.82216 21.9448 7.71019 21.198 6.01648 19.829C4.32277 18.4599 3.14977 16.5514 2.6932 14.422C2.33558 14.2488 2.03398 13.9784 1.82295 13.6417C1.61193 13.305 1.5 12.9157 1.5 12.5183C1.5 12.121 1.61193 11.7317 1.82295 11.395C2.03398 11.0583 2.33558 10.7879 2.6932 10.6147C3.13132 8.46828 4.29639 6.53872 5.99185 5.15153C7.68731 3.76433 9.80937 3.00442 12 3C14.1152 3 15.7016 4.16335 15.7016 5.64398C15.7016 7.12461 14.7497 8.28796 13.5864 8.28796C12.7403 8.28796 12 7.86492 12 7.23037"
        stroke="#602D90" stroke-width="2" stroke-linecap="round" stroke-linejoin="round" />
</svg>