<svg width="24" height="24" viewBox="0 0 24 24" fill="none" xmlns="http://www.w3.org/2000/svg">
<path d="M6.34794 21.422C5.74195 20.9675 5.18645 20.4878 4.68146 19.9828C2.56049 17.8618 1.5 15.3116 1.5 12.3321C1.5 9.30215 2.56049 6.75193 4.68146 4.68146C6.80243 2.56049 9.35265 1.5 12.3321 1.5C15.3116 1.5 17.8618 2.56049 19.9828 4.68146C22.1037 6.75193 23.1642 9.30215 23.1642 12.3321C23.1642 15.3116 22.1037 17.8618 19.9828 19.9828C17.8618 22.1037 15.3116 23.1642 12.3321 23.1642" stroke="#602D90" stroke-width="1.33333" stroke-linecap="round" stroke-linejoin="round"/>
<path d="M15.5239 6.48408L18.3826 8.18386M15.5239 6.48408L10.0382 16.0646L12.897 17.7644L18.3826 8.18386M12.897 17.7644L6.87048 21.5503L7.17953 14.4421L12.6652 4.86157L15.5239 6.48408M7.17953 14.4421L10.0382 16.0646" stroke="#602D90" stroke-width="1.33333" stroke-linecap="round" stroke-linejoin="round"/>
</svg>
