<svg width="32" height="32" viewBox="0 0 32 32" fill="none" xmlns="http://www.w3.org/2000/svg">
<rect width="32" height="32" rx="16" fill="white"/>
<path d="M21.8893 10.813C21.5384 10.4609 21.1215 10.1815 20.6624 9.99085C20.2033 9.80022 19.7111 9.70209 19.214 9.70209C18.7169 9.70209 18.2246 9.80022 17.7655 9.99085C17.3064 10.1815 16.8895 10.4609 16.5386 10.813L16 11.3586L15.4614 10.813C15.1105 10.4609 14.6936 10.1815 14.2345 9.99085C13.7754 9.80022 13.2831 9.70209 12.786 9.70209C12.2889 9.70209 11.7967 9.80022 11.3376 9.99085C10.8785 10.1815 10.4615 10.4609 10.1107 10.813C8.62782 12.2958 8.53689 14.7998 10.4044 16.7023L16 22.2979L21.5956 16.7023C23.4631 14.7998 23.3722 12.2958 21.8893 10.813Z" stroke="#CC007A" stroke-width="1.5" stroke-linecap="round" stroke-linejoin="round"/>
</svg>
