<svg width="16" height="17" viewBox="0 0 16 17" fill="none" xmlns="http://www.w3.org/2000/svg">
<path fill-rule="evenodd" clip-rule="evenodd" d="M11.9725 0.801758C11.9725 0.387544 11.6367 0.0517578 11.2225 0.0517578C10.8083 0.0517578 10.4725 0.387544 10.4725 0.801758V1.50091H5.52853V0.801758C5.52853 0.387544 5.19275 0.0517578 4.77853 0.0517578C4.36432 0.0517578 4.02853 0.387544 4.02853 0.801758V1.50091H2.362C1.13473 1.50091 0.00100708 2.41277 0.00100708 3.70004V6.59823V13.844C0.00100708 15.1312 1.13473 16.0431 2.362 16.0431H13.639C14.8662 16.0431 16 15.1312 16 13.844V6.59823V3.70004C16 2.41277 14.8662 1.50091 13.639 1.50091H11.9725V0.801758ZM14.5 5.84823V3.70004C14.5 3.38664 14.1912 3.00091 13.639 3.00091H11.9725V3.70002C11.9725 4.11424 11.6367 4.45002 11.2225 4.45002C10.8083 4.45002 10.4725 4.11424 10.4725 3.70002V3.00091H5.52853V3.70002C5.52853 4.11424 5.19275 4.45002 4.77853 4.45002C4.36432 4.45002 4.02853 4.11424 4.02853 3.70002V3.00091H2.362C1.80981 3.00091 1.50101 3.38664 1.50101 3.70004V5.84823H14.5ZM1.50101 7.34823H14.5V13.844C14.5 14.1574 14.1912 14.5431 13.639 14.5431H2.362C1.80981 14.5431 1.50101 14.1574 1.50101 13.844V7.34823ZM4.02853 9.49655C4.02853 9.08234 4.36432 8.74655 4.77853 8.74655H4.78711C5.20132 8.74655 5.53711 9.08234 5.53711 9.49655C5.53711 9.91077 5.20132 10.2466 4.78711 10.2466H4.77853C4.36432 10.2466 4.02853 9.91077 4.02853 9.49655ZM8.00046 8.74655C7.58624 8.74655 7.25046 9.08234 7.25046 9.49655C7.25046 9.91077 7.58624 10.2466 8.00046 10.2466H8.00903C8.42324 10.2466 8.75903 9.91077 8.75903 9.49655C8.75903 9.08234 8.42324 8.74655 8.00903 8.74655H8.00046ZM10.4725 9.49655C10.4725 9.08234 10.8083 8.74655 11.2225 8.74655H11.2311C11.6453 8.74655 11.9811 9.08234 11.9811 9.49655C11.9811 9.91077 11.6453 10.2466 11.2311 10.2466H11.2225C10.8083 10.2466 10.4725 9.91077 10.4725 9.49655ZM4.77853 11.6448C4.36432 11.6448 4.02853 11.9806 4.02853 12.3948C4.02853 12.809 4.36432 13.1448 4.77853 13.1448H4.78711C5.20132 13.1448 5.53711 12.809 5.53711 12.3948C5.53711 11.9806 5.20132 11.6448 4.78711 11.6448H4.77853ZM7.25046 12.3948C7.25046 11.9806 7.58624 11.6448 8.00046 11.6448H8.00903C8.42324 11.6448 8.75903 11.9806 8.75903 12.3948C8.75903 12.809 8.42324 13.1448 8.00903 13.1448H8.00046C7.58624 13.1448 7.25046 12.809 7.25046 12.3948ZM11.2225 11.6448C10.8083 11.6448 10.4725 11.9806 10.4725 12.3948C10.4725 12.809 10.8083 13.1448 11.2225 13.1448H11.2311C11.6453 13.1448 11.9811 12.809 11.9811 12.3948C11.9811 11.9806 11.6453 11.6448 11.2311 11.6448H11.2225Z" fill="#602D90"/>
</svg>
