<svg width="84" height="81" viewBox="0 0 84 81" fill="none" xmlns="http://www.w3.org/2000/svg">
<path d="M14.063 45.355H11.6435L0 78.6726H2.41943L4.25081 73.4305H12.1812L10.3498 78.6726H12.7692L24.4128 45.355H21.9933L20.9852 48.2281H13.0549L14.063 45.355ZM9.52652 58.3258H17.4569L15.7431 63.2487H7.81275L9.52652 58.3258ZM12.198 50.7147H20.1283L18.3306 55.8392H10.4002L12.198 50.7147ZM6.93907 65.7353H14.8694L13.0549 70.9438H5.12449L6.93907 65.7353Z" fill="#A55026"/>
<path d="M32.8133 10.5757H30.125V75.0771H32.8133V10.5757ZM46.5738 10.5757H43.8855V75.0771H46.5738V10.5757Z" fill="#A55026"/>
<path d="M46.574 75.0769H43.8858H32.8135H30.1252H11.3242V78.622H46.6748V75.0769H46.574Z" fill="#DD8A45"/>
<path d="M11.7773 43.8936V47.4387H43.9356V43.8936H11.7773Z" fill="#DD8A45"/>
<path d="M14.0125 10.4412H11.3242V78.6221H14.0125V10.4412ZM27.1849 10.4412H24.4967V78.6221H27.1849V10.4412Z" fill="#DD8A45"/>
<path d="M8.58594 11.5334H26.1604L29.8736 0.360352L8.58594 11.5334Z" fill="#CC007A"/>
<path d="M26.1602 11.5334H52.5051L29.8733 0.360352L26.1602 11.5334Z" fill="#602D90"/>
<path d="M82.8497 80.2856C83.4994 77.4293 82.4185 75.4635 79.607 74.3882C79.4498 74.3309 77.8368 73.4572 74.7681 71.7672C71.7004 70.0795 67.64 65.3863 62.587 57.6874L51.0275 41.7091C50.9939 35.2236 48.5576 31.7289 43.7188 31.2249V44.0445H47.6167L59.3275 60.2412C64.1888 68.3671 69.8565 73.9397 76.3307 76.9589C76.9916 77.4293 77.3668 78.5382 77.4564 80.2856H82.8497Z" fill="#3B7D92"/>
<path d="M49.3789 42.8179C47.6303 41.2581 42.1082 40.9332 32.8125 41.8434C40.5177 57.7377 51.1476 70.535 64.702 80.2351H82.1085C82.7387 79.0979 82.1227 77.9553 80.2603 76.8076C74.3685 74.2089 69.2384 70.0757 64.87 64.408L49.3789 42.8179Z" fill="#67C3D3"/>
<path d="M60.8041 80.2856H66.1974C66.8473 77.4258 65.7608 75.46 62.9379 74.3882C62.7969 74.3327 61.3407 73.5206 58.5694 71.952C55.7969 70.3941 51.5853 65.6393 45.9346 57.6874L34.3751 41.6923C34.338 35.2186 31.9017 31.7294 27.0664 31.2249V44.0445H30.9644L42.6751 60.2412C48.0508 68.3925 53.7185 73.9651 59.6783 76.9589C60.3436 77.4247 60.7189 78.5336 60.8041 80.2856Z" fill="#3B7D92"/>
</svg>
