<svg width="124" height="72" viewBox="0 0 124 72" fill="none" xmlns="http://www.w3.org/2000/svg">
<path d="M120.514 44.1213C120.229 41.1674 119.651 39.0321 118.779 37.7153L118.699 37.6085L118.672 37.5818C118.121 36.7633 117.453 36.2739 116.67 36.1138C108.099 37.2451 86.167 37.5031 50.8752 36.8878C36.693 36.9412 26.9416 39.1477 21.6211 43.5074L120.514 44.1213Z" fill="#469F76"/>
<path d="M107.994 26.238C106.5 24.5653 104.622 23.6667 102.362 23.5421L80.5019 22.688C80.3062 22.688 80.1104 22.688 79.9147 22.688H79.6211C75.9554 22.7592 72.3965 23.3909 68.9444 24.5831C62.5917 26.7718 56.5683 30.8735 50.8741 36.888C86.1659 37.5033 108.098 37.2453 116.669 36.1139L107.994 26.238ZM120.753 48.1519C120.735 46.6572 120.655 45.3137 120.513 44.1214L21.6199 43.5075C20.3031 44.5752 19.2622 45.7763 18.497 47.1109C17.6073 48.6412 17.0734 50.3495 16.8955 52.2357C16.8777 52.5382 16.8599 52.8496 16.8421 53.1699C16.6464 55.1629 16.6464 56.8356 16.8421 58.188C17.2514 60.8572 18.4614 62.2451 20.4722 62.3519C20.5612 62.3519 20.6679 62.3519 20.7925 62.3519C20.8281 62.3519 20.8637 62.3519 20.8993 62.3519L109.649 63.4729C119.81 63.9178 124.552 61.3643 123.876 55.8124C123.52 51.7909 122.479 49.2374 120.753 48.1519Z" fill="#007562"/>
<path d="M120.54 44.1216C120.231 41.1719 119.644 39.0277 118.779 37.6889C118.766 37.6649 118.749 37.6382 118.725 37.6088L118.698 37.5821C118.269 36.9718 117.611 36.7405 116.723 36.8881C116.174 36.9915 116.334 38.1125 117.204 40.2513L118.565 44.0949L120.54 44.1216Z" fill="#F16922"/>
<path d="M16.8957 52.2357C16.8695 52.5419 16.8517 52.8533 16.8424 53.17C16.6385 55.1707 16.6385 56.8434 16.8424 58.188C21.0098 58.3752 22.9583 57.1919 22.6878 54.638C22.4054 52.6798 20.4747 51.8791 16.8957 52.2357Z" fill="black"/>
<path d="M27.2529 47.111C29.9435 47.1568 31.3938 45.9556 31.6037 43.5076H21.621C20.3106 44.5743 19.2696 45.7666 18.498 47.0843L27.2529 47.111Z" fill="#FFD02E"/>
<path d="M38.5953 47.5112C35.3033 47.5112 32.4918 48.6768 30.1607 51.0078C27.8296 53.3389 26.6641 56.1505 26.6641 59.4424C26.6641 62.7344 27.8296 65.5459 30.1607 67.877C32.4918 70.2081 35.3033 71.3736 38.5953 71.3736C41.8872 71.3736 44.6988 70.2081 47.0299 67.877C49.3609 65.5459 50.5265 62.7344 50.5265 59.4424C50.5265 56.1505 49.3609 53.3389 47.0299 51.0078C44.6988 48.6768 41.8872 47.5112 38.5953 47.5112ZM38.5953 67.7969C36.282 67.7969 34.3157 66.9784 32.6964 65.3413C31.0593 63.7042 30.2408 61.7379 30.2408 59.4424C30.2408 57.1292 31.0593 55.1629 32.6964 53.5436C34.3157 51.9065 36.282 51.0879 38.5953 51.0879C40.8908 51.0879 42.857 51.9065 44.4941 53.5436C46.1312 55.1629 46.9498 57.1292 46.9498 59.4424C46.9498 61.7379 46.1312 63.7042 44.4941 65.3413C42.857 66.9784 40.8908 67.7969 38.5953 67.7969Z" fill="black"/>
<path d="M32.6978 65.3413C34.3171 66.9784 36.2834 67.7969 38.5967 67.7969C40.8922 67.7969 42.8585 66.9784 44.4956 65.3413C46.1327 63.7042 46.9512 61.7379 46.9512 59.4424C46.9512 57.1291 46.1327 55.1628 44.4956 53.5435C42.8585 51.9064 40.8922 51.0879 38.5967 51.0879C36.2834 51.0879 34.3171 51.9064 32.6978 53.5435C31.0607 55.1628 30.2422 57.1291 30.2422 59.4424C30.2422 61.7379 31.0607 63.7042 32.6978 65.3413ZM40.7854 57.2537C41.3904 57.8587 41.6929 58.5883 41.6929 59.4424C41.6929 60.2787 41.3904 60.9994 40.7854 61.6044C40.1804 62.2094 39.4508 62.512 38.5967 62.512C37.7426 62.512 37.0219 62.2094 36.4347 61.6044C35.8297 60.9994 35.5271 60.2787 35.5271 59.4424C35.5271 58.5883 35.8297 57.8587 36.4347 57.2537C37.0219 56.6487 37.7426 56.3462 38.5967 56.3462C39.4508 56.3462 40.1804 56.6487 40.7854 57.2537Z" fill="#5F5F5F"/>
<path d="M41.6931 59.4424C41.6931 58.5883 41.3906 57.8587 40.7856 57.2537C40.1806 56.6487 39.451 56.3462 38.5969 56.3462C37.7428 56.3462 37.0221 56.6487 36.4349 57.2537C35.8299 57.8587 35.5273 58.5883 35.5273 59.4424C35.5273 60.2788 35.8299 60.9994 36.4349 61.6045C37.0221 62.2095 37.7428 62.512 38.5969 62.512C39.451 62.512 40.1806 62.2095 40.7856 61.6045C41.3906 60.9994 41.6931 60.2788 41.6931 59.4424Z" fill="#D6D6D6"/>
<path d="M105.005 47.5112C101.713 47.5112 98.9019 48.6768 96.5708 51.0078C94.2398 53.3389 93.0742 56.1505 93.0742 59.4424C93.0742 62.7344 94.2398 65.5459 96.5708 67.877C98.9019 70.2081 101.713 71.3736 105.005 71.3736C108.297 71.3736 111.109 70.2081 113.44 67.877C115.771 65.5459 116.937 62.7344 116.937 59.4424C116.937 56.1505 115.771 53.3389 113.44 51.0078C111.109 48.6768 108.297 47.5112 105.005 47.5112ZM105.005 67.7969C102.692 67.7969 100.726 66.9784 99.1066 65.3413C97.4695 63.7042 96.6509 61.7379 96.6509 59.4424C96.6509 57.1292 97.4695 55.1629 99.1066 53.5436C100.726 51.9065 102.692 51.0879 105.005 51.0879C107.301 51.0879 109.267 51.9065 110.904 53.5436C112.541 55.1629 113.36 57.1292 113.36 59.4424C113.36 61.7379 112.541 63.7042 110.904 65.3413C109.267 66.9784 107.301 67.7969 105.005 67.7969Z" fill="black"/>
<path d="M99.106 65.3413C100.725 66.9784 102.692 67.7969 105.005 67.7969C107.3 67.7969 109.267 66.9784 110.904 65.3413C112.541 63.7042 113.359 61.7379 113.359 59.4424C113.359 57.1291 112.541 55.1628 110.904 53.5435C109.267 51.9064 107.3 51.0879 105.005 51.0879C102.692 51.0879 100.725 51.9064 99.106 53.5435C97.4689 55.1628 96.6504 57.1291 96.6504 59.4424C96.6504 61.7379 97.4689 63.7042 99.106 65.3413ZM107.194 57.2537C107.799 57.8587 108.101 58.5883 108.101 59.4424C108.101 60.2787 107.799 60.9994 107.194 61.6044C106.589 62.2094 105.859 62.512 105.005 62.512C104.151 62.512 103.43 62.2094 102.843 61.6044C102.238 60.9994 101.935 60.2787 101.935 59.4424C101.935 58.5883 102.238 57.8587 102.843 57.2537C103.43 56.6487 104.151 56.3462 105.005 56.3462C105.859 56.3462 106.589 56.6487 107.194 57.2537Z" fill="#5F5F5F"/>
<path d="M108.101 59.4424C108.101 58.5883 107.799 57.8587 107.194 57.2537C106.589 56.6487 105.859 56.3462 105.005 56.3462C104.151 56.3462 103.43 56.6487 102.843 57.2537C102.238 57.8587 101.936 58.5883 101.936 59.4424C101.936 60.2788 102.238 60.9994 102.843 61.6045C103.43 62.2095 104.151 62.512 105.005 62.512C105.859 62.512 106.589 62.2095 107.194 61.6045C107.799 60.9994 108.101 60.2788 108.101 59.4424Z" fill="#D6D6D6"/>
<path d="M12.9732 21.0063H9.15625V63.206H12.9732V21.0063Z" fill="#ADADAD"/>
<path d="M12.2511 59.6294H9.84886C9.11929 59.6294 8.48758 59.8874 7.95375 60.4035C7.43771 60.9373 7.17969 61.569 7.17969 62.2986V71.3738H14.9203V62.2986C14.9203 61.569 14.6534 60.9373 14.1195 60.4035C13.6035 59.8874 12.9807 59.6294 12.2511 59.6294Z" fill="#808080"/>
<path d="M22.688 21.4068V2.66917C22.688 0.889724 21.7982 0 20.0188 0H2.66917C0.889724 0 0 0.889724 0 2.66917V21.4068C0 23.1862 0.889724 24.0759 2.66917 24.0759H20.0188C21.7982 24.0759 22.688 23.1862 22.688 21.4068Z" fill="#3B7D92"/>
<path d="M17.2424 5.15139C16.2103 4.11931 14.9647 3.60327 13.5056 3.60327H5.81836V20.686H8.80783V14.1732H13.5056C14.9647 14.1732 16.2103 13.6572 17.2424 12.6251C18.2745 11.593 18.7905 10.3474 18.7905 8.88823C18.7905 7.42908 18.2745 6.18347 17.2424 5.15139ZM12.7849 6.59275C13.4255 6.59275 13.9771 6.82407 14.4398 7.28673C14.9024 7.74939 15.1338 8.30102 15.1338 8.94162C15.1338 9.58222 14.9024 10.1338 14.4398 10.5965C13.9771 11.0592 13.4255 11.2905 12.7849 11.2905H8.80783V6.59275H12.7849Z" fill="white"/>
<path d="M50.875 36.8879C52.7507 36.9206 54.5835 36.9473 56.3735 36.968C66.2438 29.342 70.4344 25.2137 68.9453 24.583C62.5927 26.7717 56.5692 30.8734 50.875 36.8879ZM88.9374 37.1815L89.7382 25.7308H74.1235C72.5084 25.4355 68.8695 29.2169 63.2066 37.0747C73.043 37.1974 81.6199 37.233 88.9374 37.1815ZM107.995 26.2379C107.844 26.0691 107.684 25.9089 107.515 25.7574C107.466 25.7454 107.413 25.7365 107.355 25.7308H92.087V37.1548C103.971 37.0553 112.166 36.7084 116.67 36.1138L107.995 26.2379Z" fill="#67C3D3"/>
</svg>
