<svg width="90" height="74" viewBox="0 0 90 74" fill="none" xmlns="http://www.w3.org/2000/svg">
<g clip-path="url(#clip0_1101_14883)">
<path d="M41.2443 11.4736H32.3337C28.3006 11.5928 24.2675 18.3279 20.2344 31.6789H41.2443V11.4736Z" fill="#44A5C2"/>
<path d="M47.444 4.17219C47.444 3.01987 47.0367 2.03642 46.2221 1.22185C45.4076 0.407285 44.4241 0 43.2718 0C42.1195 0 41.136 0.407285 40.3215 1.22185C39.5069 2.03642 39.0996 3.01987 39.0996 4.17219V7.68874H47.444V4.17219Z" fill="#67C3D3"/>
<path d="M90.447 52.0033V45.7152H0.0298013C0.00993377 45.9338 0 46.1622 0 46.4006V52.0033C0 55.2417 1.13245 58.0033 3.39735 60.2881C5.68212 62.553 8.44371 63.6854 11.6821 63.6854H78.7649C81.9834 63.6854 84.7351 62.553 87.0199 60.2881C89.3046 58.0033 90.447 55.2417 90.447 52.0033ZM90.447 19.3708C90.447 16.1324 89.3046 13.3708 87.0199 11.0861C84.7351 8.82117 81.9834 7.68872 78.7649 7.68872H47.4437H39.0993H29.3245C25.2914 7.80793 21.2583 14.543 17.2252 27.894C15.5166 31.5894 12.8444 33.9536 9.20861 34.9867C7.02318 35.4238 5.08609 36.4768 3.39735 38.1457C3.35762 38.1854 3.31788 38.2251 3.27815 38.2649H90.447V19.3708ZM79.5099 22.351V28.0132H73.5497V33.9437H67.8874V28.0132H61.957V22.351H67.8874V16.3907H73.5497V22.351H79.5099ZM32.3344 11.4735H41.245V31.6788H20.2351C24.2682 18.3278 28.3013 11.5927 32.3344 11.4735Z" fill="#E7E7E7"/>
<path d="M90.4465 45.7154V38.265H3.27764C2.62201 38.9405 2.06572 39.6657 1.60877 40.4405C0.655125 42.0299 0.128635 43.7882 0.0292969 45.7154H90.4465ZM79.5094 28.0134V22.3511H73.5492V16.3909H67.8869V22.3511H61.9564V28.0134H67.8869V33.9438H73.5492V28.0134H79.5094Z" fill="#C5281C"/>
<path d="M12.0703 63.6853C12.0703 66.5462 13.0836 68.9899 15.1101 71.0164C17.1365 73.0429 19.5802 74.0562 22.4412 74.0562C25.3021 74.0562 27.7458 73.0429 29.7723 71.0164C31.7988 68.9899 32.812 66.5462 32.812 63.6853C32.812 60.8244 31.7988 58.3807 29.7723 56.3542C27.7458 54.3277 25.3021 53.3145 22.4412 53.3145C19.5802 53.3145 17.1365 54.3277 15.1101 56.3542C13.0836 58.3807 12.0703 60.8244 12.0703 63.6853ZM18.12 59.3641C19.312 58.1721 20.7524 57.576 22.4412 57.576C24.1299 57.576 25.5802 58.1721 26.7922 59.3641C27.9842 60.5562 28.5802 61.9966 28.5802 63.6853C28.5802 65.3741 27.9842 66.8145 26.7922 68.0065C25.5802 69.2184 24.1299 69.8244 22.4412 69.8244C20.7524 69.8244 19.312 69.2184 18.12 68.0065C16.9279 66.8145 16.3319 65.3741 16.3319 63.6853C16.3319 61.9966 16.9279 60.5562 18.12 59.3641Z" fill="black"/>
<path d="M22.4413 57.5762C20.7526 57.5762 19.3122 58.1722 18.1201 59.3643C16.9281 60.5563 16.332 61.9967 16.332 63.6854C16.332 65.3742 16.9281 66.8146 18.1201 68.0066C19.3122 69.2186 20.7526 69.8245 22.4413 69.8245C24.13 69.8245 25.5804 69.2186 26.7923 68.0066C27.9844 66.8146 28.5804 65.3742 28.5804 63.6854C28.5804 61.9967 27.9844 60.5563 26.7923 59.3643C25.5804 58.1722 24.13 57.5762 22.4413 57.5762Z" fill="#939393"/>
<path d="M59.0078 63.6853C59.0078 66.5462 60.0211 68.9899 62.0476 71.0164C64.074 73.0429 66.5177 74.0562 69.3787 74.0562C72.2396 74.0562 74.6833 73.0429 76.7098 71.0164C78.7363 68.9899 79.7495 66.5462 79.7495 63.6853C79.7495 60.8244 78.7363 58.3807 76.7098 56.3542C74.6833 54.3277 72.2396 53.3145 69.3787 53.3145C66.5177 53.3145 64.074 54.3277 62.0476 56.3542C60.0211 58.3807 59.0078 60.8244 59.0078 63.6853ZM65.0575 59.3641C66.2495 58.1721 67.6899 57.576 69.3787 57.576C71.0674 57.576 72.5177 58.1721 73.7297 59.3641C74.9217 60.5562 75.5177 61.9966 75.5177 63.6853C75.5177 65.3741 74.9217 66.8145 73.7297 68.0065C72.5177 69.2184 71.0674 69.8244 69.3787 69.8244C67.6899 69.8244 66.2495 69.2184 65.0575 68.0065C63.8654 66.8145 63.2694 65.3741 63.2694 63.6853C63.2694 61.9966 63.8654 60.5562 65.0575 59.3641Z" fill="black"/>
<path d="M69.3768 57.5762C67.6881 57.5762 66.2477 58.1722 65.0557 59.3643C63.8636 60.5563 63.2676 61.9967 63.2676 63.6854C63.2676 65.3742 63.8636 66.8146 65.0557 68.0066C66.2477 69.2186 67.6881 69.8245 69.3768 69.8245C71.0656 69.8245 72.5159 69.2186 73.7278 68.0066C74.9199 66.8146 75.5159 65.3742 75.5159 63.6854C75.5159 61.9967 74.9199 60.5563 73.7278 59.3643C72.5159 58.1722 71.0656 57.5762 69.3768 57.5762Z" fill="#939393"/>
<path d="M4.35099 40.4404H1.57947C0.637237 42.0229 0.110746 43.7812 0 45.7153C0 45.9413 0 46.1698 0 46.4007V47.712H4.35099C5.36424 47.712 6.21854 47.3543 6.91391 46.6391C7.20377 46.3572 7.43225 46.0493 7.59934 45.7153C7.85762 45.2251 7.98675 44.6787 7.98675 44.0762C7.98675 43.0629 7.62914 42.1987 6.91391 41.4835C6.21854 40.7881 5.36424 40.4404 4.35099 40.4404Z" fill="#FFFF00"/>
</g>
<defs>
<clipPath id="clip0_1101_14883">
<rect width="90" height="73.9073" fill="white"/>
</clipPath>
</defs>
</svg>
