<svg width="583" height="150" viewBox="0 0 583 150" fill="none" xmlns="http://www.w3.org/2000/svg">
<g clip-path="url(#clip0_1382_46900)">
<path d="M457.81 85.7512C460.493 81.2081 463.873 78.3463 467.951 77.1659C469.382 74.7333 471.26 72.8016 473.585 71.3707C476.054 69.904 478.701 69.1707 481.527 69.1707C485.891 69.1707 489.629 70.7983 492.741 74.0536C495.818 77.3089 497.356 81.226 497.356 85.8049C497.356 87.2715 497.213 88.5593 496.927 89.6683C497.642 92.2081 498 94.8731 498 97.6634C498 100.811 497.553 103.78 496.659 106.571C495.764 109.289 494.548 111.597 493.01 113.493C492.974 120.361 491.239 126.228 487.805 131.093C484.371 135.922 480.221 138.337 475.356 138.337C471.028 138.337 467.2 136.351 463.873 132.381C460.618 128.481 458.633 123.563 457.917 117.624C455.163 113.046 453.785 107.715 453.785 101.634C453.785 95.6601 455.127 90.3659 457.81 85.7512Z" fill="#CC4227"/>
<path d="M471.334 83.7122C471.334 83.6049 471.388 83.5513 471.495 83.5513C471.638 83.5513 471.71 83.6228 471.71 83.7659V85.1073L471.925 87.0927L472.3 88.8634L472.944 90.7415L473.212 91.3318L473.534 91.922L473.642 92.1903L474.125 92.9952L475.52 94.7122L475.842 95.0342L476.647 95.6781L476.7 95.3025C477.094 92.8699 477.434 90.9561 477.72 89.561L479.973 81.0829C480.152 80.5106 480.331 80.0814 480.51 79.7952L480.993 78.8293L481.208 78.5074L481.583 78.1317C481.69 78.0602 481.78 78.0602 481.851 78.1317C481.923 78.239 481.923 78.3285 481.851 78.4V78.4537L481.69 78.561L481.368 79.044C481.154 79.4017 481.011 79.7057 480.939 79.9561L480.456 81.2439L478.739 88.6488L478.954 88.5951H479.061L479.544 88.4342L479.866 88.2732L480.081 88.2196L480.242 88.1123L480.671 87.9513L481.905 87.1464L482.281 86.8244C482.746 86.4667 483.014 86.2342 483.086 86.1269L483.89 85.3756L485.125 83.8196C485.375 83.4976 485.536 83.2472 485.608 83.0683L486.52 81.5122C486.591 81.2618 486.734 81.2081 486.949 81.3512C487.128 81.4228 487.181 81.5659 487.11 81.7805L485.768 84.2488L484.105 86.3415L482.871 87.522L481.1 88.7561L480.456 89.0781L480.295 89.1854L478.9 89.6683H478.686L478.578 89.722L476.861 105.927L477.183 106.034L478.525 106.302H479.598L481.261 106.034L483.086 105.337L485.339 104.102L486.627 103.083L489.471 100.293L489.364 100.239L488.827 99.7561L488.29 98.8976L488.022 97.8244C487.986 97.2879 488.04 96.6797 488.183 96L488.344 95.4098L488.398 95.3025L488.451 95.0879V95.0342L488.612 94.9805H488.773C488.881 94.9805 488.934 95.0163 488.934 95.0879L488.988 95.1415V95.1952L489.042 95.2488V95.3562L488.988 95.5707L488.934 96.1073C488.863 96.6797 488.899 97.1984 489.042 97.6634L489.31 98.4147L489.686 98.8976L490.061 99.1659L490.168 99.2196H490.222L490.276 99.2732H490.329L493.227 94.8196L493.656 93.9073C493.764 93.7285 493.907 93.6749 494.086 93.7464C494.264 93.818 494.318 93.961 494.247 94.1756L492.905 96.8049L492.637 97.2342L492.798 97.4488H492.851L493.281 97.5562L493.871 97.6098C494.443 97.6098 494.837 97.5919 495.051 97.5562H495.588L495.695 97.6098L495.642 97.7708L493.978 98.2537C493.477 98.361 493.048 98.4147 492.69 98.4147L492.422 98.361L492.1 98.2537L492.047 98.2L489.256 101.902L488.505 102.707L485.929 104.907L483.568 106.356L482.549 106.785C482.227 106.964 481.905 107.072 481.583 107.107L480.617 107.376L479.705 107.483C479.526 107.519 479.24 107.537 478.847 107.537H478.471L476.808 107.268H476.754C476.575 110.094 476.468 112.974 476.432 115.907C476.36 117.839 476.325 120.737 476.325 124.6L476.7 124.654L479.115 124.6L480.886 124.224L482.12 123.795L482.173 123.741V123.688C482.066 123.581 482.012 123.455 482.012 123.312L481.959 122.99L482.066 122.293L482.281 121.595L482.978 120.093L483.086 119.932C483.157 119.789 483.247 119.753 483.354 119.824C483.497 119.86 483.568 119.968 483.568 120.146L483.139 121.81V122.883L483.193 122.99V122.937L483.139 122.883C483.211 122.919 483.3 123.026 483.408 123.205L484.427 122.668L484.534 122.561L485.393 122.024L486.895 120.737L487.056 120.629L487.164 120.468L487.808 119.824H487.861C487.968 119.681 488.112 119.663 488.29 119.771C488.469 119.878 488.487 120.039 488.344 120.254L487.754 121.005L487.593 121.166L487.486 121.327L485.554 123.205L485.286 123.366L485.178 123.473L485.017 123.581C484.624 123.902 484.248 124.153 483.89 124.332C483.855 124.403 483.765 124.475 483.622 124.546L482.656 125.029C482.656 125.065 482.567 125.119 482.388 125.19L482.066 125.351L480.081 126.102L478.203 126.478L477.612 126.532L477.344 126.585H476.378L476.432 129.912C476.503 133.633 476.682 137.711 476.968 142.146L477.934 154.059L477.988 154.112C478.024 154.577 477.881 154.989 477.559 155.346C477.237 155.704 476.825 155.901 476.325 155.937C475.824 155.972 475.412 155.829 475.09 155.507C474.733 155.185 474.536 154.792 474.5 154.327L473.964 142.307C473.892 137.299 473.874 133.185 473.91 129.966C474.053 124.493 474.25 119.771 474.5 115.8L474.554 115.049L474.393 114.995L471.764 113.332L469.349 110.971C469.063 110.685 468.669 110.184 468.168 109.468C468.025 109.254 467.686 108.717 467.149 107.859L466.237 106.088L465.432 103.888L464.842 101.044L464.627 97.8244C464.627 97.6456 464.734 97.5203 464.949 97.4488C465.199 97.4488 465.325 97.574 465.325 97.8244L465.593 100.937L466.129 103.19L466.72 104.854L467.095 105.712L469.027 108.878L470.208 110.22C470.708 110.792 471.102 111.185 471.388 111.4L472.515 112.366L474.393 113.546L474.661 113.654C474.947 109.468 475.323 105.498 475.788 101.741L476.378 97.5025L476.164 97.3951L475.09 96.4293L474.071 95.2488L473.749 94.7122L473.588 94.4976L473.427 94.1756L473.051 93.6391L472.461 92.4049L471.603 89.722L471.549 89.4L471.495 89.2391V89.0781L471.227 87.1464V84.6781L471.334 83.7122Z" fill="#211F1F"/>
</g>
<g clip-path="url(#clip1_1382_46900)">
<path fill-rule="evenodd" clip-rule="evenodd" d="M545.078 67.1002L544.227 49.274L539.404 50.0285L538.269 68.7036L545.078 67.1002ZM545.267 72.0046L545.929 88.133C543.659 88.6989 540.728 89.1391 537.134 89.4535L537.985 74.4568C541.074 74.1424 543.501 73.325 545.267 72.0046ZM540.16 157.268C543.564 156.325 546.117 155.005 547.82 153.307C547.946 166.008 547.599 172.453 546.779 172.642C545.392 172.956 542.745 172.485 538.836 171.227C534.99 169.781 532.878 168.995 532.5 168.869L533.162 158.4C534.801 158.4 537.134 158.023 540.16 157.268ZM536.85 94.8295C538.3 94.7038 541.389 94.2322 546.118 93.4148L546.496 102.752C544.731 103.57 541.295 104.639 536.188 105.959L536.85 94.8295ZM547.253 125.672L546.685 108.223C542.272 109.858 538.647 110.958 535.81 111.524L534.77 129.916C541.263 128.47 545.424 127.055 547.253 125.672ZM534.297 137.744C537.26 137.304 541.642 135.952 547.442 133.689L547.82 149.063C545.172 149.943 540.413 150.886 533.541 151.892L534.297 137.744Z" fill="#DD9A3A"/>
<path fill-rule="evenodd" clip-rule="evenodd" d="M545.08 67.1001L545.269 72.0046C543.504 73.3251 541.077 74.1425 537.987 74.4568L538.271 68.7035L545.08 67.1001ZM546.12 93.4147L545.931 88.1329C543.661 88.6988 540.73 89.139 537.136 89.4533L536.852 94.8294C538.302 94.7037 541.392 94.2321 546.12 93.4147ZM546.498 102.752L546.687 108.223C542.274 109.858 538.649 110.958 535.812 111.524L536.19 105.959C541.296 104.639 544.732 103.57 546.498 102.752ZM547.444 133.689L547.254 125.672C545.426 127.055 541.265 128.47 534.772 129.916L534.299 137.744C537.262 137.304 541.644 135.952 547.444 133.689ZM533.542 151.892L533.164 158.4C534.803 158.4 537.136 158.023 540.162 157.268C543.566 156.325 546.119 155.005 547.822 153.307V149.063C545.174 149.943 540.414 150.886 533.542 151.892Z" fill="#9B6148"/>
<path d="M500.444 66.5341C501.957 66.6598 503.564 64.8992 505.267 61.2523C506.843 57.1023 507.946 54.5871 508.576 53.7068C511.413 49.7455 516.173 46.6329 522.856 44.3693C527.017 42.8602 529.223 42.0742 529.475 42.0113C531.997 41.1939 534.298 40.7539 536.379 40.691L535.906 41.1626C536.079 41.0449 536.362 40.8877 536.757 40.691H536.851C538.175 40.5652 539.657 40.5337 541.296 40.5966C543.599 40.5966 544.891 40.7538 545.173 41.0682L544.889 40.691C546.466 40.9425 548.388 41.3511 550.658 41.917C557.151 43.5519 562.384 46.0985 566.356 49.5568C569.382 52.1977 571.904 55.5932 573.921 59.7432C574.236 60.4978 574.93 62.1641 576.001 64.7421C577.199 66.9429 578.555 67.9803 580.068 67.8545C581.77 67.7288 582.652 65.528 582.716 61.2523C582.716 58.4856 582.463 55.8762 581.959 53.4239C580.95 48.3308 578.681 43.9921 575.15 40.408C571.872 37.1383 567.617 34.686 562.384 33.0511C558.917 31.9822 557.12 31.4163 556.994 31.3535C554.787 30.7247 552.864 30.3789 551.225 30.316C555.071 28.3039 558.286 26.9205 560.871 26.166C564.528 25.0341 567.995 24.6883 571.273 25.1285C571.904 25.2542 574.205 25.7258 578.176 26.5433C581.833 27.0463 583.724 26.5747 583.85 25.1285C584.229 21.6701 581.833 18.589 576.663 15.8853C572.755 13.8731 568.783 12.6156 564.748 12.1125C560.839 11.6724 557.057 12.2068 553.4 13.7159C549.681 15.2879 546.655 17.6144 544.322 20.6955C542.305 23.2106 541.075 24.814 540.634 25.5057C540.193 24.4367 539.405 23.1163 538.27 21.5443C537.072 19.9724 536.221 18.8406 535.717 18.1489C533.447 15.005 530.484 12.6156 526.828 10.9808C523.234 9.3459 519.483 8.71712 515.574 9.09439C511.539 9.40878 507.505 10.572 503.47 12.5841C498.174 15.1621 495.684 18.1803 495.999 21.6386C496.125 23.022 498.017 23.4936 501.673 23.0534C503.627 22.8648 505.96 22.4875 508.671 21.9216C512.138 21.6072 515.795 22.1103 519.641 23.4307C522.225 24.311 525.567 25.9144 529.664 28.2409L532.029 30.1273C526.733 30.4417 522.288 31.1019 518.695 32.1079C513.967 33.4284 509.995 35.4405 506.78 38.1443C502.808 41.4769 500.16 46.0986 498.836 52.0092C498.269 54.2728 497.954 56.8822 497.891 59.8375C497.827 64.1133 498.679 66.3454 500.444 66.5341Z" fill="#469F76"/>
<path d="M540.542 42.8602C540.605 41.7284 540.227 40.7538 539.407 39.9364C538.65 39.1818 537.705 38.7731 536.57 38.7102C535.435 38.7102 534.458 39.119 533.638 39.9364C532.819 40.6909 532.409 41.6341 532.409 42.7659C532.346 43.8978 532.724 44.8723 533.544 45.6898C534.363 46.5072 535.341 46.916 536.475 46.916C537.61 46.9788 538.587 46.6015 539.407 45.7841C540.163 44.9666 540.542 43.992 540.542 42.8602Z" fill="#9B6148"/>
<path d="M549.809 42.9545C549.809 41.8227 549.431 40.8481 548.674 40.0307C547.855 39.2761 546.878 38.8675 545.743 38.8046C544.608 38.8046 543.631 39.2133 542.811 40.0307C541.992 40.7852 541.582 41.7284 541.582 42.8602C541.582 43.9921 541.992 44.9667 542.811 45.7841C543.568 46.6015 544.514 47.0103 545.648 47.0103C546.783 47.0731 547.76 46.6959 548.58 45.8785C549.399 45.0611 549.809 44.0864 549.809 42.9545Z" fill="#9B6148"/>
<path d="M545.645 47.0101C545.645 45.8783 545.267 44.9037 544.51 44.0863C543.691 43.3317 542.714 42.923 541.579 42.8601C540.444 42.8601 539.467 43.2689 538.647 44.0863C537.828 44.8408 537.418 45.784 537.418 46.9158C537.418 48.0477 537.828 49.0223 538.647 49.8397C539.404 50.6571 540.35 51.0659 541.484 51.0659C542.619 51.1287 543.596 50.7514 544.416 49.934C545.235 49.1165 545.645 48.1419 545.645 47.0101Z" fill="#9B6148"/>
<path d="M506.687 15.0363L504.417 15.9795C504.228 16.1052 503.692 16.514 502.81 17.2057L501.959 18.1489L501.77 18.5261H502.242L507.443 17.3943C509.209 16.9541 511.068 16.7027 513.023 16.6398C513.716 16.6398 514.756 16.7026 516.143 16.8284L519.453 17.3C521.155 17.6144 523.204 18.2431 525.6 19.1863L530.706 21.6386L532.503 22.8648L533.638 23.9022L534.016 24.3738V24.2795C534.142 25.2856 534.741 25.7886 535.813 25.7886C536.317 25.7257 536.727 25.5057 537.042 25.1284C537.358 24.7511 537.484 24.3424 537.421 23.9022V23.4306L537.326 23.1476L537.231 22.9591C537.105 22.6447 536.79 22.1731 536.286 21.5443L534.678 20.0352L532.598 18.6204C532.093 18.2432 531.211 17.7402 529.95 17.1114L523.614 14.7534L520.021 13.9988C517.562 13.6216 515.166 13.5272 512.834 13.7158C511.068 13.8416 509.019 14.2818 506.687 15.0363Z" fill="#104D52"/>
<path d="M575.056 17.7716C573.038 17.0171 571.021 16.5455 569.003 16.3568C566.608 16.0424 564.212 16.0738 561.817 16.4511C560.934 16.514 559.736 16.7341 558.223 17.1114L551.793 19.2807L546.97 22.1102L545.362 23.525C544.858 24.1538 544.543 24.6568 544.416 25.0341L544.227 25.4113V25.6943L544.133 25.7886V25.8829C544.133 27.0148 544.637 27.6435 545.646 27.7693C546.677 27.8904 547.308 27.4188 547.537 26.3545L548.01 25.9772C548.073 25.9144 548.451 25.6 549.145 25.0341L550.942 23.808L556.048 21.45C558.065 20.6955 560.146 20.1295 562.289 19.7523L565.599 19.2807C566.671 19.1549 567.743 19.1549 568.814 19.2807C570.643 19.2807 572.471 19.5636 574.299 20.1296L576.474 20.7897L579.5 21.3557H579.973L579.689 20.9784C579.626 20.7898 579.374 20.4754 578.933 20.0353L577.42 18.8091C576.6 18.3689 575.812 18.0231 575.056 17.7716Z" fill="#104D52"/>
<path d="M505.079 47.3877C503.503 49.6513 502.4 52.0721 501.77 54.6502C501.454 55.9077 501.297 56.9453 501.297 57.7627C501.297 58.9574 501.36 59.7748 501.486 60.215L501.864 61.8183L502.053 62.2899L502.337 61.8183L504.134 55.3105C504.953 52.9211 506.057 50.8146 507.444 48.9911C507.948 48.2994 508.831 47.3248 510.091 46.0672L513.401 43.4263L516.995 41.3513L524.371 38.6161L530.517 37.7672C531.526 37.7672 532.188 37.7987 532.503 37.8616L533.544 38.0502C533.67 38.1759 533.733 38.2074 533.733 38.1445C534.678 38.8362 535.466 38.7104 536.097 37.7672C536.349 37.3899 536.444 36.9813 536.381 36.5411C536.318 36.101 536.097 35.7236 535.719 35.4092L535.624 35.3149L534.962 34.9376C534.521 34.6861 533.89 34.4975 533.071 34.3718C532.566 34.246 531.684 34.1832 530.423 34.1832C529.793 34.1832 528.721 34.246 527.208 34.3718C524.623 34.8119 522.038 35.5036 519.453 36.4468C518.382 36.8241 517.026 37.4214 515.387 38.2388L511.415 40.7854C508.767 42.7347 506.656 44.9354 505.079 47.3877Z" fill="#104D52"/>
<path d="M565.883 39.0876C564.496 38.2702 563.141 37.61 561.817 37.107C559.106 36.038 556.553 35.3149 554.157 34.9376L550.942 34.6547L548.294 34.749C547.16 35.0634 546.498 35.252 546.308 35.3149L545.741 35.6922L545.646 35.7865C545.205 36.038 544.953 36.3838 544.89 36.824C544.764 37.327 544.858 37.7672 545.174 38.1445C545.867 39.0248 546.655 39.182 547.538 38.616L547.727 38.5217L548.767 38.2387L553.59 38.5217L556.9 39.2763C557.656 39.465 558.854 39.8736 560.493 40.5024L564.181 42.2002C565.379 42.7661 566.577 43.4891 567.775 44.3694C568.531 44.8725 569.603 45.7528 570.99 47.0104C571.873 47.8907 572.724 48.8967 573.543 50.0285C574.993 52.1035 576.033 54.2414 576.664 56.4422L578.555 63.5161L578.839 62.9502L579.312 61.4411L579.501 58.9887C579.501 58.1713 579.343 57.1339 579.028 55.8763C578.524 53.2983 577.515 50.8146 576.002 48.4252C574.363 45.91 572.282 43.6464 569.761 41.6343C568.626 40.754 567.333 39.9051 565.883 39.0876Z" fill="#104D52"/>
</g>
<g clip-path="url(#clip2_1382_46900)">
<path d="M72.9726 106.888C72.9726 106.195 72.7417 105.617 72.2797 105.155C71.7792 104.655 71.2018 104.405 70.5473 104.405L65.5811 104.347C64.8882 104.347 64.3107 104.578 63.8487 105.04C63.3483 105.54 63.0981 106.118 63.0981 106.772L62.5783 162.67C62.5398 163.363 62.7708 163.96 63.2713 164.46C63.7717 164.922 64.3492 165.153 65.0036 165.153L69.9698 165.211C70.6243 165.211 71.2018 164.98 71.7022 164.518C72.2027 164.018 72.4529 163.44 72.4529 162.786L72.9726 106.888Z" fill="#EE754B"/>
<path d="M69.0485 0.000197085C62.8505 -0.0383002 57.4994 5.56304 52.9952 16.8042C48.491 28.0454 46.162 41.6543 46.008 57.6306C45.854 73.6455 47.9328 87.312 52.2445 98.6302C56.5177 109.987 61.7533 115.684 67.9514 115.723C74.1495 115.8 79.5005 110.199 84.0047 98.9189C88.5089 87.6777 90.838 74.0689 90.992 58.0926C91.146 42.1162 89.0864 28.4497 84.8132 17.093C80.5015 5.77477 75.2466 0.0771916 69.0485 0.000197085Z" fill="#2E575B"/>
</g>
<g clip-path="url(#clip3_1382_46900)">
<path d="M55.7183 57.9866C51.9988 51.6882 47.3122 47.7207 41.6585 46.0842C39.6748 42.7118 37.0711 40.0337 33.8476 38.05C30.4256 36.0166 26.7557 35 22.8378 35C16.7874 35 11.6049 37.2565 7.29024 41.7695C3.0252 46.2825 0.892681 51.713 0.892681 58.061C0.892681 60.0943 1.09106 61.8796 1.4878 63.417C0.495935 66.9382 0 70.6329 0 74.5012C0 78.8654 0.619919 82.9817 1.85976 86.85C3.09959 90.6191 4.78577 93.8179 6.91829 96.4463C6.96789 105.968 9.37317 114.102 14.1341 120.846C18.8951 127.541 24.648 130.889 31.3927 130.889C37.3935 130.889 42.7 128.137 47.3122 122.632C51.8252 117.226 54.5776 110.407 55.5695 102.174C59.3882 95.8265 61.2976 88.437 61.2976 80.0061C61.2976 71.724 59.4378 64.3842 55.7183 57.9866Z" fill="#CC4227"/>
<path d="M36.9685 55.1597C36.9685 55.011 36.8941 54.9366 36.7453 54.9366C36.5469 54.9366 36.4478 55.0357 36.4478 55.2341V57.0939L36.1502 59.8464L35.6295 62.3012L34.7368 64.9049L34.3648 65.7232L33.9185 66.5415L33.7697 66.9134L33.1002 68.0293L31.166 70.4097L30.7197 70.8561L29.6038 71.7488L29.5295 71.228C28.9839 67.8557 28.5128 65.2024 28.116 63.2683L24.9917 51.5146C24.7437 50.7211 24.4957 50.1261 24.2478 49.7293L23.5782 48.3903L23.2807 47.9439L22.7599 47.4231C22.6112 47.324 22.4872 47.324 22.388 47.4231C22.2888 47.5719 22.2888 47.6959 22.388 47.7951V47.8696L22.6112 48.0183L23.0575 48.6878C23.3551 49.1838 23.5534 49.6053 23.6526 49.9524L24.3221 51.7378L26.7026 62.0037L26.4051 61.9292H26.2563L25.5868 61.7061L25.1404 61.4829L24.8429 61.4085L24.6197 61.2598L24.0246 61.0366L22.3136 59.9207L21.7929 59.4744C21.1482 58.9785 20.7762 58.6561 20.677 58.5073L19.5612 57.4658L17.8502 55.3086C17.503 54.8622 17.2799 54.5151 17.1807 54.2671L15.916 52.1098C15.8169 51.7626 15.6185 51.6882 15.3209 51.8866C15.073 51.9857 14.9986 52.1842 15.0978 52.4817L16.9575 55.9037L19.2636 58.8049L20.9746 60.4414L23.4295 62.1524L24.3221 62.5988L24.5453 62.7476L26.4795 63.417H26.777L26.9258 63.4915L29.3063 85.9573L28.8599 86.1061L27.0002 86.478H25.5124L23.2063 86.1061L20.677 85.139L17.5526 83.428L15.7673 82.0146L11.8246 78.1463L11.9734 78.072L12.7173 77.4024L13.4612 76.2122L13.8331 74.7244C13.8827 73.9805 13.8083 73.1374 13.6099 72.1951L13.3868 71.3769L13.3124 71.228L13.238 70.9305V70.8561L13.0148 70.7817H12.7917C12.6429 70.7817 12.5685 70.8313 12.5685 70.9305L12.4941 71.0049V71.0793L12.4197 71.1536V71.3025L12.4941 71.6L12.5685 72.3439C12.6677 73.1374 12.6181 73.8565 12.4197 74.5012L12.0477 75.5427L11.527 76.2122L11.0063 76.5842L10.8575 76.6585H10.7831L10.7087 76.7329H10.6343L6.61726 70.5586L6.02214 69.2939C5.87336 69.0459 5.67499 68.9716 5.42702 69.0708C5.17905 69.17 5.10466 69.3683 5.20385 69.6658L7.06361 73.311L7.43556 73.9061L7.21238 74.2036H7.138L6.54287 74.3525L5.72458 74.4268C4.93108 74.4268 4.38556 74.4021 4.088 74.3525H3.34409L3.19531 74.4268L3.2697 74.65L5.5758 75.3195C6.27011 75.4683 6.86523 75.5427 7.36117 75.5427L7.73312 75.4683L8.17946 75.3195L8.25385 75.2451L12.1221 80.3781L13.1636 81.4939L16.7343 84.5439L20.0075 86.5525L21.4209 87.1475C21.8673 87.3955 22.3136 87.5443 22.7599 87.5939L24.099 87.9658L25.3636 88.1147C25.6116 88.1643 26.0083 88.189 26.5538 88.189H27.0746L29.3807 87.8171H29.4551C29.703 91.735 29.8518 95.7272 29.9014 99.7939C30.0006 102.472 30.0502 106.489 30.0502 111.845L29.5295 111.92L26.1819 111.845L23.727 111.324L22.016 110.729L21.9417 110.655V110.58C22.0904 110.432 22.1648 110.258 22.1648 110.06L22.2392 109.613L22.0904 108.646L21.7929 107.679L20.8258 105.596L20.677 105.373C20.5778 105.175 20.4538 105.125 20.3051 105.224C20.1067 105.274 20.0075 105.423 20.0075 105.671L20.6026 107.977V109.465L20.5282 109.613V109.539L20.6026 109.465C20.5034 109.514 20.3795 109.663 20.2307 109.911L18.8173 109.167L18.6685 109.018L17.4782 108.274L15.3953 106.489L15.1721 106.34L15.0234 106.117L14.1307 105.224H14.0563C13.9075 105.026 13.7091 105.001 13.4612 105.15C13.2132 105.299 13.1884 105.522 13.3868 105.819L14.2051 106.861L14.4282 107.084L14.577 107.307L17.2551 109.911L17.627 110.134L17.7758 110.283L17.999 110.432C18.5445 110.878 19.0652 111.225 19.5612 111.473C19.6108 111.572 19.7347 111.672 19.9331 111.771L21.2721 112.44C21.2721 112.49 21.3961 112.564 21.6441 112.663L22.0904 112.887L24.8429 113.928L27.4465 114.449L28.2648 114.523L28.6368 114.598H29.9758L29.9014 119.21C29.8022 124.367 29.5543 130.021 29.1575 136.171L27.8185 152.685L27.7441 152.76C27.6945 153.405 27.8929 153.975 28.3392 154.471C28.7856 154.967 29.3559 155.239 30.0502 155.289C30.7445 155.339 31.3148 155.14 31.7612 154.694C32.2571 154.248 32.5299 153.702 32.5795 153.057L33.3234 136.394C33.4225 129.451 33.4473 123.748 33.3978 119.284C33.1994 111.696 32.9266 105.15 32.5795 99.6451L32.5051 98.6037L32.7282 98.5293L36.3734 96.2232L39.7209 92.95C40.1177 92.5533 40.6632 91.8589 41.3575 90.8671C41.5559 90.5695 42.027 89.8256 42.7709 88.6354L44.0356 86.1805L45.1514 83.1305L45.9697 79.1878L46.2673 74.7244C46.2673 74.4764 46.1185 74.3028 45.8209 74.2036C45.4738 74.2036 45.3002 74.3773 45.3002 74.7244L44.9282 79.039L44.1843 82.1634L43.366 84.4695L42.8453 85.6597L40.1673 90.0488L38.5307 91.9085C37.8364 92.702 37.2908 93.2475 36.8941 93.5451L35.3319 94.8842L32.7282 96.5207L32.3563 96.6695C31.9595 90.8671 31.4388 85.3622 30.7941 80.1549L29.9758 74.2781L30.2734 74.1293L31.7612 72.7903L33.1746 71.1536L33.6209 70.4097L33.8441 70.1122L34.0673 69.6658L34.588 68.9219L35.4063 67.211L36.5965 63.4915L36.6709 63.0451L36.7453 62.822V62.5988L37.1173 59.9207V56.4988L36.9685 55.1597Z" fill="#211F1F"/>
</g>
<g clip-path="url(#clip4_1382_46900)">
<path fill-rule="evenodd" clip-rule="evenodd" d="M152.542 96.8656L151.926 83.957L148.433 84.5034L147.612 98.0267L152.542 96.8656ZM152.678 100.417L153.157 112.096C151.513 112.506 149.391 112.825 146.788 113.052L147.405 102.193C149.642 101.965 151.399 101.373 152.678 100.417ZM148.98 162.16C151.446 161.477 153.294 160.52 154.527 159.291C154.618 168.489 154.367 173.156 153.774 173.292C152.769 173.52 150.852 173.179 148.022 172.268C145.237 171.221 143.708 170.652 143.434 170.561L143.913 162.979C145.1 162.979 146.789 162.706 148.98 162.16ZM146.583 116.946C147.633 116.854 149.87 116.513 153.294 115.921L153.568 122.683C152.29 123.275 149.802 124.049 146.104 125.005L146.583 116.946ZM154.116 139.28L153.705 126.644C150.51 127.828 147.885 128.625 145.83 129.035L145.077 142.353C149.779 141.306 152.792 140.281 154.116 139.28ZM144.734 148.022C146.879 147.703 150.052 146.724 154.252 145.085L154.526 156.218C152.609 156.855 149.162 157.538 144.186 158.267L144.734 148.022Z" fill="#DD9A3A"/>
<path fill-rule="evenodd" clip-rule="evenodd" d="M152.543 96.8656L152.68 100.417C151.402 101.373 149.644 101.965 147.407 102.193L147.613 98.0267L152.543 96.8656ZM153.295 115.921L153.158 112.096C151.515 112.506 149.392 112.825 146.79 113.052L146.584 116.945C147.634 116.854 149.871 116.513 153.295 115.921ZM153.57 122.683L153.707 126.644C150.511 127.828 147.886 128.625 145.832 129.035L146.106 125.005C149.804 124.049 152.292 123.275 153.57 122.683ZM154.256 145.085L154.119 139.28C152.795 140.281 149.782 141.306 145.08 142.353L144.737 148.022C146.883 147.703 150.056 146.724 154.256 145.085ZM144.188 158.267L143.914 162.979C145.101 162.979 146.79 162.706 148.981 162.16C151.447 161.477 153.296 160.521 154.528 159.291V156.218C152.611 156.855 149.164 157.538 144.188 158.267Z" fill="#9B6148"/>
<path d="M120.218 96.4557C121.314 96.5468 122.478 95.2719 123.711 92.6309C124.852 89.6258 125.651 87.8045 126.107 87.167C128.162 84.2984 131.608 82.0445 136.448 80.4053C139.461 79.3126 141.058 78.7434 141.241 78.6979C143.067 78.1059 144.733 77.7873 146.24 77.7417L145.898 78.0832C146.023 77.998 146.228 77.8842 146.514 77.7417H146.582C147.541 77.6507 148.614 77.6278 149.801 77.6734C151.468 77.6734 152.404 77.7872 152.608 78.0149L152.403 77.7417C153.544 77.9239 154.937 78.2198 156.58 78.6296C161.282 79.8134 165.071 81.6575 167.948 84.1618C170.139 86.0742 171.965 88.533 173.426 91.5382C173.654 92.0846 174.156 93.2912 174.932 95.1581C175.8 96.7517 176.781 97.503 177.877 97.4119C179.109 97.3208 179.749 95.7272 179.794 92.6309C179.794 90.6275 179.612 88.7379 179.246 86.9621C178.516 83.274 176.873 80.1322 174.316 77.5368C171.942 75.1691 168.861 73.3933 165.071 72.2094C162.561 71.4354 161.259 71.0256 161.168 70.9801C159.57 70.5247 158.178 70.2743 156.991 70.2288C159.776 68.7717 162.104 67.77 163.976 67.2236C166.624 66.404 169.135 66.1536 171.508 66.4723C171.965 66.5634 173.631 66.9049 176.507 67.4968C179.155 67.8611 180.525 67.5196 180.616 66.4723C180.89 63.968 179.155 61.7369 175.412 59.779C172.581 58.3219 169.705 57.4113 166.783 57.047C163.953 56.7283 161.214 57.1153 158.566 58.208C155.873 59.3464 153.681 61.0311 151.992 63.2622C150.531 65.0835 149.641 66.2446 149.321 66.7455C149.002 65.9714 148.431 65.0153 147.609 63.8769C146.742 62.7386 146.126 61.919 145.761 61.4182C144.117 59.1415 141.971 57.4113 139.324 56.2274C136.721 55.0436 134.005 54.5882 131.175 54.8614C128.253 55.0891 125.331 55.9314 122.41 57.3885C118.575 59.2553 116.771 61.4409 117 63.9452C117.091 64.9469 118.461 65.2884 121.108 64.9697C122.524 64.8331 124.213 64.5599 126.176 64.1501C128.687 63.9225 131.334 64.2867 134.119 65.2429C135.991 65.8804 138.411 67.0414 141.378 68.7262L143.09 70.0922C139.255 70.3198 136.037 70.7979 133.434 71.5264C130.011 72.4826 127.135 73.9397 124.806 75.8976C121.93 78.3108 120.013 81.6576 119.054 85.9377C118.643 87.5768 118.415 89.4664 118.369 91.6065C118.324 94.7027 118.94 96.3191 120.218 96.4557Z" fill="#469F76"/>
<path d="M149.253 79.3126C149.299 78.493 149.025 77.7872 148.432 77.1953C147.884 76.6489 147.199 76.3529 146.377 76.3074C145.556 76.3074 144.848 76.6034 144.254 77.1953C143.661 77.7417 143.364 78.4247 143.364 79.2443C143.319 80.0639 143.593 80.7696 144.186 81.3615C144.779 81.9535 145.487 82.2495 146.309 82.2495C147.131 82.295 147.838 82.0218 148.432 81.4298C148.98 80.8379 149.253 80.1322 149.253 79.3126Z" fill="#9B6148"/>
<path d="M155.965 79.3809C155.965 78.5613 155.692 77.8556 155.144 77.2636C154.55 76.7172 153.843 76.4213 153.021 76.3758C152.199 76.3758 151.491 76.6717 150.898 77.2636C150.305 77.81 150.008 78.493 150.008 79.3126C150.008 80.1322 150.305 80.838 150.898 81.4299C151.446 82.0218 152.131 82.3178 152.952 82.3178C153.774 82.3633 154.482 82.0902 155.075 81.4982C155.669 80.9063 155.965 80.2005 155.965 79.3809Z" fill="#9B6148"/>
<path d="M152.95 82.3177C152.95 81.4981 152.676 80.7924 152.128 80.2004C151.535 79.654 150.827 79.358 150.005 79.3125C149.184 79.3125 148.476 79.6085 147.882 80.2004C147.289 80.7468 146.992 81.4298 146.992 82.2494C146.992 83.069 147.289 83.7747 147.882 84.3667C148.43 84.9586 149.115 85.2546 149.937 85.2546C150.759 85.3001 151.466 85.0269 152.06 84.435C152.653 83.843 152.95 83.1373 152.95 82.3177Z" fill="#9B6148"/>
<path d="M124.741 59.1642L123.097 59.8472C122.96 59.9383 122.572 60.2343 121.933 60.7351L121.317 61.4181L121.18 61.6913H121.522L125.288 60.8717C126.567 60.553 127.913 60.3709 129.329 60.3253C129.831 60.3253 130.584 60.3708 131.588 60.4619L133.985 60.8034C135.218 61.0311 136.701 61.4864 138.436 62.1694L142.134 63.9452L143.435 64.8331L144.257 65.5844L144.531 65.9259V65.8576C144.622 66.5861 145.056 66.9504 145.832 66.9504C146.197 66.9048 146.494 66.7455 146.722 66.4723C146.95 66.1991 147.042 65.9031 146.996 65.5844V65.2429L146.927 65.0379L146.859 64.9014C146.768 64.6737 146.539 64.3322 146.174 63.8769L145.01 62.7841L143.504 61.7596C143.138 61.4864 142.499 61.1222 141.586 60.6668L136.998 58.9594L134.396 58.4129C132.616 58.1397 130.881 58.0714 129.192 58.208C127.913 58.2991 126.43 58.6178 124.741 59.1642Z" fill="#104D52"/>
<path d="M174.248 61.1449C172.787 60.5985 171.326 60.257 169.865 60.1204C168.13 59.8928 166.396 59.9155 164.661 60.1887C164.022 60.2343 163.154 60.3937 162.059 60.6669L157.402 62.2377L153.91 64.2867L152.746 65.3112C152.38 65.7665 152.152 66.1308 152.061 66.404L151.924 66.6772V66.8821L151.855 66.9504V67.0187C151.855 67.8383 152.221 68.2936 152.951 68.3847C153.698 68.4723 154.154 68.1308 154.321 67.3602L154.663 67.0869C154.709 67.0414 154.983 66.8137 155.485 66.404L156.786 65.5161L160.484 63.8086C161.945 63.2622 163.451 62.8524 165.003 62.5792L167.4 62.2377C168.176 62.1466 168.952 62.1466 169.728 62.2377C171.052 62.2377 172.376 62.4426 173.7 62.8524L175.275 63.3305L177.466 63.7403H177.809L177.603 63.4671C177.558 63.3305 177.375 63.1029 177.055 62.7841L175.96 61.8962C175.366 61.5775 174.796 61.3271 174.248 61.1449Z" fill="#104D52"/>
<path d="M123.575 82.5911C122.434 84.2303 121.635 85.9833 121.178 87.8501C120.95 88.7608 120.836 89.5121 120.836 90.104C120.836 90.9691 120.882 91.5611 120.973 91.8798L121.247 93.0408L121.384 93.3823L121.589 93.0408L122.89 88.3283C123.484 86.598 124.283 85.0726 125.287 83.7521C125.652 83.2513 126.291 82.5455 127.204 81.6349L129.601 79.7225L132.203 78.2199L137.545 76.2392L141.996 75.6245C142.726 75.6245 143.206 75.6473 143.434 75.6929L144.187 75.8294C144.278 75.9205 144.324 75.9432 144.324 75.8977C145.009 76.3986 145.579 76.3075 146.036 75.6245C146.219 75.3513 146.287 75.0554 146.241 74.7367C146.196 74.4179 146.036 74.1447 145.762 73.917L145.694 73.8487L145.214 73.5755C144.895 73.3934 144.438 73.2568 143.845 73.1657C143.479 73.0747 142.84 73.0292 141.927 73.0292C141.471 73.0292 140.695 73.0747 139.599 73.1657C137.727 73.4845 135.855 73.9854 133.984 74.6684C133.208 74.9416 132.226 75.3741 131.039 75.966L128.163 77.8101C126.246 79.2217 124.716 80.8153 123.575 82.5911Z" fill="#104D52"/>
<path d="M167.605 76.5807C166.6 75.9888 165.619 75.5107 164.66 75.1464C162.697 74.3724 160.848 73.8487 159.113 73.5755L156.785 73.3707L154.868 73.4389C154.046 73.6666 153.567 73.8032 153.43 73.8487L153.019 74.1219L152.95 74.1902C152.631 74.3724 152.448 74.6228 152.402 74.9415C152.311 75.3058 152.38 75.6245 152.608 75.8977C153.11 76.5352 153.681 76.649 154.32 76.2392L154.457 76.1709L155.21 75.966L158.702 76.1709L161.099 76.7174C161.647 76.854 162.514 77.1499 163.701 77.6052L166.372 78.8346C167.239 79.2444 168.107 79.768 168.974 80.4055C169.522 80.7697 170.298 81.4072 171.302 82.3179C171.942 82.9553 172.558 83.6838 173.151 84.5034C174.201 86.006 174.955 87.5542 175.411 89.1478L176.781 94.2703L176.986 93.8605L177.329 92.7677L177.465 90.9919C177.465 90.3999 177.351 89.6487 177.123 88.738C176.758 86.8712 176.027 85.0726 174.932 83.3424C173.745 81.521 172.238 79.8819 170.412 78.4248C169.59 77.7874 168.655 77.1726 167.605 76.5807Z" fill="#104D52"/>
</g>
<defs>
<clipPath id="clip0_1382_46900">
<rect width="44" height="85.8537" fill="white" transform="matrix(-1 0 0 1 498 69.1707)"/>
</clipPath>
<clipPath id="clip1_1382_46900">
<rect width="87" height="166" fill="white" transform="translate(496 9)"/>
</clipPath>
<clipPath id="clip2_1382_46900">
<rect width="45" height="165.211" fill="white" transform="translate(46)"/>
</clipPath>
<clipPath id="clip3_1382_46900">
<rect width="61" height="119.024" fill="white" transform="translate(0 35)"/>
</clipPath>
<clipPath id="clip4_1382_46900">
<rect width="63" height="120.207" fill="white" transform="translate(117 54.7931)"/>
</clipPath>
</defs>
</svg>
