<svg width="75" height="79" viewBox="0 0 75 79" fill="none" xmlns="http://www.w3.org/2000/svg">
<path d="M24.6492 37.8999L20.4492 75.9499C32.09 79.4101 43.19 79.4101 53.7492 75.9499L49.5992 37.8999H24.6492Z" fill="#67C3D3"/>
<path d="M68.0504 26.4001C68.0504 25.7067 68.0171 25.0234 67.9504 24.3501H6.25039C6.18372 25.0234 6.15039 25.7067 6.15039 26.4001C6.15039 33.2334 9.16706 39.0668 15.2004 43.9001C21.2671 48.7668 28.5671 51.2001 37.1004 51.2001C45.6337 51.2001 52.9171 48.7668 58.9504 43.9001C65.0171 39.0668 68.0504 33.2334 68.0504 26.4001Z" fill="#44A5C2"/>
<path d="M29.0791 14.2584L27.6798 16.3302C26.9331 17.4311 27.3341 18.3858 28.883 19.1941L32.6019 21.1025C33.5035 21.5518 34.207 21.4035 34.7124 20.6576L35.6919 19.2074C36.2138 18.4322 36.0887 17.7242 35.3164 17.0834L32.1572 14.3463C30.8475 13.1838 29.8215 13.1545 29.0791 14.2584Z" fill="#BDBDBD"/>
<path d="M30.3396 14.9917C30.4491 14.6318 30.4352 14.4053 30.2976 14.3124C30.16 14.2195 29.9333 14.2834 29.6174 14.504C29.3244 14.7401 29.0308 15.076 28.7366 15.5116C28.4424 15.9472 28.2405 16.3449 28.1309 16.7049C28.0442 17.0804 28.0697 17.3146 28.2072 17.4075C28.3448 17.5004 28.5601 17.4288 28.8531 17.1927C29.169 16.9721 29.4741 16.6439 29.7683 16.2083C30.0625 15.7727 30.2529 15.3672 30.3396 14.9917Z" fill="#44A5C2"/>
<path d="M38.8577 17.2447L42.0168 14.5077C43.3412 13.3718 44.3765 13.3563 45.1228 14.4612L46.522 16.5329C47.2682 17.6378 46.8579 18.5786 45.2909 19.3553L41.5721 21.2637C40.6875 21.7405 39.984 21.5922 39.4617 20.8187L38.4822 19.3686C37.9785 18.6228 38.1037 17.9148 38.8577 17.2447Z" fill="#BDBDBD"/>
<path d="M45.3481 17.3941C45.0322 17.1735 44.7271 16.8454 44.4329 16.4098C44.1387 15.9742 43.9483 15.5687 43.8616 15.1932C43.752 14.8332 43.766 14.6068 43.9036 14.5139C44.0411 14.421 44.2679 14.4849 44.5838 14.7055C44.8768 14.9416 45.1704 15.2774 45.4646 15.713C45.7588 16.1486 45.9607 16.5464 46.0703 16.9064C46.1569 17.2818 46.1315 17.516 45.9939 17.6089C45.8564 17.7018 45.6411 17.6302 45.3481 17.3941Z" fill="#F16922"/>
<path d="M20.8004 11C20.8337 10.6 20.9171 10.2167 21.0504 9.85C21.3504 8.81667 21.9337 7.88333 22.8004 7.05C24.1337 5.68333 25.7504 5 27.6504 5C29.5837 5 31.2337 5.68333 32.6004 7.05C33.9671 8.41667 34.6504 10.05 34.6504 11.95V26.45C34.6504 27.15 34.9004 27.75 35.4004 28.25C35.8671 28.7167 36.4504 28.95 37.1504 28.95C37.8504 28.95 38.4504 28.7167 38.9504 28.25C39.4171 27.75 39.6504 27.15 39.6504 26.45V11.95C39.6504 8.65 38.4837 5.83333 36.1504 3.5C33.8171 1.16667 30.9837 0 27.6504 0C24.3504 0 21.5504 1.16667 19.2504 3.5C17.3837 5.33333 16.2671 7.45 15.9004 9.85V9.9L20.8004 11Z" fill="#9B9B9B"/>
<path d="M69.2 31.05C70.5667 31.05 71.7333 30.55 72.7 29.55C73.7 28.5833 74.2 27.4167 74.2 26.05V25.25C74.2 23.8833 73.7 22.7 72.7 21.7C71.7333 20.7333 70.5667 20.25 69.2 20.25H5C3.63333 20.25 2.45 20.7333 1.45 21.7C0.483334 22.7 0 23.8833 0 25.25V26.05C0 27.4167 0.483334 28.5833 1.45 29.55C2.45 30.55 3.63333 31.05 5 31.05H69.2Z" fill="#67C3D3"/>
</svg>
