<svg width="360" height="520" viewBox="0 0 360 520" fill="none" xmlns="http://www.w3.org/2000/svg">
    <g filter="url(#filter0_d_1514_46496)">
    <g clip-path="url(#clip0_1514_46496)">
    <path d="M308.396 280.595C307.31 281.258 305.833 281.621 303.966 281.683C302.317 281.696 301.071 281.6 300.228 281.396L298.583 286.708C298.761 286.82 299.749 287.488 301.545 288.711C303.397 289.845 304.698 290.417 305.45 290.428C305.895 290.433 306.877 287.155 308.396 280.595Z" fill="#DD9A3A"/>
    <path d="M315.547 246.779L317.218 238.387C316.147 238.848 314.797 238.967 313.171 238.745L310.863 246.366C312.749 246.651 314.31 246.789 315.547 246.779Z" fill="#DD9A3A"/>
    <path d="M317.737 235.836L319.523 226.546L316.95 226.335L314.038 235.816L317.737 235.836Z" fill="#DD9A3A"/>
    <path d="M314.985 249.524C312.454 249.357 310.807 249.216 310.047 249.101L308.318 254.753C311.107 254.707 313.006 254.584 314.015 254.382L314.985 249.524Z" fill="#DD9A3A"/>
    <path d="M311.551 266.286L313.436 257.225C310.964 257.518 308.964 257.634 307.435 257.573L304.607 266.92C308.125 266.982 310.439 266.771 311.551 266.286Z" fill="#DD9A3A"/>
    <path d="M310.644 270.44C307.381 270.885 304.961 271.036 303.383 270.895L301.23 278.09C304.887 278.426 307.45 278.532 308.921 278.408L310.644 270.44Z" fill="#DD9A3A"/>
    <path d="M301.232 278.09L300.226 281.396C301.069 281.6 302.314 281.696 303.964 281.683C305.831 281.621 307.307 281.258 308.394 280.595L308.923 278.408C307.453 278.532 304.889 278.426 301.232 278.09Z" fill="#9F6853"/>
    <path d="M310.646 270.44L311.548 266.286C310.436 266.771 308.122 266.982 304.604 266.92L303.385 270.895C304.963 271.036 307.383 270.885 310.646 270.44Z" fill="#9F6853"/>
    <path d="M313.43 257.225L314.015 254.382C313.006 254.584 311.107 254.707 308.318 254.753L307.43 257.573C308.958 257.634 310.958 257.518 313.43 257.225Z" fill="#9F6853"/>
    <path d="M314.987 249.524L315.548 246.779C314.311 246.789 312.75 246.651 310.864 246.366L310.048 249.101C310.809 249.216 312.455 249.357 314.987 249.524Z" fill="#9F6853"/>
    <path d="M317.216 238.387L317.731 235.836L314.032 235.816L313.169 238.745C314.795 238.967 316.144 238.848 317.216 238.387Z" fill="#9F6853"/>
    <path d="M294.864 229.993C295.626 230.246 296.671 229.539 298.001 227.872C299.328 225.929 300.209 224.771 300.643 224.395C302.595 222.707 305.429 221.696 309.145 221.36C311.472 221.1 312.704 220.97 312.841 220.969C314.239 220.861 315.476 220.921 316.553 221.147L316.252 221.331C316.355 221.292 316.52 221.246 316.748 221.194L316.796 221.206C317.492 221.306 318.258 221.474 319.092 221.71C320.276 221.996 320.92 222.238 321.026 222.435L320.927 222.206C321.706 222.531 322.643 222.981 323.739 223.555C326.872 225.205 329.243 227.168 330.853 229.444C332.079 231.181 332.951 233.244 333.47 235.633C333.538 236.061 333.687 237.006 333.916 238.467C334.257 239.75 334.824 240.453 335.618 240.577C336.508 240.724 337.236 239.7 337.802 237.504C338.147 236.079 338.343 234.703 338.389 233.377C338.506 230.627 337.881 228.109 336.513 225.824C335.236 223.731 333.355 221.938 330.87 220.445C329.222 219.463 328.369 218.948 328.312 218.9C327.256 218.302 326.311 217.884 325.477 217.648C327.704 217.09 329.529 216.777 330.951 216.709C332.971 216.581 334.796 216.834 336.426 217.469C336.735 217.612 337.858 218.141 339.797 219.056C341.614 219.77 342.645 219.762 342.89 219.033C343.515 217.298 342.668 215.413 340.349 213.377C338.591 211.854 336.707 210.712 334.696 209.951C332.742 209.238 330.732 209.043 328.665 209.365C326.557 209.713 324.712 210.535 323.129 211.832C321.779 212.877 320.947 213.551 320.634 213.852C320.54 213.247 320.3 212.468 319.913 211.517C319.493 210.558 319.197 209.869 319.024 209.45C318.25 207.548 317.025 205.948 315.35 204.651C313.707 203.362 311.858 202.571 309.802 202.28C307.69 201.94 305.471 202.037 303.147 202.572C300.104 203.242 298.448 204.487 298.178 206.308C298.071 207.037 298.984 207.515 300.918 207.743C301.946 207.889 303.191 207.984 304.655 208.03C306.476 208.299 308.292 209.013 310.104 210.172C311.323 210.947 312.84 212.189 314.656 213.897L315.635 215.163C312.875 214.666 310.508 214.454 308.536 214.525C305.942 214.618 303.65 215.16 301.66 216.153C299.203 217.377 297.266 219.429 295.849 222.309C295.275 223.405 294.788 224.71 294.387 226.225C293.821 228.42 293.98 229.676 294.864 229.993Z" fill="#5EAB80"/>
    <path d="M318.423 222.782C318.597 222.207 318.524 221.658 318.205 221.135C317.91 220.652 317.475 220.324 316.9 220.15C316.316 220.009 315.763 220.098 315.24 220.417C314.725 220.704 314.397 221.139 314.256 221.722C314.082 222.298 314.155 222.847 314.474 223.37C314.793 223.893 315.245 224.225 315.828 224.366C316.403 224.54 316.952 224.467 317.475 224.148C317.966 223.821 318.282 223.366 318.423 222.782Z" fill="#9F6853"/>
    <path d="M323.171 223.984C323.313 223.4 323.24 222.851 322.953 222.336C322.626 221.845 322.175 221.513 321.599 221.34C321.016 221.199 320.463 221.288 319.94 221.607C319.425 221.894 319.096 222.329 318.955 222.912C318.814 223.495 318.903 224.048 319.222 224.571C319.509 225.086 319.944 225.415 320.527 225.556C321.103 225.729 321.652 225.657 322.175 225.337C322.698 225.018 323.03 224.567 323.171 223.984Z" fill="#9F6853"/>
    <path d="M320.531 225.556C320.672 224.973 320.599 224.423 320.312 223.908C319.985 223.417 319.534 223.085 318.959 222.912C318.375 222.771 317.822 222.86 317.299 223.179C316.784 223.466 316.456 223.901 316.315 224.484C316.173 225.067 316.262 225.62 316.582 226.143C316.869 226.659 317.304 226.987 317.887 227.128C318.462 227.301 319.011 227.229 319.534 226.909C320.057 226.59 320.39 226.139 320.531 225.556Z" fill="#9F6853"/>
    <path d="M304.499 204.236L303.215 204.439C303.102 204.481 302.776 204.625 302.236 204.871L301.681 205.251L301.537 205.422L301.78 205.481L304.594 205.545C305.556 205.537 306.543 205.639 307.555 205.85C307.911 205.936 308.438 206.098 309.135 206.335L310.777 206.99C311.613 207.363 312.587 207.942 313.701 208.726L316.019 210.625L316.79 211.48L317.244 212.156L317.379 212.446L317.391 212.397C317.33 212.931 317.575 213.265 318.126 213.398C318.393 213.429 318.631 213.366 318.84 213.211C319.049 213.056 319.165 212.861 319.187 212.626L319.246 212.383L319.233 212.226L319.208 212.117C319.182 211.939 319.079 211.657 318.898 211.27L318.26 210.293L317.368 209.305C317.156 209.048 316.765 208.679 316.195 208.198L313.233 206.195L311.481 205.359C310.264 204.859 309.045 204.513 307.822 204.32C306.9 204.165 305.792 204.137 304.499 204.236Z" fill="#2E575B"/>
    <path d="M339.29 214.149C338.347 213.509 337.369 213.015 336.356 212.667C335.164 212.207 333.929 211.925 332.651 211.822C332.189 211.744 331.546 211.709 330.722 211.715L327.147 212.033L324.315 212.891L323.313 213.42C322.975 213.681 322.75 213.901 322.639 214.08L322.494 214.251L322.459 214.396L322.399 214.433L322.387 214.482C322.246 215.065 322.427 215.452 322.929 215.642C323.444 215.833 323.827 215.668 324.078 215.148L324.368 215.013C324.408 214.988 324.641 214.873 325.068 214.668L326.145 214.26L329.063 213.68C330.194 213.542 331.333 213.509 332.482 213.581L334.242 213.75C334.808 213.818 335.359 213.952 335.894 214.15C336.834 214.377 337.738 214.75 338.607 215.269L339.642 215.88L341.127 216.548L341.37 216.607L341.271 216.377C341.262 216.272 341.172 216.079 341 215.797L340.375 214.977C340.009 214.649 339.647 214.372 339.29 214.149Z" fill="#2E575B"/>
    <path d="M299.633 220.704C298.541 221.675 297.672 222.785 297.027 224.035C296.708 224.643 296.497 225.158 296.396 225.58C296.247 226.195 296.177 226.624 296.187 226.867L296.181 227.74L296.22 228.006L296.424 227.799L298.159 224.669C298.878 223.54 299.708 222.592 300.648 221.825C300.994 221.531 301.569 221.138 302.373 220.647L304.404 219.698L306.509 219.076L310.641 218.584L313.905 218.911C314.424 219.037 314.76 219.135 314.914 219.207L315.425 219.434C315.474 219.514 315.503 219.538 315.511 219.506C315.91 219.98 316.331 220.013 316.773 219.605C316.949 219.442 317.049 219.243 317.071 219.009C317.094 218.774 317.027 218.552 316.872 218.343L316.835 218.283L316.542 218.006C316.347 217.822 316.046 217.646 315.641 217.479C315.397 217.352 314.952 217.21 314.304 217.053C313.98 216.974 313.421 216.874 312.628 216.75C311.245 216.655 309.83 216.69 308.384 216.855C307.786 216.916 307.015 217.055 306.071 217.272L303.712 218.091C302.109 218.766 300.749 219.637 299.633 220.704Z" fill="#2E575B"/>
    <path d="M331.92 223.991C331.309 223.397 330.695 222.888 330.077 222.464C328.817 221.576 327.595 220.886 326.411 220.394L324.794 219.848L323.422 219.567C322.799 219.588 322.436 219.603 322.331 219.612L321.992 219.736L321.932 219.773C321.674 219.847 321.501 219.994 321.414 220.213C321.286 220.457 321.28 220.695 321.395 220.929C321.641 221.469 322.027 221.648 322.551 221.466L322.66 221.441L323.23 221.424L325.673 222.17L327.28 222.97C327.645 223.162 328.209 223.521 328.973 224.049L330.657 225.383C331.202 225.823 331.727 226.345 332.233 226.947C332.559 227.301 333 227.887 333.556 228.708C333.9 229.271 334.212 229.895 334.492 230.581C334.978 231.83 335.246 233.061 335.296 234.273L335.385 238.153L335.602 237.897L336.033 237.178L336.436 235.938C336.538 235.517 336.586 234.963 336.581 234.276C336.643 232.885 336.435 231.48 335.955 230.06C335.427 228.56 334.64 227.135 333.595 225.785C333.121 225.19 332.563 224.592 331.92 223.991Z" fill="#2E575B"/>
    </g>
    <g clip-path="url(#clip1_1514_46496)">
    <ellipse cx="179.876" cy="382.252" rx="208.876" ry="121.077" fill="#104D52"/>
    <path d="M393.002 390.748C393.002 570 393.002 511.826 184.126 511.826C-24.75 511.826 -24.75 565.5 -24.75 390.748C-24.75 323.879 68.7669 269.671 184.126 269.671C299.485 269.671 393.002 323.879 393.002 390.748Z" fill="#469F76"/>
    </g>
    <g clip-path="url(#clip2_1514_46496)">
    <path d="M79.7265 195.286C75.2236 189.986 70.1912 187.026 64.6293 186.406C62.2257 183.567 59.3533 181.478 56.0123 180.14C52.4774 178.788 48.8744 178.428 45.2034 179.061C39.5343 180.039 35.0429 182.991 31.7295 187.917C28.4624 192.835 27.3418 198.267 28.3676 204.215C28.6962 206.121 29.1706 207.761 29.7908 209.138C29.4304 212.597 29.5627 216.139 30.1878 219.764C30.8931 223.853 32.1391 227.61 33.9259 231.034C35.6967 234.365 37.7935 237.09 40.2164 239.208C41.8015 248.122 45.3695 255.354 50.9204 260.905C56.4633 266.409 62.3946 268.616 68.7143 267.526C74.337 266.556 78.8643 263.12 82.2963 257.216C85.6515 251.422 87.1285 244.588 86.7276 236.714C89.2799 230.149 89.8748 222.916 88.5124 215.017C87.1741 207.256 84.2455 200.68 79.7265 195.286Z" fill="#CE4D39"/>
    <path d="M61.7041 195.667C61.6801 195.527 61.5984 195.47 61.459 195.494C61.2731 195.526 61.1962 195.635 61.2282 195.821L61.5287 197.563L61.6947 200.19L61.6035 202.575L61.1878 205.158L60.9715 205.985L60.6855 206.824L60.6062 207.197L60.1592 208.351L58.7316 210.894L58.3855 211.384L57.4842 212.401L57.3304 211.925C56.2743 208.853 55.4041 206.443 54.7198 204.695L49.8929 194.187C49.5324 193.483 49.2039 192.966 48.9074 192.634L48.0637 191.488L47.7128 191.118L47.1407 190.714C46.9853 190.645 46.8691 190.665 46.7922 190.774C46.7233 190.929 46.7433 191.045 46.8523 191.122L46.8643 191.192L47.0975 191.295L47.6239 191.851C47.9828 192.267 48.2368 192.63 48.3859 192.939L49.3017 194.504L53.1911 203.738L52.9002 203.717L52.7608 203.741L52.0975 203.64L51.6432 203.503L51.3523 203.481L51.1192 203.378L50.5255 203.265L48.742 202.496L48.182 202.162C47.4978 201.801 47.0971 201.559 46.9802 201.436L45.7663 200.64L43.8146 198.896C43.4172 198.534 43.152 198.244 43.0189 198.028L41.4854 196.211C41.3364 195.902 41.1385 195.864 40.8917 196.098C40.6754 196.231 40.6377 196.429 40.7788 196.692L43.0743 199.597L45.7039 201.943L47.5715 203.2L50.1482 204.407L51.0568 204.681L51.2899 204.784L53.2104 205.099L53.4892 205.051L53.6406 205.096L59.5014 225.762L59.1072 225.973L57.4248 226.622L56.0307 226.863L53.8098 226.887L51.2837 226.39L48.0797 225.291L46.1784 224.255L41.8591 221.268L41.9865 221.174L42.5753 220.427L43.08 219.191L43.1881 217.737C43.1144 217.032 42.9084 216.254 42.5703 215.403L42.2289 214.673L42.1352 214.545L42.0174 214.279L42.0054 214.209L41.7842 214.175L41.5751 214.211C41.4357 214.235 41.3741 214.294 41.3901 214.387L41.3324 214.468L41.3444 214.538L41.2867 214.62L41.3108 214.759L41.4286 215.026L41.6185 215.711C41.8396 216.438 41.9094 217.12 41.8277 217.756L41.6475 218.792L41.2677 219.504L40.8399 219.937L40.7125 220.03L40.6428 220.042L40.5851 220.124L40.5154 220.136L35.7538 215L34.9918 213.911C34.8123 213.703 34.6144 213.665 34.3981 213.798C34.1818 213.931 34.1441 214.129 34.2851 214.392L36.6167 217.507L37.0614 218.004L36.9004 218.319L36.8307 218.331L36.2971 218.567L35.5424 218.769C34.7989 218.897 34.2838 218.962 33.9969 218.963L33.2999 219.084L33.1725 219.177L33.2783 219.374L35.5473 219.629C36.2219 219.656 36.7915 219.63 37.2562 219.55L37.5927 219.42L37.9868 219.208L38.0445 219.127L42.4985 223.311L43.6547 224.188L47.4933 226.469L50.8848 227.822L52.3053 228.151C52.7636 228.312 53.2058 228.379 53.632 228.353L54.9468 228.485L56.1558 228.42C56.3962 228.427 56.7719 228.386 57.2831 228.298L57.771 228.214L59.8717 227.492L59.9414 227.48C60.8068 231.111 61.5913 234.828 62.2949 238.63C62.8206 241.124 63.5163 244.88 64.3818 249.898L63.9059 250.052L60.7572 250.523L58.3729 250.432L56.6736 250.151L56.5918 250.093L56.5798 250.024C56.6952 249.86 56.7368 249.686 56.7048 249.5L56.7024 249.069L56.4067 248.187L55.9716 247.329L54.7289 245.534L54.5534 245.349C54.4284 245.179 54.3042 245.153 54.1808 245.269C54.003 245.348 53.9341 245.503 53.9741 245.736L54.9044 247.8L55.1448 249.194L55.0992 249.346L55.0872 249.276L55.1448 249.194C55.0599 249.257 54.9678 249.416 54.8684 249.673L53.4239 249.204L53.2604 249.089L52.025 248.584L49.7848 247.248L49.5517 247.144L49.3762 246.959L48.3955 246.267L48.3258 246.279C48.1543 246.117 47.9645 246.126 47.7562 246.306C47.5479 246.485 47.5607 246.698 47.7946 246.945L48.7297 247.789L48.9748 247.962L49.1503 248.147L52.0803 250.154L52.4649 250.303L52.6284 250.418L52.8615 250.521C53.4448 250.851 53.9888 251.093 54.4936 251.245C54.5561 251.33 54.6883 251.402 54.8902 251.463L56.253 251.874C56.261 251.921 56.3892 251.971 56.6376 252.023L57.0919 252.16L59.8392 252.691L62.3629 252.759L63.1417 252.696L63.5022 252.706L64.7568 252.489L65.4324 256.823C66.1729 261.672 66.8542 267.009 67.4762 272.835L68.8902 288.526L68.8325 288.607C68.8902 289.22 69.1683 289.722 69.6666 290.114C70.165 290.507 70.7434 290.67 71.402 290.605C72.0606 290.539 72.5629 290.261 72.909 289.771C73.3016 289.272 73.469 288.717 73.4113 288.105L71.4156 272.371C70.3866 265.85 69.4882 260.502 68.7205 256.328C67.3085 249.25 65.995 243.16 64.7802 238.058L64.5422 237.094L64.7393 236.989L67.7821 234.239L70.3898 230.631C70.6974 230.195 71.0964 229.456 71.5867 228.415C71.7244 228.104 72.0457 227.331 72.5504 226.095L73.3386 223.591L73.8913 220.553L74.0209 216.726L73.5785 212.496C73.5384 212.264 73.371 212.125 73.0761 212.08C72.7508 212.136 72.6163 212.327 72.6724 212.652L73.021 216.755L72.8289 219.803L72.4348 222.096L72.1392 223.295L70.3392 227.841L69.1062 229.848C68.5839 230.703 68.1609 231.303 67.8372 231.645L66.5899 233.153L64.4147 235.107L64.0903 235.306C62.7809 229.934 61.4034 224.86 59.9578 220.085L58.2415 214.71L58.4962 214.523L59.6739 213.028L60.7338 211.266L61.0318 210.497L61.1928 210.182L61.3298 209.728L61.6975 208.946L62.1878 207.211L62.702 203.534L62.6995 203.103L62.7332 202.882L62.6971 202.673L62.6129 200.104L62.0599 196.897L61.7041 195.667Z" fill="#363535"/>
    </g>
    <g clip-path="url(#clip3_1514_46496)">
    <path d="M317.543 284.543C314.514 287.572 313 291.224 313 295.5C313 299.776 314.514 303.428 317.543 306.457C320.572 309.486 324.224 311 328.5 311C330.424 311 332.33 310.626 334.219 309.878C333.257 309.165 332.776 308.203 332.776 306.991C332.776 306.029 333.114 305.21 333.791 304.533C334.468 303.82 335.306 303.464 336.303 303.464C337.123 303.464 337.853 303.713 338.495 304.212C339.136 304.711 339.546 305.352 339.724 306.136C342.539 303.143 343.947 299.598 343.947 295.5C343.947 293.326 343.537 291.313 342.717 289.46C342.04 289.959 341.31 290.209 340.526 290.209C339.564 290.209 338.744 289.87 338.067 289.193C337.355 288.48 336.998 287.643 336.998 286.681C336.998 285.398 337.515 284.418 338.548 283.741C335.591 281.247 332.241 280 328.5 280C324.224 280 320.572 281.514 317.543 284.543Z" fill="#CE4D39"/>
    <path d="M338.492 304.212C337.851 303.713 337.121 303.464 336.301 303.464C335.303 303.464 334.466 303.82 333.789 304.533C333.112 305.21 332.773 306.029 332.773 306.991C332.773 308.203 333.254 309.165 334.217 309.878C336.319 309.022 338.154 307.775 339.722 306.136C339.544 305.352 339.134 304.711 338.492 304.212Z" fill="#DD9A3A"/>
    <path d="M338.55 283.741C337.517 284.418 337 285.398 337 286.681C337 287.643 337.356 288.48 338.069 289.193C338.746 289.87 339.566 290.209 340.528 290.209C341.311 290.209 342.042 289.959 342.719 289.46C341.864 287.322 340.474 285.416 338.55 283.741Z" fill="#DD9A3A"/>
    <path d="M329.672 285.398C329.672 284.401 329.334 283.563 328.657 282.886C327.98 282.209 327.142 281.871 326.145 281.871C325.147 281.871 324.31 282.209 323.633 282.886C322.956 283.563 322.617 284.401 322.617 285.398C322.617 286.36 322.956 287.198 323.633 287.91C324.31 288.587 325.147 288.926 326.145 288.926C327.142 288.926 327.98 288.587 328.657 287.91C329.334 287.198 329.672 286.36 329.672 285.398Z" fill="#DD9A3A"/>
    <path d="M322.46 294.431C322.46 293.433 322.104 292.596 321.391 291.919C320.714 291.242 319.877 290.903 318.879 290.903C317.917 290.903 317.098 291.242 316.421 291.919C315.708 292.596 315.352 293.433 315.352 294.431C315.352 295.393 315.708 296.23 316.421 296.943C317.098 297.62 317.917 297.959 318.879 297.959C319.877 297.959 320.714 297.62 321.391 296.943C322.104 296.23 322.46 295.393 322.46 294.431Z" fill="#DD9A3A"/>
    <path d="M329.672 303.464C329.672 302.466 329.334 301.629 328.657 300.952C327.98 300.275 327.142 299.936 326.145 299.936C325.147 299.936 324.31 300.275 323.633 300.952C322.956 301.629 322.617 302.466 322.617 303.464C322.617 304.426 322.956 305.263 323.633 305.976C324.31 306.653 325.147 306.991 326.145 306.991C327.142 306.991 327.98 306.653 328.657 305.976C329.334 305.263 329.672 304.426 329.672 303.464Z" fill="#DD9A3A"/>
    <path d="M335.718 294.431C335.718 293.433 335.362 292.596 334.649 291.919C333.972 291.242 333.135 290.903 332.137 290.903C331.175 290.903 330.355 291.242 329.678 291.919C328.966 292.596 328.609 293.433 328.609 294.431C328.609 295.393 328.966 296.23 329.678 296.943C330.355 297.62 331.175 297.959 332.137 297.959C333.135 297.959 333.972 297.62 334.649 296.943C335.362 296.23 335.718 295.393 335.718 294.431Z" fill="#DD9A3A"/>
    </g>
    <path d="M131.847 295.214C127.597 298.845 125.603 302.708 125.867 306.805C126.065 309.537 127.415 312.018 129.919 314.25L130.463 308.654C130.595 308.188 130.891 307.954 131.353 307.954C131.583 307.988 131.748 308.088 131.847 308.254C131.979 308.354 132.012 308.504 131.946 308.704L131.402 315.449C131.83 315.815 132.868 316.515 134.516 317.547L130.315 318.297C129.228 318.463 128.519 319.063 128.19 320.095C128.157 320.295 128.107 320.495 128.041 320.695C127.91 321.461 128.058 322.177 128.486 322.843C129.211 324.076 131.732 325.091 136.048 325.891C143.132 327.29 150.149 328.189 157.101 328.589C162.472 328.855 167.826 328.805 173.163 328.439C181.269 327.806 191.005 326.057 202.372 323.193C202.405 323.859 202.438 324.525 202.471 325.191C202.932 333.851 203.624 338.748 204.546 339.88C205.601 341.246 207.034 341.362 208.846 340.23C210.691 339.031 211.712 337.465 211.91 335.533C212.075 333.935 211.548 329.122 210.329 321.094C211.548 320.728 212.8 320.362 214.085 319.995C216.72 326.157 218.45 330.437 219.274 332.836C219.9 334.601 220.888 335.4 222.239 335.234C222.997 335.2 223.837 334.834 224.76 334.135C227.461 332.303 228.483 330.354 227.824 328.289C227.527 327.456 225.682 324.492 222.289 319.396C221.399 318.03 220.394 316.548 219.274 314.949C218.78 314.25 218.285 313.533 217.791 312.801C217.297 312.101 216.786 311.385 216.259 310.652V310.602L215.567 307.804C216.358 307.571 217.132 307.305 217.89 307.005C222.898 305.04 227.461 301.959 231.58 297.762C239.191 290.001 242.996 280.608 242.996 269.584C242.996 258.559 239.191 249.166 231.58 241.405C224.529 234.21 216.144 230.347 206.424 229.814C205.633 229.78 204.826 229.764 204.003 229.764C203.475 229.764 202.948 229.78 202.421 229.814L159.078 229.064C158.815 228.964 158.469 228.981 158.04 229.114C157.678 229.214 157.365 229.481 157.101 229.914L147.019 248.999C146.822 249.399 146.805 249.815 146.97 250.248C147.036 250.681 147.283 251.048 147.711 251.347C148.14 251.547 148.584 251.581 149.046 251.447C149.507 251.281 149.82 250.998 149.985 250.598L158.337 234.71L157.793 247.75C157.365 260.807 157.299 268.734 157.596 271.532L157.447 273.031C157.447 274.63 157.826 275.945 158.584 276.978C159.375 278.11 160.314 278.66 161.401 278.627C162.686 278.593 163.757 277.861 164.613 276.428C164.976 277.061 165.371 277.561 165.8 277.927C166.36 278.36 167.002 278.593 167.727 278.627C169.078 278.593 170.149 277.861 170.939 276.428C171.664 277.794 172.686 278.493 174.004 278.527C175.256 278.527 176.326 277.844 177.216 276.478C178.073 277.911 179.111 278.593 180.33 278.527C181.615 278.527 182.669 277.811 183.493 276.378C184.316 277.811 185.371 278.543 186.656 278.577C187.842 278.577 188.863 277.927 189.72 276.628C189.786 276.528 189.835 276.445 189.868 276.378C190.692 277.877 191.713 278.593 192.932 278.527C194.217 278.493 195.288 277.777 196.145 276.378C196.935 277.777 197.957 278.493 199.209 278.527C200.592 278.427 201.663 277.694 202.421 276.328C203.212 277.727 204.266 278.443 205.584 278.477C206.671 278.51 207.627 277.96 208.451 276.828C209.241 275.729 209.604 274.446 209.538 272.981C209.571 272.182 209.455 271.415 209.192 270.683L208.352 257.143C210.691 257.809 212.783 259.091 214.628 260.99C217.561 263.988 219.027 267.602 219.027 271.832C219.027 276.095 217.561 279.709 214.628 282.674C213.047 284.306 211.284 285.488 209.34 286.221C208.253 286.654 207.1 286.937 205.881 287.07C205.782 287.037 205.683 287.004 205.584 286.97L201.433 284.922C198.863 283.856 196.095 283.007 193.13 282.374C190.856 281.841 188.484 281.441 186.013 281.175C179.424 280.509 172.966 280.575 166.64 281.375C165.849 281.441 165.058 281.541 164.268 281.674C163.444 281.808 162.637 281.957 161.846 282.124C155.388 283.323 149.243 285.322 143.412 288.119C138.338 290.584 134.483 292.949 131.847 295.214Z" fill="white"/>
    <path d="M138.57 304.865C138.193 304.487 137.794 304.448 137.373 304.748L136.783 305.622L136.274 306.001L136.054 306.252L135.146 306.782L134.834 306.801L133.98 306.932L133.171 307.282L132.547 307.32L132.21 307.435L130.675 307.433L130.303 307.488L129.609 307.403L129.418 307.352L128.804 306.771L128.292 306.581L128.101 306.529L127.748 306.123L127.5 305.901L127.43 305.779L127.167 305.035L127.111 304.089C127.079 303.563 126.796 303.279 126.262 303.238C125.733 303.302 125.484 303.596 125.516 304.122L125.664 305.3C125.648 305.744 125.754 306.118 125.981 306.421L125.99 306.578C126.13 306.823 126.365 307.094 126.696 307.39L126.896 307.6L127.727 308.135L127.965 308.199L128.118 308.396L128.996 308.944L130.154 309.206L130.527 309.152L129.983 314.487L131.414 315.651L132.027 309.092C132.194 309.103 132.35 309.094 132.495 309.064L134.542 308.481L134.65 308.458L134.962 308.439L135.816 308.308L136.845 307.708L137.441 307.197L137.661 306.946C137.903 306.805 138.123 306.554 138.32 306.194L138.407 306.062C138.836 305.73 138.89 305.331 138.57 304.865Z" fill="#373535"/>
    <path d="M190.166 300.81C190.304 300.073 190.321 299.356 190.215 298.662C188.565 298.062 186.753 297.762 184.779 297.762C181.444 297.762 178.528 298.612 176.031 300.31C176.103 300.913 176.234 301.48 176.427 302.009C178.494 300.477 180.866 299.711 183.543 299.711C185.948 299.711 188.106 300.327 190.018 301.559C190.076 301.327 190.125 301.077 190.166 300.81Z" fill="#373535"/>
    <ellipse cx="226.002" cy="199.235" rx="11.4004" ry="7.94575" fill="white"/>
    <ellipse cx="212.527" cy="214.781" rx="5.52748" ry="3.45467" fill="white"/>
    <path d="M324.482 90.3233C345.793 52.62 302.372 12.2476 258.896 35.6425C239.268 -8.75502 171.786 -13.3169 159.351 31.2483C142.421 12.5931 114.438 15.0114 106.838 35.6425C81.2731 -1.32245 22.2018 59.2312 58.8215 81.6866C-10.2738 124.179 41.8943 192.236 121.005 168.744C133.439 214.692 206 202.5 231 176.5C246.5 199.5 288.554 188.091 293.045 162.181C331.509 173.994 363.943 109.515 324.482 90.3233Z" fill="white"/>
    <path d="M142.578 119.875L137.422 119.992L136.367 145.305L109.883 147.648L111.289 120.578L80 121.281L88.6719 69.8359H110.82L104.375 105.695L112.109 105.461L114.336 61.0469H139.766L138.008 104.523L142.578 104.289V119.875ZM218.926 106.047C218.926 109.484 218.535 112.902 217.754 116.301C217.012 119.699 215.918 122.961 214.473 126.086C213.027 129.211 211.25 132.121 209.141 134.816C207.07 137.512 204.688 139.855 201.992 141.848C199.297 143.84 196.328 145.402 193.086 146.535C189.883 147.668 186.426 148.234 182.715 148.234C178.965 148.234 175.469 147.668 172.227 146.535C168.984 145.402 166.016 143.84 163.32 141.848C160.664 139.855 158.281 137.512 156.172 134.816C154.062 132.121 152.285 129.211 150.84 126.086C149.395 122.961 148.281 119.699 147.5 116.301C146.758 112.863 146.387 109.445 146.387 106.047C146.387 102.648 146.758 99.2305 147.5 95.793C148.281 92.3555 149.395 89.0742 150.84 85.9492C152.285 82.8242 154.062 79.9141 156.172 77.2188C158.281 74.4844 160.664 72.1211 163.32 70.1289C166.016 68.1367 168.984 66.5742 172.227 65.4414C175.508 64.3086 179.004 63.7422 182.715 63.7422C186.426 63.7422 189.883 64.3086 193.086 65.4414C196.328 66.5742 199.297 68.1367 201.992 70.1289C204.688 72.1211 207.07 74.4844 209.141 77.2188C211.25 79.9141 213.027 82.8242 214.473 85.9492C215.918 89.0742 217.012 92.3555 217.754 95.793C218.535 99.2305 218.926 102.648 218.926 106.047ZM194.199 107.805C194.199 106.086 193.965 104.172 193.496 102.062C193.027 99.9531 192.305 97.9805 191.328 96.1445C190.352 94.3086 189.102 92.7656 187.578 91.5156C186.055 90.2656 184.238 89.6406 182.129 89.6406C179.98 89.6406 178.145 90.2656 176.621 91.5156C175.098 92.7656 173.828 94.3086 172.812 96.1445C171.836 97.9805 171.113 99.9531 170.645 102.062C170.176 104.172 169.941 106.086 169.941 107.805C169.941 109.523 170.176 111.438 170.645 113.547C171.113 115.656 171.836 117.629 172.812 119.465C173.828 121.301 175.098 122.844 176.621 124.094C178.145 125.344 179.98 125.969 182.129 125.969C184.238 125.969 186.055 125.344 187.578 124.094C189.102 122.844 190.352 121.301 191.328 119.465C192.305 117.629 193.027 115.656 193.496 113.547C193.965 111.438 194.199 109.523 194.199 107.805ZM283.203 119.875L278.047 119.992L276.992 145.305L250.508 147.648L251.914 120.578L220.625 121.281L229.297 69.8359H251.445L245 105.695L252.734 105.461L254.961 61.0469H280.391L278.633 104.523L283.203 104.289V119.875Z" fill="#C5281C"/>
    </g>
    <defs>
    <filter id="filter0_d_1514_46496" x="-33" y="0" width="430" height="519.826" filterUnits="userSpaceOnUse" color-interpolation-filters="sRGB">
    <feFlood flood-opacity="0" result="BackgroundImageFix"/>
    <feColorMatrix in="SourceAlpha" type="matrix" values="0 0 0 0 0 0 0 0 0 0 0 0 0 0 0 0 0 0 127 0" result="hardAlpha"/>
    <feOffset dy="4"/>
    <feGaussianBlur stdDeviation="2"/>
    <feComposite in2="hardAlpha" operator="out"/>
    <feColorMatrix type="matrix" values="0 0 0 0 0 0 0 0 0 0 0 0 0 0 0 0 0 0 0.25 0"/>
    <feBlend mode="normal" in2="BackgroundImageFix" result="effect1_dropShadow_1514_46496"/>
    <feBlend mode="normal" in="SourceGraphic" in2="effect1_dropShadow_1514_46496" result="shape"/>
    </filter>
    <clipPath id="clip0_1514_46496">
    <rect width="46" height="86" fill="white" transform="translate(299.758 199.796) rotate(13.6054)"/>
    </clipPath>
    <clipPath id="clip1_1514_46496">
    <rect width="422" height="250.651" fill="white" transform="translate(-29 261.175)"/>
    </clipPath>
    <clipPath id="clip2_1514_46496">
    <rect width="58" height="113.171" fill="white" transform="translate(23.8047 182.752) rotate(-9.78502)"/>
    </clipPath>
    <clipPath id="clip3_1514_46496">
    <rect width="31" height="31" fill="white" transform="translate(313 280)"/>
    </clipPath>
    </defs>
    </svg>
    