<svg width="1440" height="551" viewBox="0 0 1440 551" fill="none" xmlns="http://www.w3.org/2000/svg">
<g clip-path="url(#clip0_1516_46501)">
<path fill-rule="evenodd" clip-rule="evenodd" d="M1042.87 291.496L1042.13 275.883L1037.91 276.544L1036.92 292.9L1042.87 291.496ZM1043.03 295.791L1043.61 309.917C1041.63 310.413 1039.07 310.799 1035.93 311.074L1036.67 297.939C1039.37 297.664 1041.49 296.948 1043.03 295.791ZM1038.57 370.47C1041.55 369.644 1043.78 368.487 1045.27 367C1045.38 378.125 1045.07 383.77 1044.36 383.935C1043.15 384.21 1040.83 383.797 1037.42 382.696C1034.06 381.429 1032.21 380.741 1031.88 380.63L1032.46 371.461C1033.89 371.461 1035.93 371.13 1038.57 370.47ZM1035.68 315.783C1036.95 315.672 1039.65 315.259 1043.78 314.543L1044.11 322.722C1042.56 323.438 1039.56 324.374 1035.1 325.53L1035.68 315.783ZM1044.77 342.796L1044.28 327.513C1040.42 328.945 1037.25 329.909 1034.78 330.404L1033.87 346.513C1039.54 345.247 1043.17 344.007 1044.77 342.796ZM1033.45 353.37C1036.04 352.984 1039.87 351.8 1044.93 349.818L1045.26 363.283C1042.95 364.054 1038.79 364.88 1032.79 365.761L1033.45 353.37Z" fill="#DD9A3A"/>
<path fill-rule="evenodd" clip-rule="evenodd" d="M1042.88 291.496L1043.04 295.791C1041.5 296.948 1039.38 297.664 1036.68 297.939L1036.93 292.9L1042.88 291.496ZM1043.78 314.543L1043.62 309.917C1041.64 310.413 1039.07 310.798 1035.94 311.074L1035.69 315.782C1036.95 315.672 1039.65 315.259 1043.78 314.543ZM1044.12 322.721L1044.28 327.513C1040.43 328.945 1037.26 329.908 1034.78 330.404L1035.11 325.53C1039.57 324.374 1042.57 323.437 1044.12 322.721ZM1044.94 349.817L1044.78 342.796C1043.18 344.007 1039.55 345.246 1033.87 346.513L1033.46 353.37C1036.05 352.984 1039.88 351.8 1044.94 349.817ZM1032.8 365.761L1032.47 371.461C1033.9 371.461 1035.94 371.13 1038.58 370.469C1041.56 369.643 1043.79 368.487 1045.27 367V363.282C1042.96 364.053 1038.8 364.88 1032.8 365.761Z" fill="#9B6148"/>
<path d="M1003.88 291C1005.2 291.11 1006.61 289.568 1008.1 286.374C1009.47 282.739 1010.44 280.536 1010.99 279.765C1013.46 276.295 1017.62 273.569 1023.46 271.587C1027.1 270.265 1029.02 269.577 1029.24 269.522C1031.45 268.806 1033.46 268.42 1035.27 268.365L1034.86 268.778C1035.01 268.675 1035.26 268.537 1035.6 268.365H1035.69C1036.84 268.255 1038.14 268.227 1039.57 268.282C1041.58 268.282 1042.71 268.42 1042.96 268.695L1042.71 268.365C1044.09 268.585 1045.76 268.943 1047.75 269.439C1053.42 270.871 1057.99 273.101 1061.46 276.13C1064.1 278.443 1066.31 281.417 1068.07 285.052C1068.34 285.713 1068.95 287.172 1069.89 289.43C1070.93 291.358 1072.12 292.267 1073.44 292.156C1074.93 292.046 1075.7 290.119 1075.75 286.374C1075.75 283.951 1075.53 281.665 1075.09 279.517C1074.21 275.056 1072.23 271.256 1069.14 268.117C1066.28 265.253 1062.56 263.106 1057.99 261.674C1054.96 260.737 1053.39 260.242 1053.28 260.187C1051.35 259.636 1049.68 259.333 1048.24 259.278C1051.6 257.516 1054.41 256.304 1056.67 255.643C1059.86 254.652 1062.89 254.349 1065.76 254.735C1066.31 254.845 1068.32 255.258 1071.79 255.974C1074.98 256.414 1076.63 256.001 1076.74 254.735C1077.07 251.706 1074.98 249.007 1070.46 246.639C1067.05 244.877 1063.58 243.775 1060.06 243.335C1056.64 242.949 1053.34 243.417 1050.14 244.739C1046.89 246.116 1044.25 248.153 1042.21 250.852C1040.45 253.055 1039.38 254.459 1038.99 255.065C1038.61 254.129 1037.92 252.972 1036.93 251.596C1035.88 250.219 1035.14 249.227 1034.7 248.622C1032.71 245.868 1030.12 243.775 1026.93 242.343C1023.79 240.911 1020.51 240.361 1017.1 240.691C1013.58 240.967 1010.05 241.985 1006.53 243.748C1001.9 246.006 999.724 248.649 1000 251.678C1000.11 252.89 1001.76 253.303 1004.96 252.917C1006.66 252.752 1008.7 252.422 1011.07 251.926C1014.1 251.651 1017.29 252.091 1020.65 253.248C1022.91 254.019 1025.83 255.423 1029.41 257.461L1031.47 259.113C1026.85 259.388 1022.96 259.966 1019.83 260.848C1015.7 262.004 1012.23 263.767 1009.42 266.135C1005.95 269.053 1003.63 273.101 1002.48 278.278C1001.98 280.261 1001.71 282.546 1001.65 285.135C1001.6 288.88 1002.34 290.835 1003.88 291Z" fill="#469F76"/>
<path d="M1038.91 270.265C1038.96 269.274 1038.63 268.42 1037.92 267.704C1037.25 267.044 1036.43 266.686 1035.44 266.63C1034.45 266.63 1033.59 266.988 1032.88 267.704C1032.16 268.365 1031.8 269.191 1031.8 270.183C1031.75 271.174 1032.08 272.028 1032.79 272.743C1033.51 273.459 1034.36 273.817 1035.35 273.817C1036.35 273.873 1037.2 273.542 1037.92 272.826C1038.58 272.11 1038.91 271.257 1038.91 270.265Z" fill="#9B6148"/>
<path d="M1047.01 270.348C1047.01 269.356 1046.68 268.503 1046.02 267.787C1045.3 267.126 1044.45 266.768 1043.46 266.713C1042.46 266.713 1041.61 267.071 1040.89 267.787C1040.18 268.448 1039.82 269.274 1039.82 270.265C1039.82 271.256 1040.18 272.11 1040.89 272.826C1041.56 273.542 1042.38 273.9 1043.37 273.9C1044.36 273.955 1045.22 273.625 1045.93 272.909C1046.65 272.193 1047.01 271.339 1047.01 270.348Z" fill="#9B6148"/>
<path d="M1043.37 273.9C1043.37 272.909 1043.04 272.055 1042.38 271.339C1041.66 270.678 1040.81 270.32 1039.81 270.265C1038.82 270.265 1037.97 270.623 1037.25 271.339C1036.54 272 1036.18 272.826 1036.18 273.817C1036.18 274.809 1036.54 275.662 1037.25 276.378C1037.91 277.094 1038.74 277.452 1039.73 277.452C1040.72 277.507 1041.58 277.177 1042.29 276.461C1043.01 275.745 1043.37 274.891 1043.37 273.9Z" fill="#9B6148"/>
<path d="M1009.33 245.896L1007.35 246.722C1007.19 246.832 1006.72 247.19 1005.95 247.796L1005.2 248.622L1005.04 248.952H1005.45L1010 247.961C1011.54 247.575 1013.16 247.355 1014.87 247.3C1015.48 247.3 1016.38 247.355 1017.6 247.465L1020.49 247.878C1021.97 248.154 1023.76 248.704 1025.86 249.53L1030.32 251.678L1031.89 252.752L1032.88 253.661L1033.21 254.074V253.991C1033.32 254.872 1033.84 255.313 1034.78 255.313C1035.22 255.258 1035.58 255.065 1035.85 254.735C1036.13 254.404 1036.24 254.046 1036.18 253.661V253.248L1036.1 253L1036.02 252.835C1035.91 252.559 1035.63 252.146 1035.19 251.596L1033.79 250.274L1031.97 249.035C1031.53 248.704 1030.76 248.264 1029.66 247.713L1024.12 245.648L1020.98 244.987C1018.83 244.656 1016.74 244.574 1014.7 244.739C1013.16 244.849 1011.37 245.235 1009.33 245.896Z" fill="#104D52"/>
<path d="M1069.06 248.291C1067.3 247.63 1065.54 247.217 1063.77 247.052C1061.68 246.777 1059.59 246.804 1057.49 247.135C1056.72 247.19 1055.68 247.383 1054.36 247.713L1048.74 249.613L1044.53 252.091L1043.12 253.33C1042.68 253.881 1042.4 254.322 1042.29 254.652L1042.13 254.983V255.23L1042.05 255.313V255.396C1042.05 256.387 1042.49 256.938 1043.37 257.048C1044.27 257.154 1044.82 256.741 1045.02 255.809L1045.43 255.478C1045.49 255.423 1045.82 255.148 1046.43 254.652L1047.99 253.578L1052.46 251.513C1054.22 250.852 1056.04 250.357 1057.91 250.026L1060.8 249.613C1061.74 249.503 1062.67 249.503 1063.61 249.613C1065.2 249.613 1066.8 249.861 1068.4 250.357L1070.3 250.935L1072.94 251.43H1073.36L1073.11 251.1C1073.05 250.935 1072.83 250.659 1072.45 250.274L1071.13 249.2C1070.41 248.814 1069.72 248.512 1069.06 248.291Z" fill="#104D52"/>
<path d="M1007.93 274.23C1006.55 276.213 1005.59 278.333 1005.04 280.591C1004.76 281.693 1004.62 282.601 1004.62 283.317C1004.62 284.364 1004.68 285.08 1004.79 285.465L1005.12 286.87L1005.29 287.283L1005.53 286.87L1007.1 281.17C1007.82 279.077 1008.78 277.232 1009.99 275.635C1010.44 275.029 1011.21 274.175 1012.31 273.074L1015.2 270.761L1018.34 268.943L1024.78 266.548L1030.15 265.804C1031.03 265.804 1031.61 265.832 1031.89 265.887L1032.79 266.052C1032.9 266.162 1032.96 266.19 1032.96 266.135C1033.79 266.741 1034.47 266.63 1035.02 265.804C1035.25 265.474 1035.33 265.116 1035.27 264.73C1035.22 264.345 1035.02 264.014 1034.69 263.739L1034.61 263.656L1034.03 263.326C1033.65 263.106 1033.1 262.941 1032.38 262.83C1031.94 262.72 1031.17 262.665 1030.07 262.665C1029.52 262.665 1028.58 262.72 1027.26 262.83C1025 263.216 1022.74 263.822 1020.49 264.648C1019.55 264.978 1018.37 265.501 1016.93 266.217L1013.46 268.448C1011.15 270.155 1009.31 272.083 1007.93 274.23Z" fill="#104D52"/>
<path d="M1061.05 266.961C1059.84 266.245 1058.65 265.667 1057.5 265.226C1055.13 264.29 1052.9 263.657 1050.81 263.326L1048 263.078L1045.69 263.161C1044.69 263.436 1044.12 263.601 1043.95 263.657L1043.45 263.987L1043.37 264.07C1042.99 264.29 1042.77 264.593 1042.71 264.978C1042.6 265.419 1042.68 265.804 1042.96 266.135C1043.56 266.906 1044.25 267.043 1045.02 266.548L1045.19 266.465L1046.1 266.217L1050.31 266.465L1053.2 267.126C1053.86 267.291 1054.91 267.649 1056.34 268.2L1059.56 269.687C1060.61 270.183 1061.66 270.816 1062.7 271.587C1063.36 272.028 1064.3 272.799 1065.51 273.9C1066.28 274.671 1067.03 275.552 1067.74 276.543C1069.01 278.361 1069.92 280.233 1070.47 282.161L1072.12 288.357L1072.37 287.861L1072.78 286.539L1072.95 284.391C1072.95 283.675 1072.81 282.767 1072.53 281.665C1072.09 279.407 1071.21 277.232 1069.89 275.139C1068.46 272.936 1066.64 270.954 1064.44 269.191C1063.45 268.42 1062.32 267.677 1061.05 266.961Z" fill="#104D52"/>
</g>
<g clip-path="url(#clip1_1516_46501)">
<path d="M358.97 312.189C356.835 308.575 354.146 306.299 350.902 305.36C349.764 303.425 348.27 301.888 346.421 300.75C344.457 299.583 342.352 299 340.104 299C336.632 299 333.659 300.295 331.183 302.884C328.736 305.474 327.512 308.589 327.512 312.232C327.512 313.398 327.626 314.423 327.854 315.305C327.285 317.325 327 319.445 327 321.665C327 324.169 327.356 326.53 328.067 328.75C328.778 330.913 329.746 332.748 330.97 334.256C330.998 339.719 332.378 344.386 335.11 348.256C337.841 352.098 341.142 354.018 345.012 354.018C348.455 354.018 351.5 352.439 354.146 349.28C356.736 346.179 358.315 342.266 358.884 337.543C361.075 333.9 362.171 329.661 362.171 324.823C362.171 320.071 361.104 315.86 358.97 312.189Z" fill="#CC4227"/>
<path d="M348.214 310.567C348.214 310.482 348.171 310.439 348.086 310.439C347.972 310.439 347.915 310.496 347.915 310.61V311.677L347.744 313.256L347.446 314.665L346.933 316.159L346.72 316.628L346.464 317.098L346.379 317.311L345.994 317.951L344.885 319.317L344.629 319.573L343.988 320.085L343.946 319.787C343.633 317.852 343.362 316.329 343.135 315.22L341.342 308.476C341.2 308.02 341.057 307.679 340.915 307.451L340.531 306.683L340.36 306.427L340.062 306.128C339.976 306.071 339.905 306.071 339.848 306.128C339.791 306.213 339.791 306.285 339.848 306.341V306.384L339.976 306.47L340.232 306.854C340.403 307.138 340.517 307.38 340.574 307.579L340.958 308.604L342.324 314.494L342.153 314.451H342.068L341.683 314.323L341.427 314.195L341.257 314.152L341.129 314.067L340.787 313.939L339.805 313.299L339.507 313.043C339.137 312.758 338.923 312.573 338.866 312.488L338.226 311.89L337.244 310.653C337.045 310.396 336.917 310.197 336.86 310.055L336.135 308.817C336.078 308.618 335.964 308.575 335.793 308.689C335.651 308.746 335.608 308.86 335.665 309.031L336.732 310.994L338.055 312.659L339.037 313.598L340.446 314.579L340.958 314.835L341.086 314.921L342.196 315.305H342.366L342.452 315.348L343.818 328.238L343.562 328.323L342.494 328.537H341.641L340.318 328.323L338.866 327.768L337.074 326.787L336.049 325.976L333.787 323.756L333.873 323.713L334.299 323.329L334.726 322.646L334.94 321.793C334.968 321.366 334.925 320.882 334.812 320.342L334.683 319.872L334.641 319.787L334.598 319.616V319.573L334.47 319.531H334.342C334.257 319.531 334.214 319.559 334.214 319.616L334.171 319.659V319.701L334.129 319.744V319.829L334.171 320L334.214 320.427C334.271 320.882 334.242 321.295 334.129 321.665L333.915 322.262L333.616 322.646L333.318 322.86L333.232 322.902H333.19L333.147 322.945H333.104L330.799 319.403L330.458 318.677C330.373 318.535 330.259 318.492 330.116 318.549C329.974 318.606 329.931 318.72 329.988 318.89L331.055 320.982L331.269 321.323L331.141 321.494H331.098L330.757 321.579L330.287 321.622C329.832 321.622 329.519 321.608 329.348 321.579H328.921L328.836 321.622L328.879 321.75L330.202 322.134C330.6 322.22 330.942 322.262 331.226 322.262L331.44 322.22L331.696 322.134L331.738 322.091L333.958 325.037L334.555 325.677L336.604 327.427L338.482 328.579L339.293 328.921C339.549 329.063 339.805 329.148 340.062 329.177L340.83 329.39L341.555 329.476C341.698 329.504 341.925 329.518 342.238 329.518H342.537L343.86 329.305H343.903C344.045 331.553 344.131 333.844 344.159 336.177C344.216 337.713 344.244 340.018 344.244 343.092L343.946 343.134L342.025 343.092L340.616 342.793L339.635 342.451L339.592 342.409V342.366C339.677 342.281 339.72 342.181 339.72 342.067L339.763 341.811L339.677 341.256L339.507 340.701L338.952 339.506L338.866 339.378C338.81 339.264 338.738 339.236 338.653 339.293C338.539 339.321 338.482 339.407 338.482 339.549L338.824 340.872V341.726L338.781 341.811V341.768L338.824 341.726C338.767 341.754 338.696 341.839 338.61 341.982L337.799 341.555L337.714 341.47L337.031 341.043L335.836 340.018L335.708 339.933L335.623 339.805L335.11 339.293H335.068C334.982 339.179 334.868 339.165 334.726 339.25C334.584 339.335 334.57 339.463 334.683 339.634L335.153 340.232L335.281 340.36L335.366 340.488L336.903 341.982L337.116 342.11L337.202 342.195L337.33 342.281C337.643 342.537 337.942 342.736 338.226 342.878C338.255 342.935 338.326 342.992 338.44 343.049L339.208 343.433C339.208 343.461 339.279 343.504 339.421 343.561L339.677 343.689L341.257 344.287L342.751 344.585L343.22 344.628L343.433 344.671H344.202L344.159 347.317C344.102 350.276 343.96 353.52 343.732 357.049L342.964 383.524L342.921 383.567C342.893 383.937 343.007 384.264 343.263 384.549C343.519 384.833 343.846 384.99 344.244 385.018C344.643 385.047 344.97 384.933 345.226 384.677C345.511 384.421 345.667 384.108 345.696 383.738L346.123 357.177C346.179 353.193 346.194 349.921 346.165 347.36C346.051 343.006 345.895 339.25 345.696 336.092L345.653 335.494L345.781 335.451L347.873 334.128L349.793 332.25C350.021 332.022 350.334 331.624 350.732 331.055C350.846 330.884 351.116 330.457 351.543 329.774L352.269 328.366L352.909 326.616L353.379 324.354L353.549 321.793C353.549 321.65 353.464 321.551 353.293 321.494C353.094 321.494 352.994 321.594 352.994 321.793L352.781 324.268L352.354 326.061L351.885 327.384L351.586 328.067L350.049 330.585L349.11 331.652C348.712 332.108 348.399 332.421 348.171 332.591L347.275 333.36L345.781 334.299L345.568 334.384C345.34 331.055 345.041 327.896 344.671 324.909L344.202 321.537L344.373 321.451L345.226 320.683L346.037 319.744L346.293 319.317L346.421 319.146L346.549 318.89L346.848 318.463L347.318 317.482L348.001 315.348L348.043 315.091L348.086 314.963V314.835L348.299 313.299V311.335L348.214 310.567Z" fill="#211F1F"/>
</g>
<g clip-path="url(#clip2_1516_46501)">
<path fill-rule="evenodd" clip-rule="evenodd" d="M315.207 283.331L314.337 265.047L309.403 265.821L308.242 284.975L315.207 283.331ZM315.405 288.361L316.082 304.903C313.761 305.484 310.762 305.935 307.086 306.258L307.956 290.876C311.117 290.554 313.6 289.715 315.405 288.361ZM310.18 375.813C313.662 374.846 316.274 373.491 318.015 371.75C318.144 384.778 317.79 391.388 316.951 391.582C315.532 391.904 312.824 391.42 308.825 390.13C304.891 388.647 302.731 387.841 302.344 387.712L303.021 376.974C304.698 376.974 307.084 376.587 310.18 375.813ZM306.794 311.772C308.278 311.643 311.438 311.159 316.275 310.321L316.662 319.898C314.856 320.736 311.341 321.833 306.117 323.187L306.794 311.772ZM317.433 343.406L316.853 325.509C312.339 327.186 308.63 328.314 305.728 328.895L304.664 347.759C311.307 346.276 315.563 344.824 317.433 343.406ZM304.18 355.788C307.211 355.337 311.693 353.95 317.627 351.628L318.014 367.397C315.305 368.3 310.436 369.267 303.406 370.299L304.18 355.788Z" fill="#DD9A3A"/>
<path fill-rule="evenodd" clip-rule="evenodd" d="M315.209 283.33L315.402 288.361C313.596 289.715 311.113 290.554 307.953 290.876L308.243 284.975L315.209 283.33ZM316.269 310.32L316.076 304.903C313.754 305.484 310.755 305.935 307.079 306.258L306.789 311.772C308.272 311.643 311.432 311.159 316.269 310.32ZM316.658 319.898L316.852 325.509C312.337 327.185 308.629 328.314 305.727 328.894L306.114 323.187C311.337 321.832 314.852 320.736 316.658 319.898ZM317.626 351.628L317.433 343.406C315.563 344.824 311.306 346.276 304.663 347.759L304.18 355.788C307.211 355.337 311.693 353.95 317.626 351.628ZM303.403 370.299L303.016 376.974C304.692 376.974 307.079 376.587 310.174 375.813C313.657 374.846 316.269 373.491 318.01 371.75V367.397C315.301 368.3 310.432 369.267 303.403 370.299Z" fill="#9B6148"/>
<path d="M269.543 282.75C271.091 282.879 272.735 281.073 274.476 277.332C276.089 273.076 277.217 270.496 277.862 269.593C280.764 265.53 285.634 262.338 292.47 260.016C296.726 258.468 298.984 257.662 299.242 257.598C301.821 256.759 304.175 256.308 306.304 256.243L305.82 256.727C305.997 256.606 306.287 256.445 306.691 256.243H306.787C308.142 256.114 309.657 256.082 311.334 256.147C313.69 256.147 315.012 256.308 315.3 256.63L315.01 256.243C316.622 256.501 318.589 256.92 320.911 257.501C327.554 259.178 332.907 261.79 336.97 265.337C340.065 268.045 342.645 271.528 344.709 275.785C345.031 276.559 345.741 278.268 346.837 280.912C348.063 283.169 349.449 284.233 350.997 284.104C352.738 283.975 353.641 281.718 353.706 277.332C353.706 274.495 353.448 271.818 352.932 269.303C351.9 264.079 349.578 259.629 345.967 255.953C342.613 252.599 338.26 250.084 332.907 248.407C329.36 247.311 327.522 246.731 327.393 246.666C325.135 246.021 323.168 245.667 321.492 245.602C325.426 243.538 328.715 242.119 331.359 241.346C335.1 240.185 338.647 239.83 342 240.281C342.645 240.41 344.999 240.894 349.062 241.733C352.803 242.248 354.738 241.765 354.867 240.281C355.253 236.734 352.803 233.574 347.514 230.801C343.516 228.737 339.453 227.447 335.325 226.931C331.327 226.48 327.457 227.028 323.717 228.576C319.912 230.188 316.816 232.574 314.43 235.735C312.366 238.314 311.108 239.959 310.657 240.668C310.205 239.572 309.399 238.218 308.238 236.605C307.013 234.993 306.142 233.832 305.626 233.123C303.305 229.898 300.273 227.447 296.533 225.771C292.857 224.094 289.019 223.449 285.021 223.836C280.893 224.158 276.766 225.351 272.638 227.415C267.221 230.059 264.673 233.155 264.996 236.702C265.125 238.121 267.06 238.605 270.8 238.153C272.8 237.96 275.186 237.573 277.959 236.992C281.506 236.67 285.247 237.186 289.181 238.54C291.825 239.443 295.243 241.088 299.435 243.474L301.854 245.409C296.436 245.731 291.889 246.408 288.213 247.44C283.376 248.794 279.313 250.858 276.024 253.631C271.961 257.049 269.252 261.79 267.898 267.852C267.318 270.174 266.995 272.85 266.931 275.881C266.866 280.267 267.737 282.556 269.543 282.75Z" fill="#469F76"/>
<path d="M310.561 258.468C310.625 257.308 310.238 256.308 309.4 255.47C308.626 254.696 307.659 254.276 306.498 254.212C305.337 254.212 304.337 254.631 303.499 255.47C302.66 256.243 302.241 257.211 302.241 258.372C302.177 259.533 302.564 260.532 303.402 261.371C304.241 262.209 305.24 262.628 306.401 262.628C307.562 262.693 308.562 262.306 309.4 261.467C310.174 260.629 310.561 259.629 310.561 258.468Z" fill="#9B6148"/>
<path d="M320.041 258.565C320.041 257.404 319.654 256.405 318.88 255.566C318.042 254.792 317.042 254.373 315.882 254.309C314.721 254.309 313.721 254.728 312.883 255.566C312.044 256.34 311.625 257.308 311.625 258.469C311.625 259.629 312.044 260.629 312.883 261.467C313.657 262.306 314.624 262.725 315.785 262.725C316.946 262.79 317.945 262.403 318.784 261.564C319.622 260.726 320.041 259.726 320.041 258.565Z" fill="#9B6148"/>
<path d="M315.791 262.725C315.791 261.564 315.404 260.564 314.63 259.726C313.792 258.952 312.792 258.533 311.632 258.468C310.471 258.468 309.471 258.888 308.633 259.726C307.794 260.5 307.375 261.467 307.375 262.628C307.375 263.789 307.794 264.789 308.633 265.627C309.407 266.465 310.374 266.885 311.535 266.885C312.696 266.949 313.695 266.562 314.534 265.724C315.372 264.885 315.791 263.886 315.791 262.725Z" fill="#9B6148"/>
<path d="M275.929 229.93L273.607 230.898C273.414 231.027 272.865 231.446 271.963 232.155L271.092 233.123L270.898 233.51H271.382L276.703 232.349C278.509 231.897 280.411 231.639 282.41 231.575C283.12 231.575 284.184 231.639 285.603 231.768L288.989 232.252C290.73 232.575 292.826 233.22 295.277 234.187L300.501 236.702L302.339 237.96L303.499 239.024L303.886 239.508V239.411C304.015 240.443 304.628 240.959 305.725 240.959C306.24 240.894 306.66 240.668 306.982 240.282C307.305 239.895 307.434 239.475 307.369 239.024V238.54L307.272 238.25L307.176 238.056C307.047 237.734 306.724 237.25 306.208 236.605L304.564 235.058L302.435 233.606C301.919 233.22 301.017 232.704 299.727 232.059L293.245 229.64L289.569 228.866C287.054 228.479 284.603 228.382 282.217 228.576C280.411 228.705 278.315 229.156 275.929 229.93Z" fill="#104D52"/>
<path d="M345.876 232.736C343.812 231.962 341.748 231.478 339.685 231.285C337.234 230.962 334.783 230.995 332.332 231.382C331.43 231.446 330.204 231.672 328.656 232.059L322.078 234.284L317.144 237.186L315.5 238.637C314.984 239.282 314.661 239.798 314.532 240.185L314.339 240.572V240.862L314.242 240.959V241.055C314.242 242.216 314.758 242.861 315.79 242.99C316.845 243.114 317.49 242.631 317.725 241.539L318.208 241.152C318.273 241.088 318.66 240.765 319.369 240.185L321.207 238.927L326.431 236.509C328.495 235.735 330.623 235.154 332.816 234.767L336.202 234.284C337.298 234.155 338.395 234.155 339.491 234.284C341.361 234.284 343.232 234.574 345.102 235.154L347.327 235.832L350.423 236.412H350.906L350.616 236.025C350.552 235.832 350.294 235.509 349.842 235.058L348.294 233.8C347.456 233.349 346.65 232.994 345.876 232.736Z" fill="#104D52"/>
<path d="M274.284 263.112C272.671 265.434 271.543 267.917 270.898 270.561C270.575 271.851 270.414 272.915 270.414 273.753C270.414 274.979 270.479 275.817 270.607 276.269L270.994 277.913L271.188 278.397L271.478 277.913L273.316 271.238C274.155 268.787 275.283 266.627 276.702 264.757C277.218 264.047 278.121 263.048 279.411 261.758L282.797 259.049L286.473 256.921L294.018 254.115L300.306 253.245C301.338 253.245 302.016 253.277 302.338 253.341L303.402 253.535C303.531 253.664 303.596 253.696 303.596 253.632C304.563 254.341 305.369 254.212 306.014 253.245C306.272 252.858 306.369 252.439 306.304 251.987C306.24 251.536 306.014 251.149 305.627 250.826L305.53 250.729L304.853 250.342C304.402 250.084 303.757 249.891 302.918 249.762C302.402 249.633 301.5 249.569 300.21 249.569C299.565 249.569 298.468 249.633 296.921 249.762C294.276 250.213 291.632 250.923 288.988 251.89C287.892 252.277 286.505 252.89 284.828 253.728L280.765 256.34C278.056 258.34 275.896 260.597 274.284 263.112Z" fill="#104D52"/>
<path d="M336.492 254.599C335.073 253.761 333.687 253.083 332.333 252.567C329.559 251.471 326.947 250.729 324.497 250.342L321.208 250.052L318.499 250.149C317.338 250.471 316.661 250.665 316.467 250.729L315.887 251.116L315.79 251.213C315.339 251.471 315.081 251.826 315.016 252.277C314.887 252.793 314.984 253.245 315.306 253.632C316.016 254.534 316.822 254.696 317.725 254.115L317.918 254.019L318.982 253.728L323.916 254.019L327.302 254.792C328.076 254.986 329.301 255.405 330.978 256.05L334.751 257.791C335.976 258.372 337.202 259.113 338.427 260.016C339.201 260.532 340.297 261.435 341.716 262.725C342.619 263.628 343.49 264.66 344.328 265.821C345.812 267.949 346.876 270.142 347.521 272.399L349.455 279.654L349.746 279.074L350.229 277.526L350.423 275.011C350.423 274.172 350.261 273.108 349.939 271.819C349.423 269.174 348.391 266.627 346.843 264.176C345.167 261.596 343.038 259.275 340.459 257.211C339.298 256.308 337.976 255.437 336.492 254.599Z" fill="#104D52"/>
</g>
<g clip-path="url(#clip3_1516_46501)">
<path d="M1323.66 467.694C1314.41 462.55 1304.88 457.529 1295.06 452.632C1221.98 416.124 1138.06 387.86 1043.3 367.839C945.186 347.136 842.418 336.785 734.992 336.785C627.567 336.785 524.798 347.136 426.687 367.839C331.867 387.86 247.914 416.124 174.827 452.632C115.463 482.26 66.9976 515.484 29.4297 552.302H1440.56C1409.13 521.62 1370.17 493.417 1323.66 467.694Z" fill="#469F76"/>
<path d="M1295.07 452.632C1304.88 457.529 1314.41 462.55 1323.66 467.694C1308.7 458.769 1292.9 450.153 1276.25 441.847C1203.17 405.339 1119.21 377.074 1024.39 357.054C926.282 336.351 823.514 326 716.088 326C608.662 326 505.894 336.351 407.783 357.054C313.025 377.074 229.102 405.339 156.016 441.847C90.9392 474.388 38.934 511.207 0 552.302H29.4334C67.0013 515.483 115.467 482.26 174.831 452.632C247.917 416.124 331.871 387.86 426.691 367.839C524.802 347.136 627.57 336.785 734.996 336.785C842.422 336.785 945.19 347.136 1043.3 367.839C1138.06 387.86 1221.98 416.124 1295.07 452.632Z" fill="#104D52"/>
</g>
<g clip-path="url(#clip4_1516_46501)">
<path d="M910.34 328.241C905.447 333.127 903 339.017 903 345.914C903 352.81 905.447 358.701 910.34 363.586C915.234 368.471 921.135 370.914 928.043 370.914C931.152 370.914 934.232 370.31 937.283 369.103C935.729 367.954 934.952 366.402 934.952 364.448C934.952 362.897 935.499 361.575 936.592 360.483C937.686 359.333 939.039 358.759 940.651 358.759C941.975 358.759 943.155 359.161 944.192 359.966C945.228 360.77 945.89 361.805 946.178 363.069C950.726 358.241 953 352.523 953 345.914C953 342.408 952.338 339.161 951.014 336.172C949.92 336.977 948.74 337.379 947.473 337.379C945.919 337.379 944.595 336.833 943.501 335.741C942.349 334.592 941.774 333.241 941.774 331.69C941.774 329.621 942.609 328.04 944.278 326.948C939.5 322.925 934.088 320.914 928.043 320.914C921.135 320.914 915.234 323.356 910.34 328.241Z" fill="#CC4227"/>
<path d="M944.193 359.966C943.157 359.161 941.977 358.759 940.653 358.759C939.041 358.759 937.688 359.333 936.594 360.483C935.5 361.575 934.953 362.897 934.953 364.448C934.953 366.402 935.73 367.954 937.285 369.103C940.681 367.724 943.646 365.713 946.179 363.069C945.892 361.805 945.229 360.77 944.193 359.966Z" fill="#DD9727"/>
<path d="M944.278 326.948C942.608 328.04 941.773 329.621 941.773 331.69C941.773 333.241 942.349 334.592 943.501 335.741C944.594 336.833 945.919 337.379 947.473 337.379C948.739 337.379 949.92 336.977 951.013 336.172C949.632 332.724 947.387 329.65 944.278 326.948Z" fill="#DD9727"/>
<path d="M929.946 329.621C929.946 328.012 929.399 326.661 928.305 325.569C927.211 324.477 925.858 323.931 924.246 323.931C922.634 323.931 921.281 324.477 920.188 325.569C919.094 326.661 918.547 328.012 918.547 329.621C918.547 331.172 919.094 332.523 920.188 333.672C921.281 334.764 922.634 335.31 924.246 335.31C925.858 335.31 927.211 334.764 928.305 333.672C929.399 332.523 929.946 331.172 929.946 329.621Z" fill="#DD9727"/>
<path d="M918.282 344.19C918.282 342.581 917.706 341.23 916.555 340.138C915.461 339.046 914.108 338.5 912.496 338.5C910.942 338.5 909.618 339.046 908.524 340.138C907.373 341.23 906.797 342.581 906.797 344.19C906.797 345.741 907.373 347.092 908.524 348.241C909.618 349.333 910.942 349.879 912.496 349.879C914.108 349.879 915.461 349.333 916.555 348.241C917.706 347.092 918.282 345.741 918.282 344.19Z" fill="#DD9727"/>
<path d="M929.946 358.759C929.946 357.15 929.399 355.799 928.305 354.707C927.211 353.615 925.858 353.069 924.246 353.069C922.634 353.069 921.281 353.615 920.188 354.707C919.094 355.799 918.547 357.15 918.547 358.759C918.547 360.31 919.094 361.661 920.188 362.811C921.281 363.902 922.634 364.448 924.246 364.448C925.858 364.448 927.211 363.902 928.305 362.811C929.399 361.661 929.946 360.31 929.946 358.759Z" fill="#DD9727"/>
<path d="M939.704 344.19C939.704 342.581 939.128 341.23 937.977 340.138C936.883 339.046 935.53 338.5 933.918 338.5C932.364 338.5 931.04 339.046 929.946 340.138C928.794 341.23 928.219 342.581 928.219 344.19C928.219 345.741 928.794 347.092 929.946 348.241C931.04 349.333 932.364 349.879 933.918 349.879C935.53 349.879 936.883 349.333 937.977 348.241C939.128 347.092 939.704 345.741 939.704 344.19Z" fill="#DD9727"/>
</g>
<path d="M398.402 384.25C394.102 387.883 392.085 391.75 392.351 395.85C392.551 398.583 393.918 401.067 396.451 403.3L397.002 397.7C397.135 397.233 397.435 397 397.902 397C398.135 397.033 398.302 397.133 398.402 397.3C398.535 397.4 398.568 397.55 398.502 397.75L397.951 404.5C398.385 404.867 399.435 405.567 401.101 406.6L396.851 407.35C395.751 407.517 395.035 408.117 394.701 409.15C394.668 409.35 394.618 409.55 394.551 409.75C394.418 410.517 394.568 411.233 395.002 411.9C395.735 413.133 398.285 414.15 402.652 414.95C409.818 416.35 416.918 417.25 423.951 417.65C429.385 417.917 434.801 417.867 440.201 417.5C448.401 416.867 458.252 415.117 469.752 412.25C469.785 412.917 469.818 413.583 469.851 414.25C470.318 422.917 471.018 427.817 471.951 428.95C473.018 430.317 474.468 430.433 476.301 429.3C478.168 428.1 479.202 426.533 479.402 424.6C479.568 423 479.035 418.183 477.801 410.15C479.035 409.783 480.301 409.417 481.601 409.05C484.268 415.217 486.018 419.5 486.851 421.9C487.485 423.667 488.485 424.467 489.851 424.3C490.618 424.267 491.468 423.9 492.402 423.2C495.135 421.367 496.168 419.417 495.502 417.35C495.202 416.517 493.335 413.55 489.902 408.45C489.002 407.083 487.985 405.6 486.851 404C486.351 403.3 485.851 402.583 485.351 401.85C484.851 401.15 484.335 400.433 483.801 399.7V399.65L483.101 396.85C483.901 396.617 484.685 396.35 485.451 396.05C490.518 394.083 495.135 391 499.301 386.8C507.001 379.033 510.851 369.633 510.851 358.6C510.851 347.567 507.001 338.167 499.301 330.4C492.168 323.2 483.685 319.333 473.851 318.8C473.051 318.767 472.235 318.75 471.402 318.75C470.868 318.75 470.335 318.767 469.801 318.8L425.951 318.05C425.685 317.95 425.335 317.967 424.902 318.1C424.535 318.2 424.218 318.467 423.951 318.9L413.752 338C413.552 338.4 413.535 338.817 413.701 339.25C413.768 339.683 414.018 340.05 414.451 340.35C414.885 340.55 415.335 340.583 415.801 340.45C416.268 340.283 416.585 340 416.752 339.6L425.201 323.7L424.652 336.75C424.218 349.817 424.151 357.75 424.451 360.55L424.301 362.05C424.301 363.65 424.685 364.967 425.451 366C426.251 367.133 427.201 367.683 428.301 367.65C429.601 367.617 430.685 366.883 431.551 365.45C431.918 366.083 432.318 366.583 432.752 366.95C433.318 367.383 433.968 367.617 434.701 367.65C436.068 367.617 437.151 366.883 437.951 365.45C438.685 366.817 439.718 367.517 441.051 367.55C442.318 367.55 443.401 366.867 444.301 365.5C445.168 366.933 446.218 367.617 447.451 367.55C448.751 367.55 449.818 366.833 450.652 365.4C451.485 366.833 452.551 367.567 453.851 367.6C455.051 367.6 456.085 366.95 456.951 365.65C457.018 365.55 457.068 365.467 457.101 365.4C457.935 366.9 458.968 367.617 460.201 367.55C461.501 367.517 462.585 366.8 463.451 365.4C464.251 366.8 465.285 367.517 466.551 367.55C467.951 367.45 469.035 366.717 469.801 365.35C470.602 366.75 471.668 367.467 473.002 367.5C474.102 367.533 475.068 366.983 475.902 365.85C476.702 364.75 477.068 363.467 477.002 362C477.035 361.2 476.918 360.433 476.652 359.7L475.801 346.15C478.168 346.817 480.285 348.1 482.152 350C485.118 353 486.601 356.617 486.601 360.85C486.601 365.117 485.118 368.733 482.152 371.7C480.552 373.333 478.768 374.517 476.801 375.25C475.701 375.683 474.535 375.967 473.301 376.1C473.201 376.067 473.102 376.033 473.002 376L468.801 373.95C466.201 372.883 463.402 372.033 460.402 371.4C458.102 370.867 455.701 370.467 453.201 370.2C446.535 369.533 440.001 369.6 433.601 370.4C432.801 370.467 432.001 370.567 431.201 370.7C430.368 370.833 429.552 370.983 428.752 371.15C422.218 372.35 416.001 374.35 410.101 377.15C404.968 379.617 401.068 381.983 398.402 384.25Z" fill="white"/>
<path d="M405.2 393.908C404.818 393.53 404.414 393.491 403.989 393.791L403.392 394.666L402.876 395.046L402.654 395.297L401.735 395.827L401.419 395.846L400.556 395.977L399.738 396.327L399.106 396.365L398.765 396.48L397.212 396.479L396.835 396.533L396.133 396.448L395.94 396.397L395.319 395.816L394.801 395.626L394.608 395.574L394.251 395.168L394 394.945L393.929 394.823L393.663 394.078L393.606 393.131C393.574 392.605 393.288 392.321 392.747 392.28C392.212 392.344 391.961 392.639 391.992 393.165L392.142 394.344C392.127 394.788 392.233 395.162 392.463 395.465L392.472 395.623C392.614 395.868 392.852 396.139 393.186 396.435L393.389 396.645L394.229 397.181L394.471 397.245L394.625 397.442L395.513 397.99L396.685 398.253L397.062 398.198L396.512 403.538L397.96 404.702L398.579 398.139C398.749 398.15 398.907 398.14 399.053 398.111L401.124 397.527L401.234 397.504L401.55 397.485L402.413 397.354L403.454 396.753L404.057 396.242L404.279 395.991C404.524 395.849 404.747 395.599 404.947 395.238L405.034 395.106C405.468 394.774 405.523 394.374 405.2 393.908Z" fill="#373535"/>
<path d="M457.402 389.85C457.542 389.112 457.558 388.395 457.452 387.7C455.782 387.1 453.949 386.8 451.952 386.8C448.578 386.8 445.628 387.65 443.102 389.35C443.174 389.954 443.307 390.52 443.502 391.05C445.593 389.517 447.993 388.75 450.702 388.75C453.134 388.75 455.318 389.367 457.252 390.6C457.311 390.368 457.361 390.118 457.402 389.85Z" fill="#373535"/>
<g clip-path="url(#clip5_1516_46501)">
<path d="M1096.67 313.28C1093.62 308.118 1089.78 304.866 1085.15 303.524C1083.52 300.76 1081.39 298.565 1078.74 296.939C1075.94 295.272 1072.93 294.439 1069.72 294.439C1064.76 294.439 1060.51 296.289 1056.98 299.988C1053.48 303.687 1051.73 308.138 1051.73 313.341C1051.73 315.008 1051.89 316.471 1052.22 317.732C1051.41 320.618 1051 323.646 1051 326.817C1051 330.394 1051.51 333.768 1052.52 336.939C1053.54 340.028 1054.92 342.65 1056.67 344.805C1056.71 352.61 1058.68 359.276 1062.59 364.805C1066.49 370.293 1071.2 373.037 1076.73 373.037C1081.65 373.037 1086 370.78 1089.78 366.268C1093.48 361.837 1095.74 356.248 1096.55 349.5C1099.68 344.297 1101.24 338.24 1101.24 331.329C1101.24 324.541 1099.72 318.524 1096.67 313.28Z" fill="#CC4227"/>
<path d="M1081.31 310.963C1081.31 310.842 1081.25 310.781 1081.13 310.781C1080.96 310.781 1080.88 310.862 1080.88 311.024V312.549L1080.64 314.805L1080.21 316.817L1079.48 318.951L1079.17 319.622L1078.81 320.293L1078.69 320.598L1078.14 321.512L1076.55 323.463L1076.19 323.829L1075.27 324.561L1075.21 324.134C1074.76 321.37 1074.38 319.195 1074.05 317.61L1071.49 307.976C1071.29 307.325 1071.08 306.838 1070.88 306.512L1070.33 305.415L1070.09 305.049L1069.66 304.622C1069.54 304.541 1069.44 304.541 1069.36 304.622C1069.28 304.744 1069.28 304.846 1069.36 304.927V304.988L1069.54 305.11L1069.91 305.659C1070.15 306.065 1070.31 306.411 1070.39 306.695L1070.94 308.159L1072.89 316.573L1072.65 316.512H1072.53L1071.98 316.329L1071.61 316.146L1071.37 316.085L1071.19 315.964L1070.7 315.781L1069.3 314.866L1068.87 314.5C1068.34 314.094 1068.04 313.829 1067.95 313.707L1067.04 312.854L1065.64 311.085C1065.35 310.72 1065.17 310.435 1065.09 310.232L1064.05 308.464C1063.97 308.179 1063.81 308.118 1063.56 308.281C1063.36 308.362 1063.3 308.524 1063.38 308.768L1064.91 311.573L1066.8 313.951L1068.2 315.293L1070.21 316.695L1070.94 317.061L1071.12 317.183L1072.71 317.732H1072.95L1073.08 317.793L1075.03 336.207L1074.66 336.329L1073.14 336.634H1071.92L1070.03 336.329L1067.95 335.537L1065.39 334.134L1063.93 332.976L1060.7 329.805L1060.82 329.744L1061.43 329.195L1062.04 328.22L1062.34 327C1062.39 326.39 1062.32 325.699 1062.16 324.927L1061.98 324.256L1061.92 324.134L1061.86 323.89V323.829L1061.67 323.768H1061.49C1061.37 323.768 1061.31 323.809 1061.31 323.89L1061.25 323.951V324.012L1061.19 324.073V324.195L1061.25 324.439L1061.31 325.049C1061.39 325.699 1061.35 326.289 1061.19 326.817L1060.88 327.671L1060.45 328.22L1060.03 328.524L1059.91 328.585H1059.84L1059.78 328.646H1059.72L1056.43 323.585L1055.94 322.549C1055.82 322.346 1055.66 322.285 1055.45 322.366C1055.25 322.447 1055.19 322.61 1055.27 322.854L1056.8 325.842L1057.1 326.329L1056.92 326.573H1056.86L1056.37 326.695L1055.7 326.756C1055.05 326.756 1054.6 326.736 1054.36 326.695H1053.75L1053.62 326.756L1053.69 326.939L1055.58 327.488C1056.15 327.61 1056.63 327.671 1057.04 327.671L1057.34 327.61L1057.71 327.488L1057.77 327.427L1060.94 331.634L1061.8 332.549L1064.72 335.049L1067.41 336.695L1068.56 337.183C1068.93 337.386 1069.3 337.508 1069.66 337.549L1070.76 337.854L1071.8 337.976C1072 338.016 1072.32 338.037 1072.77 338.037H1073.2L1075.09 337.732H1075.15C1075.35 340.943 1075.47 344.216 1075.52 347.549C1075.6 349.744 1075.64 353.037 1075.64 357.427L1075.21 357.488L1072.47 357.427L1070.45 357L1069.05 356.512L1068.99 356.451V356.39C1069.11 356.268 1069.17 356.126 1069.17 355.964L1069.23 355.598L1069.11 354.805L1068.87 354.012L1068.08 352.305L1067.95 352.122C1067.87 351.959 1067.77 351.919 1067.65 352C1067.49 352.041 1067.41 352.163 1067.41 352.366L1067.89 354.256V355.476L1067.83 355.598V355.537L1067.89 355.476C1067.81 355.516 1067.71 355.638 1067.59 355.842L1066.43 355.232L1066.31 355.11L1065.33 354.5L1063.62 353.037L1063.44 352.915L1063.32 352.732L1062.59 352H1062.53C1062.41 351.837 1062.24 351.817 1062.04 351.939C1061.84 352.061 1061.82 352.244 1061.98 352.488L1062.65 353.342L1062.83 353.524L1062.95 353.707L1065.15 355.842L1065.45 356.024L1065.58 356.146L1065.76 356.268C1066.21 356.634 1066.63 356.919 1067.04 357.122C1067.08 357.203 1067.18 357.285 1067.34 357.366L1068.44 357.915C1068.44 357.955 1068.54 358.016 1068.75 358.098L1069.11 358.281L1071.37 359.134L1073.5 359.561L1074.17 359.622L1074.48 359.683H1075.58L1075.52 363.463C1075.43 367.691 1075.23 372.325 1074.91 377.366L1073.81 390.902L1073.75 390.964C1073.71 391.492 1073.87 391.959 1074.23 392.366C1074.6 392.772 1075.07 392.996 1075.64 393.037C1076.21 393.077 1076.67 392.915 1077.04 392.549C1077.45 392.183 1077.67 391.736 1077.71 391.207L1078.32 377.549C1078.4 371.858 1078.42 367.183 1078.38 363.525C1078.22 357.305 1077.99 351.939 1077.71 347.427L1077.65 346.573L1077.83 346.512L1080.82 344.622L1083.56 341.939C1083.89 341.614 1084.34 341.045 1084.91 340.232C1085.07 339.988 1085.45 339.378 1086.06 338.403L1087.1 336.39L1088.02 333.89L1088.69 330.659L1088.93 327C1088.93 326.797 1088.81 326.655 1088.56 326.573C1088.28 326.573 1088.14 326.716 1088.14 327L1087.83 330.537L1087.22 333.098L1086.55 334.988L1086.12 335.963L1083.93 339.561L1082.59 341.085C1082.02 341.736 1081.57 342.183 1081.25 342.427L1079.97 343.524L1077.83 344.866L1077.53 344.988C1077.2 340.232 1076.78 335.72 1076.25 331.451L1075.58 326.634L1075.82 326.512L1077.04 325.415L1078.2 324.073L1078.56 323.463L1078.75 323.22L1078.93 322.854L1079.36 322.244L1080.03 320.842L1081 317.793L1081.06 317.427L1081.13 317.244V317.061L1081.43 314.866V312.061L1081.31 310.963Z" fill="#211F1F"/>
</g>
<g clip-path="url(#clip6_1516_46501)">
<path d="M285.459 321.239C281.556 314.631 276.639 310.468 270.707 308.751C268.626 305.213 265.894 302.403 262.512 300.322C258.922 298.189 255.072 297.122 250.961 297.122C244.613 297.122 239.176 299.489 234.649 304.224C230.174 308.959 227.937 314.657 227.937 321.317C227.937 323.45 228.145 325.323 228.561 326.936C227.52 330.631 227 334.507 227 338.566C227 343.145 227.65 347.463 228.951 351.522C230.252 355.476 232.021 358.832 234.259 361.59C234.311 371.58 236.834 380.114 241.829 387.19C246.824 394.215 252.86 397.727 259.937 397.727C266.233 397.727 271.8 394.839 276.639 389.063C281.374 383.392 284.262 376.237 285.302 367.6C289.309 360.94 291.312 353.187 291.312 344.341C291.312 335.652 289.361 327.951 285.459 321.239Z" fill="#CC4227"/>
<path d="M265.794 318.273C265.794 318.117 265.715 318.039 265.559 318.039C265.351 318.039 265.247 318.143 265.247 318.351V320.303L264.935 323.19L264.389 325.766L263.452 328.498L263.062 329.356L262.594 330.215L262.437 330.605L261.735 331.776L259.706 334.273L259.237 334.742L258.067 335.678L257.989 335.132C257.416 331.594 256.922 328.81 256.506 326.781L253.228 314.449C252.968 313.616 252.707 312.992 252.447 312.576L251.745 311.171L251.433 310.703L250.886 310.156C250.73 310.052 250.6 310.052 250.496 310.156C250.392 310.312 250.392 310.442 250.496 310.546V310.625L250.73 310.781L251.198 311.483C251.511 312.003 251.719 312.446 251.823 312.81L252.525 314.683L255.023 325.454L254.711 325.376H254.554L253.852 325.142L253.384 324.907L253.072 324.829L252.837 324.673L252.213 324.439L250.418 323.268L249.872 322.8C249.195 322.28 248.805 321.942 248.701 321.786L247.53 320.693L245.735 318.429C245.371 317.961 245.137 317.597 245.033 317.337L243.706 315.073C243.602 314.709 243.394 314.631 243.081 314.839C242.821 314.943 242.743 315.151 242.847 315.464L244.798 319.054L247.218 322.098L249.013 323.815L251.589 325.61L252.525 326.078L252.759 326.234L254.789 326.937H255.101L255.257 327.015L257.754 350.586L257.286 350.742L255.335 351.132H253.774L251.354 350.742L248.701 349.727L245.423 347.932L243.55 346.449L239.413 342.39L239.569 342.312L240.35 341.61L241.13 340.361L241.52 338.8C241.572 338.02 241.494 337.135 241.286 336.147L241.052 335.288L240.974 335.132L240.896 334.82V334.742L240.662 334.664H240.428C240.272 334.664 240.194 334.716 240.194 334.82L240.115 334.898V334.976L240.037 335.054V335.21L240.115 335.522L240.194 336.303C240.298 337.135 240.246 337.89 240.037 338.566L239.647 339.659L239.101 340.361L238.554 340.751L238.398 340.829H238.32L238.242 340.907H238.164L233.95 334.429L233.325 333.103C233.169 332.842 232.961 332.764 232.701 332.869C232.441 332.973 232.363 333.181 232.467 333.493L234.418 337.317L234.808 337.942L234.574 338.254H234.496L233.872 338.41L233.013 338.488C232.181 338.488 231.608 338.462 231.296 338.41H230.515L230.359 338.488L230.437 338.722L232.857 339.425C233.585 339.581 234.21 339.659 234.73 339.659L235.12 339.581L235.589 339.425L235.667 339.346L239.725 344.732L240.818 345.903L244.564 349.103L247.998 351.21L249.481 351.834C249.95 352.094 250.418 352.251 250.886 352.303L252.291 352.693L253.618 352.849C253.878 352.901 254.294 352.927 254.867 352.927H255.413L257.833 352.537H257.911C258.171 356.647 258.327 360.836 258.379 365.103C258.483 367.912 258.535 372.127 258.535 377.747L257.989 377.825L254.476 377.747L251.901 377.2L250.106 376.576L250.028 376.498V376.42C250.184 376.264 250.262 376.081 250.262 375.873L250.34 375.405L250.184 374.39L249.872 373.376L248.857 371.19L248.701 370.956C248.597 370.748 248.467 370.696 248.311 370.8C248.102 370.852 247.998 371.008 247.998 371.268L248.623 373.688V375.249L248.545 375.405V375.327L248.623 375.249C248.519 375.301 248.389 375.457 248.233 375.717L246.75 374.937L246.594 374.781L245.345 374L243.159 372.127L242.925 371.971L242.769 371.737L241.833 370.8H241.754C241.598 370.592 241.39 370.566 241.13 370.722C240.87 370.878 240.844 371.112 241.052 371.425L241.911 372.517L242.145 372.751L242.301 372.986L245.111 375.717L245.501 375.951L245.657 376.107L245.891 376.264C246.463 376.732 247.01 377.096 247.53 377.356C247.582 377.46 247.712 377.564 247.92 377.668L249.325 378.371C249.325 378.423 249.455 378.501 249.715 378.605L250.184 378.839L253.072 379.932L255.803 380.478L256.662 380.556L257.052 380.634H258.457L258.379 385.473C258.275 390.885 258.015 396.816 257.598 403.268L256.194 420.595L256.115 420.673C256.063 421.35 256.272 421.948 256.74 422.468C257.208 422.989 257.807 423.275 258.535 423.327C259.263 423.379 259.862 423.171 260.33 422.703C260.85 422.234 261.137 421.662 261.189 420.986L261.969 403.503C262.073 396.218 262.099 390.234 262.047 385.551C261.839 377.59 261.553 370.722 261.189 364.947L261.111 363.854L261.345 363.776L265.169 361.356L268.681 357.922C269.098 357.506 269.67 356.777 270.398 355.737C270.607 355.425 271.101 354.644 271.881 353.395L273.208 350.82L274.379 347.62L275.237 343.483L275.55 338.8C275.55 338.54 275.394 338.358 275.081 338.254C274.717 338.254 274.535 338.436 274.535 338.8L274.145 343.327L273.364 346.605L272.506 349.025L271.959 350.273L269.15 354.878L267.433 356.829C266.704 357.662 266.132 358.234 265.715 358.546L264.076 359.951L261.345 361.668L260.954 361.825C260.538 355.737 259.992 349.961 259.315 344.498L258.457 338.332L258.769 338.176L260.33 336.771L261.813 335.054L262.281 334.273L262.515 333.961L262.75 333.493L263.296 332.712L264.154 330.917L265.403 327.015L265.481 326.546L265.559 326.312V326.078L265.95 323.268V319.678L265.794 318.273Z" fill="#211F1F"/>
</g>
<g clip-path="url(#clip7_1516_46501)">
<path d="M1135.37 347.142C1135.37 346.233 1135.07 345.476 1134.46 344.87C1133.8 344.214 1133.05 343.886 1132.19 343.886L1125.68 343.81C1124.77 343.81 1124.01 344.113 1123.41 344.719C1122.75 345.375 1122.42 346.132 1122.42 346.99L1121.74 420.279C1121.69 421.187 1121.99 421.97 1122.65 422.626C1123.3 423.232 1124.06 423.534 1124.92 423.534L1131.43 423.61C1132.29 423.61 1133.05 423.307 1133.7 422.702C1134.36 422.045 1134.69 421.288 1134.69 420.43L1135.37 347.142Z" fill="#EE754B"/>
<path d="M1130.22 207C1122.09 206.95 1115.08 214.294 1109.17 229.032C1103.27 243.771 1100.21 261.613 1100.01 282.56C1099.81 303.557 1102.53 321.476 1108.19 336.315C1113.79 351.205 1120.65 358.675 1128.78 358.726C1136.91 358.827 1143.92 351.483 1149.83 336.694C1155.73 321.955 1158.79 304.113 1158.99 283.166C1159.19 262.219 1156.49 244.301 1150.89 229.411C1145.24 214.571 1138.35 207.101 1130.22 207Z" fill="#2E575B"/>
</g>
<g clip-path="url(#clip8_1516_46501)">
<path d="M883.098 79.5525C883.403 80.7727 883.643 82.3851 883.817 84.3897C883.991 86.4815 883.904 88.6604 883.555 90.9265C883.163 93.6719 882.967 95.3061 882.967 95.8291C882.836 98.0516 883.294 100.274 884.34 102.497C884.95 103.804 886.018 106.005 887.543 109.099C889.94 115.243 890.179 122.543 888.262 130.997" stroke="#EBF7FA" stroke-width="2.2225" stroke-miterlimit="10"/>
<path d="M895.314 33.0107L894.791 32.6185L894.399 32.2264L892.568 30.8536L891.849 30.4615L891.588 30.2653L890.803 29.8731L890.542 29.677L888.646 28.8273L888.385 28.7618C888.036 28.5875 887.775 28.5004 887.6 28.5004L886.293 28.0428L885.378 27.8467L885.182 27.7813L884.201 27.5853L884.005 27.5199L883.025 27.3891H882.829C882.567 27.3455 882.218 27.3238 881.783 27.3238L879.233 27.2584C872.697 27.6071 867.227 30.396 862.826 35.6254C858.468 40.8549 856.464 47.0212 856.812 54.1245L857.27 58.1773L857.597 59.4846L857.727 59.8769L857.923 60.7267L858.381 61.9033L858.446 62.2955L858.969 63.4721C859.056 63.8208 859.187 64.104 859.362 64.3219L860.015 65.6946L860.669 66.7405C860.756 67.002 860.952 67.307 861.257 67.6556L861.323 67.721L861.911 68.7016L861.976 68.8323L862.695 69.6821L862.761 69.7474L863.545 70.6626H863.61L864.395 71.5777C869.363 76.5456 875.137 78.8989 881.717 78.6374C881.456 79.1604 881.281 79.7051 881.194 80.2716C881.064 80.9253 881.085 81.4046 881.26 81.7097C881.434 82.0583 881.957 82.2109 882.829 82.1673C883.744 82.1237 884.419 81.9058 884.855 81.5136C885.421 81.0778 885.182 80.0319 884.136 78.3759C890.063 77.5044 894.943 74.5193 898.778 69.4206C902.657 64.3219 904.443 58.4606 904.138 51.8367C903.833 45.082 901.458 39.3514 897.013 34.6449L896.556 34.2527L896.164 33.7952L895.314 33.0107Z" fill="#F37036"/>
<path d="M896.758 64.714C896.889 65.7163 896.889 67.2415 896.758 69.2897C896.41 72.8196 895.102 76.4148 892.836 80.0754C890.135 84.3897 888.588 87.2223 888.195 88.5732C886.757 93.8026 888.239 99.8818 892.64 106.811" stroke="#EBF7FA" stroke-width="2.2225" stroke-miterlimit="10"/>
<path d="M916.823 27.5851L915.777 26.2778L914.274 24.7743L914.143 24.5782L913.62 24.1207L913.424 23.9899L912.051 22.8787L911.921 22.8133L911.201 22.3557L909.24 21.4406L908.325 20.983L907.541 20.7215L907.41 20.6562L906.495 20.3293H906.43L905.514 20.1332C900.111 18.913 895.012 19.9807 890.218 23.3362C885.468 26.6482 882.44 31.2675 881.132 37.1942L880.871 38.3054L880.609 40.5933V44.2539L880.675 45.0383L880.74 45.3652L880.805 46.2149L880.871 46.411L881.067 47.2608L881.132 47.4569L881.328 48.3067L881.394 48.4374L881.59 49.3526L881.655 49.4833L881.982 50.3331L882.047 50.4638L882.374 51.379V51.4443L882.832 52.2941V52.3595L883.289 53.2746C886.035 58.3733 890.218 61.6199 895.84 63.0144C895.491 63.3631 895.23 63.7771 895.056 64.2564C894.838 64.7358 894.751 65.128 894.794 65.433C894.838 65.7381 895.23 65.9778 895.971 66.1521C896.712 66.3264 897.322 66.3046 897.801 66.0867C898.15 65.9124 898.302 65.4548 898.259 64.714C898.171 64.2346 898.041 63.7771 897.866 63.3413C902.965 63.9514 907.672 62.6004 911.986 59.2885C916.344 55.9329 919.133 51.4879 920.353 45.9535C921.66 40.2883 920.985 35.0153 918.327 30.1345L918.13 29.6115L917.346 28.3696L917.019 27.9773L916.823 27.5851Z" fill="#FFD02E"/>
<path d="M864.531 39.7437C868.933 43.84 871.438 48.1979 872.049 52.8172C872.354 55.2576 872.005 58.003 871.003 61.0535C869.565 65.2806 868.737 68.1786 868.519 69.7474C867.516 76.3278 868.976 83.3875 872.898 90.9266" stroke="#EBF7FA" stroke-width="2.2225" stroke-miterlimit="10"/>
<path d="M866.948 1.1113L866.36 0.849812L865.51 0.588325L865.379 0.522973L864.66 0.39227L864.595 0.326838L863.745 0.196135H863.614L862.895 0.0654315H862.83L862.111 0L859.431 0.0654315C854.637 0.544795 850.759 2.76726 847.795 6.7329C844.788 10.6985 843.568 15.2525 844.135 20.3948L844.2 21.3753L844.788 24.1207L845.115 25.0359L845.246 25.2973L845.573 26.2779L845.9 26.8662L845.965 27.1276L846.226 27.7159L846.357 27.9121L846.684 28.5657L846.815 28.6311L847.207 29.2848L847.272 29.4155L847.73 30.0691L847.795 30.1999L848.253 30.8536L848.318 30.919L848.841 31.5726H848.907L850.149 32.8146C851.892 34.427 853.853 35.6472 856.032 36.4752C858.298 37.2596 860.586 37.5647 862.895 37.3904C862.459 38.3491 862.394 39.0899 862.699 39.6129C862.83 39.8308 863.222 39.9179 863.876 39.8743C864.529 39.8307 865.009 39.6565 865.314 39.3514C865.75 38.9592 865.532 38.2183 864.66 37.1289C869.018 36.2573 872.504 33.904 875.119 30.0691C877.734 26.1907 878.801 21.811 878.322 16.9303C877.843 12.0059 875.903 7.93133 872.504 4.70652L871.197 3.52987L870.87 3.33382L870.543 3.07233C870.5 3.02875 870.369 2.94158 870.151 2.81084L869.955 2.61471L869.432 2.28787L869.236 2.22252L868.713 1.89568L867.667 1.37279C867.624 1.32921 867.427 1.24203 867.079 1.1113H866.948Z" fill="#00A0C0"/>
</g>
<ellipse cx="477.5" cy="281.5" rx="16.5" ry="11.5" fill="white"/>
<ellipse cx="458" cy="304" rx="8" ry="5" fill="white"/>
<path d="M921.07 189C951.913 134.432 889.07 76 826.147 109.86C797.738 45.6025 700.07 39 682.073 103.5C657.57 76.5 617.07 80 606.07 109.86C569.07 56.3598 483.576 144 536.576 176.5C436.573 238 512.077 336.5 626.575 302.5C644.57 369 758.57 358 785.27 296.755C812.07 336 869.07 330.5 875.57 293C931.241 310.098 978.182 216.776 921.07 189Z" fill="white"/>
<path d="M658.867 227.812L651.133 227.988L649.551 265.957L609.824 269.473L611.934 228.867L565 229.922L578.008 152.754H611.23L601.562 206.543L613.164 206.191L616.504 139.57H654.648L652.012 204.785L658.867 204.434V227.812ZM773.389 207.07C773.389 212.227 772.803 217.354 771.631 222.451C770.518 227.549 768.877 232.441 766.709 237.129C764.541 241.816 761.875 246.182 758.711 250.225C755.605 254.268 752.031 257.783 747.988 260.771C743.945 263.76 739.492 266.104 734.629 267.803C729.824 269.502 724.639 270.352 719.072 270.352C713.447 270.352 708.203 269.502 703.34 267.803C698.477 266.104 694.023 263.76 689.98 260.771C685.996 257.783 682.422 254.268 679.258 250.225C676.094 246.182 673.428 241.816 671.26 237.129C669.092 232.441 667.422 227.549 666.25 222.451C665.137 217.295 664.58 212.168 664.58 207.07C664.58 201.973 665.137 196.846 666.25 191.689C667.422 186.533 669.092 181.611 671.26 176.924C673.428 172.236 676.094 167.871 679.258 163.828C682.422 159.727 685.996 156.182 689.98 153.193C694.023 150.205 698.477 147.861 703.34 146.162C708.262 144.463 713.506 143.613 719.072 143.613C724.639 143.613 729.824 144.463 734.629 146.162C739.492 147.861 743.945 150.205 747.988 153.193C752.031 156.182 755.605 159.727 758.711 163.828C761.875 167.871 764.541 172.236 766.709 176.924C768.877 181.611 770.518 186.533 771.631 191.689C772.803 196.846 773.389 201.973 773.389 207.07ZM736.299 209.707C736.299 207.129 735.947 204.258 735.244 201.094C734.541 197.93 733.457 194.971 731.992 192.217C730.527 189.463 728.652 187.148 726.367 185.273C724.082 183.398 721.357 182.461 718.193 182.461C714.971 182.461 712.217 183.398 709.932 185.273C707.646 187.148 705.742 189.463 704.219 192.217C702.754 194.971 701.67 197.93 700.967 201.094C700.264 204.258 699.912 207.129 699.912 209.707C699.912 212.285 700.264 215.156 700.967 218.32C701.67 221.484 702.754 224.443 704.219 227.197C705.742 229.951 707.646 232.266 709.932 234.141C712.217 236.016 714.971 236.953 718.193 236.953C721.357 236.953 724.082 236.016 726.367 234.141C728.652 232.266 730.527 229.951 731.992 227.197C733.457 224.443 734.541 221.484 735.244 218.32C735.947 215.156 736.299 212.285 736.299 209.707ZM869.805 227.812L862.07 227.988L860.488 265.957L820.762 269.473L822.871 228.867L775.938 229.922L788.945 152.754H822.168L812.5 206.543L824.102 206.191L827.441 139.57H865.586L862.949 204.785L869.805 204.434V227.812Z" fill="#C5281C"/>
<defs>
<clipPath id="clip0_1516_46501">
<rect width="76" height="145.391" fill="white" transform="translate(1000 240.609)"/>
</clipPath>
<clipPath id="clip1_1516_46501">
<rect width="35" height="83" fill="white" transform="translate(327 299)"/>
</clipPath>
<clipPath id="clip2_1516_46501">
<rect width="89" height="170.261" fill="white" transform="translate(265 223.739)"/>
</clipPath>
<clipPath id="clip3_1516_46501">
<rect width="1440" height="225" fill="white" transform="translate(0 326)"/>
</clipPath>
<clipPath id="clip4_1516_46501">
<rect width="50" height="50" fill="white" transform="translate(903 320.914)"/>
</clipPath>
<clipPath id="clip5_1516_46501">
<rect width="50" height="97.561" fill="white" transform="translate(1051 294.439)"/>
</clipPath>
<clipPath id="clip6_1516_46501">
<rect width="64" height="124.878" fill="white" transform="translate(227 297.122)"/>
</clipPath>
<clipPath id="clip7_1516_46501">
<rect width="59" height="216.61" fill="white" transform="translate(1100 207)"/>
</clipPath>
<clipPath id="clip8_1516_46501">
<rect width="77" height="130.997" fill="white" transform="translate(844)"/>
</clipPath>
</defs>
</svg>
