<svg width="19" height="24" viewBox="0 0 19 24" fill="none" xmlns="http://www.w3.org/2000/svg">
<path d="M18 10C18 16.375 9.5 22.75 9.5 22.75C9.5 22.75 1 16.375 1 10C1 7.74566 1.89553 5.58365 3.48959 3.98959C5.08365 2.39553 7.24566 1.5 9.5 1.5C11.7543 1.5 13.9163 2.39553 15.5104 3.98959C17.1045 5.58365 18 7.74566 18 10Z" stroke="#602D90" stroke-width="2" stroke-linecap="round" stroke-linejoin="round"/>
<path d="M9.5 13.1876C11.2604 13.1876 12.6875 11.7605 12.6875 10.0001C12.6875 8.23971 11.2604 6.81262 9.5 6.81262C7.73959 6.81262 6.3125 8.23971 6.3125 10.0001C6.3125 11.7605 7.73959 13.1876 9.5 13.1876Z" stroke="#602D90" stroke-width="2" stroke-linecap="round" stroke-linejoin="round"/>
</svg>
