<svg width="102" height="72" viewBox="0 0 102 72" fill="none" xmlns="http://www.w3.org/2000/svg">
<path d="M28.7188 63.8968L40.4284 65.8094L33.8289 17.3064L28.7188 63.8968Z" fill="black"/>
<path d="M33.1725 10.707C32.5203 11.0087 31.8681 12.094 31.216 13.9629C28.8994 20.0465 26.1496 25.8721 22.9667 31.4398C16.8928 42.0398 9.23728 51.6907 0 60.3927L28.5879 65.0648L28.7193 63.8968L33.8295 17.3064L40.4289 65.8095L40.5895 67.0359L70.9733 72.0001C60.529 60.3196 51.9147 48.0065 45.1303 35.0607C41.6554 28.4223 38.6623 21.6282 36.151 14.6783C35.3333 12.0989 34.5157 10.7508 33.6981 10.634C33.6299 10.6145 33.5618 10.6096 33.4937 10.6194C33.3866 10.6291 33.2795 10.6583 33.1725 10.707Z" fill="#CC4227"/>
<path d="M71.5578 0.121486C71.4896 0.102019 71.4215 0.0922852 71.3534 0.0922852L33.4941 10.6193C33.5623 10.6095 33.6304 10.6144 33.6985 10.6339C34.5162 10.7507 35.3338 12.0988 36.1514 14.6782C38.6627 21.6281 41.6559 28.4222 45.1308 35.0606C51.9152 48.0064 60.5295 60.3196 70.9738 72L101.606 52.9463C94.3444 43.8453 88.1391 34.3792 82.99 24.5482C79.5151 17.9098 76.522 11.1157 74.0107 4.16584C73.193 1.58641 72.3754 0.238291 71.5578 0.121486Z" fill="#F16922"/>
<path d="M66.1559 21.0002C62.8367 21.0002 60.4033 22.3338 58.8556 25.0008C57.3177 27.6873 57.1133 30.9189 58.2424 34.6956C59.3618 38.4722 61.4886 41.6941 64.6229 44.3611C67.7571 47.0476 70.9838 48.3909 74.303 48.3909C77.6027 48.3909 80.0264 47.0476 81.5741 44.3611C83.1218 41.6941 83.3359 38.4722 82.2165 34.6956C81.0874 30.9189 78.9509 27.6873 75.8069 25.0008C72.6726 22.3338 69.4556 21.0002 66.1559 21.0002ZM67.0465 22.3873C67.1407 22.5642 67.2331 22.7394 67.324 22.9129C68.5252 25.2127 69.7516 27.4368 71.0033 29.5854L75.8945 26.8697L75.9091 26.8843C76.9214 28.6753 77.958 30.4225 79.019 32.1259C79.0482 32.1745 79.0774 32.2232 79.1066 32.2719C79.1846 32.3966 79.2625 32.5183 79.3402 32.6369L74.5366 35.3526C75.9435 37.5565 77.3987 39.732 78.9022 41.879L74.1278 44.9305C72.587 42.6907 71.0929 40.4227 69.6454 38.1267L64.1264 41.2512C64.0974 41.211 64.0681 41.1672 64.0388 41.1198C62.9779 39.4164 61.9412 37.6692 60.9289 35.8782C60.8288 35.7019 60.7266 35.5218 60.6223 35.338L66.1559 32.2719C65.1788 30.5523 64.2151 28.7856 63.265 26.9719C62.9161 26.3053 62.5705 25.6336 62.2284 24.957L67.0465 22.3873Z" fill="#C5281C"/>
<path d="M67.3227 22.9128C67.2319 22.7393 67.1394 22.5641 67.0453 22.3872L62.2272 24.9569C62.5693 25.6335 62.9149 26.3052 63.2638 26.9718C64.2139 28.7855 65.1776 30.5522 66.1547 32.2718L60.6211 35.3379C60.7254 35.5217 60.8276 35.7018 60.9277 35.8781C61.94 37.6691 62.9766 39.4163 64.0376 41.1197C64.0669 41.1671 64.0961 41.2109 64.1252 41.2511L69.6442 38.1266C71.0917 40.4226 72.5858 42.6906 74.1266 44.9305L78.901 41.8789C77.3975 39.7319 75.9423 37.5565 74.5354 35.3525L79.339 32.6368C79.2612 32.5182 79.1834 32.3965 79.1054 32.2718C79.0762 32.2231 79.047 32.1744 79.0178 32.1258C77.9568 30.4224 76.9202 28.6752 75.9079 26.8842L75.8933 26.8696L71.0021 29.5853C69.7504 27.4368 68.5239 25.2126 67.3227 22.9128Z" fill="white"/>
</svg>
