<svg width="56" height="56" viewBox="0 0 56 56" fill="none" xmlns="http://www.w3.org/2000/svg">
<rect x="1" y="1" width="54" height="54" rx="27" fill="white"/>
<path d="M38.3064 18.9227C37.6923 18.3065 36.9626 17.8176 36.1592 17.484C35.3558 17.1504 34.4944 16.9786 33.6244 16.9786C32.7545 16.9786 31.8931 17.1504 31.0897 17.484C30.2862 17.8176 29.5566 18.3065 28.9425 18.9227L28 19.8775L27.0575 18.9227C26.4434 18.3065 25.7138 17.8176 24.9103 17.484C24.1069 17.1504 23.2455 16.9786 22.3756 16.9786C21.5056 16.9786 20.6442 17.1504 19.8408 17.484C19.0374 17.8176 18.3077 18.3065 17.6936 18.9227C15.0987 21.5177 14.9396 25.8997 18.2077 29.2291L28 39.0213L37.7923 29.2291C41.0604 25.8997 40.9013 21.5177 38.3064 18.9227Z" stroke="#CC007A" stroke-width="2" stroke-linecap="round" stroke-linejoin="round"/>
<rect x="1" y="1" width="54" height="54" rx="27" stroke="#CC007A" stroke-width="2"/>
</svg>
