<svg width="93" height="75" viewBox="0 0 93 75" fill="none" xmlns="http://www.w3.org/2000/svg">
<path d="M26 0.0430298L3.64219 0.0431305C1.21406 0.0431305 0 1.1223 0 3.28063V66.5853C0 68.7436 1.21406 70.0412 3.64219 70.478L21.8339 74.0431C24.5575 74.5313 25.9193 73.6192 25.9193 71.3067L26 0.0430298Z" fill="#5F5F5F"/>
<path d="M92.8658 3.48792C92.8661 1.17542 91.7741 0.0255893 89.5897 0.0384365H24.0882C21.4016 0.0384365 20.0591 1.32316 20.0605 3.8926V70.7238C20.0598 73.0235 21.1454 74.1797 23.3173 74.1926C23.5593 74.1797 23.8162 74.1605 24.0882 74.1348L89.5897 67.178C91.774 66.9468 92.8661 65.6813 92.8658 63.3817V3.48792Z" fill="#999999"/>
<path d="M28.3663 49.7381C25.7172 49.918 24.3939 51.2862 24.3965 53.8428V65.7714C24.3939 68.328 25.7172 69.4779 28.3663 69.2209L53.4762 66.6964C55.9229 66.4523 57.1434 65.1162 57.1376 62.6881V51.3183C57.1434 48.8773 55.9229 47.7468 53.4762 47.9267L28.3663 49.7381ZM26.7283 55.635C26.7646 53.1555 28.0814 51.8194 30.6788 51.6267L51.5105 50.0657C53.9333 49.873 55.1602 50.9714 55.1913 53.361C55.1977 53.3739 55.1977 53.3996 55.1913 53.4381V60.7418C55.1966 63.1827 53.9697 64.5253 51.5105 64.7694L30.6788 66.7735C28.0329 67.0305 26.7161 65.8871 26.7283 63.3433V55.7313C26.7283 55.6928 26.7283 55.6607 26.7283 55.635ZM50.6819 56.5214V58.4485C50.6836 58.8596 50.8249 59.1937 51.1059 59.4506C51.3952 59.7076 51.7421 59.8232 52.1465 59.7975H52.1658C52.5737 59.7589 52.9205 59.5791 53.2064 59.2579C53.503 58.9496 53.6507 58.5963 53.6496 58.198V56.2709C53.6507 55.8598 53.503 55.5194 53.2064 55.2496C52.9205 54.9926 52.5737 54.8834 52.1658 54.922H52.1465C51.7421 54.9477 51.3952 55.1147 51.1059 55.423C50.8249 55.7442 50.6836 56.1103 50.6819 56.5214ZM57.1376 29.5037C57.1434 27.0756 55.9229 25.9065 53.4762 25.9964L28.3663 26.9793C25.7172 27.082 24.3939 28.4117 24.3965 30.9683V42.897C24.3939 45.4407 25.7172 46.6291 28.3663 46.4621L53.4762 44.7662C55.9229 44.5992 57.1434 43.3017 57.1376 40.8735V29.5037ZM55.1913 31.4886C55.1977 31.5015 55.1977 31.5272 55.1913 31.5657V38.8694C55.1966 41.3103 53.9697 42.6079 51.5105 42.7621L30.6788 44.111C28.0329 44.278 26.7161 43.0897 26.7283 40.5459V32.9147C26.7283 32.8761 26.7283 32.844 26.7283 32.8183C26.7646 30.3388 28.0814 29.0477 30.6788 28.9449L51.5105 28.0584C53.9333 27.9556 55.1602 29.099 55.1913 31.4886ZM52.1658 32.9532H52.1465C51.7421 32.9661 51.3952 33.1202 51.1059 33.4157C50.8249 33.724 50.6836 34.0838 50.6819 34.4949V36.422C50.6836 36.8331 50.8249 37.1735 51.1059 37.4433C51.3952 37.7131 51.7421 37.8416 52.1465 37.8287H52.1658C52.5737 37.803 52.9205 37.636 53.2064 37.3277C53.503 37.0194 53.6507 36.6661 53.6496 36.2678V34.3407C53.6507 33.9296 53.503 33.5892 53.2064 33.3194C52.9205 33.0496 52.5737 32.9275 52.1658 32.9532ZM57.1376 7.86259C57.1434 5.42162 55.9229 4.21398 53.4762 4.23967L28.3663 4.39384C25.7172 4.40669 24.3939 5.69141 24.3965 8.24801V20.1767C24.3939 22.7333 25.7172 23.9666 28.3663 23.8767L53.4762 23.0095C55.9229 22.9195 57.1434 21.6605 57.1376 19.2324V7.86259ZM55.1913 9.7704C55.1977 9.7961 55.1977 9.82822 55.1913 9.86676V17.1704C55.1966 19.5985 53.9697 20.8576 51.5105 20.9475L30.6788 21.6027C28.0329 21.6798 26.7161 20.4464 26.7283 17.9027V10.2907C26.7283 10.2522 26.7283 10.2201 26.7283 10.1944C26.7646 7.702 28.0814 6.4494 30.6788 6.43655L51.5105 6.24384C53.9333 6.21815 55.1602 7.39367 55.1913 9.7704ZM53.2064 11.5433C52.9205 11.2607 52.5737 11.1258 52.1658 11.1386H52.1465C51.7421 11.1386 51.3952 11.2864 51.1059 11.5819C50.8249 11.8773 50.6836 12.2306 50.6819 12.6418V14.5688C50.6836 14.98 50.8249 15.3204 51.1059 15.5902C51.3952 15.8728 51.7421 16.0142 52.1465 16.0142H52.1658C52.5737 16.0013 52.9205 15.8471 53.2064 15.5517C53.503 15.2562 53.6507 14.9093 53.6496 14.511V12.5839C53.6507 12.1728 53.503 11.826 53.2064 11.5433ZM89.3199 48.8324C89.3292 46.507 88.2307 45.4279 86.0246 45.5949L63.3428 47.2136C60.9464 47.3935 59.7452 48.6975 59.7392 51.1256V62.4376C59.7452 64.8657 60.9464 65.9577 63.3428 65.7136L86.0246 63.4589C88.2307 63.2277 89.3292 61.9558 89.3199 59.6433V48.8324ZM87.5663 50.7595C87.5663 50.7852 87.5663 50.8173 87.5663 50.8558V57.7933C87.5655 60.1187 86.4542 61.3905 84.2324 61.6089L65.4048 63.4204C63.0302 63.6517 61.8418 62.5596 61.8397 60.1444V52.9178C61.8397 52.8793 61.8397 52.8471 61.8397 52.8214C61.8782 50.4576 63.0666 49.1921 65.4048 49.0251L84.2324 47.6183C86.4179 47.4513 87.5291 48.4984 87.5663 50.7595ZM84.8298 52.2433H84.8106C84.4411 52.269 84.12 52.4296 83.847 52.7251C83.5975 53.0206 83.469 53.361 83.4616 53.7464V55.5964C83.469 55.969 83.5975 56.2838 83.847 56.5407C84.12 56.7977 84.4411 56.9069 84.8106 56.8683H84.8298C85.1992 56.8298 85.5075 56.6628 85.7548 56.3673C86.0296 56.0718 86.1645 55.7378 86.1595 55.3652V53.5152C86.1645 53.1298 86.0296 52.815 85.7548 52.5709C85.5075 52.314 85.1992 52.2048 84.8298 52.2433ZM89.3199 28.0777C89.3292 25.7652 88.2307 24.6539 86.0246 24.7438L63.3428 25.611C60.9464 25.701 59.7452 26.96 59.7392 29.3881V40.7194C59.7452 43.1346 60.9464 44.2652 63.3428 44.111L86.0246 42.5886C88.2307 42.4345 89.3292 41.2011 89.3199 38.8886V28.0777ZM87.5663 29.947C87.5663 29.9727 87.5663 30.0048 87.5663 30.0433V36.9808C87.5655 39.3062 86.4542 40.5395 84.2324 40.6808L65.4048 41.8756C63.0302 42.0298 61.8418 40.8992 61.8397 38.4839V31.2574C61.8397 31.2188 61.8397 31.1867 61.8397 31.161C61.8782 28.81 63.0666 27.5831 65.4048 27.4803L84.2324 26.6902C86.4179 26.6003 87.5291 27.6859 87.5663 29.947ZM84.8106 31.3345C84.4411 31.3473 84.12 31.5015 83.847 31.797C83.5975 32.0796 83.469 32.4136 83.4616 32.799V34.6491C83.469 35.0345 83.5975 35.3556 83.847 35.6126C84.12 35.8695 84.4411 35.9916 84.8106 35.9787H84.8298C85.1992 35.953 85.5075 35.7925 85.7548 35.497C86.0296 35.2143 86.1645 34.8803 86.1595 34.4949V32.6642C86.1645 32.2787 86.0296 31.9576 85.7548 31.7006C85.5075 31.4437 85.1992 31.3216 84.8298 31.3345H84.8106ZM89.3199 7.47717C89.3292 5.16467 88.2307 4.01485 86.0246 4.02769L63.3428 4.18186C60.9464 4.19471 59.7452 5.40877 59.7392 7.82405V19.1553C59.7452 21.5834 60.9464 22.7525 63.3428 22.6626L86.0246 21.8918C88.2307 21.8147 89.3292 20.6199 89.3199 18.3074V7.47717ZM84.2324 5.93551C86.4179 5.90981 87.5291 7.02752 87.5663 9.28863C87.5663 9.31433 87.5663 9.34644 87.5663 9.38499V16.3418C87.5655 18.6543 86.4542 19.849 84.2324 19.9261L65.4048 20.5043C63.0302 20.5813 61.8418 19.4122 61.8397 16.997V9.7704C61.8397 9.73186 61.8397 9.69974 61.8397 9.67405C61.8782 7.31016 63.0666 6.12179 65.4048 6.10894L84.2324 5.93551ZM84.8106 10.599C84.4411 10.599 84.12 10.7404 83.847 11.023C83.5975 11.3056 83.469 11.6397 83.4616 12.0251V13.8558C83.469 14.2412 83.5975 14.5688 83.847 14.8386C84.12 15.1084 84.4411 15.2369 84.8106 15.224H84.8298C85.1992 15.2112 85.5075 15.0635 85.7548 14.7808C86.0296 14.511 86.1645 14.1834 86.1595 13.798V11.9673C86.1645 11.5819 86.0296 11.2543 85.7548 10.9845C85.5075 10.7147 85.1992 10.5862 84.8298 10.599H84.8106Z" fill="#5F5F5F"/>
</svg>
