<svg xmlns="http://www.w3.org/2000/svg" width="70" height="49" viewBox="0 0 70 49" fill="none">
    <path fill-rule="evenodd" clip-rule="evenodd"
        d="M0 43.2026C0 46.3358 2.60805 48.8796 5.71446 48.4711C10.9302 47.7854 15.3269 46.4216 18.7887 44.4375C26.6997 39.6563 30.6552 32.0625 30.6552 21.6563V15.3276C30.6552 6.86242 23.7928 0 15.3276 0H12.3047C5.509 0 0 5.509 0 12.3047V18.6055C0 21.9213 2.68804 24.6094 6.00391 24.6094H10.3203C11.2523 24.6094 12.0078 25.3649 12.0078 26.2969C12.0078 31.6928 9.58228 35.364 4.66337 37.2431C2.08603 38.2276 0 40.4436 0 43.2026ZM39.3448 43.2026C39.3448 46.3358 41.9528 48.8796 45.0592 48.4711C50.275 47.7854 54.6716 46.4216 58.1335 44.4375C66.0445 39.6563 70 32.0625 70 21.6563V15.3276C70 6.86242 63.1376 0 54.6724 0H51.6494C44.8538 0 39.3448 5.509 39.3448 12.3047V18.6055C39.3448 21.9213 42.0328 24.6094 45.3487 24.6094H49.6651C50.5971 24.6094 51.3526 25.3649 51.3526 26.2969C51.3526 31.6928 48.927 35.364 44.0081 37.2431C41.4308 38.2276 39.3448 40.4436 39.3448 43.2026Z"
        fill="#EAF4DC" />
</svg>