<svg width="253" height="88" viewBox="0 0 253 88" fill="none" xmlns="http://www.w3.org/2000/svg">
<g clip-path="url(#clip0_28_283)">
<path d="M114.249 19.3157V21.9101H116.636V19.3215C116.633 19.0068 116.505 18.7061 116.282 18.4847C116.059 18.2633 115.757 18.1391 115.442 18.1391C115.126 18.1391 114.822 18.2649 114.599 18.4888C114.375 18.7127 114.249 19.0163 114.249 19.333V19.3157Z" fill="white"/>
<path d="M118.248 21.9043H121.725L119.958 17.347L118.248 21.9043Z" fill="white"/>
<path d="M126.113 15.1315C125.764 15.1315 125.418 15.2004 125.095 15.3343C124.773 15.4682 124.48 15.6645 124.233 15.9119C123.986 16.1592 123.791 16.4529 123.658 16.776C123.524 17.099 123.456 17.4452 123.457 17.7947V21.9101H128.775V17.7947C128.775 17.445 128.706 17.0986 128.572 16.7755C128.439 16.4524 128.243 16.1588 127.995 15.9115C127.748 15.6642 127.455 15.468 127.132 15.3342C126.809 15.2004 126.463 15.1315 126.113 15.1315Z" fill="white"/>
<path d="M132.137 17.347L130.364 21.9043H133.847L132.137 17.347Z" fill="white"/>
<path d="M135.458 19.3157V21.9043H137.845V19.3157C137.841 19.0021 137.713 18.7028 137.49 18.4827C137.266 18.2625 136.965 18.1391 136.652 18.1391C136.335 18.1391 136.032 18.2649 135.808 18.4888C135.584 18.7127 135.458 19.0163 135.458 19.333V19.3157Z" fill="white"/>
<path d="M126.033 24.6364C125.732 24.623 125.431 24.6716 125.15 24.7793C124.868 24.887 124.612 25.0515 124.397 25.2625C124.181 25.4735 124.012 25.7266 123.899 26.0059C123.785 26.2853 123.731 26.585 123.738 26.8864C123.738 27.0995 123.823 27.3039 123.973 27.4546C124.124 27.6053 124.328 27.69 124.541 27.69H127.582C127.795 27.69 128 27.6055 128.152 27.4549C128.303 27.3044 128.389 27.1 128.391 26.8864C128.398 26.5819 128.343 26.2792 128.227 25.9974C128.112 25.7156 127.939 25.4608 127.72 25.2493C127.501 25.0377 127.241 24.874 126.955 24.7685C126.67 24.663 126.365 24.618 126.061 24.6364H126.033Z" fill="white"/>
<path d="M130.479 28.1663H134.495V24.1485H130.479V28.1663ZM130.651 24.3322H134.311V27.9999H130.651V24.3322Z" fill="white"/>
<path d="M117.554 28.1663H121.57V24.1485H117.554V28.1663ZM117.726 24.3322H121.386V27.9999H117.726V24.3322Z" fill="white"/>
<path d="M139.262 24.6135H136.588C136.56 24.6135 136.532 24.6192 136.506 24.6302C136.48 24.6412 136.456 24.6574 136.436 24.6777C136.416 24.698 136.401 24.7221 136.391 24.7486C136.38 24.775 136.375 24.8032 136.376 24.8316V27.5006C136.375 27.5289 136.38 27.5572 136.391 27.5836C136.401 27.61 136.416 27.6341 136.436 27.6544C136.456 27.6748 136.48 27.6909 136.506 27.702C136.532 27.713 136.56 27.7187 136.588 27.7187H139.262C139.319 27.7172 139.373 27.6935 139.412 27.6528C139.452 27.612 139.474 27.5574 139.474 27.5006V24.8316C139.474 24.7747 139.452 24.7201 139.412 24.6794C139.373 24.6386 139.319 24.615 139.262 24.6135Z" fill="white"/>
<path d="M139.262 24.1485H136.588C136.407 24.1485 136.234 24.2205 136.106 24.3486C135.978 24.4767 135.906 24.6504 135.906 24.8316V27.5005C135.906 27.6817 135.978 27.8554 136.106 27.9835C136.234 28.1116 136.407 28.1835 136.588 28.1835H139.262C139.443 28.1835 139.616 28.1116 139.745 27.9835C139.873 27.8554 139.944 27.6817 139.944 27.5005V24.8316C139.944 24.6504 139.873 24.4767 139.745 24.3486C139.616 24.2205 139.443 24.1485 139.262 24.1485ZM139.772 27.5005C139.773 27.5681 139.76 27.6351 139.735 27.6978C139.71 27.7604 139.672 27.8174 139.625 27.8654C139.577 27.9135 139.521 27.9516 139.459 27.9777C139.396 28.0037 139.329 28.0171 139.262 28.0171H136.588C136.521 28.0171 136.454 28.0037 136.392 27.9777C136.329 27.9516 136.273 27.9135 136.225 27.8654C136.178 27.8174 136.14 27.7604 136.115 27.6978C136.09 27.6351 136.077 27.5681 136.078 27.5005V24.8316C136.077 24.764 136.09 24.6969 136.115 24.6343C136.14 24.5717 136.178 24.5147 136.225 24.4666C136.273 24.4186 136.329 24.3804 136.392 24.3544C136.454 24.3284 136.521 24.315 136.588 24.315H139.262C139.329 24.315 139.396 24.3284 139.459 24.3544C139.521 24.3804 139.577 24.4186 139.625 24.4666C139.672 24.5147 139.71 24.5717 139.735 24.6343C139.76 24.6969 139.773 24.764 139.772 24.8316V27.5005Z" fill="white"/>
<path d="M115.19 24.6135H112.523C112.465 24.6135 112.409 24.6365 112.369 24.6774C112.328 24.7183 112.305 24.7738 112.305 24.8316V27.5006C112.305 27.5584 112.328 27.6139 112.369 27.6548C112.409 27.6957 112.465 27.7187 112.523 27.7187H115.19C115.248 27.7187 115.304 27.6957 115.344 27.6548C115.385 27.6139 115.408 27.5584 115.408 27.5006V24.8316C115.408 24.7738 115.385 24.7183 115.344 24.6774C115.304 24.6365 115.248 24.6135 115.19 24.6135Z" fill="white"/>
<path d="M115.19 24.1485H112.523C112.347 24.1559 112.18 24.2312 112.058 24.3585C111.936 24.4858 111.868 24.6553 111.869 24.8316V27.5005C111.869 27.6817 111.941 27.8554 112.069 27.9835C112.197 28.1116 112.37 28.1835 112.551 28.1835H115.219C115.397 28.179 115.566 28.1051 115.691 27.9775C115.815 27.8499 115.884 27.6787 115.884 27.5005V24.8316C115.884 24.6504 115.813 24.4767 115.684 24.3486C115.556 24.2205 115.383 24.1485 115.202 24.1485H115.19ZM115.707 27.5005C115.707 27.5683 115.693 27.6355 115.667 27.6982C115.641 27.7609 115.603 27.8178 115.555 27.8658C115.507 27.9138 115.451 27.9518 115.388 27.9778C115.325 28.0037 115.258 28.0171 115.19 28.0171H112.523C112.386 28.0171 112.254 27.9627 112.158 27.8658C112.061 27.7689 112.006 27.6375 112.006 27.5005V24.8316C112.006 24.6945 112.061 24.5632 112.158 24.4663C112.254 24.3694 112.386 24.315 112.523 24.315H115.19C115.327 24.315 115.459 24.3694 115.555 24.4663C115.652 24.5632 115.707 24.6945 115.707 24.8316V27.5005Z" fill="white"/>
<path d="M126.033 24.1715C125.667 24.1507 125.301 24.206 124.958 24.3341C124.615 24.4621 124.302 24.6599 124.04 24.9151C123.777 25.1703 123.57 25.4773 123.433 25.8166C123.295 26.1559 123.229 26.5202 123.239 26.8864C123.24 27.2199 123.372 27.5397 123.605 27.7777C123.839 28.0157 124.156 28.1531 124.489 28.1606H127.53C127.868 28.1606 128.192 28.0263 128.431 27.7874C128.669 27.5484 128.804 27.2243 128.804 26.8864C128.815 26.52 128.749 26.1553 128.612 25.8156C128.474 25.4759 128.267 25.1685 128.004 24.9132C127.742 24.6578 127.429 24.4599 127.085 24.3323C126.742 24.2046 126.375 24.1498 126.01 24.1715H126.033ZM127.553 27.9941H124.489C124.196 27.9926 123.916 27.8754 123.708 27.668C123.501 27.4606 123.384 27.1797 123.382 26.8864C123.373 26.5423 123.435 26.2 123.565 25.8813C123.695 25.5625 123.889 25.2742 124.136 25.0346C124.383 24.795 124.677 24.6094 125 24.4895C125.322 24.3695 125.666 24.3179 126.01 24.3379C126.353 24.3179 126.697 24.3695 127.019 24.4895C127.342 24.6094 127.636 24.795 127.883 25.0346C128.13 25.2742 128.325 25.5625 128.454 25.8813C128.584 26.2 128.647 26.5423 128.637 26.8864C128.637 27.1802 128.521 27.4619 128.313 27.6697C128.105 27.8774 127.824 27.9941 127.53 27.9941H127.553Z" fill="white"/>
<path d="M140.713 28.9354C140.677 28.9346 140.641 28.9412 140.607 28.9548C140.573 28.9684 140.543 28.9886 140.517 29.0144C140.491 29.0401 140.471 29.0708 140.457 29.1046C140.444 29.1384 140.437 29.1745 140.438 29.2109C140.438 29.2469 140.445 29.2824 140.459 29.3155C140.473 29.3486 140.493 29.3786 140.519 29.4038C140.545 29.4289 140.575 29.4486 140.608 29.4618C140.642 29.4751 140.678 29.4815 140.713 29.4807C140.785 29.4807 140.854 29.4523 140.904 29.4017C140.955 29.3511 140.983 29.2825 140.983 29.2109C140.984 29.175 140.977 29.1393 140.964 29.1059C140.951 29.0725 140.931 29.0421 140.906 29.0165C140.881 28.9908 140.851 28.9704 140.818 28.9565C140.785 28.9426 140.749 28.9354 140.713 28.9354Z" fill="white"/>
<path d="M139.87 28.9354C139.834 28.9354 139.798 28.9426 139.765 28.9565C139.732 28.9704 139.702 28.9908 139.677 29.0165C139.652 29.0421 139.632 29.0725 139.619 29.1059C139.606 29.1393 139.599 29.175 139.6 29.2109C139.6 29.2825 139.629 29.3511 139.679 29.4017C139.73 29.4523 139.798 29.4807 139.87 29.4807C139.906 29.4815 139.941 29.4751 139.975 29.4618C140.008 29.4486 140.039 29.4289 140.064 29.4038C140.09 29.3786 140.11 29.3486 140.124 29.3155C140.138 29.2824 140.145 29.2469 140.145 29.2109C140.146 29.1745 140.139 29.1384 140.126 29.1046C140.112 29.0708 140.092 29.0401 140.066 29.0144C140.041 28.9886 140.01 28.9684 139.976 28.9548C139.942 28.9412 139.906 28.9346 139.87 28.9354Z" fill="white"/>
<path d="M139.032 28.9354C138.996 28.9354 138.961 28.9426 138.928 28.9565C138.895 28.9704 138.865 28.9908 138.84 29.0165C138.815 29.0421 138.795 29.0725 138.782 29.1059C138.768 29.1393 138.762 29.175 138.763 29.2109C138.763 29.2825 138.791 29.3511 138.842 29.4017C138.892 29.4523 138.961 29.4807 139.032 29.4807C139.068 29.4815 139.104 29.4751 139.137 29.4618C139.171 29.4486 139.201 29.4289 139.227 29.4038C139.252 29.3786 139.273 29.3486 139.287 29.3155C139.301 29.2824 139.308 29.2469 139.308 29.2109C139.309 29.1745 139.302 29.1384 139.288 29.1046C139.275 29.0708 139.255 29.0401 139.229 29.0144C139.203 28.9886 139.172 28.9684 139.139 28.9548C139.105 28.9412 139.069 28.9346 139.032 28.9354Z" fill="white"/>
<path d="M138.195 28.9354C138.122 28.9354 138.052 28.9645 138 29.0161C137.948 29.0678 137.919 29.1379 137.919 29.2109C137.921 29.283 137.951 29.3516 138.002 29.402C138.054 29.4525 138.123 29.4807 138.195 29.4807C138.267 29.4807 138.336 29.4525 138.388 29.402C138.439 29.3516 138.469 29.283 138.47 29.2109C138.47 29.1379 138.441 29.0678 138.39 29.0161C138.338 28.9645 138.268 28.9354 138.195 28.9354Z" fill="white"/>
<path d="M137.357 28.9354C137.321 28.9346 137.285 28.9412 137.251 28.9548C137.217 28.9684 137.187 28.9886 137.161 29.0144C137.135 29.0401 137.115 29.0708 137.101 29.1046C137.088 29.1384 137.081 29.1745 137.082 29.2109C137.082 29.2469 137.089 29.2824 137.103 29.3155C137.117 29.3486 137.137 29.3786 137.163 29.4038C137.189 29.4289 137.219 29.4486 137.253 29.4618C137.286 29.4751 137.322 29.4815 137.357 29.4807C137.429 29.4807 137.498 29.4523 137.548 29.4017C137.599 29.3511 137.627 29.2825 137.627 29.2109C137.628 29.175 137.621 29.1393 137.608 29.1059C137.595 29.0725 137.575 29.0421 137.55 29.0165C137.525 28.9908 137.495 28.9704 137.462 28.9565C137.429 28.9426 137.393 28.9354 137.357 28.9354Z" fill="white"/>
<path d="M136.537 28.9354C136.501 28.9354 136.465 28.9426 136.432 28.9565C136.399 28.9704 136.369 28.9908 136.344 29.0165C136.319 29.0421 136.299 29.0725 136.286 29.1059C136.273 29.1393 136.266 29.175 136.267 29.2109C136.267 29.2825 136.296 29.3511 136.346 29.4017C136.397 29.4523 136.465 29.4807 136.537 29.4807C136.573 29.4815 136.608 29.4751 136.642 29.4618C136.675 29.4486 136.705 29.4289 136.731 29.4038C136.757 29.3786 136.777 29.3486 136.791 29.3155C136.805 29.2824 136.812 29.2469 136.812 29.2109C136.813 29.1745 136.806 29.1384 136.793 29.1046C136.779 29.0708 136.759 29.0401 136.733 29.0144C136.707 28.9886 136.677 28.9684 136.643 28.9548C136.609 28.9412 136.573 28.9346 136.537 28.9354Z" fill="white"/>
<path d="M135.676 28.9354C135.603 28.9354 135.533 28.9645 135.482 29.0161C135.43 29.0678 135.401 29.1379 135.401 29.2109C135.402 29.283 135.432 29.3516 135.484 29.402C135.535 29.4525 135.604 29.4807 135.676 29.4807C135.748 29.4807 135.818 29.4525 135.869 29.402C135.92 29.3516 135.95 29.283 135.952 29.2109C135.952 29.1379 135.923 29.0678 135.871 29.0161C135.819 28.9645 135.749 28.9354 135.676 28.9354Z" fill="white"/>
<path d="M134.816 28.9354C134.78 28.9346 134.743 28.9412 134.71 28.9548C134.676 28.9684 134.645 28.9886 134.619 29.0144C134.594 29.0401 134.574 29.0708 134.56 29.1046C134.546 29.1384 134.54 29.1745 134.541 29.2109C134.541 29.2469 134.548 29.2824 134.562 29.3155C134.576 29.3486 134.596 29.3786 134.622 29.4038C134.647 29.4289 134.678 29.4486 134.711 29.4618C134.744 29.4751 134.78 29.4815 134.816 29.4807C134.887 29.4807 134.956 29.4523 135.007 29.4017C135.057 29.3511 135.086 29.2825 135.086 29.2109C135.086 29.175 135.08 29.1393 135.067 29.1059C135.054 29.0725 135.034 29.0421 135.009 29.0165C134.984 28.9908 134.954 28.9704 134.92 28.9565C134.887 28.9426 134.852 28.9354 134.816 28.9354Z" fill="white"/>
<path d="M133.996 28.9354C133.96 28.9354 133.924 28.9426 133.891 28.9565C133.858 28.9704 133.828 28.9908 133.803 29.0165C133.778 29.0421 133.758 29.0725 133.745 29.1059C133.732 29.1393 133.725 29.175 133.726 29.2109C133.726 29.2825 133.755 29.3511 133.805 29.4017C133.856 29.4523 133.924 29.4807 133.996 29.4807C134.032 29.4815 134.067 29.4751 134.101 29.4618C134.134 29.4486 134.164 29.4289 134.19 29.4038C134.216 29.3786 134.236 29.3486 134.25 29.3155C134.264 29.2824 134.271 29.2469 134.271 29.2109C134.272 29.1745 134.265 29.1384 134.252 29.1046C134.238 29.0708 134.218 29.0401 134.192 29.0144C134.166 28.9886 134.136 28.9684 134.102 28.9548C134.068 28.9412 134.032 28.9346 133.996 28.9354Z" fill="white"/>
<path d="M133.158 28.9354C133.122 28.9354 133.086 28.9426 133.053 28.9565C133.02 28.9704 132.99 28.9908 132.965 29.0165C132.94 29.0421 132.92 29.0725 132.907 29.1059C132.894 29.1393 132.887 29.175 132.888 29.2109C132.888 29.2825 132.917 29.3511 132.967 29.4017C133.018 29.4523 133.086 29.4807 133.158 29.4807C133.194 29.4815 133.229 29.4751 133.263 29.4618C133.296 29.4486 133.327 29.4289 133.352 29.4038C133.378 29.3786 133.398 29.3486 133.412 29.3155C133.426 29.2824 133.433 29.2469 133.433 29.2109C133.434 29.1745 133.427 29.1384 133.414 29.1046C133.4 29.0708 133.38 29.0401 133.354 29.0144C133.329 28.9886 133.298 28.9684 133.264 28.9548C133.23 28.9412 133.194 28.9346 133.158 28.9354Z" fill="white"/>
<path d="M132.32 28.9354C132.247 28.9354 132.177 28.9645 132.126 29.0161C132.074 29.0678 132.045 29.1379 132.045 29.2109C132.046 29.283 132.076 29.3516 132.128 29.402C132.179 29.4525 132.248 29.4807 132.32 29.4807C132.392 29.4807 132.462 29.4525 132.513 29.402C132.564 29.3516 132.594 29.283 132.596 29.2109C132.596 29.1379 132.567 29.0678 132.515 29.0161C132.463 28.9645 132.393 28.9354 132.32 28.9354Z" fill="white"/>
<path d="M131.483 28.9354C131.447 28.9346 131.41 28.9412 131.377 28.9548C131.343 28.9684 131.312 28.9886 131.286 29.0144C131.261 29.0401 131.241 29.0708 131.227 29.1046C131.213 29.1384 131.207 29.1745 131.208 29.2109C131.208 29.2469 131.215 29.2824 131.229 29.3155C131.243 29.3486 131.263 29.3786 131.289 29.4038C131.314 29.4289 131.345 29.4486 131.378 29.4618C131.411 29.4751 131.447 29.4815 131.483 29.4807C131.554 29.4807 131.623 29.4523 131.674 29.4017C131.724 29.3511 131.753 29.2825 131.753 29.2109C131.753 29.175 131.747 29.1393 131.734 29.1059C131.721 29.0725 131.701 29.0421 131.676 29.0165C131.651 28.9908 131.621 28.9704 131.587 28.9565C131.554 28.9426 131.519 28.9354 131.483 28.9354Z" fill="white"/>
<path d="M130.639 28.9354C130.603 28.9354 130.568 28.9426 130.535 28.9565C130.502 28.9704 130.472 28.9908 130.447 29.0165C130.421 29.0421 130.402 29.0725 130.389 29.1059C130.375 29.1393 130.369 29.175 130.37 29.2109C130.37 29.2825 130.398 29.3511 130.449 29.4017C130.499 29.4523 130.568 29.4807 130.639 29.4807C130.675 29.4815 130.711 29.4751 130.744 29.4618C130.778 29.4486 130.808 29.4289 130.834 29.4038C130.859 29.3786 130.88 29.3486 130.894 29.3155C130.908 29.2824 130.915 29.2469 130.915 29.2109C130.915 29.1745 130.909 29.1384 130.895 29.1046C130.882 29.0708 130.861 29.0401 130.836 29.0144C130.81 28.9886 130.779 28.9684 130.746 28.9548C130.712 28.9412 130.676 28.9346 130.639 28.9354Z" fill="white"/>
<path d="M129.802 28.9354C129.729 28.9354 129.659 28.9645 129.607 29.0161C129.555 29.0678 129.526 29.1379 129.526 29.2109C129.528 29.283 129.558 29.3516 129.609 29.402C129.661 29.4525 129.73 29.4807 129.802 29.4807C129.874 29.4807 129.943 29.4525 129.994 29.402C130.046 29.3516 130.076 29.283 130.077 29.2109C130.077 29.1379 130.048 29.0678 129.996 29.0161C129.945 28.9645 129.875 28.9354 129.802 28.9354Z" fill="white"/>
<path d="M128.964 28.9354C128.891 28.9354 128.821 28.9645 128.77 29.0161C128.718 29.0678 128.689 29.1379 128.689 29.2109C128.69 29.283 128.72 29.3516 128.772 29.402C128.823 29.4525 128.892 29.4807 128.964 29.4807C129.036 29.4807 129.106 29.4525 129.157 29.402C129.209 29.3516 129.238 29.283 129.24 29.2109C129.24 29.1379 129.211 29.0678 129.159 29.0161C129.107 28.9645 129.037 28.9354 128.964 28.9354Z" fill="white"/>
<path d="M128.126 28.9354C128.09 28.9346 128.054 28.9412 128.02 28.9548C127.986 28.9684 127.956 28.9886 127.93 29.0144C127.904 29.0401 127.884 29.0708 127.871 29.1046C127.857 29.1384 127.85 29.1745 127.851 29.2109C127.851 29.2469 127.858 29.2824 127.872 29.3155C127.886 29.3486 127.906 29.3786 127.932 29.4038C127.958 29.4289 127.988 29.4486 128.022 29.4618C128.055 29.4751 128.091 29.4815 128.126 29.4807C128.198 29.4807 128.267 29.4523 128.317 29.4017C128.368 29.3511 128.396 29.2825 128.396 29.2109C128.397 29.175 128.39 29.1393 128.377 29.1059C128.364 29.0725 128.344 29.0421 128.319 29.0165C128.294 28.9908 128.264 28.9704 128.231 28.9565C128.198 28.9426 128.162 28.9354 128.126 28.9354Z" fill="white"/>
<path d="M127.283 28.9354C127.247 28.9354 127.212 28.9426 127.179 28.9565C127.146 28.9704 127.116 28.9908 127.091 29.0165C127.066 29.0421 127.046 29.0725 127.033 29.1059C127.019 29.1393 127.013 29.175 127.014 29.2109C127.014 29.2825 127.042 29.3511 127.093 29.4017C127.143 29.4523 127.212 29.4807 127.283 29.4807C127.319 29.4815 127.355 29.4751 127.388 29.4618C127.422 29.4486 127.452 29.4289 127.478 29.4038C127.503 29.3786 127.524 29.3486 127.538 29.3155C127.552 29.2824 127.559 29.2469 127.559 29.2109C127.559 29.1745 127.553 29.1384 127.539 29.1046C127.526 29.0708 127.506 29.0401 127.48 29.0144C127.454 28.9886 127.423 28.9684 127.39 28.9548C127.356 28.9412 127.32 28.9346 127.283 28.9354Z" fill="white"/>
<path d="M126.446 28.9354C126.373 28.9354 126.303 28.9645 126.251 29.0161C126.199 29.0678 126.17 29.1379 126.17 29.2109C126.172 29.283 126.202 29.3516 126.253 29.402C126.305 29.4525 126.374 29.4807 126.446 29.4807C126.518 29.4807 126.587 29.4525 126.639 29.402C126.69 29.3516 126.72 29.283 126.721 29.2109C126.721 29.1379 126.692 29.0678 126.641 29.0161C126.589 28.9645 126.519 28.9354 126.446 28.9354Z" fill="white"/>
<path d="M125.637 28.9354C125.6 28.9346 125.564 28.9412 125.53 28.9548C125.497 28.9684 125.466 28.9886 125.44 29.0144C125.415 29.0401 125.394 29.0708 125.381 29.1046C125.367 29.1384 125.361 29.1745 125.361 29.2109C125.361 29.2469 125.369 29.2824 125.382 29.3155C125.396 29.3486 125.417 29.3786 125.442 29.4038C125.468 29.4289 125.498 29.4486 125.532 29.4618C125.565 29.4751 125.601 29.4815 125.637 29.4807C125.708 29.4807 125.777 29.4523 125.827 29.4017C125.878 29.3511 125.906 29.2825 125.906 29.2109C125.907 29.175 125.901 29.1393 125.888 29.1059C125.874 29.0725 125.855 29.0421 125.829 29.0165C125.804 28.9908 125.774 28.9704 125.741 28.9565C125.708 28.9426 125.673 28.9354 125.637 28.9354Z" fill="white"/>
<path d="M124.765 28.9354C124.729 28.9354 124.693 28.9426 124.66 28.9565C124.627 28.9704 124.597 28.9908 124.572 29.0165C124.547 29.0421 124.527 29.0725 124.514 29.1059C124.501 29.1393 124.494 29.175 124.495 29.2109C124.495 29.2825 124.524 29.3511 124.574 29.4017C124.625 29.4523 124.693 29.4807 124.765 29.4807C124.801 29.4815 124.836 29.4751 124.87 29.4618C124.903 29.4486 124.934 29.4289 124.959 29.4038C124.985 29.3786 125.005 29.3486 125.019 29.3155C125.033 29.2824 125.04 29.2469 125.04 29.2109C125.041 29.1745 125.034 29.1384 125.021 29.1046C125.007 29.0708 124.987 29.0401 124.961 29.0144C124.936 28.9886 124.905 28.9684 124.871 28.9548C124.837 28.9412 124.801 28.9346 124.765 28.9354Z" fill="white"/>
<path d="M123.916 28.9354C123.843 28.9354 123.773 28.9645 123.721 29.0161C123.67 29.0678 123.641 29.1379 123.641 29.2109C123.642 29.283 123.672 29.3516 123.723 29.402C123.775 29.4525 123.844 29.4807 123.916 29.4807C123.952 29.4815 123.988 29.475 124.021 29.4618C124.054 29.4486 124.085 29.4289 124.11 29.4037C124.136 29.3786 124.156 29.3486 124.17 29.3155C124.184 29.2824 124.191 29.2468 124.191 29.2109C124.191 29.1379 124.162 29.0678 124.111 29.0161C124.059 28.9645 123.989 28.9354 123.916 28.9354Z" fill="white"/>
<path d="M123.09 28.9354C123.017 28.9354 122.947 28.9645 122.895 29.0161C122.843 29.0678 122.814 29.1379 122.814 29.2109C122.816 29.283 122.846 29.3516 122.897 29.402C122.949 29.4525 123.018 29.4807 123.09 29.4807C123.162 29.4807 123.231 29.4525 123.283 29.402C123.334 29.3516 123.364 29.283 123.365 29.2109C123.365 29.1379 123.336 29.0678 123.285 29.0161C123.233 28.9645 123.163 28.9354 123.09 28.9354Z" fill="white"/>
<path d="M122.252 28.9354C122.216 28.9346 122.179 28.9412 122.146 28.9548C122.112 28.9684 122.081 28.9886 122.056 29.0144C122.03 29.0401 122.01 29.0708 121.996 29.1046C121.982 29.1384 121.976 29.1745 121.977 29.2109C121.977 29.2469 121.984 29.2824 121.998 29.3155C122.012 29.3486 122.032 29.3786 122.058 29.4038C122.083 29.4289 122.114 29.4486 122.147 29.4618C122.18 29.4751 122.216 29.4815 122.252 29.4807C122.323 29.4807 122.392 29.4523 122.443 29.4017C122.493 29.3511 122.522 29.2825 122.522 29.2109C122.522 29.175 122.516 29.1393 122.503 29.1059C122.49 29.0725 122.47 29.0421 122.445 29.0165C122.42 28.9908 122.39 28.9704 122.357 28.9565C122.323 28.9426 122.288 28.9354 122.252 28.9354Z" fill="white"/>
<path d="M121.409 28.9354C121.373 28.9354 121.337 28.9426 121.304 28.9565C121.271 28.9704 121.241 28.9908 121.216 29.0165C121.191 29.0421 121.171 29.0725 121.158 29.1059C121.145 29.1393 121.138 29.175 121.139 29.2109C121.139 29.2825 121.168 29.3511 121.218 29.4017C121.269 29.4523 121.337 29.4807 121.409 29.4807C121.445 29.4815 121.48 29.4751 121.514 29.4618C121.547 29.4486 121.578 29.4289 121.603 29.4038C121.629 29.3786 121.649 29.3486 121.663 29.3155C121.677 29.2824 121.684 29.2469 121.684 29.2109C121.685 29.1745 121.678 29.1384 121.665 29.1046C121.651 29.0708 121.631 29.0401 121.605 29.0144C121.58 28.9886 121.549 28.9684 121.515 28.9548C121.481 28.9412 121.445 28.9346 121.409 28.9354Z" fill="white"/>
<path d="M120.571 28.9354C120.498 28.9354 120.428 28.9645 120.377 29.0161C120.325 29.0678 120.296 29.1379 120.296 29.2109C120.297 29.283 120.327 29.3516 120.379 29.402C120.43 29.4525 120.499 29.4807 120.571 29.4807C120.643 29.4807 120.713 29.4525 120.764 29.402C120.815 29.3516 120.845 29.283 120.847 29.2109C120.847 29.1379 120.818 29.0678 120.766 29.0161C120.714 28.9645 120.644 28.9354 120.571 28.9354Z" fill="white"/>
<path d="M119.734 28.9354C119.661 28.9354 119.591 28.9645 119.539 29.0161C119.488 29.0678 119.458 29.1379 119.458 29.2109C119.46 29.283 119.49 29.3516 119.541 29.402C119.593 29.4525 119.662 29.4807 119.734 29.4807C119.805 29.4807 119.874 29.4523 119.925 29.4017C119.975 29.3511 120.003 29.2825 120.003 29.2109C120.004 29.175 119.998 29.1393 119.985 29.1059C119.971 29.0725 119.952 29.0421 119.927 29.0165C119.901 28.9908 119.871 28.9704 119.838 28.9565C119.805 28.9426 119.77 28.9354 119.734 28.9354Z" fill="white"/>
<path d="M118.89 28.9354C118.854 28.9354 118.819 28.9426 118.786 28.9565C118.753 28.9704 118.723 28.9908 118.698 29.0165C118.672 29.0421 118.653 29.0725 118.64 29.1059C118.626 29.1393 118.62 29.175 118.621 29.2109C118.621 29.2825 118.649 29.3511 118.7 29.4017C118.75 29.4523 118.819 29.4807 118.89 29.4807C118.926 29.4815 118.962 29.4751 118.995 29.4618C119.029 29.4486 119.059 29.4289 119.085 29.4038C119.11 29.3786 119.131 29.3486 119.145 29.3155C119.158 29.2824 119.166 29.2469 119.166 29.2109C119.166 29.1745 119.16 29.1384 119.146 29.1046C119.133 29.0708 119.112 29.0401 119.087 29.0144C119.061 28.9886 119.03 28.9684 118.997 28.9548C118.963 28.9412 118.927 28.9346 118.89 28.9354Z" fill="white"/>
<path d="M118.053 28.9354C118.017 28.9354 117.981 28.9426 117.948 28.9565C117.915 28.9704 117.885 28.9908 117.86 29.0165C117.835 29.0421 117.815 29.0725 117.802 29.1059C117.789 29.1393 117.783 29.175 117.783 29.2109C117.783 29.2825 117.812 29.3511 117.862 29.4017C117.913 29.4523 117.981 29.4807 118.053 29.4807C118.089 29.4815 118.124 29.4751 118.158 29.4618C118.191 29.4486 118.222 29.4289 118.247 29.4038C118.273 29.3786 118.293 29.3486 118.307 29.3155C118.321 29.2824 118.328 29.2469 118.328 29.2109C118.329 29.1745 118.322 29.1384 118.309 29.1046C118.295 29.0708 118.275 29.0401 118.249 29.0144C118.224 28.9886 118.193 28.9684 118.159 28.9548C118.125 28.9412 118.089 28.9346 118.053 28.9354Z" fill="white"/>
<path d="M117.215 28.9354C117.142 28.9354 117.072 28.9645 117.021 29.0161C116.969 29.0678 116.94 29.1379 116.94 29.2109C116.941 29.283 116.971 29.3516 117.023 29.402C117.074 29.4525 117.143 29.4807 117.215 29.4807C117.287 29.4807 117.357 29.4525 117.408 29.402C117.46 29.3516 117.489 29.283 117.491 29.2109C117.491 29.1379 117.462 29.0678 117.41 29.0161C117.358 28.9645 117.288 28.9354 117.215 28.9354Z" fill="white"/>
<path d="M116.377 28.9354C116.341 28.9346 116.305 28.9412 116.271 28.9548C116.237 28.9684 116.207 28.9886 116.181 29.0144C116.155 29.0401 116.135 29.0708 116.121 29.1046C116.108 29.1384 116.101 29.1745 116.102 29.2109C116.102 29.2469 116.109 29.2824 116.123 29.3155C116.137 29.3486 116.157 29.3786 116.183 29.4038C116.209 29.4289 116.239 29.4486 116.273 29.4618C116.306 29.4751 116.342 29.4815 116.377 29.4807C116.449 29.4807 116.518 29.4523 116.568 29.4017C116.619 29.3511 116.647 29.2825 116.647 29.2109C116.648 29.175 116.641 29.1393 116.628 29.1059C116.615 29.0725 116.595 29.0421 116.57 29.0165C116.545 28.9908 116.515 28.9704 116.482 28.9565C116.449 28.9426 116.413 28.9354 116.377 28.9354Z" fill="white"/>
<path d="M115.534 28.9354C115.498 28.9354 115.463 28.9426 115.43 28.9565C115.397 28.9704 115.367 28.9908 115.342 29.0165C115.317 29.0421 115.297 29.0725 115.284 29.1059C115.27 29.1393 115.264 29.175 115.265 29.2109C115.265 29.2825 115.293 29.3511 115.344 29.4017C115.394 29.4523 115.463 29.4807 115.534 29.4807C115.57 29.4815 115.606 29.4751 115.639 29.4618C115.673 29.4486 115.703 29.4289 115.729 29.4038C115.754 29.3786 115.775 29.3486 115.789 29.3155C115.803 29.2824 115.81 29.2469 115.81 29.2109C115.811 29.1745 115.804 29.1384 115.79 29.1046C115.777 29.0708 115.757 29.0401 115.731 29.0144C115.705 28.9886 115.674 28.9684 115.641 28.9548C115.607 28.9412 115.571 28.9346 115.534 28.9354Z" fill="white"/>
<path d="M114.697 28.9354C114.624 28.9354 114.554 28.9645 114.502 29.0161C114.45 29.0678 114.421 29.1379 114.421 29.2109C114.423 29.283 114.453 29.3516 114.504 29.402C114.556 29.4525 114.625 29.4807 114.697 29.4807C114.769 29.4807 114.838 29.4525 114.889 29.402C114.941 29.3516 114.971 29.283 114.972 29.2109C114.972 29.1747 114.965 29.1389 114.951 29.1055C114.937 29.0721 114.917 29.0417 114.891 29.0161C114.866 28.9905 114.836 28.9702 114.802 28.9564C114.769 28.9426 114.733 28.9354 114.697 28.9354Z" fill="white"/>
<path d="M113.859 28.9354C113.823 28.9346 113.787 28.9412 113.753 28.9548C113.719 28.9684 113.689 28.9886 113.663 29.0144C113.637 29.0401 113.617 29.0708 113.603 29.1046C113.59 29.1384 113.583 29.1745 113.584 29.2109C113.584 29.2469 113.591 29.2824 113.605 29.3155C113.619 29.3486 113.639 29.3786 113.665 29.4038C113.691 29.4289 113.721 29.4486 113.754 29.4618C113.788 29.4751 113.824 29.4815 113.859 29.4807C113.931 29.4807 114 29.4523 114.05 29.4017C114.101 29.3511 114.129 29.2825 114.129 29.2109C114.13 29.175 114.123 29.1393 114.11 29.1059C114.097 29.0725 114.077 29.0421 114.052 29.0165C114.027 28.9908 113.997 28.9704 113.964 28.9565C113.931 28.9426 113.895 28.9354 113.859 28.9354Z" fill="white"/>
<path d="M113.016 28.9354C112.98 28.9354 112.944 28.9426 112.911 28.9565C112.878 28.9704 112.848 28.9908 112.823 29.0165C112.798 29.0421 112.778 29.0725 112.765 29.1059C112.752 29.1393 112.745 29.175 112.746 29.2109C112.746 29.2825 112.775 29.3511 112.825 29.4017C112.876 29.4523 112.944 29.4807 113.016 29.4807C113.052 29.4815 113.087 29.4751 113.121 29.4618C113.154 29.4486 113.185 29.4289 113.21 29.4038C113.236 29.3786 113.256 29.3486 113.27 29.3155C113.284 29.2824 113.291 29.2469 113.291 29.2109C113.292 29.1745 113.285 29.1384 113.272 29.1046C113.258 29.0708 113.238 29.0401 113.212 29.0144C113.187 28.9886 113.156 28.9684 113.122 28.9548C113.088 28.9412 113.052 28.9346 113.016 28.9354Z" fill="white"/>
<path d="M112.178 28.9354C112.105 28.9354 112.035 28.9645 111.983 29.0161C111.932 29.0678 111.903 29.1379 111.903 29.2109C111.904 29.283 111.934 29.3516 111.985 29.402C112.037 29.4525 112.106 29.4807 112.178 29.4807C112.25 29.4807 112.319 29.4525 112.371 29.402C112.422 29.3516 112.452 29.283 112.454 29.2109C112.454 29.1747 112.446 29.1389 112.433 29.1055C112.419 29.0721 112.398 29.0417 112.373 29.0161C112.347 28.9905 112.317 28.9702 112.284 28.9564C112.25 28.9426 112.214 28.9354 112.178 28.9354Z" fill="white"/>
<path d="M111.341 28.9354C111.304 28.9346 111.268 28.9412 111.235 28.9548C111.201 28.9684 111.17 28.9886 111.144 29.0144C111.119 29.0401 111.098 29.0708 111.085 29.1046C111.071 29.1384 111.065 29.1745 111.065 29.2109C111.065 29.2469 111.073 29.2824 111.087 29.3155C111.1 29.3486 111.121 29.3786 111.146 29.4038C111.172 29.4289 111.203 29.4486 111.236 29.4618C111.269 29.4751 111.305 29.4815 111.341 29.4807C111.376 29.4807 111.411 29.4737 111.444 29.4602C111.477 29.4466 111.506 29.4267 111.532 29.4017C111.557 29.3766 111.576 29.3469 111.59 29.3142C111.604 29.2814 111.611 29.2464 111.611 29.2109C111.611 29.175 111.605 29.1393 111.592 29.1059C111.578 29.0725 111.559 29.0421 111.534 29.0165C111.508 28.9908 111.478 28.9704 111.445 28.9565C111.412 28.9426 111.377 28.9354 111.341 28.9354Z" fill="white"/>
<path d="M111.341 22.8456C111.268 22.8456 111.198 22.8747 111.146 22.9263C111.094 22.978 111.065 23.0481 111.065 23.1211C111.065 23.1942 111.094 23.2643 111.146 23.316C111.198 23.3676 111.268 23.3967 111.341 23.3967C111.413 23.3951 111.481 23.3655 111.532 23.314C111.582 23.2625 111.61 23.1932 111.61 23.1211C111.611 23.0852 111.605 23.0495 111.592 23.0161C111.578 22.9828 111.559 22.9523 111.534 22.9267C111.508 22.901 111.478 22.8806 111.445 22.8667C111.412 22.8528 111.377 22.8456 111.341 22.8456Z" fill="white"/>
<path d="M112.178 22.8456C112.106 22.8471 112.036 22.8766 111.985 22.928C111.934 22.9793 111.904 23.0485 111.903 23.1211C111.904 23.1938 111.934 23.263 111.985 23.3143C112.036 23.3657 112.106 23.3952 112.178 23.3967C112.251 23.3952 112.32 23.3657 112.371 23.3143C112.423 23.263 112.452 23.1938 112.454 23.1211C112.452 23.0485 112.423 22.9793 112.371 22.928C112.32 22.8766 112.251 22.8471 112.178 22.8456Z" fill="white"/>
<path d="M113.016 22.8456C112.944 22.8471 112.875 22.8768 112.825 22.9283C112.774 22.9798 112.746 23.0491 112.746 23.1211C112.746 23.1932 112.774 23.2625 112.825 23.314C112.875 23.3655 112.944 23.3951 113.016 23.3967C113.089 23.3967 113.159 23.3676 113.21 23.316C113.262 23.2643 113.291 23.1942 113.291 23.1211C113.291 23.0481 113.262 22.978 113.21 22.9263C113.159 22.8747 113.089 22.8456 113.016 22.8456Z" fill="white"/>
<path d="M113.859 22.8456C113.786 22.8456 113.716 22.8747 113.665 22.9263C113.613 22.978 113.584 23.0481 113.584 23.1211C113.584 23.1942 113.613 23.2643 113.665 23.316C113.716 23.3676 113.786 23.3967 113.859 23.3967C113.931 23.3951 114 23.3655 114.05 23.314C114.101 23.2625 114.129 23.1932 114.129 23.1211C114.129 23.0491 114.101 22.9798 114.05 22.9283C114 22.8768 113.931 22.8471 113.859 22.8456Z" fill="white"/>
<path d="M114.697 22.8456C114.624 22.8471 114.555 22.8766 114.504 22.928C114.452 22.9793 114.423 23.0485 114.421 23.1211C114.423 23.1938 114.452 23.263 114.504 23.3143C114.555 23.3657 114.624 23.3952 114.697 23.3967C114.769 23.3952 114.838 23.3657 114.89 23.3143C114.941 23.263 114.971 23.1938 114.972 23.1211C114.971 23.0485 114.941 22.9793 114.89 22.928C114.838 22.8766 114.769 22.8471 114.697 22.8456Z" fill="white"/>
<path d="M115.534 22.8456C115.462 22.8471 115.394 22.8768 115.343 22.9283C115.293 22.9798 115.265 23.0491 115.265 23.1211C115.265 23.1932 115.293 23.2625 115.343 23.314C115.394 23.3655 115.462 23.3951 115.534 23.3967C115.607 23.3967 115.677 23.3676 115.729 23.316C115.781 23.2643 115.81 23.1942 115.81 23.1211C115.81 23.0481 115.781 22.978 115.729 22.9263C115.677 22.8747 115.607 22.8456 115.534 22.8456Z" fill="white"/>
<path d="M116.378 22.8456C116.305 22.8456 116.235 22.8747 116.183 22.9263C116.132 22.978 116.103 23.0481 116.103 23.1211C116.103 23.1942 116.132 23.2643 116.183 23.316C116.235 23.3676 116.305 23.3967 116.378 23.3967C116.45 23.3951 116.518 23.3655 116.569 23.314C116.619 23.2625 116.648 23.1932 116.647 23.1211C116.648 23.0491 116.619 22.9798 116.569 22.9283C116.518 22.8768 116.45 22.8471 116.378 22.8456Z" fill="white"/>
<path d="M117.215 22.8456C117.143 22.8471 117.074 22.8766 117.022 22.928C116.971 22.9793 116.941 23.0485 116.94 23.1211C116.941 23.1938 116.971 23.263 117.022 23.3143C117.074 23.3657 117.143 23.3952 117.215 23.3967C117.288 23.3952 117.357 23.3657 117.408 23.3143C117.46 23.263 117.489 23.1938 117.491 23.1211C117.489 23.0485 117.46 22.9793 117.408 22.928C117.357 22.8766 117.288 22.8471 117.215 22.8456Z" fill="white"/>
<path d="M118.053 22.8456C117.981 22.8471 117.912 22.8768 117.862 22.9283C117.811 22.9798 117.783 23.0491 117.783 23.1211C117.783 23.1932 117.811 23.2625 117.862 23.314C117.912 23.3655 117.981 23.3951 118.053 23.3967C118.126 23.3967 118.196 23.3676 118.248 23.316C118.299 23.2643 118.328 23.1942 118.328 23.1211C118.328 23.0481 118.299 22.978 118.248 22.9263C118.196 22.8747 118.126 22.8456 118.053 22.8456Z" fill="white"/>
<path d="M118.89 22.8456C118.818 22.8471 118.75 22.8768 118.699 22.9283C118.649 22.9798 118.621 23.0491 118.621 23.1211C118.621 23.1932 118.649 23.2625 118.699 23.314C118.75 23.3655 118.818 23.3951 118.89 23.3967C118.963 23.3967 119.033 23.3676 119.085 23.316C119.137 23.2643 119.166 23.1942 119.166 23.1211C119.166 23.0481 119.137 22.978 119.085 22.9263C119.033 22.8747 118.963 22.8456 118.89 22.8456Z" fill="white"/>
<path d="M119.734 22.8456C119.661 22.8471 119.592 22.8766 119.541 22.928C119.489 22.9793 119.46 23.0485 119.458 23.1211C119.46 23.1938 119.489 23.263 119.541 23.3143C119.592 23.3657 119.661 23.3952 119.734 23.3967C119.806 23.3951 119.874 23.3655 119.925 23.314C119.975 23.2625 120.003 23.1932 120.003 23.1211C120.004 23.0852 119.998 23.0495 119.985 23.0161C119.971 22.9828 119.952 22.9523 119.927 22.9267C119.901 22.901 119.871 22.8806 119.838 22.8667C119.805 22.8528 119.77 22.8456 119.734 22.8456Z" fill="white"/>
<path d="M120.571 22.8456C120.499 22.8471 120.43 22.8766 120.378 22.928C120.327 22.9793 120.297 23.0485 120.296 23.1211C120.297 23.1938 120.327 23.263 120.378 23.3143C120.43 23.3657 120.499 23.3952 120.571 23.3967C120.644 23.3952 120.713 23.3657 120.764 23.3143C120.816 23.263 120.845 23.1938 120.847 23.1211C120.845 23.0485 120.816 22.9793 120.764 22.928C120.713 22.8766 120.644 22.8471 120.571 22.8456Z" fill="white"/>
<path d="M121.409 22.8456C121.337 22.8471 121.268 22.8768 121.218 22.9283C121.167 22.9798 121.139 23.0491 121.139 23.1211C121.139 23.1932 121.167 23.2625 121.218 23.314C121.268 23.3655 121.337 23.3951 121.409 23.3967C121.482 23.3967 121.552 23.3676 121.603 23.316C121.655 23.2643 121.684 23.1942 121.684 23.1211C121.684 23.0481 121.655 22.978 121.603 22.9263C121.552 22.8747 121.482 22.8456 121.409 22.8456Z" fill="white"/>
<path d="M122.252 22.8456C122.179 22.8456 122.109 22.8747 122.057 22.9263C122.006 22.978 121.977 23.0481 121.977 23.1211C121.977 23.1942 122.006 23.2643 122.057 23.316C122.109 23.3676 122.179 23.3967 122.252 23.3967C122.324 23.3951 122.393 23.3655 122.443 23.314C122.493 23.2625 122.522 23.1932 122.522 23.1211C122.522 23.0491 122.493 22.9798 122.443 22.9283C122.393 22.8768 122.324 22.8471 122.252 22.8456Z" fill="white"/>
<path d="M123.09 22.8456C123.017 22.8471 122.948 22.8766 122.897 22.928C122.845 22.9793 122.816 23.0485 122.814 23.1211C122.816 23.1938 122.845 23.263 122.897 23.3143C122.948 23.3657 123.017 23.3952 123.09 23.3967C123.162 23.3952 123.232 23.3657 123.283 23.3143C123.334 23.263 123.364 23.1938 123.365 23.1211C123.364 23.0485 123.334 22.9793 123.283 22.928C123.232 22.8766 123.162 22.8471 123.09 22.8456Z" fill="white"/>
<path d="M123.916 22.8456C123.843 22.8471 123.774 22.8766 123.723 22.928C123.672 22.9793 123.642 23.0485 123.641 23.1211C123.642 23.1938 123.672 23.263 123.723 23.3143C123.774 23.3657 123.843 23.3952 123.916 23.3967C123.989 23.3967 124.059 23.3676 124.111 23.316C124.162 23.2643 124.191 23.1942 124.191 23.1211C124.19 23.0485 124.16 22.9793 124.109 22.928C124.058 22.8766 123.989 22.8471 123.916 22.8456Z" fill="white"/>
<path d="M124.765 22.8456C124.693 22.8471 124.624 22.8768 124.574 22.9283C124.523 22.9798 124.495 23.0491 124.495 23.1211C124.495 23.1932 124.523 23.2625 124.574 23.314C124.624 23.3655 124.693 23.3951 124.765 23.3967C124.838 23.3967 124.908 23.3676 124.959 23.316C125.011 23.2643 125.04 23.1942 125.04 23.1211C125.04 23.0481 125.011 22.978 124.959 22.9263C124.908 22.8747 124.838 22.8456 124.765 22.8456Z" fill="white"/>
<path d="M125.637 22.8456C125.564 22.8456 125.494 22.8747 125.442 22.9263C125.39 22.978 125.361 23.0481 125.361 23.1211C125.361 23.1942 125.39 23.2643 125.442 23.316C125.494 23.3676 125.564 23.3967 125.637 23.3967C125.709 23.3951 125.777 23.3655 125.828 23.314C125.878 23.2625 125.906 23.1932 125.906 23.1211C125.906 23.0491 125.878 22.9798 125.828 22.9283C125.777 22.8768 125.709 22.8471 125.637 22.8456Z" fill="white"/>
<path d="M126.446 22.8456C126.373 22.8471 126.304 22.8766 126.253 22.928C126.201 22.9793 126.172 23.0485 126.17 23.1211C126.172 23.1938 126.201 23.263 126.253 23.3143C126.304 23.3657 126.373 23.3952 126.446 23.3967C126.518 23.3952 126.588 23.3657 126.639 23.3143C126.69 23.263 126.72 23.1938 126.721 23.1211C126.72 23.0485 126.69 22.9793 126.639 22.928C126.588 22.8766 126.518 22.8471 126.446 22.8456Z" fill="white"/>
<path d="M127.283 22.8456C127.211 22.8471 127.143 22.8768 127.092 22.9283C127.042 22.9798 127.014 23.0491 127.014 23.1211C127.014 23.1932 127.042 23.2625 127.092 23.314C127.143 23.3655 127.211 23.3951 127.283 23.3967C127.356 23.3967 127.426 23.3676 127.478 23.316C127.53 23.2643 127.559 23.1942 127.559 23.1211C127.559 23.0481 127.53 22.978 127.478 22.9263C127.426 22.8747 127.356 22.8456 127.283 22.8456Z" fill="white"/>
<path d="M128.127 22.8456C128.054 22.8456 127.984 22.8747 127.932 22.9263C127.881 22.978 127.852 23.0481 127.852 23.1211C127.852 23.1942 127.881 23.2643 127.932 23.316C127.984 23.3676 128.054 23.3967 128.127 23.3967C128.199 23.3951 128.268 23.3655 128.318 23.314C128.368 23.2625 128.397 23.1932 128.397 23.1211C128.397 23.0491 128.368 22.9798 128.318 22.9283C128.268 22.8768 128.199 22.8471 128.127 22.8456Z" fill="white"/>
<path d="M128.964 22.8456C128.892 22.8471 128.823 22.8766 128.771 22.928C128.72 22.9793 128.69 23.0485 128.689 23.1211C128.69 23.1938 128.72 23.263 128.771 23.3143C128.823 23.3657 128.892 23.3952 128.964 23.3967C129.037 23.3952 129.106 23.3657 129.157 23.3143C129.209 23.263 129.238 23.1938 129.24 23.1211C129.238 23.0485 129.209 22.9793 129.157 22.928C129.106 22.8766 129.037 22.8471 128.964 22.8456Z" fill="white"/>
<path d="M129.802 22.8456C129.729 22.8471 129.66 22.8766 129.609 22.928C129.557 22.9793 129.528 23.0485 129.526 23.1211C129.528 23.1938 129.557 23.263 129.609 23.3143C129.66 23.3657 129.729 23.3952 129.802 23.3967C129.874 23.3952 129.944 23.3657 129.995 23.3143C130.046 23.263 130.076 23.1938 130.077 23.1211C130.076 23.0485 130.046 22.9793 129.995 22.928C129.944 22.8766 129.874 22.8471 129.802 22.8456Z" fill="white"/>
<path d="M130.639 22.8456C130.567 22.8471 130.499 22.8768 130.448 22.9283C130.398 22.9798 130.37 23.0491 130.37 23.1211C130.37 23.1932 130.398 23.2625 130.448 23.314C130.499 23.3655 130.567 23.3951 130.639 23.3967C130.712 23.3967 130.782 23.3676 130.834 23.316C130.886 23.2643 130.915 23.1942 130.915 23.1211C130.915 23.0481 130.886 22.978 130.834 22.9263C130.782 22.8747 130.712 22.8456 130.639 22.8456Z" fill="white"/>
<path d="M131.483 22.8456C131.41 22.8456 131.34 22.8747 131.288 22.9263C131.237 22.978 131.208 23.0481 131.208 23.1211C131.208 23.1942 131.237 23.2643 131.288 23.316C131.34 23.3676 131.41 23.3967 131.483 23.3967C131.555 23.3951 131.624 23.3655 131.674 23.314C131.724 23.2625 131.753 23.1932 131.753 23.1211C131.753 23.0491 131.724 22.9798 131.674 22.9283C131.624 22.8768 131.555 22.8471 131.483 22.8456Z" fill="white"/>
<path d="M132.32 22.8456C132.248 22.8471 132.179 22.8766 132.127 22.928C132.076 22.9793 132.046 23.0485 132.045 23.1211C132.046 23.1938 132.076 23.263 132.127 23.3143C132.179 23.3657 132.248 23.3952 132.32 23.3967C132.393 23.3952 132.462 23.3657 132.513 23.3143C132.565 23.263 132.594 23.1938 132.596 23.1211C132.594 23.0485 132.565 22.9793 132.513 22.928C132.462 22.8766 132.393 22.8471 132.32 22.8456Z" fill="white"/>
<path d="M133.158 22.8456C133.122 22.8456 133.086 22.8528 133.053 22.8667C133.02 22.8806 132.99 22.901 132.965 22.9267C132.94 22.9523 132.92 22.9828 132.907 23.0161C132.894 23.0495 132.887 23.0852 132.888 23.1211C132.888 23.1932 132.916 23.2625 132.967 23.314C133.017 23.3655 133.086 23.3951 133.158 23.3967C133.231 23.3967 133.301 23.3676 133.353 23.316C133.404 23.2643 133.433 23.1942 133.433 23.1211C133.433 23.0481 133.404 22.978 133.353 22.9263C133.301 22.8747 133.231 22.8456 133.158 22.8456Z" fill="white"/>
<path d="M133.996 22.8456C133.924 22.8471 133.855 22.8768 133.805 22.9283C133.754 22.9798 133.726 23.0491 133.726 23.1211C133.726 23.1932 133.754 23.2625 133.805 23.314C133.855 23.3655 133.924 23.3951 133.996 23.3967C134.069 23.3967 134.139 23.3676 134.19 23.316C134.242 23.2643 134.271 23.1942 134.271 23.1211C134.271 23.0481 134.242 22.978 134.19 22.9263C134.139 22.8747 134.069 22.8456 133.996 22.8456Z" fill="white"/>
<path d="M134.816 22.8456C134.743 22.8456 134.673 22.8747 134.621 22.9263C134.57 22.978 134.541 23.0481 134.541 23.1211C134.541 23.1942 134.57 23.2643 134.621 23.316C134.673 23.3676 134.743 23.3967 134.816 23.3967C134.888 23.3951 134.957 23.3655 135.007 23.314C135.057 23.2625 135.086 23.1932 135.086 23.1211C135.086 23.0491 135.057 22.9798 135.007 22.9283C134.957 22.8768 134.888 22.8471 134.816 22.8456Z" fill="white"/>
<path d="M135.676 22.8456C135.604 22.8471 135.534 22.8766 135.483 22.928C135.432 22.9793 135.402 23.0485 135.401 23.1211C135.402 23.1938 135.432 23.263 135.483 23.3143C135.534 23.3657 135.604 23.3952 135.676 23.3967C135.749 23.3952 135.818 23.3657 135.869 23.3143C135.921 23.263 135.95 23.1938 135.952 23.1211C135.95 23.0485 135.921 22.9793 135.869 22.928C135.818 22.8766 135.749 22.8471 135.676 22.8456Z" fill="white"/>
<path d="M136.537 22.8456C136.465 22.8471 136.396 22.8768 136.346 22.9283C136.295 22.9798 136.267 23.0491 136.267 23.1211C136.267 23.1932 136.295 23.2625 136.346 23.314C136.396 23.3655 136.465 23.3951 136.537 23.3967C136.61 23.3967 136.68 23.3676 136.731 23.316C136.783 23.2643 136.812 23.1942 136.812 23.1211C136.812 23.0481 136.783 22.978 136.731 22.9263C136.68 22.8747 136.61 22.8456 136.537 22.8456Z" fill="white"/>
<path d="M137.357 22.8456C137.284 22.8456 137.214 22.8747 137.163 22.9263C137.111 22.978 137.082 23.0481 137.082 23.1211C137.082 23.1942 137.111 23.2643 137.163 23.316C137.214 23.3676 137.284 23.3967 137.357 23.3967C137.429 23.3951 137.498 23.3655 137.548 23.314C137.599 23.2625 137.627 23.1932 137.627 23.1211C137.627 23.0491 137.599 22.9798 137.548 22.9283C137.498 22.8768 137.429 22.8471 137.357 22.8456Z" fill="white"/>
<path d="M138.195 22.8456C138.122 22.8471 138.053 22.8766 138.002 22.928C137.95 22.9793 137.921 23.0485 137.919 23.1211C137.921 23.1938 137.95 23.263 138.002 23.3143C138.053 23.3657 138.122 23.3952 138.195 23.3967C138.267 23.3952 138.337 23.3657 138.388 23.3143C138.439 23.263 138.469 23.1938 138.47 23.1211C138.469 23.0485 138.439 22.9793 138.388 22.928C138.337 22.8766 138.267 22.8471 138.195 22.8456Z" fill="white"/>
<path d="M139.032 22.8456C138.96 22.8471 138.892 22.8768 138.841 22.9283C138.791 22.9798 138.763 23.0491 138.763 23.1211C138.763 23.1932 138.791 23.2625 138.841 23.314C138.892 23.3655 138.96 23.3951 139.032 23.3967C139.105 23.3967 139.175 23.3676 139.227 23.316C139.279 23.2643 139.308 23.1942 139.308 23.1211C139.308 23.0481 139.279 22.978 139.227 22.9263C139.175 22.8747 139.105 22.8456 139.032 22.8456Z" fill="white"/>
<path d="M139.87 22.8456C139.798 22.8471 139.73 22.8768 139.679 22.9283C139.629 22.9798 139.601 23.0491 139.601 23.1211C139.601 23.1932 139.629 23.2625 139.679 23.314C139.73 23.3655 139.798 23.3951 139.87 23.3967C139.943 23.3967 140.013 23.3676 140.065 23.316C140.117 23.2643 140.146 23.1942 140.146 23.1211C140.146 23.0481 140.117 22.978 140.065 22.9263C140.013 22.8747 139.943 22.8456 139.87 22.8456Z" fill="white"/>
<path d="M140.713 22.8456C140.64 22.8456 140.57 22.8747 140.519 22.9263C140.467 22.978 140.438 23.0481 140.438 23.1211C140.438 23.1942 140.467 23.2643 140.519 23.316C140.57 23.3676 140.64 23.3967 140.713 23.3967C140.785 23.3951 140.854 23.3655 140.904 23.314C140.955 23.2625 140.983 23.1932 140.983 23.1211C140.983 23.0491 140.955 22.9798 140.904 22.9283C140.854 22.8768 140.785 22.8471 140.713 22.8456Z" fill="white"/>
<path d="M142.767 29.9686H141.333V28.4706L142.847 26.961V25.3711L141.333 23.8788V22.3061H140.369L138.797 14.5518L131.373 9.25405H126.669C126.902 9.06559 127.056 8.79809 127.104 8.50268C127.152 8.20727 127.089 7.90466 126.927 7.65268C126.794 7.44817 126.603 7.28845 126.378 7.19428C126.153 7.10011 125.904 7.07585 125.665 7.12463L124.22 4.88615L125.866 3.8243C125.979 3.86616 126.1 3.88121 126.219 3.86826C126.339 3.85531 126.453 3.81471 126.555 3.74969C126.64 3.6944 126.714 3.62275 126.772 3.53883C126.83 3.45492 126.871 3.3604 126.892 3.26068C126.913 3.16097 126.915 3.05803 126.896 2.95776C126.878 2.85749 126.84 2.76186 126.784 2.67636C126.729 2.59068 126.657 2.51676 126.573 2.45882C126.489 2.40089 126.395 2.36009 126.295 2.33876C126.196 2.31744 126.093 2.316 125.992 2.33453C125.892 2.35307 125.797 2.39121 125.711 2.44678C125.614 2.51001 125.531 2.59444 125.471 2.69381C125.41 2.79317 125.373 2.90492 125.361 3.02075L123.715 4.08259L122.653 2.45826C122.695 2.34553 122.71 2.22461 122.697 2.10507C122.684 1.98553 122.644 1.87064 122.579 1.76949C122.466 1.59766 122.29 1.47718 122.09 1.4342C121.889 1.39122 121.679 1.4292 121.506 1.53991C121.416 1.59519 121.339 1.66818 121.279 1.75443C121.218 1.84067 121.176 1.93835 121.154 2.0415C121.133 2.14464 121.133 2.25109 121.154 2.35433C121.175 2.45756 121.217 2.55542 121.277 2.64193C121.34 2.73965 121.424 2.82187 121.524 2.88248C121.623 2.9431 121.735 2.98054 121.85 2.99205L122.912 4.63934L121.334 5.64953C121.221 5.60767 121.1 5.59262 120.981 5.60557C120.862 5.61852 120.747 5.65911 120.646 5.72414C120.56 5.77835 120.485 5.84923 120.427 5.93259C120.369 6.01596 120.328 6.11015 120.306 6.20961C120.285 6.30907 120.284 6.4118 120.302 6.51176C120.321 6.61173 120.36 6.70691 120.416 6.79172C120.528 6.9645 120.703 7.08616 120.904 7.13023C121.105 7.1743 121.315 7.13722 121.489 7.02705C121.587 6.96382 121.669 6.87939 121.729 6.78002C121.79 6.68065 121.827 6.56891 121.839 6.45308L123.439 5.4142L124.897 7.6699C124.769 7.86635 124.701 8.09564 124.701 8.32996C124.701 8.56428 124.769 8.79357 124.897 8.99003C124.967 9.09853 125.054 9.19536 125.155 9.27701H120.669L113.245 14.5518L111.702 22.2774H110.778V23.8099L109.218 25.3711V26.961L110.721 28.4706V29.9571H109.298V58.0415C109.299 60.9747 110.24 63.8302 111.983 66.1888C113.726 68.5473 116.179 70.2845 118.982 71.1452L126.021 72.9647L133.095 71.1452C135.893 70.2804 138.341 68.5415 140.079 66.1833C141.818 63.8252 142.756 60.9718 142.755 58.0415V29.9686H142.767ZM141.333 24.0854L142.01 24.7627V27.5694L141.333 28.2467V24.0854ZM131.155 9.93134L138.189 14.9478L138.981 18.868C138.184 16.9696 136.979 15.2697 135.452 13.889C133.926 12.5083 132.114 11.4804 130.146 10.8784V21.4279L132.136 16.3024L134.403 22.2774H129.779C129.779 18.1563 129.779 14.0237 129.779 9.93134H131.155ZM138.218 19.3157V22.2774H135.085V19.3157C135.085 18.9002 135.25 18.5016 135.544 18.2077C135.838 17.9139 136.236 17.7488 136.651 17.7488C137.067 17.7488 137.465 17.9139 137.759 18.2077C138.053 18.5016 138.218 18.9002 138.218 19.3157ZM123.084 17.7947C123.084 16.9904 123.403 16.219 123.971 15.6498C124.538 15.0805 125.309 14.7599 126.113 14.7584C126.917 14.7599 127.688 15.0803 128.257 15.6494C128.826 16.2185 129.146 16.9899 129.148 17.7947V22.2774H123.084V17.7947ZM113.859 14.9249L120.887 9.93134H122.372V22.2774H117.708L119.951 16.3024L121.999 21.5829V10.8612C119.978 11.4744 118.121 12.5353 116.565 13.9652C115.01 15.3951 113.797 17.1572 113.016 19.1206L113.853 14.9478L113.859 14.9249ZM117.031 19.3157V22.2774H113.876V19.3157C113.876 18.9002 114.041 18.5016 114.335 18.2077C114.629 17.9139 115.027 17.7488 115.442 17.7488C115.65 17.7458 115.856 17.784 116.049 17.8614C116.241 17.9388 116.417 18.0537 116.565 18.1996C116.712 18.3454 116.83 18.5191 116.91 18.7107C116.99 18.9024 117.031 19.108 117.031 19.3157ZM110.945 22.4439H141.161V23.7984H110.945V22.4439ZM110.904 23.9649H141.161V28.3615H110.904V23.9649ZM110.061 27.5694V24.7627L110.721 24.0854V28.2467L110.061 27.5694ZM125.637 72.4653L119.091 70.7778C117.851 70.3964 116.674 69.8356 115.597 69.1133C115.096 68.7813 114.617 68.417 114.163 68.0228H125.637V72.4653ZM125.637 62.5586H110.468C109.949 61.1093 109.683 59.5812 109.682 58.0415V57.0542H125.637V62.5586ZM125.637 51.59H109.682V46.0857H125.637V51.59ZM125.637 40.6215H109.682V35.1573H125.637V40.6215ZM110.904 29.9686V28.5337H141.161V29.9686H110.904ZM131.723 55.3495H133.238C133.238 55.3495 133.972 54.8904 133.743 54.6665C133.595 54.6982 133.442 54.7002 133.294 54.6727C133.145 54.6451 133.003 54.5884 132.877 54.5058C132.809 54.4409 132.757 54.362 132.723 54.2748C132.69 54.1876 132.675 54.094 132.681 54.0007C132.673 53.9097 132.686 53.818 132.72 53.7331C132.754 53.6483 132.808 53.5728 132.877 53.5128C133.154 53.3574 133.482 53.3182 133.789 53.4038C133.776 53.3719 133.764 53.3393 133.754 53.3062C133.68 53.0422 133.531 52.2558 134.38 52.2558C135.401 52.2558 134.953 53.4038 134.953 53.4038C134.953 53.4038 135.584 53.2373 135.894 53.5358C135.956 53.5955 136.003 53.6682 136.033 53.7487C136.063 53.8292 136.074 53.9153 136.066 54.0007C136.071 54.0885 136.058 54.1764 136.029 54.2592C135.999 54.3419 135.953 54.418 135.894 54.4828C135.765 54.5732 135.62 54.6361 135.466 54.6676C135.312 54.6992 135.153 54.6989 134.999 54.6665C134.775 54.8904 135.504 55.3495 135.504 55.3495H137.019L137.162 54.8559C137.001 54.8144 136.861 54.7172 136.765 54.5816C136.669 54.446 136.625 54.2808 136.64 54.1155C136.658 54.0154 136.698 53.9202 136.755 53.8361C136.812 53.7519 136.886 53.6806 136.973 53.6266C137.059 53.5726 137.156 53.5372 137.256 53.5225C137.357 53.5079 137.46 53.5144 137.558 53.5415C137.644 53.4002 137.767 53.2849 137.913 53.2081C138.06 53.1312 138.224 53.0957 138.39 53.1053C137.936 53.3751 137.678 55.4643 137.592 56.3368H131.155C131.064 55.4643 130.806 53.3751 130.352 53.1053C131.11 53.1053 131.19 53.5415 131.19 53.5415C131.288 53.5144 131.39 53.5079 131.49 53.5226C131.591 53.5373 131.687 53.5728 131.773 53.6268C131.859 53.6809 131.932 53.7523 131.989 53.8364C132.046 53.9205 132.084 54.0156 132.102 54.1155C132.122 54.2838 132.081 54.4537 131.984 54.5933C131.888 54.7328 131.744 54.8324 131.58 54.8731L131.723 55.3782V55.3495ZM135.923 48.2323V52.8987H135.55C135.558 52.7474 135.533 52.5962 135.478 52.4552C135.423 52.3142 135.338 52.1867 135.229 52.0812C135.12 51.9758 134.99 51.8948 134.848 51.8437C134.705 51.7927 134.553 51.7727 134.403 51.7852C134.253 51.7681 134.101 51.7841 133.958 51.8321C133.815 51.88 133.684 51.9587 133.575 52.0627C133.465 52.1666 133.38 52.2933 133.325 52.4338C133.27 52.5742 133.246 52.7251 133.255 52.8757H132.888V48.2323H129.079C128.991 48.2316 128.904 48.2483 128.823 48.2814C128.742 48.3146 128.668 48.3636 128.606 48.4256C128.545 48.4876 128.496 48.5613 128.462 48.6424C128.429 48.7236 128.413 48.8105 128.413 48.8981V44.5417C128.416 44.7158 128.488 44.8816 128.613 45.0031C128.737 45.1245 128.905 45.1918 129.079 45.1903H132.877V40.5985H130.582C130.494 40.5985 130.408 40.6157 130.327 40.6492C130.246 40.6827 130.173 40.7317 130.111 40.7935C130.049 40.8554 130 40.9288 129.967 41.0095C129.934 41.0903 129.916 41.1769 129.916 41.2643V36.9194C129.916 37.093 129.984 37.2598 130.105 37.3842C130.226 37.5086 130.391 37.5807 130.565 37.5852H132.859V33.0967C132.861 32.9227 132.794 32.755 132.672 32.6303C132.551 32.5056 132.385 32.434 132.211 32.4309H136.588C136.412 32.4309 136.243 32.5011 136.118 32.6259C135.993 32.7508 135.923 32.9202 135.923 33.0967V37.5852H138.218C138.392 37.5822 138.558 37.5107 138.681 37.3862C138.803 37.2616 138.872 37.094 138.872 36.9194V41.2873C138.872 41.1107 138.801 40.9414 138.677 40.8165C138.552 40.6916 138.383 40.6215 138.206 40.6215H135.911V45.2132H139.686C139.775 45.2148 139.863 45.1985 139.946 45.1654C140.028 45.1322 140.103 45.0829 140.166 45.0203C140.229 44.9577 140.279 44.8831 140.313 44.8009C140.347 44.7187 140.364 44.6306 140.363 44.5417V48.9153C140.363 48.7388 140.293 48.5694 140.168 48.4445C140.043 48.3197 139.874 48.2495 139.698 48.2495L135.923 48.2323ZM136.456 69.1133C135.385 69.8334 134.214 70.3923 132.98 70.7721L126.405 72.494V59.9356C126.611 59.6184 126.893 59.3571 127.224 59.1749C127.555 58.9926 127.926 58.8951 128.304 58.8909C128.812 58.8911 129.306 59.063 129.704 59.3788C130.007 58.5905 130.502 57.8902 131.144 57.3412H137.627C138.271 57.8897 138.767 58.5926 139.067 59.3845C139.3 59.1978 139.568 59.0592 139.856 58.9771C140.143 58.895 140.444 58.8708 140.741 58.9061C141.038 58.9413 141.324 59.0353 141.585 59.1824C141.845 59.3296 142.073 59.5271 142.256 59.7634C142.012 61.6457 141.369 63.454 140.368 65.0667C139.368 66.6794 138.034 68.0592 136.456 69.1133Z" fill="white"/>
<path d="M163.299 47.2566C162.784 46.5377 162.226 45.8496 161.63 45.196C161.016 44.5187 160.42 43.8472 159.84 43.1699C159.261 42.4926 158.739 41.8096 158.262 41.1266C157.807 40.4584 157.446 39.7301 157.19 38.9627C157.044 38.5373 156.938 38.0991 156.874 37.6541C156.821 37.2703 156.847 36.8798 156.949 36.5061C157.041 36.1752 157.243 35.8857 157.522 35.6854C157.883 35.4494 158.309 35.3347 158.739 35.3582C159.433 35.3376 160.11 35.5817 160.632 36.0412C161.173 36.5271 161.617 37.1114 161.94 37.7631C162.292 38.4472 162.552 39.1748 162.714 39.927C162.858 40.5908 162.929 41.2682 162.927 41.9474V43.8242H163.822V34.9679H162.927C162.954 35.2093 162.908 35.4534 162.795 35.6681C162.709 35.7772 162.485 35.7255 162.123 35.5074C161.666 35.2493 161.188 35.0285 160.695 34.8474C160.204 34.6701 159.694 34.5507 159.175 34.4915C158.254 34.3918 157.323 34.4916 156.444 34.7842C155.576 35.062 154.816 35.6037 154.27 36.3339C153.907 36.7961 153.632 37.3215 153.461 37.8837C153.277 38.4551 153.18 39.0511 153.174 39.6515C153.175 40.3236 153.295 40.9903 153.53 41.6202C153.767 42.2779 154.077 42.9074 154.453 43.4971C155.046 44.4397 155.72 45.3289 156.467 46.1546C157.247 47.027 157.999 47.8765 158.698 48.7891C159.371 49.6139 159.968 50.4975 160.483 51.4293C160.928 52.2178 161.127 53.121 161.056 54.0237C161.016 54.5901 160.804 55.1308 160.448 55.5734C160.277 55.7812 160.06 55.946 159.814 56.0547C159.568 56.1633 159.3 56.2128 159.031 56.199C158.165 56.2299 157.321 55.9256 156.673 55.3495C156.085 54.7843 155.629 54.0965 155.337 53.3349C155.011 52.5192 154.805 51.661 154.723 50.7865C154.637 49.8854 154.591 49.0646 154.591 48.2668V46.2119H153.748V56.6467H154.614C154.604 56.4482 154.645 56.2504 154.734 56.0727C154.809 55.9235 154.952 55.9005 155.147 55.9981C155.549 56.1761 156.111 56.4056 156.868 56.6869C157.642 56.968 158.46 57.108 159.284 57.1001C160.065 57.1071 160.842 56.9769 161.578 56.7156C162.263 56.4753 162.893 56.1007 163.431 55.6136C163.95 55.1245 164.369 54.5398 164.665 53.8917C164.98 53.1983 165.137 52.4434 165.124 51.6819C165.109 50.8784 164.928 50.0867 164.59 49.3573C164.243 48.6033 163.824 47.8845 163.34 47.2107L163.299 47.2566Z" fill="white"/>
<path d="M168.09 34.9679V43.7037H168.984C168.901 42.4813 168.926 41.254 169.059 40.036C169.147 39.1704 169.402 38.3302 169.811 37.5622C170.143 36.9594 170.654 36.4743 171.273 36.1732C171.973 35.8673 172.731 35.7203 173.494 35.7427H175.129L167.022 56.6467H178.651V44.5417H177.664C177.746 45.9478 177.721 47.3581 177.59 48.7604C177.486 49.9945 177.23 51.2111 176.827 52.3821C176.519 53.3245 176.012 54.1897 175.341 54.919C175.055 55.2253 174.708 55.4683 174.323 55.6324C173.938 55.7965 173.522 55.878 173.103 55.8718H171.732L179.391 34.9679H168.09Z" fill="white"/>
<path d="M189.109 55.8776H187.589V35.7427H189.081V34.9736H182.076V35.7427H183.568V55.8776H182.076V56.6524H189.109V55.8776Z" fill="white"/>
<path d="M201.627 35.7427H202.614C202.708 35.7788 202.792 35.835 202.862 35.9074C202.931 35.9798 202.984 36.0667 203.016 36.1617C203.07 36.426 203.093 36.6957 203.084 36.9653V46.8376L196.355 34.9679H191.766V35.7427H193.223V54.7698C193.234 55.0322 193.199 55.2944 193.12 55.5447C193.075 55.6381 193.007 55.7178 192.921 55.7754C192.835 55.833 192.735 55.8663 192.632 55.8718H191.766V56.6467H196.2V55.8718H195.156C195.064 55.8569 194.977 55.8153 194.908 55.7521C194.839 55.6889 194.789 55.6068 194.766 55.516C194.719 55.2392 194.7 54.9585 194.709 54.678V41.8555L203.113 56.6467H204.547V36.9079C204.532 36.6359 204.567 36.3634 204.651 36.1043C204.697 36.015 204.762 35.9366 204.841 35.8742C204.92 35.8119 205.012 35.7671 205.11 35.7427H205.953V34.9679H201.627V35.7427Z" fill="white"/>
<path d="M216.411 35.7427H217.513V43.9792H213.91V35.7427H214.983V34.9736H208.483V35.7427H209.888V55.8776H208.483V56.6524H214.983V55.8776H213.91V44.932H217.513V55.8776H216.411V56.6524H222.968V55.8776H221.597V35.7427H222.968V34.9736H216.411V35.7427Z" fill="white"/>
<path d="M238.171 55.8718L232.686 34.635H228.63L229.588 38.228L225.573 54.4771C225.503 54.7434 225.409 55.0028 225.291 55.2519C225.214 55.4176 225.091 55.5572 224.936 55.6537C224.759 55.7511 224.563 55.8079 224.362 55.8202C224.127 55.8202 223.788 55.8489 223.438 55.8489V56.6237H228.602V55.8718C228.108 55.8718 227.73 55.8718 227.454 55.8431C227.265 55.8473 227.08 55.7843 226.932 55.6652C226.886 55.6073 226.854 55.5385 226.841 55.4653C226.828 55.392 226.834 55.3167 226.858 55.2462C226.898 55.0683 226.955 54.81 227.035 54.4713L228.229 49.6098H232.491L234.063 55.8718H232.686V56.6467H239.691V55.8718H238.171ZM228.487 48.657L230.392 40.9659L232.268 48.657H228.487Z" fill="white"/>
<path d="M250.259 48.7604C250.155 49.9945 249.899 51.2111 249.496 52.3821C249.188 53.3245 248.681 54.1897 248.01 54.919C247.724 55.225 247.377 55.4678 246.992 55.6319C246.606 55.7959 246.191 55.8777 245.772 55.8718H244.39L252.06 34.9679H240.764V43.7037H241.659C241.573 42.4814 241.598 41.2538 241.734 40.036C241.817 39.1703 242.07 38.3295 242.479 37.5622C242.812 36.961 243.32 36.4762 243.937 36.1732C244.636 35.8673 245.394 35.7203 246.157 35.7427H247.798L239.691 56.6467H251.314V44.5417H250.333C250.412 45.9478 250.388 47.3579 250.259 48.7604Z" fill="white"/>
<path d="M189.207 29.2397H185.88L184.273 33.1369H184.778L189.207 29.2397Z" fill="white"/>
<path d="M234.528 29.2397H231.201L229.594 33.1369H230.099L234.528 29.2397Z" fill="white"/>
<path d="M9.83869 35.7599H10.8197C10.9139 35.7932 10.9992 35.8478 11.0689 35.9195C11.1385 35.9912 11.1907 36.078 11.2213 36.1732C11.2809 36.4386 11.306 36.7106 11.2958 36.9825V46.8375L4.58948 34.9793H0V35.7599H1.4629V54.7813C1.47553 55.0441 1.43855 55.307 1.3539 55.5561C1.30961 55.6496 1.24091 55.7293 1.15508 55.7869C1.06925 55.8444 0.969458 55.8778 0.86626 55.8833H0V56.6639H4.41163V55.8833H3.36752C3.27571 55.8681 3.19037 55.8262 3.12205 55.763C3.05374 55.6997 3.00545 55.6179 2.98316 55.5274C2.93375 55.2529 2.9126 54.974 2.92005 54.6952V41.8727L11.3245 56.6639H12.7587V36.9194C12.7434 36.6474 12.7784 36.375 12.862 36.1158C12.9089 36.0273 12.9741 35.9498 13.0532 35.8885C13.1323 35.8271 13.2236 35.7833 13.321 35.7599H14.1585V34.9793H9.83869V35.7599Z" fill="white"/>
<path d="M26.2176 49.5811C26.1984 50.6059 26.0164 51.6211 25.6784 52.5887C25.371 53.4816 24.8231 54.2721 24.095 54.8731C23.1883 55.5319 22.1004 55.8947 20.9799 55.912V45.5059C21.4879 45.5398 21.9703 45.7417 22.351 46.0799C22.7507 46.4476 23.0592 46.9036 23.2517 47.4115C23.4892 48.0663 23.6396 48.7494 23.6992 49.4434C23.7773 50.2905 23.7964 51.142 23.7565 51.9918H24.3819V39.3071H23.7565C23.8369 41.1725 23.6648 42.527 23.2517 43.3593C23.0414 43.7721 22.7146 44.1141 22.3117 44.3427C21.9088 44.5713 21.4477 44.6764 20.9856 44.645V35.7599C22 35.7161 23.0117 35.8923 23.9516 36.2765C24.6422 36.5935 25.2045 37.1359 25.5464 37.8147C25.902 38.6025 26.097 39.4532 26.1201 40.3173C26.1814 41.4513 26.1718 42.588 26.0914 43.7209H26.9634V34.9793H15.4897V35.7599H16.8895V55.8833H15.4897V56.6639H27.0839V46.2636H26.189C26.2291 47.3771 26.2349 48.4848 26.189 49.5926L26.2176 49.5811Z" fill="white"/>
<path d="M40.1581 55.8833V56.6639H47.2832V55.8833H45.8261V35.7599H47.2832V34.9793H41.4144L38.0469 46.8777L34.9719 34.9793H29.1318V35.7599H30.5947V54.8731C30.6114 55.1211 30.5742 55.3698 30.4857 55.6021C30.4355 55.6869 30.3642 55.7574 30.2788 55.8066C30.1933 55.8559 30.0967 55.8823 29.9981 55.8833H29.1318V56.6639H33.4861V55.8833H32.5338C32.4482 55.8728 32.3665 55.8418 32.2956 55.7928C32.2246 55.7438 32.1666 55.6784 32.1265 55.6021C32.0649 55.3545 32.0398 55.0993 32.0519 54.8444V39.9901L36.8823 56.4802L41.621 39.9901V55.8833H40.1581Z" fill="white"/>
<path d="M49.3887 34.9793V43.7209H50.2837C50.1972 42.4986 50.2222 41.271 50.3582 40.0532C50.4405 39.1855 50.694 38.3427 51.104 37.5737C51.4366 36.9741 51.9453 36.4912 52.5612 36.1904C53.2604 35.8845 54.0186 35.7375 54.7813 35.7599H56.4221L48.3159 56.6639H59.9388V44.5417H58.9578C59.037 45.9478 59.0121 47.3579 58.8832 48.7603C58.7795 49.9964 58.5232 51.2148 58.1202 52.3878C57.811 53.3279 57.3044 54.191 56.6343 54.919C56.3483 55.225 56.0015 55.4678 55.6162 55.6319C55.231 55.7959 54.8157 55.8777 54.397 55.8718H53.0259L60.6846 34.9793H49.3887Z" fill="white"/>
<path d="M72.8922 49.5811C72.8745 50.6023 72.6924 51.614 72.3529 52.5772C72.049 53.4736 71.503 54.2682 70.7753 54.8731C69.8691 55.5329 68.7809 55.8958 67.6602 55.912V45.5059C68.1682 45.5398 68.6506 45.7417 69.0313 46.0799C69.4325 46.4452 69.7395 46.902 69.9262 47.4115C70.1637 48.0663 70.3142 48.7494 70.3737 49.4434C70.4546 50.2903 70.4738 51.142 70.4311 51.9918H71.0564V39.3071H70.4311C70.5114 41.1725 70.3393 42.527 69.9262 43.3593C69.7141 43.7769 69.3827 44.1221 68.9741 44.351C68.5656 44.5799 68.0983 44.6822 67.6315 44.645V35.7599C68.6459 35.7156 69.6578 35.8918 70.5975 36.2765C71.288 36.5935 71.8504 37.1359 72.1923 37.8147C72.548 38.6024 72.743 39.4532 72.766 40.3173C72.831 41.4509 72.831 42.5873 72.766 43.7209H73.6265V34.9793H62.1528V35.7599H63.5526V55.8833H62.1528V56.6639H73.747V46.2636H72.8578C72.8979 47.3771 72.9037 48.4848 72.8578 49.5926L72.8922 49.5811Z" fill="white"/>
<path d="M75.7266 44.8516H76.6502C76.4896 42.1731 76.7477 40.0456 77.4247 38.4691C77.6691 37.7742 78.0884 37.1541 78.6421 36.6685C79.1958 36.183 79.8651 35.8483 80.5857 35.6968V55.8833H79.2146V56.6639H86.0357V55.8833H84.6703V35.6968C86.0988 35.9551 87.1658 36.8447 87.8715 38.4232C88.5771 40.0016 88.8525 42.131 88.6918 44.8516H89.6155V34.9793H75.7266V44.8516Z" fill="white"/>
<path d="M96.6029 35.76H98.0945V34.9851H91.0898V35.76H92.5814V55.8891H91.0898V56.6639H98.1232V55.8891H96.6029V35.76Z" fill="white"/>
<path d="M111.14 87.1245C111.112 87.1035 111.089 87.0757 111.074 87.0436C111.059 87.0115 111.052 86.9762 111.054 86.9408V81.6948H110.859C110.641 81.8516 110.402 81.9754 110.148 82.0621C109.8 82.1729 109.443 82.2479 109.081 82.286V82.5787H110.01C110.099 82.576 110.186 82.6045 110.257 82.659C110.287 82.6845 110.311 82.7161 110.328 82.7517C110.345 82.7874 110.354 82.8262 110.354 82.8657V86.8318C110.357 86.8828 110.348 86.9339 110.33 86.9814C110.311 87.029 110.282 87.0719 110.245 87.1073C110.201 87.1453 110.15 87.174 110.095 87.1918C110.04 87.2095 109.982 87.2159 109.924 87.2106H109.224V87.5263H112.253V87.2106H111.438C111.332 87.2148 111.228 87.1846 111.14 87.1245Z" fill="white"/>
<path d="M121.334 84.2259C121.608 84.1247 121.847 83.9471 122.023 83.7141C122.199 83.4812 122.304 83.2026 122.327 82.9115C122.325 82.6785 122.255 82.4512 122.126 82.2572C121.984 82.0427 121.786 81.8718 121.552 81.7636C121.265 81.6381 120.954 81.5774 120.64 81.5857C120.175 81.5694 119.722 81.7363 119.378 82.0506C119.22 82.1884 119.094 82.3588 119.008 82.55C118.922 82.7411 118.878 82.9486 118.879 83.1583C118.883 83.4892 118.993 83.8102 119.192 84.0744C119.391 84.3387 119.669 84.5325 119.986 84.6277C119.585 84.7391 119.221 84.955 118.931 85.2533C118.73 85.4925 118.622 85.7962 118.627 86.1086C118.624 86.3196 118.671 86.5283 118.762 86.7185C118.854 86.9086 118.988 87.075 119.154 87.2048C119.569 87.5177 120.081 87.6742 120.6 87.6468C120.896 87.6676 121.193 87.6216 121.469 87.5124C121.745 87.4031 121.993 87.2333 122.195 87.0154C122.479 86.688 122.633 86.2668 122.625 85.8331C122.635 85.4928 122.53 85.1592 122.327 84.886C122.072 84.5846 121.735 84.3633 121.357 84.2489L121.334 84.2259ZM119.688 83.5142C119.6 83.4215 119.532 83.3125 119.487 83.1934C119.442 83.0743 119.42 82.9474 119.424 82.82C119.428 82.6926 119.456 82.5672 119.509 82.4509C119.561 82.3346 119.635 82.2298 119.728 82.1424C119.969 81.9427 120.276 81.8386 120.589 81.8497C120.904 81.8292 121.214 81.9321 121.455 82.1367C121.564 82.2502 121.647 82.3859 121.698 82.5345C121.75 82.6831 121.768 82.8411 121.753 82.9976C121.764 83.2122 121.718 83.4258 121.621 83.6175C121.471 83.8263 121.275 83.9973 121.048 84.1169C120.577 84.0054 120.13 83.811 119.728 83.5429L119.688 83.5142ZM121.667 87.0154C121.354 87.2506 120.968 87.3666 120.577 87.3426C120.211 87.3667 119.85 87.2497 119.567 87.0154C119.447 86.8936 119.354 86.7479 119.294 86.5877C119.234 86.4275 119.208 86.2565 119.218 86.0856C119.208 85.8093 119.289 85.5375 119.447 85.3107C119.669 85.05 119.956 84.8521 120.279 84.7368C120.783 84.8933 121.265 85.1132 121.713 85.3911C121.826 85.4773 121.916 85.59 121.975 85.7191C122.034 85.8482 122.06 85.9898 122.052 86.1315C122.055 86.2979 122.023 86.4632 121.957 86.6158C121.89 86.7684 121.791 86.9048 121.667 87.0154Z" fill="white"/>
<path d="M130.393 87.6468C130.944 87.6708 131.486 87.491 131.913 87.1417C132.068 87.0026 132.194 86.8336 132.282 86.645C132.371 86.4564 132.421 86.2518 132.429 86.0436C132.437 85.8353 132.403 85.6275 132.329 85.4326C132.255 85.2377 132.143 85.0596 131.999 84.909C131.74 84.6607 131.416 84.4915 131.064 84.4211C131.399 84.3067 131.699 84.1092 131.936 83.8471C132.109 83.6243 132.2 83.3487 132.194 83.0665C132.198 82.8676 132.158 82.6702 132.077 82.4886C131.995 82.307 131.875 82.1457 131.724 82.0162C131.372 81.7205 130.921 81.5688 130.462 81.5914C130.223 81.5752 129.984 81.6103 129.761 81.6945C129.537 81.7786 129.334 81.9099 129.165 82.0793C129.062 82.1836 128.981 82.3073 128.926 82.4433C128.87 82.5792 128.843 82.7247 128.844 82.8714C128.835 83.0296 128.882 83.186 128.976 83.3133C129.016 83.3657 129.069 83.4077 129.128 83.4356C129.188 83.4636 129.254 83.4768 129.32 83.474C129.438 83.4768 129.552 83.4359 129.641 83.3592C129.682 83.3223 129.714 83.2771 129.736 83.2266C129.758 83.1761 129.769 83.1215 129.768 83.0665C129.762 82.9823 129.74 82.9002 129.701 82.8251C129.663 82.7501 129.609 82.6837 129.544 82.6303C129.462 82.5691 129.404 82.4822 129.377 82.3835C129.377 82.2917 129.475 82.1826 129.659 82.0736C129.887 81.9497 130.145 81.892 130.404 81.9071C130.545 81.897 130.687 81.918 130.818 81.9686C130.95 82.0191 131.069 82.0981 131.167 82.1998C131.366 82.4929 131.457 82.8458 131.426 83.1985C131.439 83.35 131.422 83.5026 131.375 83.6475C131.329 83.7923 131.254 83.9265 131.156 84.0423C131.048 84.1404 130.921 84.2155 130.783 84.2629C130.645 84.3103 130.498 84.3289 130.353 84.3178H130.152H129.917C129.843 84.3133 129.77 84.3292 129.704 84.3637C129.684 84.3803 129.668 84.4014 129.657 84.4252C129.646 84.4491 129.641 84.4752 129.641 84.5014C129.641 84.5274 129.648 84.5529 129.66 84.5759C129.672 84.5989 129.689 84.6186 129.71 84.6335C129.768 84.6716 129.836 84.6897 129.905 84.6851C129.987 84.691 130.07 84.691 130.152 84.6851C130.271 84.6646 130.392 84.6531 130.513 84.6507C130.662 84.6406 130.811 84.6638 130.95 84.7183C131.089 84.7729 131.214 84.8576 131.317 84.9664C131.528 85.2821 131.623 85.6615 131.586 86.0397C131.603 86.3924 131.49 86.7391 131.271 87.0154C131.139 87.1333 130.984 87.2232 130.817 87.2794C130.649 87.3357 130.472 87.3572 130.295 87.3426C130.078 87.3564 129.861 87.3312 129.653 87.268C129.507 87.2186 129.376 87.1314 129.274 87.0154C129.204 86.9373 129.159 86.8389 129.148 86.7342C129.148 86.6768 129.211 86.6136 129.332 86.5505C129.424 86.5018 129.504 86.4332 129.567 86.3496C129.617 86.2463 129.638 86.1309 129.627 86.0164C129.616 85.9018 129.573 85.7926 129.504 85.701C129.459 85.6546 129.406 85.6179 129.347 85.5932C129.287 85.5685 129.224 85.5564 129.159 85.5575C129.083 85.556 129.008 85.5723 128.939 85.6052C128.87 85.6381 128.81 85.6866 128.764 85.747C128.653 85.889 128.598 86.0665 128.609 86.2463C128.606 86.498 128.675 86.7452 128.81 86.958C128.96 87.1809 129.171 87.3561 129.418 87.4631C129.724 87.5916 130.055 87.6541 130.387 87.6468H130.393Z" fill="white"/>
<path d="M142.451 81.6947H139.835C139.536 81.6974 139.237 81.6627 138.946 81.5914L138.642 83.5716H138.946C138.994 83.2076 139.092 82.8521 139.239 82.5155C139.282 82.4565 139.339 82.4092 139.405 82.3782C139.471 82.3471 139.544 82.3331 139.617 82.3376H141.912L141.338 83.4052C141.115 83.8242 140.851 84.3981 140.541 85.1271C140.366 85.524 140.218 85.9325 140.099 86.3496C140.033 86.5778 139.993 86.8127 139.979 87.0499C139.964 87.2097 140.005 87.3696 140.094 87.5033C140.134 87.5499 140.184 87.5869 140.241 87.6117C140.297 87.6365 140.359 87.6485 140.42 87.6468C140.529 87.6524 140.637 87.6199 140.725 87.555C140.804 87.4901 140.857 87.3982 140.874 87.2967C140.92 87.0137 140.949 86.7281 140.96 86.4415C140.984 85.9414 141.049 85.4443 141.155 84.9549C141.261 84.4962 141.405 84.047 141.585 83.6118C141.839 83.021 142.128 82.446 142.451 81.8899V81.6947Z" fill="white"/>
</g>
<defs>
<clipPath id="clip0_28_283">
<rect width="252.645" height="88" fill="white"/>
</clipPath>
</defs>
</svg>
