<svg width="320" height="568" viewBox="0 0 320 568" fill="none" xmlns="http://www.w3.org/2000/svg">
<rect width="320" height="568" fill="white"/>
<g clip-path="url(#clip0_254_256)">
<path d="M192.129 230.626C189.991 232.768 188.922 235.348 188.922 238.366V332.192C188.922 335.211 189.991 337.787 192.129 339.921C194.267 342.063 196.852 343.134 199.884 343.134H238.794C241.818 343.134 244.399 342.063 246.537 339.921C248.683 337.787 249.756 335.211 249.756 332.192V238.366C249.756 235.348 248.683 232.768 246.537 230.626C244.399 228.492 241.818 227.425 238.794 227.425H199.884C196.852 227.425 194.267 228.492 192.129 230.626ZM191.398 329.478V239.815H246.878V329.478H191.398ZM223.296 333.068C224.084 333.068 224.755 333.344 225.308 333.896C225.861 334.448 226.137 335.117 226.137 335.904C226.137 336.683 225.861 337.353 225.308 337.913C224.755 338.464 224.084 338.74 223.296 338.74H215.382C214.594 338.74 213.923 338.464 213.37 337.913C212.818 337.353 212.541 336.683 212.541 335.904C212.541 335.117 212.818 334.448 213.37 333.896C213.923 333.344 214.594 333.068 215.382 333.068H223.296Z" fill="#7C6629"/>
<path d="M67.3041 284.798C65.1661 286.932 64.0972 289.508 64.0972 292.527V331.364C64.0972 334.391 65.1661 336.971 67.3041 339.105C69.4502 341.239 72.0352 342.306 75.0592 342.306H169.059C172.083 342.306 174.664 341.239 176.802 339.105C178.948 336.971 180.021 334.391 180.021 331.364V292.527C180.021 289.508 178.948 286.932 176.802 284.798C174.664 282.656 172.083 281.585 169.059 281.585H75.0592C72.0352 281.585 69.4502 282.656 67.3041 284.798ZM169.937 307.996C169.937 307.209 170.213 306.54 170.766 305.988C171.319 305.436 171.989 305.16 172.778 305.16C173.558 305.16 174.229 305.436 174.79 305.988C175.343 306.54 175.619 307.209 175.619 307.996V315.895C175.619 316.682 175.343 317.352 174.79 317.903C174.229 318.455 173.558 318.731 172.778 318.731C171.989 318.731 171.319 318.455 170.766 317.903C170.213 317.352 169.937 316.682 169.937 315.895V307.996ZM76.5102 284.457H166.34V339.835H76.5102V284.457Z" fill="#7C6629"/>
<path d="M143.025 261.777L149.267 265.238L131.726 273.72L129.331 254.183L135.081 257.371C145.783 241.248 159.898 236.345 177.426 242.662C161.951 241.172 150.484 247.544 143.025 261.777Z" fill="#7C6629"/>
</g>
<path d="M34.9434 371.02H35.5419C35.7826 371.02 35.9821 370.988 36.1404 370.925C36.2987 370.855 36.4349 370.748 36.5489 370.602L40.3394 365.804C40.4977 365.602 40.6624 365.462 40.8334 365.386C41.0107 365.304 41.2324 365.263 41.4984 365.263H43.7024L39.0759 370.972C38.8036 371.321 38.5217 371.568 38.2304 371.713C38.4394 371.789 38.6262 371.897 38.7909 372.036C38.9619 372.169 39.1234 372.347 39.2754 372.568L44.0444 379H41.7929C41.4889 379 41.2609 378.959 41.1089 378.876C40.9632 378.788 40.8397 378.661 40.7384 378.496L36.8529 373.423C36.7326 373.252 36.5932 373.132 36.4349 373.062C36.2766 372.993 36.0486 372.958 35.7509 372.958H34.9434V379H32.3879V365.263H34.9434V371.02ZM50.6172 373.005C50.6172 372.701 50.5729 372.416 50.4842 372.15C50.4019 371.878 50.2752 371.641 50.1042 371.438C49.9332 371.235 49.7147 371.077 49.4487 370.963C49.189 370.843 48.885 370.782 48.5367 370.782C47.859 370.782 47.3239 370.976 46.9312 371.362C46.5449 371.748 46.2979 372.296 46.1902 373.005H50.6172ZM46.1427 374.421C46.1807 374.921 46.2694 375.355 46.4087 375.722C46.548 376.083 46.7317 376.384 46.9597 376.625C47.1877 376.859 47.4569 377.037 47.7672 377.157C48.0839 377.271 48.4322 377.328 48.8122 377.328C49.1922 377.328 49.5184 377.284 49.7907 377.195C50.0694 377.106 50.31 377.008 50.5127 376.9C50.7217 376.793 50.9022 376.695 51.0542 376.606C51.2125 376.517 51.3645 376.473 51.5102 376.473C51.7065 376.473 51.8522 376.546 51.9472 376.691L52.6217 377.546C52.362 377.85 52.0707 378.107 51.7477 378.316C51.4247 378.519 51.0859 378.683 50.7312 378.81C50.3829 378.93 50.025 379.016 49.6577 379.067C49.2967 379.117 48.9452 379.143 48.6032 379.143C47.9255 379.143 47.2954 379.032 46.7127 378.81C46.13 378.582 45.6234 378.249 45.1927 377.812C44.762 377.369 44.4232 376.824 44.1762 376.178C43.9292 375.526 43.8057 374.772 43.8057 373.917C43.8057 373.252 43.9134 372.629 44.1287 372.046C44.344 371.457 44.6512 370.947 45.0502 370.516C45.4555 370.079 45.9464 369.734 46.5227 369.481C47.1054 369.228 47.7609 369.101 48.4892 369.101C49.1035 369.101 49.6704 369.199 50.1897 369.395C50.709 369.592 51.1555 369.88 51.5292 370.26C51.9029 370.634 52.1942 371.096 52.4032 371.647C52.6185 372.192 52.7262 372.815 52.7262 373.518C52.7262 373.873 52.6882 374.114 52.6122 374.24C52.5362 374.361 52.3905 374.421 52.1752 374.421H46.1427ZM51.8332 365.111L49.4867 367.59C49.3664 367.717 49.2492 367.806 49.1352 367.856C49.0275 367.901 48.885 367.923 48.7077 367.923H47.3017L48.6507 365.614C48.7457 365.45 48.8565 365.326 48.9832 365.244C49.1099 365.155 49.2999 365.111 49.5532 365.111H51.8332ZM56.7006 370.944C57.0046 370.361 57.3656 369.905 57.7836 369.576C58.2016 369.24 58.6956 369.072 59.2656 369.072C59.7153 369.072 60.0763 369.171 60.3486 369.367L60.1966 371.124C60.165 371.238 60.1175 371.321 60.0541 371.371C59.9971 371.416 59.918 371.438 59.8166 371.438C59.7216 371.438 59.5791 371.422 59.3891 371.39C59.2055 371.359 59.025 371.343 58.8476 371.343C58.588 371.343 58.3568 371.381 58.1541 371.457C57.9515 371.533 57.7678 371.644 57.6031 371.789C57.4448 371.929 57.3023 372.1 57.1756 372.302C57.0553 372.505 56.9413 372.736 56.8336 372.996V379H54.4871V369.253H55.8646C56.1053 369.253 56.2731 369.297 56.3681 369.386C56.4631 369.468 56.5265 369.62 56.5581 369.842L56.7006 370.944ZM63.95 364.883V379H61.6035V364.883H63.95ZM72.5674 373.005C72.5674 372.701 72.5231 372.416 72.4344 372.15C72.3521 371.878 72.2254 371.641 72.0544 371.438C71.8834 371.235 71.6649 371.077 71.3989 370.963C71.1392 370.843 70.8352 370.782 70.4869 370.782C69.8092 370.782 69.2741 370.976 68.8814 371.362C68.4951 371.748 68.2481 372.296 68.1404 373.005H72.5674ZM68.0929 374.421C68.1309 374.921 68.2196 375.355 68.3589 375.722C68.4982 376.083 68.6819 376.384 68.9099 376.625C69.1379 376.859 69.4071 377.037 69.7174 377.157C70.0341 377.271 70.3824 377.328 70.7624 377.328C71.1424 377.328 71.4686 377.284 71.7409 377.195C72.0196 377.106 72.2602 377.008 72.4629 376.9C72.6719 376.793 72.8524 376.695 73.0044 376.606C73.1627 376.517 73.3147 376.473 73.4604 376.473C73.6567 376.473 73.8024 376.546 73.8974 376.691L74.5719 377.546C74.3122 377.85 74.0209 378.107 73.6979 378.316C73.3749 378.519 73.0361 378.683 72.6814 378.81C72.3331 378.93 71.9752 379.016 71.6079 379.067C71.2469 379.117 70.8954 379.143 70.5534 379.143C69.8757 379.143 69.2456 379.032 68.6629 378.81C68.0802 378.582 67.5736 378.249 67.1429 377.812C66.7122 377.369 66.3734 376.824 66.1264 376.178C65.8794 375.526 65.7559 374.772 65.7559 373.917C65.7559 373.252 65.8636 372.629 66.0789 372.046C66.2942 371.457 66.6014 370.947 67.0004 370.516C67.4057 370.079 67.8966 369.734 68.4729 369.481C69.0556 369.228 69.7111 369.101 70.4394 369.101C71.0537 369.101 71.6206 369.199 72.1399 369.395C72.6592 369.592 73.1057 369.88 73.4794 370.26C73.8531 370.634 74.1444 371.096 74.3534 371.647C74.5687 372.192 74.6764 372.815 74.6764 373.518C74.6764 373.873 74.6384 374.114 74.5624 374.24C74.4864 374.361 74.3407 374.421 74.1254 374.421H68.0929ZM78.7838 364.883V372.967H79.2208C79.3792 372.967 79.5027 372.948 79.5913 372.91C79.6863 372.866 79.7813 372.781 79.8763 372.654L82.2988 369.661C82.4002 369.528 82.511 369.427 82.6313 369.357C82.758 369.288 82.9195 369.253 83.1158 369.253H85.2628L82.2323 372.872C82.017 373.157 81.7827 373.376 81.5293 373.528C81.6623 373.623 81.7795 373.734 81.8808 373.86C81.9885 373.987 82.0898 374.123 82.1848 374.269L85.4338 379H83.3153C83.1317 379 82.9733 378.971 82.8403 378.914C82.7073 378.851 82.5965 378.74 82.5078 378.582L80.0188 374.886C79.9302 374.741 79.8383 374.646 79.7433 374.601C79.6483 374.557 79.5058 374.535 79.3158 374.535H78.7838V379H76.4373V364.883H78.7838ZM86.5487 381.328C86.4347 381.233 86.3777 381.115 86.3777 380.976C86.3777 380.925 86.3936 380.868 86.4252 380.805C86.4632 380.742 86.5076 380.685 86.5582 380.634C86.6279 380.558 86.7134 380.463 86.8147 380.349C86.9161 380.241 87.0174 380.115 87.1187 379.969C87.2201 379.83 87.3119 379.675 87.3942 379.504C87.4829 379.339 87.5494 379.162 87.5937 378.971C87.3911 378.971 87.2074 378.937 87.0427 378.867C86.8781 378.791 86.7356 378.69 86.6152 378.563C86.5012 378.436 86.4094 378.287 86.3397 378.116C86.2764 377.945 86.2447 377.759 86.2447 377.556C86.2447 377.379 86.2764 377.214 86.3397 377.062C86.4094 376.904 86.5044 376.767 86.6247 376.653C86.7451 376.533 86.8907 376.441 87.0617 376.378C87.2327 376.308 87.4196 376.273 87.6222 376.273C87.8629 376.273 88.0719 376.318 88.2492 376.406C88.4329 376.489 88.5817 376.606 88.6957 376.758C88.8161 376.904 88.9047 377.075 88.9617 377.271C89.0251 377.461 89.0567 377.664 89.0567 377.879C89.0567 378.183 89.0092 378.503 88.9142 378.838C88.8256 379.174 88.6926 379.51 88.5152 379.846C88.3379 380.181 88.1162 380.507 87.8502 380.824C87.5906 381.141 87.2929 381.432 86.9572 381.698L86.5487 381.328ZM96.344 379V371.02L95.4985 370.887C95.3148 370.849 95.166 370.786 95.052 370.697C94.9443 370.602 94.8905 370.469 94.8905 370.298V369.338H96.344V368.616C96.344 368.059 96.4263 367.559 96.591 367.115C96.762 366.672 97.0026 366.295 97.313 365.985C97.6296 365.675 98.0128 365.437 98.4625 365.272C98.9121 365.108 99.4188 365.025 99.9825 365.025C100.432 365.025 100.85 365.086 101.236 365.206L101.189 366.384C101.183 366.473 101.157 366.545 101.113 366.602C101.069 366.653 101.008 366.694 100.932 366.726C100.863 366.751 100.78 366.77 100.685 366.783C100.59 366.789 100.489 366.792 100.381 366.792C100.103 366.792 99.8526 366.824 99.631 366.887C99.4156 366.944 99.232 367.049 99.08 367.201C98.928 367.347 98.8108 367.543 98.7285 367.79C98.6525 368.031 98.6145 368.331 98.6145 368.692V369.338H101.151V371.01H98.6905V379H96.344ZM106.523 369.101C107.245 369.101 107.9 369.218 108.489 369.453C109.085 369.687 109.591 370.019 110.009 370.45C110.434 370.881 110.76 371.406 110.988 372.027C111.216 372.648 111.33 373.341 111.33 374.107C111.33 374.88 111.216 375.577 110.988 376.197C110.76 376.818 110.434 377.347 110.009 377.784C109.591 378.221 109.085 378.557 108.489 378.791C107.9 379.025 107.245 379.143 106.523 379.143C105.794 379.143 105.133 379.025 104.537 378.791C103.942 378.557 103.432 378.221 103.008 377.784C102.59 377.347 102.264 376.818 102.029 376.197C101.801 375.577 101.687 374.88 101.687 374.107C101.687 373.341 101.801 372.648 102.029 372.027C102.264 371.406 102.59 370.881 103.008 370.45C103.432 370.019 103.942 369.687 104.537 369.453C105.133 369.218 105.794 369.101 106.523 369.101ZM106.523 377.337C107.333 377.337 107.932 377.065 108.318 376.52C108.711 375.976 108.907 375.178 108.907 374.126C108.907 373.075 108.711 372.274 108.318 371.723C107.932 371.172 107.333 370.896 106.523 370.896C105.699 370.896 105.088 371.175 104.689 371.732C104.297 372.283 104.1 373.081 104.1 374.126C104.1 375.171 104.297 375.969 104.689 376.52C105.088 377.065 105.699 377.337 106.523 377.337ZM115.333 370.944C115.637 370.361 115.998 369.905 116.416 369.576C116.834 369.24 117.328 369.072 117.898 369.072C118.348 369.072 118.709 369.171 118.981 369.367L118.829 371.124C118.798 371.238 118.75 371.321 118.687 371.371C118.63 371.416 118.551 371.438 118.449 371.438C118.354 371.438 118.212 371.422 118.022 371.39C117.838 371.359 117.658 371.343 117.48 371.343C117.221 371.343 116.99 371.381 116.787 371.457C116.584 371.533 116.401 371.644 116.236 371.789C116.078 371.929 115.935 372.1 115.808 372.302C115.688 372.505 115.574 372.736 115.466 372.996V379H113.12V369.253H114.497C114.738 369.253 114.906 369.297 115.001 369.386C115.096 369.468 115.159 369.62 115.191 369.842L115.333 370.944ZM126.066 371.742C125.8 371.419 125.509 371.191 125.192 371.058C124.882 370.925 124.546 370.858 124.185 370.858C123.83 370.858 123.511 370.925 123.226 371.058C122.941 371.191 122.697 371.394 122.494 371.666C122.291 371.932 122.136 372.274 122.029 372.692C121.921 373.104 121.867 373.591 121.867 374.155C121.867 374.725 121.911 375.209 122 375.608C122.095 376.001 122.228 376.324 122.399 376.577C122.57 376.824 122.779 377.005 123.026 377.119C123.273 377.227 123.549 377.28 123.853 377.28C124.34 377.28 124.755 377.179 125.097 376.976C125.439 376.774 125.762 376.486 126.066 376.112V371.742ZM128.413 364.883V379H126.978C126.668 379 126.471 378.857 126.389 378.572L126.19 377.632C125.797 378.082 125.344 378.446 124.831 378.724C124.324 379.003 123.732 379.143 123.055 379.143C122.523 379.143 122.035 379.032 121.592 378.81C121.148 378.588 120.765 378.268 120.442 377.85C120.125 377.426 119.878 376.904 119.701 376.283C119.53 375.662 119.445 374.953 119.445 374.155C119.445 373.433 119.543 372.762 119.739 372.141C119.935 371.52 120.217 370.982 120.585 370.526C120.952 370.07 121.392 369.715 121.905 369.462C122.418 369.202 122.994 369.072 123.634 369.072C124.179 369.072 124.644 369.158 125.031 369.329C125.417 369.5 125.762 369.731 126.066 370.022V364.883H128.413ZM133.16 369.253V379H130.814V369.253H133.16ZM135.345 365.111L132.999 367.59C132.879 367.717 132.761 367.806 132.647 367.856C132.54 367.901 132.397 367.923 132.22 367.923H130.814L132.163 365.614C132.258 365.45 132.369 365.326 132.495 365.244C132.622 365.155 132.812 365.111 133.065 365.111H135.345ZM138.82 379.152C137.971 379.152 137.319 378.914 136.863 378.439C136.413 377.958 136.189 377.296 136.189 376.454V371.01H135.191C135.064 371.01 134.957 370.969 134.868 370.887C134.779 370.805 134.735 370.681 134.735 370.516V369.585L136.303 369.329L136.797 366.669C136.828 366.542 136.888 366.444 136.977 366.374C137.066 366.305 137.18 366.27 137.319 366.27H138.535V369.338H141.138V371.01H138.535V376.292C138.535 376.596 138.608 376.834 138.754 377.005C138.906 377.176 139.111 377.261 139.371 377.261C139.517 377.261 139.637 377.246 139.732 377.214C139.833 377.176 139.919 377.138 139.989 377.1C140.065 377.062 140.131 377.027 140.188 376.995C140.245 376.957 140.302 376.938 140.359 376.938C140.429 376.938 140.486 376.957 140.53 376.995C140.574 377.027 140.622 377.078 140.673 377.147L141.376 378.287C141.034 378.572 140.641 378.788 140.198 378.933C139.754 379.079 139.295 379.152 138.82 379.152ZM148.587 371.153C148.524 371.254 148.458 371.327 148.388 371.371C148.318 371.409 148.23 371.428 148.122 371.428C148.008 371.428 147.884 371.397 147.751 371.333C147.625 371.27 147.476 371.2 147.305 371.124C147.134 371.042 146.938 370.969 146.716 370.906C146.501 370.843 146.244 370.811 145.946 370.811C145.484 370.811 145.12 370.909 144.854 371.105C144.594 371.302 144.464 371.558 144.464 371.875C144.464 372.084 144.531 372.261 144.664 372.407C144.803 372.546 144.984 372.67 145.205 372.777C145.433 372.885 145.69 372.983 145.975 373.072C146.26 373.154 146.548 373.246 146.839 373.347C147.137 373.449 147.428 373.566 147.713 373.699C147.998 373.826 148.252 373.99 148.473 374.193C148.701 374.389 148.882 374.627 149.015 374.905C149.154 375.184 149.224 375.52 149.224 375.912C149.224 376.381 149.138 376.815 148.967 377.214C148.803 377.607 148.556 377.949 148.226 378.24C147.897 378.525 147.489 378.75 147.001 378.914C146.52 379.073 145.962 379.152 145.329 379.152C144.993 379.152 144.664 379.12 144.341 379.057C144.024 379 143.717 378.918 143.419 378.81C143.128 378.702 142.856 378.576 142.602 378.43C142.355 378.284 142.137 378.126 141.947 377.955L142.488 377.062C142.558 376.954 142.64 376.872 142.735 376.815C142.83 376.758 142.951 376.729 143.096 376.729C143.242 376.729 143.378 376.771 143.505 376.853C143.638 376.935 143.79 377.024 143.961 377.119C144.132 377.214 144.331 377.303 144.559 377.385C144.794 377.467 145.088 377.508 145.443 377.508C145.722 377.508 145.959 377.477 146.155 377.413C146.358 377.344 146.523 377.255 146.649 377.147C146.782 377.04 146.877 376.916 146.934 376.777C146.998 376.631 147.029 376.482 147.029 376.33C147.029 376.102 146.96 375.916 146.82 375.77C146.687 375.624 146.507 375.498 146.279 375.39C146.057 375.282 145.801 375.187 145.509 375.105C145.224 375.016 144.93 374.921 144.626 374.82C144.328 374.719 144.034 374.601 143.742 374.468C143.457 374.329 143.201 374.155 142.973 373.946C142.751 373.737 142.571 373.48 142.431 373.176C142.298 372.872 142.232 372.505 142.232 372.074C142.232 371.675 142.311 371.295 142.469 370.934C142.628 370.573 142.859 370.26 143.163 369.994C143.473 369.722 143.856 369.506 144.312 369.348C144.775 369.183 145.307 369.101 145.908 369.101C146.58 369.101 147.191 369.212 147.742 369.433C148.293 369.655 148.752 369.946 149.119 370.307L148.587 371.153ZM157.108 371.742C156.842 371.419 156.551 371.191 156.234 371.058C155.924 370.925 155.588 370.858 155.227 370.858C154.872 370.858 154.553 370.925 154.268 371.058C153.983 371.191 153.739 371.394 153.536 371.666C153.333 371.932 153.178 372.274 153.071 372.692C152.963 373.104 152.909 373.591 152.909 374.155C152.909 374.725 152.953 375.209 153.042 375.608C153.137 376.001 153.27 376.324 153.441 376.577C153.612 376.824 153.821 377.005 154.068 377.119C154.315 377.227 154.591 377.28 154.895 377.28C155.382 377.28 155.797 377.179 156.139 376.976C156.481 376.774 156.804 376.486 157.108 376.112V371.742ZM159.455 364.883V379H158.02C157.71 379 157.513 378.857 157.431 378.572L157.232 377.632C156.839 378.082 156.386 378.446 155.873 378.724C155.366 379.003 154.774 379.143 154.097 379.143C153.565 379.143 153.077 379.032 152.634 378.81C152.19 378.588 151.807 378.268 151.484 377.85C151.167 377.426 150.92 376.904 150.743 376.283C150.572 375.662 150.487 374.953 150.487 374.155C150.487 373.433 150.585 372.762 150.781 372.141C150.977 371.52 151.259 370.982 151.627 370.526C151.994 370.07 152.434 369.715 152.947 369.462C153.46 369.202 154.036 369.072 154.676 369.072C155.221 369.072 155.686 369.158 156.073 369.329C156.459 369.5 156.804 369.731 157.108 370.022V364.883H159.455ZM172.67 373.005C172.67 372.701 172.626 372.416 172.537 372.15C172.455 371.878 172.328 371.641 172.157 371.438C171.986 371.235 171.767 371.077 171.501 370.963C171.242 370.843 170.938 370.782 170.589 370.782C169.912 370.782 169.377 370.976 168.984 371.362C168.598 371.748 168.351 372.296 168.243 373.005H172.67ZM168.195 374.421C168.233 374.921 168.322 375.355 168.461 375.722C168.601 376.083 168.784 376.384 169.012 376.625C169.24 376.859 169.51 377.037 169.82 377.157C170.137 377.271 170.485 377.328 170.865 377.328C171.245 377.328 171.571 377.284 171.843 377.195C172.122 377.106 172.363 377.008 172.565 376.9C172.774 376.793 172.955 376.695 173.107 376.606C173.265 376.517 173.417 376.473 173.563 376.473C173.759 376.473 173.905 376.546 174 376.691L174.674 377.546C174.415 377.85 174.123 378.107 173.8 378.316C173.477 378.519 173.139 378.683 172.784 378.81C172.436 378.93 172.078 379.016 171.71 379.067C171.349 379.117 170.998 379.143 170.656 379.143C169.978 379.143 169.348 379.032 168.765 378.81C168.183 378.582 167.676 378.249 167.245 377.812C166.815 377.369 166.476 376.824 166.229 376.178C165.982 375.526 165.858 374.772 165.858 373.917C165.858 373.252 165.966 372.629 166.181 372.046C166.397 371.457 166.704 370.947 167.103 370.516C167.508 370.079 167.999 369.734 168.575 369.481C169.158 369.228 169.814 369.101 170.542 369.101C171.156 369.101 171.723 369.199 172.242 369.395C172.762 369.592 173.208 369.88 173.582 370.26C173.956 370.634 174.247 371.096 174.456 371.647C174.671 372.192 174.779 372.815 174.779 373.518C174.779 373.873 174.741 374.114 174.665 374.24C174.589 374.361 174.443 374.421 174.228 374.421H168.195ZM178.915 364.883V379H176.568V364.883H178.915ZM191.022 374.839C190.344 374.871 189.774 374.931 189.312 375.019C188.85 375.102 188.479 375.209 188.2 375.342C187.922 375.475 187.722 375.631 187.602 375.808C187.482 375.985 187.421 376.178 187.421 376.387C187.421 376.799 187.542 377.094 187.782 377.271C188.029 377.448 188.349 377.537 188.742 377.537C189.223 377.537 189.638 377.451 189.986 377.28C190.341 377.103 190.686 376.837 191.022 376.482V374.839ZM185.645 370.611C186.766 369.585 188.115 369.072 189.692 369.072C190.262 369.072 190.772 369.167 191.221 369.357C191.671 369.541 192.051 369.801 192.361 370.136C192.672 370.466 192.906 370.862 193.064 371.324C193.229 371.786 193.311 372.293 193.311 372.844V379H192.247C192.026 379 191.855 378.968 191.734 378.905C191.614 378.835 191.519 378.699 191.449 378.496L191.24 377.793C190.993 378.015 190.753 378.211 190.518 378.382C190.284 378.547 190.04 378.686 189.787 378.8C189.534 378.914 189.261 379 188.97 379.057C188.685 379.12 188.368 379.152 188.02 379.152C187.608 379.152 187.228 379.098 186.88 378.99C186.532 378.876 186.231 378.709 185.977 378.487C185.724 378.265 185.528 377.99 185.388 377.66C185.249 377.331 185.179 376.948 185.179 376.511C185.179 376.264 185.221 376.02 185.303 375.779C185.385 375.532 185.518 375.298 185.702 375.076C185.892 374.855 186.136 374.646 186.433 374.449C186.731 374.253 187.095 374.082 187.526 373.936C187.963 373.791 188.47 373.674 189.046 373.585C189.622 373.49 190.281 373.433 191.022 373.414V372.844C191.022 372.192 190.883 371.71 190.604 371.4C190.325 371.083 189.923 370.925 189.397 370.925C189.017 370.925 188.701 370.969 188.447 371.058C188.2 371.147 187.982 371.248 187.792 371.362C187.602 371.47 187.428 371.568 187.269 371.656C187.117 371.745 186.946 371.789 186.756 371.789C186.592 371.789 186.452 371.748 186.338 371.666C186.224 371.577 186.133 371.476 186.063 371.362L185.645 370.611ZM202.488 364.883V372.967H202.925C203.083 372.967 203.207 372.948 203.295 372.91C203.39 372.866 203.485 372.781 203.58 372.654L206.003 369.661C206.104 369.528 206.215 369.427 206.335 369.357C206.462 369.288 206.624 369.253 206.82 369.253H208.967L205.936 372.872C205.721 373.157 205.487 373.376 205.233 373.528C205.366 373.623 205.484 373.734 205.585 373.86C205.693 373.987 205.794 374.123 205.889 374.269L209.138 379H207.019C206.836 379 206.677 378.971 206.544 378.914C206.411 378.851 206.301 378.74 206.212 378.582L203.723 374.886C203.634 374.741 203.542 374.646 203.447 374.601C203.352 374.557 203.21 374.535 203.02 374.535H202.488V379H200.141V364.883H202.488ZM216.069 373.005C216.069 372.701 216.025 372.416 215.936 372.15C215.854 371.878 215.727 371.641 215.556 371.438C215.385 371.235 215.167 371.077 214.901 370.963C214.641 370.843 214.337 370.782 213.989 370.782C213.311 370.782 212.776 370.976 212.383 371.362C211.997 371.748 211.75 372.296 211.642 373.005H216.069ZM211.595 374.421C211.633 374.921 211.722 375.355 211.861 375.722C212 376.083 212.184 376.384 212.412 376.625C212.64 376.859 212.909 377.037 213.219 377.157C213.536 377.271 213.884 377.328 214.264 377.328C214.644 377.328 214.971 377.284 215.243 377.195C215.522 377.106 215.762 377.008 215.965 376.9C216.174 376.793 216.354 376.695 216.506 376.606C216.665 376.517 216.817 376.473 216.962 376.473C217.159 376.473 217.304 376.546 217.399 376.691L218.074 377.546C217.814 377.85 217.523 378.107 217.2 378.316C216.877 378.519 216.538 378.683 216.183 378.81C215.835 378.93 215.477 379.016 215.11 379.067C214.749 379.117 214.397 379.143 214.055 379.143C213.378 379.143 212.748 379.032 212.165 378.81C211.582 378.582 211.076 378.249 210.645 377.812C210.214 377.369 209.875 376.824 209.628 376.178C209.381 375.526 209.258 374.772 209.258 373.917C209.258 373.252 209.366 372.629 209.581 372.046C209.796 371.457 210.103 370.947 210.502 370.516C210.908 370.079 211.399 369.734 211.975 369.481C212.558 369.228 213.213 369.101 213.941 369.101C214.556 369.101 215.123 369.199 215.642 369.395C216.161 369.592 216.608 369.88 216.981 370.26C217.355 370.634 217.646 371.096 217.855 371.647C218.071 372.192 218.178 372.815 218.178 373.518C218.178 373.873 218.14 374.114 218.064 374.24C217.988 374.361 217.843 374.421 217.627 374.421H211.595ZM217.285 365.111L214.939 367.59C214.819 367.717 214.701 367.806 214.587 367.856C214.48 367.901 214.337 367.923 214.16 367.923H212.754L214.103 365.614C214.198 365.45 214.309 365.326 214.435 365.244C214.562 365.155 214.752 365.111 215.005 365.111H217.285ZM222.286 376.473C222.552 376.796 222.84 377.024 223.15 377.157C223.467 377.29 223.809 377.356 224.176 377.356C224.531 377.356 224.851 377.29 225.136 377.157C225.421 377.024 225.661 376.821 225.858 376.549C226.06 376.277 226.216 375.935 226.323 375.523C226.431 375.105 226.485 374.614 226.485 374.05C226.485 373.48 226.437 372.999 226.342 372.606C226.254 372.207 226.124 371.884 225.953 371.637C225.782 371.39 225.573 371.21 225.326 371.096C225.085 370.982 224.81 370.925 224.499 370.925C224.012 370.925 223.597 371.029 223.255 371.238C222.913 371.441 222.59 371.729 222.286 372.103V376.473ZM222.162 370.583C222.561 370.133 223.014 369.769 223.521 369.49C224.027 369.212 224.623 369.072 225.307 369.072C225.839 369.072 226.323 369.183 226.76 369.405C227.204 369.627 227.584 369.95 227.9 370.374C228.223 370.792 228.47 371.311 228.641 371.932C228.819 372.546 228.907 373.252 228.907 374.05C228.907 374.779 228.809 375.453 228.613 376.074C228.416 376.695 228.135 377.233 227.767 377.689C227.406 378.145 226.966 378.503 226.447 378.762C225.934 379.016 225.357 379.143 224.718 379.143C224.173 379.143 223.708 379.06 223.321 378.895C222.935 378.724 222.59 378.49 222.286 378.192V382.183H219.939V369.253H221.374C221.678 369.253 221.877 369.395 221.972 369.68L222.162 370.583ZM237.018 373.005C237.018 372.701 236.973 372.416 236.885 372.15C236.802 371.878 236.676 371.641 236.505 371.438C236.334 371.235 236.115 371.077 235.849 370.963C235.589 370.843 235.285 370.782 234.937 370.782C234.259 370.782 233.724 370.976 233.332 371.362C232.945 371.748 232.698 372.296 232.591 373.005H237.018ZM232.543 374.421C232.581 374.921 232.67 375.355 232.809 375.722C232.948 376.083 233.132 376.384 233.36 376.625C233.588 376.859 233.857 377.037 234.168 377.157C234.484 377.271 234.833 377.328 235.213 377.328C235.593 377.328 235.919 377.284 236.191 377.195C236.47 377.106 236.71 377.008 236.913 376.9C237.122 376.793 237.303 376.695 237.455 376.606C237.613 376.517 237.765 376.473 237.911 376.473C238.107 376.473 238.253 376.546 238.348 376.691L239.022 377.546C238.762 377.85 238.471 378.107 238.148 378.316C237.825 378.519 237.486 378.683 237.132 378.81C236.783 378.93 236.425 379.016 236.058 379.067C235.697 379.117 235.346 379.143 235.004 379.143C234.326 379.143 233.696 379.032 233.113 378.81C232.53 378.582 232.024 378.249 231.593 377.812C231.162 377.369 230.824 376.824 230.577 376.178C230.33 375.526 230.206 374.772 230.206 373.917C230.206 373.252 230.314 372.629 230.529 372.046C230.744 371.457 231.052 370.947 231.451 370.516C231.856 370.079 232.347 369.734 232.923 369.481C233.506 369.228 234.161 369.101 234.89 369.101C235.504 369.101 236.071 369.199 236.59 369.395C237.109 369.592 237.556 369.88 237.93 370.26C238.303 370.634 238.595 371.096 238.804 371.647C239.019 372.192 239.127 372.815 239.127 373.518C239.127 373.873 239.089 374.114 239.013 374.24C238.937 374.361 238.791 374.421 238.576 374.421H232.543ZM243.101 370.944C243.405 370.361 243.766 369.905 244.184 369.576C244.602 369.24 245.096 369.072 245.666 369.072C246.116 369.072 246.477 369.171 246.749 369.367L246.597 371.124C246.565 371.238 246.518 371.321 246.455 371.371C246.398 371.416 246.318 371.438 246.217 371.438C246.122 371.438 245.98 371.422 245.79 371.39C245.606 371.359 245.425 371.343 245.248 371.343C244.988 371.343 244.757 371.381 244.555 371.457C244.352 371.533 244.168 371.644 244.004 371.789C243.845 371.929 243.703 372.1 243.576 372.302C243.456 372.505 243.342 372.736 243.234 372.996V379H240.888V369.253H242.265C242.506 369.253 242.674 369.297 242.769 369.386C242.864 369.468 242.927 369.62 242.959 369.842L243.101 370.944ZM250.17 370.45C250.366 370.254 250.572 370.073 250.787 369.908C251.009 369.737 251.24 369.595 251.481 369.481C251.728 369.361 251.991 369.269 252.269 369.205C252.548 369.136 252.852 369.101 253.181 369.101C253.713 369.101 254.185 369.193 254.597 369.376C255.009 369.554 255.351 369.807 255.623 370.136C255.902 370.459 256.111 370.849 256.25 371.305C256.396 371.755 256.468 372.252 256.468 372.796V379H254.122V372.796C254.122 372.201 253.986 371.742 253.713 371.419C253.441 371.09 253.026 370.925 252.469 370.925C252.064 370.925 251.684 371.017 251.329 371.2C250.974 371.384 250.639 371.634 250.322 371.951V379H247.975V369.253H249.41C249.714 369.253 249.913 369.395 250.008 369.68L250.17 370.45ZM267.294 369.253L261.984 381.679C261.914 381.844 261.822 381.967 261.708 382.05C261.601 382.138 261.433 382.183 261.205 382.183H259.457L261.281 378.268L257.338 369.253H259.4C259.583 369.253 259.726 369.297 259.827 369.386C259.935 369.475 260.014 369.576 260.065 369.69L262.136 374.744C262.205 374.915 262.262 375.086 262.307 375.257C262.357 375.428 262.405 375.602 262.449 375.779C262.506 375.602 262.563 375.428 262.62 375.257C262.677 375.08 262.741 374.905 262.81 374.734L264.767 369.69C264.818 369.563 264.9 369.459 265.014 369.376C265.135 369.294 265.268 369.253 265.413 369.253H267.294ZM272.476 369.101C273.198 369.101 273.853 369.218 274.442 369.453C275.038 369.687 275.544 370.019 275.962 370.45C276.387 370.881 276.713 371.406 276.941 372.027C277.169 372.648 277.283 373.341 277.283 374.107C277.283 374.88 277.169 375.577 276.941 376.197C276.713 376.818 276.387 377.347 275.962 377.784C275.544 378.221 275.038 378.557 274.442 378.791C273.853 379.025 273.198 379.143 272.476 379.143C271.748 379.143 271.086 379.025 270.49 378.791C269.895 378.557 269.385 378.221 268.961 377.784C268.543 377.347 268.217 376.818 267.982 376.197C267.754 375.577 267.64 374.88 267.64 374.107C267.64 373.341 267.754 372.648 267.982 372.027C268.217 371.406 268.543 370.881 268.961 370.45C269.385 370.019 269.895 369.687 270.49 369.453C271.086 369.218 271.748 369.101 272.476 369.101ZM272.476 377.337C273.287 377.337 273.885 377.065 274.271 376.52C274.664 375.976 274.86 375.178 274.86 374.126C274.86 373.075 274.664 372.274 274.271 371.723C273.885 371.172 273.287 370.896 272.476 370.896C271.653 370.896 271.041 371.175 270.642 371.732C270.25 372.283 270.053 373.081 270.053 374.126C270.053 375.171 270.25 375.969 270.642 376.52C271.041 377.065 271.653 377.337 272.476 377.337ZM273.73 365.111L271.839 367.59C271.738 367.717 271.627 367.806 271.507 367.856C271.387 367.901 271.238 367.923 271.06 367.923H270.101L271.298 365.614C271.387 365.45 271.494 365.326 271.621 365.244C271.754 365.155 271.947 365.111 272.2 365.111H273.73ZM277.045 365.111L274.651 367.59C274.537 367.717 274.423 367.806 274.309 367.856C274.202 367.901 274.056 367.923 273.872 367.923H272.77L274.452 365.614C274.509 365.532 274.563 365.462 274.613 365.405C274.67 365.342 274.731 365.288 274.794 365.244C274.864 365.2 274.943 365.168 275.031 365.149C275.12 365.124 275.228 365.111 275.354 365.111H277.045ZM282.137 379.152C281.288 379.152 280.636 378.914 280.18 378.439C279.73 377.958 279.505 377.296 279.505 376.454V371.01H278.508C278.381 371.01 278.273 370.969 278.185 370.887C278.096 370.805 278.052 370.681 278.052 370.516V369.585L279.619 369.329L280.113 366.669C280.145 366.542 280.205 366.444 280.294 366.374C280.382 366.305 280.496 366.27 280.636 366.27H281.852V369.338H284.455V371.01H281.852V376.292C281.852 376.596 281.924 376.834 282.07 377.005C282.222 377.176 282.428 377.261 282.688 377.261C282.833 377.261 282.954 377.246 283.049 377.214C283.15 377.176 283.235 377.138 283.305 377.1C283.381 377.062 283.448 377.027 283.505 376.995C283.562 376.957 283.619 376.938 283.676 376.938C283.745 376.938 283.802 376.957 283.847 376.995C283.891 377.027 283.938 377.078 283.989 377.147L284.692 378.287C284.35 378.572 283.957 378.788 283.514 378.933C283.071 379.079 282.612 379.152 282.137 379.152ZM288.579 365.263V370.697C288.579 371.273 288.55 371.84 288.493 372.397C288.436 372.948 288.364 373.534 288.275 374.155H286.679C286.59 373.534 286.517 372.948 286.46 372.397C286.403 371.84 286.375 371.273 286.375 370.697V365.263H288.579ZM286.004 377.708C286.004 377.512 286.039 377.325 286.109 377.147C286.185 376.97 286.286 376.818 286.413 376.691C286.546 376.565 286.701 376.463 286.878 376.387C287.056 376.311 287.246 376.273 287.448 376.273C287.645 376.273 287.832 376.311 288.009 376.387C288.186 376.463 288.338 376.565 288.465 376.691C288.598 376.818 288.702 376.97 288.778 377.147C288.854 377.325 288.892 377.512 288.892 377.708C288.892 377.911 288.854 378.101 288.778 378.278C288.702 378.449 288.598 378.598 288.465 378.724C288.338 378.851 288.186 378.949 288.009 379.019C287.832 379.095 287.645 379.133 287.448 379.133C287.246 379.133 287.056 379.095 286.878 379.019C286.701 378.949 286.546 378.851 286.413 378.724C286.286 378.598 286.185 378.449 286.109 378.278C286.039 378.101 286.004 377.911 286.004 377.708Z" fill="#7C6629"/>
<defs>
<clipPath id="clip0_254_256">
<rect width="200" height="118" fill="white" transform="translate(56 225)"/>
</clipPath>
</defs>
</svg>
