<svg width="100" height="170" viewBox="0 0 100 170" fill="none" xmlns="http://www.w3.org/2000/svg">
<g clip-path="url(#clip0_1414_46226)">
<path d="M50.7718 103.239C51.168 104.822 51.4792 106.915 51.7056 109.516C51.932 112.231 51.8189 115.058 51.3661 117.999C50.8567 121.562 50.602 123.683 50.602 124.361C50.4322 127.246 51.0265 130.13 52.3848 133.014C53.1771 134.711 54.5637 137.567 56.5445 141.582C59.6573 149.556 59.9685 159.029 57.4784 170" stroke="#D6D6D6" stroke-width="2.88637" stroke-miterlimit="10"/>
<path d="M66.6466 42.8394L65.9674 42.3304L65.4581 41.8215L63.0811 40.0401L62.1472 39.5311L61.8077 39.2766L60.789 38.7676L60.4494 38.5131L57.9875 37.4103L57.6479 37.3254C57.1951 37.0992 56.8556 36.9862 56.6292 36.9862L54.9313 36.3923L53.7428 36.1379L53.4882 36.053L52.2148 35.7985L51.9601 35.7137L50.6867 35.544H50.432C50.0924 35.4875 49.6397 35.4592 49.0737 35.4592L45.7629 35.3744C37.2736 35.8268 30.1709 39.4462 24.4547 46.2326C18.7952 53.019 16.1918 61.0214 16.6445 70.2396L17.2388 75.4991L17.6633 77.1957L17.8331 77.7047L18.0877 78.8075L18.682 80.3345L18.7669 80.8434L19.446 82.3704C19.5592 82.8228 19.729 83.1904 19.9554 83.4731L20.8043 85.2546L21.6533 86.6119C21.7665 86.9512 22.0211 87.347 22.4173 87.7995L22.5022 87.8844L23.2662 89.1568L23.3511 89.3265L24.2849 90.4293L24.3698 90.5141L25.3885 91.7017H25.4734L26.4921 92.8893C32.944 99.3364 40.4429 102.39 48.9888 102.051C48.6492 102.73 48.4229 103.437 48.3097 104.172C48.1399 105.02 48.1682 105.642 48.3946 106.038C48.621 106.49 49.3001 106.688 50.432 106.632C51.6205 106.575 52.4978 106.293 53.0637 105.784C53.7994 105.218 53.4881 103.861 52.1299 101.712C59.8268 100.581 66.1655 96.7067 71.1459 90.0899C76.1829 83.4732 78.5033 75.8667 78.1072 67.2706C77.711 58.5048 74.6265 51.0679 68.8538 44.9602L68.2595 44.4512L67.7502 43.8574L66.6466 42.8394Z" fill="#F16922"/>
<path d="M68.5135 83.9821C68.6833 85.2828 68.6833 87.2622 68.5135 89.9202C68.0608 94.501 66.3629 99.1667 63.4199 103.917C59.911 109.516 57.9019 113.192 57.3926 114.945C55.5249 121.732 57.4491 129.621 63.1653 138.613" stroke="#D6D6D6" stroke-width="2.88637" stroke-miterlimit="10"/>
<path d="M94.5762 35.7983L93.2179 34.1017L91.2654 32.1506L91.0956 31.8961L90.4164 31.3023L90.1618 31.1327L88.379 29.6905L88.2092 29.6057L87.2754 29.0119L84.7286 27.8243L83.5401 27.2305L82.5214 26.8911L82.3516 26.8063L81.1631 26.3822H81.0782L79.8897 26.1277C72.8719 24.5442 66.2502 25.9297 60.0247 30.2843C53.8558 34.5824 49.9224 40.5771 48.2246 48.2684L47.885 49.7105L47.5454 52.6796V57.43L47.6303 58.448L47.7152 58.8722L47.8001 59.975L47.885 60.2295L48.1397 61.3322L48.2246 61.5867L48.4792 62.6895L48.5641 62.8592L48.8188 64.0468L48.9037 64.2165L49.3282 65.3193L49.4131 65.4889L49.8375 66.6766V66.7614L50.4318 67.8642V67.949L51.026 69.1366C54.5915 75.7534 60.0247 79.9666 67.3255 81.7764C66.8727 82.2288 66.5332 82.766 66.3068 83.3881C66.0238 84.0102 65.9106 84.5192 65.9672 84.9151C66.0238 85.311 66.5332 85.622 67.4953 85.8482C68.4574 86.0744 69.2498 86.0462 69.8723 85.7634C70.3251 85.5372 70.5231 84.9434 70.4666 83.9819C70.3534 83.3599 70.1836 82.766 69.9572 82.2005C76.5789 82.9923 82.6912 81.2391 88.2941 76.941C93.9536 72.5864 97.5758 66.8179 99.1604 59.6356C100.858 52.2837 99.9811 45.4407 96.5287 39.1067L96.2741 38.4281L95.2553 36.8163L94.8309 36.3073L94.5762 35.7983Z" fill="#FFD02E"/>
<path d="M26.6616 51.5769C32.3778 56.8929 35.632 62.5483 36.4243 68.543C36.8205 71.71 36.3678 75.2728 35.0661 79.2316C33.1984 84.7173 32.1231 88.4781 31.8401 90.514C30.5384 99.0536 32.4343 108.215 37.5279 117.999" stroke="#D6D6D6" stroke-width="2.88637" stroke-miterlimit="10"/>
<path d="M29.8027 1.44218L29.0386 1.10284L27.935 0.763494L27.7652 0.678684L26.8314 0.509065L26.7465 0.424152L25.6429 0.254532H25.4732L24.5393 0.0849132H24.4544L23.5206 0L20.04 0.0849132C13.8145 0.707002 8.77749 3.59119 4.92901 8.73757C1.02392 13.8839 -0.56078 19.7938 0.174961 26.4671L0.259885 27.7396L1.02389 31.3024L1.44836 32.4901L1.61815 32.8294L2.04262 34.1019L2.46709 34.8653L2.55201 35.2046L2.89155 35.9681L3.06135 36.2226L3.48581 37.0709L3.65561 37.1557L4.16495 38.004L4.24987 38.1736L4.84408 39.0219L4.92901 39.1917L5.52327 40.04L5.60814 40.1248L6.28728 40.9731H6.3722L7.98514 42.5849C10.249 44.6774 12.7957 46.2608 15.6255 47.3354C18.5685 48.3533 21.5397 48.7492 24.5393 48.523C23.9733 49.7672 23.8885 50.7286 24.2846 51.4073C24.4544 51.69 24.9638 51.8031 25.8127 51.7465C26.6616 51.6899 27.2842 51.4638 27.6804 51.0679C28.2463 50.5589 27.9633 49.5975 26.8314 48.1837C32.491 47.0526 37.0186 43.9987 40.4143 39.0219C43.81 33.9887 45.1967 28.3051 44.5741 21.9711C43.9516 15.5805 41.433 10.2928 37.0186 6.10785L35.3207 4.58086L34.8963 4.32643L34.4718 3.98709C34.4152 3.93053 34.2454 3.81741 33.9625 3.64775L33.7077 3.39321L33.0286 2.96906L32.7739 2.88425L32.0948 2.4601L30.7365 1.78152C30.6799 1.72497 30.4252 1.61184 29.9725 1.44218H29.8027Z" fill="#44A5C2"/>
</g>
<defs>
<clipPath id="clip0_1414_46226">
<rect width="100" height="170" fill="white"/>
</clipPath>
</defs>
</svg>
