<svg width="114" height="160" viewBox="0 0 114 160" fill="none" xmlns="http://www.w3.org/2000/svg">
<g clip-path="url(#clip0_674_21954)">
<path d="M83.845 104.762H83.7768L83.5722 104.694H83.4357L83.3675 105.034L83.1628 105.374L83.0264 105.782L82.5489 106.531L82.4124 106.939L82.1395 107.347L81.8666 108.095L81.6619 108.503L81.5255 108.912L81.3208 109.32L81.0479 109.66L80.9797 110.068L80.5022 110.816L80.3657 111.224L80.0928 111.633L80.0246 112.041L79.8882 112.449L79.6153 112.789L79.4106 113.197L79.3423 113.605L79.0012 113.946L78.933 114.422L78.1144 115.918L78.0461 116.326L77.8415 116.735L77.5004 117.075L77.4322 117.483L77.2275 117.891L76.9546 118.231L76.7499 119.116L76.4088 119.388L76.3405 119.864L76.0677 120.204L75.9994 120.612L75.7266 121.02L75.6583 121.429L75.3855 121.769L75.249 122.245L74.9761 122.585L74.7033 123.401L74.3621 123.741L74.021 124.49L73.9527 124.966L73.2705 126.054L73.2023 126.531L72.9294 126.871L72.8612 127.279L72.1108 128.844L71.8379 129.184L71.6332 129.592L71.3603 130.408L70.8827 131.156L70.337 132.313L70.2688 132.721L70.0641 132.925V132.993C70.0641 133.084 70.1551 133.175 70.337 133.265L70.6099 133.333L70.6781 133.265L70.7463 132.993L71.1556 132.245L71.2921 131.837L71.565 131.429L71.7014 131.02L71.9744 130.68L72.1108 130.272L72.7248 129.116L72.793 128.707L73.0659 128.367L73.3388 127.483L73.9527 126.395L74.2256 125.578L74.4986 125.17L74.635 124.762L74.9079 124.422L74.9761 124.014L75.249 123.605L75.3855 123.197L75.6583 122.857L75.7266 122.449L75.9312 122.041L76.2041 121.701L76.3405 121.292L76.7499 120.544L76.8181 120.068L77.2957 119.32L77.4322 118.912L77.8415 118.163L77.9097 117.755L78.2508 117.415L78.3872 117.007L78.5919 116.599L78.7283 116.19L79.0012 115.85L79.0694 115.442L79.2741 115.034L79.547 114.694L79.6835 114.286L79.8882 113.878L80.0246 113.469L80.2293 113.061L80.3657 112.653L80.775 111.905L80.9115 111.497L81.389 110.748L81.6619 109.932L82.003 109.184L82.4806 108.435L82.6171 108.027L82.89 107.619V107.211L83.1628 106.803L83.2993 106.395L83.5722 106.054L83.7086 105.646L83.9133 105.238C84.0043 105.147 84.027 105.057 83.9815 104.966C84.027 104.921 83.9815 104.853 83.845 104.762Z" fill="#373535"/>
<path d="M30.8369 107.755L30.7687 107.279L30.4958 106.463L30.2912 106.054L30.1547 105.646L29.8818 105.238V105.034C29.8818 104.898 29.7454 104.875 29.4725 104.966L29.2678 105.102V105.238L29.4043 105.442L29.5407 105.85L29.6089 106.327L29.8818 106.735L29.95 107.143L30.1547 107.551L30.2229 107.959L30.6323 108.776L30.9051 109.592L31.178 110L31.2463 110.408L31.5192 110.816L31.7921 111.633L31.9967 112.041L32.1332 112.449L32.5425 113.265L32.6107 113.674L32.8154 114.082L32.9518 114.49L33.2247 114.898L33.2929 115.306L33.4976 115.714L33.5658 116.191L33.8387 116.531L33.9752 116.939L34.0434 117.415L34.3163 117.755L34.4527 118.163L34.521 118.64L34.8621 118.98L35.1349 119.864L35.3396 120.204L35.4079 120.68L35.5443 121.088L35.8172 121.429L35.8854 121.905L36.0901 122.313L36.2265 122.721L36.4994 123.129L36.5676 123.537L36.7723 123.946L37.0452 124.762L37.2499 125.17L37.3863 125.578L37.7956 126.395L37.9321 126.803L38.1368 127.211L38.4096 128.027L38.6143 128.435L38.6825 128.844L38.8872 129.252L39.1601 129.66L39.7059 131.293L39.9105 131.701L39.9788 132.177L40.3199 132.517L40.3881 132.925L40.5928 133.333L40.7292 133.81L41.2068 134.83C41.2977 134.921 41.3887 134.943 41.4796 134.898L41.5479 134.83L41.6843 134.762L41.8208 134.626L41.6161 134.354L41.4796 133.946L41.275 133.537L41.1385 133.129L41.0703 132.653L40.8657 132.313L40.7292 131.837L40.3199 131.088L40.1834 130.68L39.9105 130.272L39.7059 129.388L39.5012 129.048L39.2283 128.163L39.0236 127.755L38.9554 127.347L38.4779 126.599L38.4096 126.123L38.205 125.714L37.9321 125.374V124.898L37.6592 124.558L37.3181 123.674L37.2499 123.265L37.1134 122.857L36.6359 122.109V121.633L36.3629 121.225L36.1583 120.816L36.0901 120.408L35.8854 120L35.6125 119.592V119.184L35.3396 118.776L35.2714 118.367L34.9985 117.959L34.9303 117.551L34.6574 117.143L34.5892 116.735L34.3163 116.327L34.2481 115.918L33.8387 115.102L33.7705 114.626L33.634 114.218L33.4294 113.81L33.1565 113.469L33.0201 113.061L32.9518 112.585L32.8154 112.177L32.4743 111.837L32.406 111.361L32.2014 111.02L32.0649 110.612L31.8603 110.204L31.7238 109.796L31.5192 109.388L31.451 108.912L31.3145 108.503L31.1098 108.095L30.8369 107.755Z" fill="#373535"/>
<path d="M55.3962 112.041H55.1915L55.1233 112.109L55.1915 112.313V112.653L55.1233 112.925L55.1915 113.265L55.1233 113.537L55.1915 113.878L55.0551 114.218L55.1233 114.49V115.442L55.2598 115.714L55.1233 116.054L55.2598 116.667L55.1915 117.007V117.619L55.2598 117.891V118.231L55.1915 118.503L55.2598 118.843L55.1915 119.116L55.328 119.456L55.2598 119.796L55.328 120.068L55.1915 120.408L55.328 120.68V121.02L55.1915 121.292L55.328 121.633V121.905L55.2598 122.245L55.3962 122.517V122.857L55.328 123.197L55.3962 123.469L55.328 123.809V124.082L55.3962 124.422L55.2598 124.694L55.328 125.034V125.306L55.3962 125.646L55.328 125.986L55.3962 126.258V126.599L55.328 126.871L55.3962 127.211L55.328 127.483L55.3962 127.823V128.095L55.4644 128.435V128.775L55.3962 129.048L55.4644 129.388V129.66L55.3962 130V130.272L55.5326 130.612V131.224L55.4644 131.497V132.177L55.3962 132.449L55.6009 132.789L55.5326 133.061V133.401L55.4644 133.673L55.5326 134.014V134.286C55.5326 134.467 55.5554 134.558 55.6009 134.558L55.8055 134.626H55.8737L56.0784 134.558H56.2148L56.1466 134.286V134.014L56.0784 133.673L56.2148 133.061L56.1466 132.721L56.2148 132.449L56.1466 132.109V131.497L56.0102 131.224L56.1466 130.612L56.0784 130.272L56.1466 129.932V129.66L56.0784 129.32L56.1466 129.048L56.0102 128.435L56.0784 128.095V127.823L55.942 127.483L56.0784 127.211L56.0102 126.871V126.258L56.0784 125.918V125.646L55.942 125.306V125.034L56.0784 124.694L55.942 124.422V124.082L56.0784 123.741L55.942 123.469L55.8737 123.129L56.0102 122.857L55.8737 122.517L56.0102 122.245L55.8737 121.905L56.0102 121.633L55.8737 121.292L55.942 120.952L55.8737 120.68L55.942 120.34L55.8737 120.068V119.728L55.942 119.456V118.843L55.8055 118.503V118.231L55.942 117.551L55.8055 117.279L55.8737 116.939L55.8055 116.667V115.442L55.8737 115.102V114.49L55.7373 114.15L55.8737 113.537V113.265L55.8055 112.925V112.653L55.7373 112.313V112.245L55.8055 112.109C55.851 112.063 55.7145 112.041 55.3962 112.041Z" fill="#373535"/>
<path d="M102.197 90.6121C100.378 86.9386 97.6266 84.4896 93.9425 83.2651C89.4399 81.8139 84.8462 82.4715 80.1616 85.2379C75.4315 88.0497 71.9976 92.1767 69.8599 97.6189C69.3142 98.9794 68.9049 100.34 68.632 101.701C67.3585 98.5713 65.38 96.0316 62.6966 94.0815C59.9222 92.1314 56.875 91.1563 53.5548 91.1563C50.644 91.1563 47.9378 91.9273 45.4363 93.4692C42.9803 94.9205 41.0018 96.9159 39.5009 99.4556C38.7277 95.4647 36.8402 92.1994 33.8384 89.6597C30.8367 87.0293 27.38 85.7141 23.4686 85.7141C18.9659 85.7141 15.1227 87.3695 11.939 90.6801C18.5338 99.1155 26.9252 105.238 37.1131 109.047L38.6822 109.592C44.7768 111.587 50.8941 112.585 57.0341 112.585C60.9456 112.585 64.7888 112.199 68.5638 111.428L69.7917 111.156C76.2956 109.66 82.3447 107.12 87.9389 103.537C93.4422 100.045 98.1951 95.7368 102.197 90.6121Z" fill="#0E6C65"/>
<path d="M17.5329 101.701L17.9422 102.245L18.8974 104.082L19.3067 104.626L19.5114 105.306L19.9889 105.85L21.1487 108.299L21.6263 108.843L21.9674 109.456L22.172 110.136L22.5814 110.68L22.9225 111.292L23.1272 111.905L23.9458 113.061L24.1505 113.741L24.6281 114.286L24.8327 114.898L25.242 115.442L25.515 116.122L25.9243 116.667L26.1972 117.279L26.6065 117.891L26.8112 118.503L27.2205 119.048L27.5616 119.66L27.7663 120.34L28.1074 120.952L28.9261 122.041L29.2672 122.653L29.4719 123.333L29.813 123.946L30.2223 124.49L30.4952 125.102L30.9045 125.646L31.1774 126.326L31.5867 126.871L33.1559 129.932L33.5652 130.476L34.111 131.769L34.4521 132.313L35.0661 133.537L35.5437 134.082L35.6801 134.49L35.7483 134.626C35.7938 134.671 35.9075 134.626 36.0895 134.49L36.2941 134.354C36.3396 134.308 36.3169 134.263 36.2259 134.218L35.6801 133.265L35.4072 132.585L34.9979 132.041L34.7932 131.361L34.3839 130.816L34.111 130.136L32.8148 127.755L32.3372 127.211L32.1326 126.531L31.3821 125.442L31.1092 124.762L30.427 123.537L29.6765 122.381L29.4036 121.769L29.0625 121.224L28.7896 120.544L28.3803 120L28.1074 119.388L27.6981 118.775L27.4934 118.163L27.0159 117.619L26.47 116.326L26.0607 115.782L25.515 114.558L25.0374 114.014L23.4683 110.952L23.0589 110.408L22.8543 109.728L22.172 108.503L21.7627 107.959L21.4898 107.347L21.0805 106.735L20.5347 105.51L20.1253 104.966L19.8525 104.354L18.7609 102.585L16.8507 98.9115L16.4414 98.3673L15.7591 97.1428L15.5544 96.5306L14.5311 94.6938L14.1218 94.1496L13.8489 93.5374L13.4395 92.9251L12.8255 91.7006L12.4844 91.1564C12.348 90.8843 12.257 90.7483 12.2115 90.7483C12.2115 90.5669 12.1206 90.5442 11.9386 90.6802L11.8704 90.7483L11.734 90.8163L11.6658 90.9523L12.2797 92.0408L12.6891 92.585L13.2349 93.8775L14.9404 96.8707L15.3498 97.4149L15.8955 98.6394L16.3049 99.2517L17.5329 101.701Z" fill="#373535"/>
<path d="M102.265 90.6803L101.993 90.5442H101.856L100.423 92.8571L99.9459 93.4013L99.6048 94.0816L99.1954 94.6258L98.8543 95.3061L98.0356 96.4626L97.7627 97.1428L96.8759 98.2993L96.5348 98.9796L96.0572 99.5238L95.3749 100.748L94.8974 101.293L94.2152 102.653L93.7376 103.197L93.1236 104.422L92.5778 104.966L92.3049 105.646L90.6676 108.027L90.3947 108.707L89.9853 109.32L89.5078 109.864L88.8256 111.156L88.2798 111.701L87.6658 112.993L87.1882 113.537L86.0967 115.374L85.6192 115.918L85.3463 116.599L84.8686 117.211L84.5275 117.823L84.05 118.367L83.7771 119.048L83.3678 119.66L82.8903 120.204L82.1397 121.429L81.8669 122.109L81.4575 122.721L80.98 123.265L80.5707 123.878L80.2978 124.558L79.8202 125.102L79.5473 125.714L79.0697 126.327L77.9782 128.163L77.5007 128.707L75.9997 131.224L75.5222 131.769L74.84 132.993L74.3624 133.605L74.0895 134.218L73.953 134.422L73.8166 134.558C73.7711 134.558 73.7484 134.603 73.7484 134.694C73.7484 134.785 73.8166 134.875 73.953 134.966L74.2259 135.102L74.2941 134.966L74.9082 133.946L75.3858 133.401L75.7269 132.721L76.2044 132.177L76.4773 131.497L76.9548 130.952L78.524 128.503L78.7969 127.823L79.3426 127.279L79.9567 126.054L80.4342 125.442L80.7753 124.83L81.2529 124.218L81.5258 123.605L82.6856 121.769L83.1631 121.224L83.436 120.544L83.9136 120L84.2547 119.32L84.7322 118.775L85.0051 118.095L85.4145 117.483L85.892 116.939L86.1649 116.326L87.0518 115.102L87.3247 114.422L88.1434 113.265L88.4845 112.653L89.3714 111.497L89.6442 110.816L90.1218 110.272L90.9405 109.048L91.2134 108.367L91.6909 107.823L92.032 107.143L96.2619 100.476L96.7394 99.9319L97.4216 98.6394L98.1721 97.4149L98.6497 96.8707L99.8094 95.034L100.082 94.3537L100.56 93.8095L100.901 93.1292L101.31 92.585L102.061 91.3605C102.243 91.1791 102.334 91.0204 102.334 90.8843C102.379 90.7936 102.356 90.7256 102.265 90.6803Z" fill="#373535"/>
<path d="M39.5009 99.4558L39.2963 99.5238L39.228 99.5918L39.2963 100L39.5691 100.952L39.7056 101.905L39.842 102.381L39.9103 102.857L40.1832 103.81L40.2514 104.286L40.456 104.762L40.5925 105.782L40.7289 106.259L40.7971 106.735L41.07 107.687V108.163L41.2747 108.639L41.4112 109.116L41.5476 110.068L41.7523 110.544V111.02L41.9569 111.497L42.0934 111.973L42.298 113.469L42.5027 113.946L42.6392 114.422V114.898L42.8438 115.374L42.9121 115.85V116.327L43.3214 117.279L43.2532 117.823L43.526 118.231V118.776L43.7307 119.184V119.728L43.9354 120.204L44.0036 120.68L44.1401 121.156V121.633L44.3447 122.109L44.4812 122.585V123.061L44.5494 123.537L44.6858 124.014L44.9587 124.49L45.0269 124.966V125.51L45.1634 125.986L45.3681 126.395V126.939L45.5727 127.415L45.641 127.891L45.9138 128.844L46.1185 130.272L46.2549 130.748L46.4596 131.224L46.5279 131.701V132.245L46.8008 133.197L46.869 133.673L47.0736 134.15V134.422L47.1419 134.49C47.1874 134.535 47.3011 134.535 47.483 134.49C47.6194 134.49 47.6876 134.467 47.6876 134.422C47.7331 134.376 47.7331 134.331 47.6876 134.286L47.483 133.537V133.061L47.3465 132.585L47.2783 132.041L47.1419 131.565L47.0736 131.088L46.9372 130.612L46.869 130.136L46.7325 129.66L46.6643 129.184L46.3914 128.707L46.4596 128.231L46.2549 127.755L46.1185 127.279L46.0503 126.803L45.9138 126.327L45.8456 125.782L45.5727 124.898L45.5045 124.354L45.3681 123.878L45.2999 123.401L45.0952 122.925V122.449L44.8905 121.973V121.497L44.6858 121.02L44.5494 120L44.2765 119.048V118.571L44.0036 118.095L43.8672 117.143L43.7307 116.667L43.5943 115.714L43.3214 115.238L43.3896 114.762L43.1167 113.741L42.9121 113.333V112.789L42.7074 112.381L42.6392 111.837V111.361L42.4345 110.884L42.3663 110.408L41.8205 108.503V108.027L41.5476 107.075V106.531L41.4112 106.054L41.2065 105.646L40.8654 103.673L40.7289 103.197L40.6607 102.721L40.3878 102.245V101.769L40.1832 101.293V100.816L39.9103 99.8639C39.9103 99.6825 39.8648 99.5692 39.7738 99.5238C39.7738 99.4331 39.7056 99.4104 39.5691 99.4558H39.5009Z" fill="#373535"/>
<path d="M68.2906 103.129V103.537L68.0177 104.354V104.762L67.8813 105.238V105.646L67.7448 106.463V106.939L67.4719 107.755V108.163L67.3355 108.571L67.2673 108.98V109.456L67.1308 109.864V110.748L66.9261 111.088L66.8579 111.565L66.9261 111.973L66.7214 112.381L66.7896 112.857L66.6532 113.674L66.3803 114.49L66.4485 114.966L66.3803 115.374L66.1757 115.782L66.2439 116.191L66.1757 116.599L65.971 117.007V117.891L65.7663 118.299L65.8346 118.708L65.6981 119.116V119.592L65.4935 120L65.5617 120.408L65.4252 120.816V121.293L65.2888 121.701V122.109L65.2206 122.517L65.0159 122.925L64.9477 123.333V123.81L65.0159 124.218L64.743 125.034L64.6748 125.442L64.743 125.918L64.5384 126.327V126.735L64.4019 127.619V128.027L64.129 128.844L63.9925 129.66L64.0607 130.136L63.7879 130.952L63.7196 131.361V131.769L63.5832 132.245V132.789L63.515 132.857C63.515 132.993 63.6287 133.084 63.8561 133.129H64.0607C64.1062 133.129 64.129 133.084 64.129 132.993V132.721L64.1972 132.313L64.4019 131.905V131.497L64.5384 131.088V130.612L64.6748 130.204L64.9477 128.503L64.8795 128.095L65.0841 127.687V126.803L65.2206 126.395L65.2888 125.986L65.4252 125.578V124.694L65.5617 124.286V123.878L65.6981 123.469V123.061L65.8346 122.653V122.177L66.0392 121.769L65.971 121.361L66.0392 120.952L66.2439 120.544L66.1757 120.068L66.4485 119.252L66.3803 118.776L66.4485 118.367L66.585 117.959V117.551L66.7214 117.143L66.7896 116.735L66.7214 116.259L66.9944 115.85V115.442L67.0626 115.034V114.626L67.1991 114.218V113.742L67.2673 113.333L67.4719 112.925V112.517L67.6084 111.633V111.225L67.9495 109.116L68.0859 108.708L68.1541 108.299L68.0859 107.823L68.2224 107.415L68.2906 107.007L68.427 106.599L68.4952 106.191V105.714L68.6317 105.306L68.5635 104.898L68.6999 104.49V104.014L68.8363 103.606L68.9728 102.789V102.449L68.7681 102.313H68.4952L68.3588 102.381V102.721L68.2906 103.129Z" fill="#373535"/>
<path d="M61.1277 137.891L62.7651 135.918L59.9679 136.054L61.1277 137.891Z" fill="#2A88BC"/>
<path d="M68.0867 137.959L69.3148 136.463H69.383L68.1549 138.027L71.4979 143.469L73.2716 141.293C72.9533 138.163 72.6122 136.417 72.2483 136.054C71.9299 135.782 70.0879 135.692 66.7223 135.782L68.0867 137.959Z" fill="#9FD1C5"/>
<path d="M73.6808 147.007C73.5898 144.921 73.4533 143.039 73.2714 141.361L71.5658 143.537L73.6808 147.007Z" fill="#EF7A55"/>
<path d="M45.5039 137.075L48.7104 142.177L53.0766 137.279L52.5991 136.463L45.6404 136.939L45.5039 137.075Z" fill="#9FD1C5"/>
<path d="M40.8651 142.585L45.5042 137.007L45.436 136.939L37.9315 137.483V137.755L40.8651 142.585Z" fill="#9FD1C5"/>
<path d="M53.1456 137.279L56.8297 143.129L61.1277 137.959L59.8997 136.054L53.9644 136.327L53.1456 137.279Z" fill="#9FD1C5"/>
<path d="M40.8659 142.585L37.9323 137.823L37.0454 147.211L40.8659 142.585Z" fill="#EF7A55"/>
<path d="M53.1449 137.211L53.8954 136.395C53.3496 136.395 52.9402 136.417 52.6674 136.463L53.1449 137.211Z" fill="#2A88BC"/>
<path d="M67.6083 148.435L70.2007 152.585L73.7483 148.095V147.143L71.4969 143.537L67.6083 148.435Z" fill="#9FD1C5"/>
<path d="M48.711 142.245L45.5045 137.075L40.9336 142.585L44.0036 147.551L48.711 142.245Z" fill="#EF7A55"/>
<path d="M67.6084 148.367L71.4971 143.537L68.0859 138.027L64.1973 142.925L67.6084 148.367Z" fill="#EF7A55"/>
<path d="M48.7109 142.245L44.0035 147.619L47.9604 154.014L52.5314 148.435L48.7109 142.245Z" fill="#9FD1C5"/>
<path d="M64.1972 142.857L68.0859 138.027L66.6532 135.782L62.8328 135.919L61.1272 137.959L64.1972 142.857Z" fill="#9FD1C5"/>
<path d="M56.8294 143.197L53.1454 137.279L48.7792 142.245L52.5315 148.367L56.8294 143.197Z" fill="#EF7A55"/>
<path d="M39.5688 152.517L36.9763 148.299C36.7034 151.429 36.567 153.968 36.567 155.918L39.5688 152.517Z" fill="#EF7A55"/>
<path d="M64.1978 142.925L61.1278 138.027L56.8979 143.197L59.968 148.163L64.1978 142.925Z" fill="#EF7A55"/>
<path d="M67.6086 148.503L63.447 153.673L65.8348 157.483H66.3123L70.201 152.585L67.6086 148.503Z" fill="#EF7A55"/>
<path d="M56.8291 143.197L52.5994 148.435L55.7376 153.537L59.9674 148.231L56.8291 143.197Z" fill="#9FD1C5"/>
<path d="M43.9348 147.619L40.8648 142.653L37.0443 147.279L36.9761 148.231L39.5685 152.517L43.9348 147.619Z" fill="#9FD1C5"/>
<path d="M55.7376 153.605L52.5994 157.619L58.1936 157.551L55.7376 153.605Z" fill="#9FD1C5"/>
<path d="M55.7381 153.537L52.5316 148.435L48.0289 154.014L50.2121 157.619H52.5316L55.7381 153.537Z" fill="#EF7A55"/>
<path d="M47.9602 154.082L45.0948 157.551H50.1433L47.9602 154.082Z" fill="#9FD1C5"/>
<path d="M63.3782 153.673L59.9671 148.231L55.7373 153.537L58.2615 157.551H60.3765L63.3782 153.673Z" fill="#EF7A55"/>
<path d="M63.447 153.741L60.377 157.551L65.7665 157.483L63.447 153.741Z" fill="#9FD1C5"/>
<path d="M70.2016 152.653L66.3811 157.483L73.2034 157.347L70.2016 152.653Z" fill="#9FD1C5"/>
<path d="M74.1582 157.347L73.7489 148.163L70.2013 152.585L73.2713 157.347H74.1582Z" fill="#EF7A55"/>
<path d="M47.9602 154.014L44.0033 147.619L39.6371 152.517L42.7071 157.483L45.0949 157.551L47.9602 154.014Z" fill="#EF7A55"/>
<path d="M64.1975 142.925L60.0359 148.231L63.447 153.674L67.6086 148.436L64.1975 142.925Z" fill="#9FD1C5"/>
<path d="M39.5688 152.585L36.567 155.986L36.7034 157.007C36.8854 157.233 38.8638 157.392 42.6388 157.483L39.5688 152.585Z" fill="#9FD1C5"/>
<path d="M55.6021 133.197C42.9127 133.741 36.0449 134.172 34.9988 134.49V136.599C35.0443 137.959 35.2035 138.594 35.4763 138.503L74.1586 136.803L74.3633 132.449C68.2232 132.676 61.9695 132.925 55.6021 133.197Z" fill="#2E575B"/>
<path d="M35.3398 156.667L35.681 160L75.7277 159.252L75.3866 155.442L35.3398 156.667Z" fill="#2E575B"/>
<path d="M102.197 90.6123C107.291 84.1271 110.748 76.9162 112.567 68.9797C113.113 66.6214 113.522 64.1497 113.795 61.5647C107.428 65.1021 99.582 67.9819 90.2582 70.2042C80.5706 72.4717 70.269 73.7642 59.3534 74.0817C47.3008 74.4899 35.9758 73.6962 25.3785 71.7007C15.1451 69.7506 6.82198 66.8935 0.409058 63.1293C0.772912 65.9411 1.31867 68.6622 2.04638 71.2926L2.18283 71.7007C4.18403 78.6849 7.43596 85.0114 11.9387 90.6803C15.1224 87.3697 18.9656 85.7144 23.4683 85.7144C27.3797 85.7144 30.8363 87.0296 33.8381 89.6599C36.8399 92.1996 38.7274 95.4649 39.5006 99.4559C41.0015 96.9162 42.98 94.9207 45.436 93.4695C47.9375 91.9275 50.6437 91.1565 53.5545 91.1565C56.8747 91.1565 59.9219 92.1316 62.6963 94.0817C65.3797 96.0318 67.3582 98.5715 68.6317 101.701C68.9046 100.34 69.3138 98.9797 69.8596 97.6191C71.9973 92.1769 75.4312 88.05 80.1613 85.2382C84.8459 82.4717 89.4396 81.8141 93.9422 83.2654C97.6263 84.4899 100.378 86.9388 102.197 90.6123Z" fill="#4EBEB9"/>
<path d="M54.6463 52.2449C44.4584 52.5624 34.7026 51.8367 25.3788 50.068C16.3734 48.3447 8.50511 45.805 1.77381 42.449C0.591288 46.9388 0 51.5419 0 56.2585C0 58.6168 0.13647 60.907 0.409361 63.1293C6.82229 66.8934 15.1454 69.7506 25.3788 71.7007C35.9761 73.6961 47.301 74.4898 59.3537 74.0816C70.2693 73.7642 80.5709 72.4717 90.2585 70.2041C99.5823 67.9819 107.428 65.102 113.795 61.5646C113.932 60.0227 114 58.4354 114 56.8027V56.2585C114 49.5918 112.886 43.1973 110.657 37.0748C104.153 41.4739 96.1029 45.0113 86.5063 47.6871C76.5458 50.4082 65.9258 51.9274 54.6463 52.2449Z" fill="#4EBEB9"/>
<path d="M114 56.8027V56.2585C114 49.5918 112.886 43.1973 110.657 37.0748C104.153 41.4739 96.1029 45.0113 86.5063 47.6871C76.5458 50.4082 65.9258 51.9274 54.6463 52.2449C44.4584 52.5624 34.7026 51.8367 25.3788 50.068C16.3734 48.3447 8.50508 45.805 1.77379 42.449C0.591263 46.9388 0 51.5419 0 56.2585C0 58.6168 0.136445 60.907 0.409336 63.1292C6.82226 66.8934 15.1454 69.7506 25.3788 71.7007C35.9761 73.6961 47.301 74.4898 59.3537 74.0816C70.2693 73.7642 80.5709 72.4717 90.2585 70.2041C99.5823 67.9819 107.428 65.102 113.795 61.5646C113.932 60.0227 114 58.4354 114 56.8027Z" fill="#356552"/>
<path d="M114 56.2586C114 50.6803 113.204 45.3062 111.612 40.1361L109.156 49.4558L103.698 45.7143L100.287 54.3538L92.1688 51.4967L84.1867 62.1769L76 56.0545L67.6768 65.2381L58.535 57.6191L49.666 66.7347L43.0485 56.2586L33.0198 66.3946L26.061 55.5783L16.1688 63.1973C13.4853 58.1633 11.3932 54.1497 9.89228 51.1565L4.84383 55.7143L1.36445 44.1497C0.454817 48.186 0 52.2223 0 56.2586C0 58.3901 0.13647 60.6803 0.409361 63.1293C6.82229 66.8935 15.1454 69.7506 25.3788 71.7007C35.9761 73.6962 47.301 74.4898 59.3537 74.0817C70.2693 73.7642 80.5709 72.4717 90.2585 70.2041C99.5823 67.9819 107.428 65.1021 113.795 61.5647C113.932 60.0227 114 58.4354 114 56.8028V56.2586Z" fill="#D6BF69"/>
<path d="M54.6464 52.2449C44.4585 52.5624 34.7026 51.8367 25.3789 50.068C16.3735 48.3447 8.50516 45.805 1.77386 42.449L1.3645 44.1497L4.84388 55.7143L9.89233 51.1565C11.3932 54.1497 13.4854 58.1633 16.1688 63.1973L26.0611 55.5782L33.0198 66.3946L43.0485 56.2585L49.6661 66.7347L58.535 57.619L67.6769 65.2381L76 56.0544L84.1867 62.1769L92.1688 51.4966L100.287 54.3537L103.698 45.7143L109.156 49.4558L111.612 40.1361L110.657 37.0748C104.153 41.4739 96.103 45.0113 86.5063 47.6871C76.5458 50.4082 65.9258 51.9274 54.6464 52.2449Z" fill="#2E575B"/>
<path d="M34.8624 31.0204C42.6852 32.4717 51.0311 33.1973 59.9 33.1973C68.9964 33.1973 77.5015 32.4263 85.4153 30.8844C93.1017 29.4331 99.4009 27.415 104.313 24.8299L103.631 23.8095L103.358 23.5374L102.88 22.8571L102.812 22.7211L101.106 20.5442L98.0365 17.1429L95.444 14.6939L90.9413 11.0884C90.8958 10.9977 90.7821 10.907 90.6002 10.8163L89.7816 10.2041L89.3722 10L88.3489 9.2517L86.0975 7.89116L85.8246 7.68707L83.5733 6.46259L83.2322 6.32653L80.9126 5.17007L79.3435 4.4898C72.2028 1.4966 64.7666 0 57.0347 0C48.4387 0 40.2974 1.79138 32.611 5.37415C25.1975 8.86621 18.83 13.7188 13.5087 19.932L16.1694 25.2381C21.0814 27.6871 27.3124 29.6145 34.8624 31.0204Z" fill="#4EBEB9"/>
<path d="M13.5086 19.932L12.0759 21.6327L11.9395 21.8368L11.5984 22.2449L11.4619 22.449C12.8264 23.4014 15.1914 24.7166 18.5571 26.3946L13.5086 19.932Z" fill="#2E575B"/>
<path d="M95.9205 27.9591C94.4196 27.2335 92.8959 26.4625 91.3495 25.6462C88.3022 24.1042 86.7332 23.2652 86.6422 23.1292C86.5512 22.9024 83.6404 25.6235 77.9097 31.2924L86.7786 40.3401L95.9205 27.9591Z" fill="#2E575B"/>
<path d="M31.6558 29.6598L24.2195 20.5442L15.8964 27.619L20.9449 39.2517L31.6558 29.6598Z" fill="#2E575B"/>
<path d="M104.04 24.6938L97.2177 21.7006L92.3057 28.0951L101.038 32.2448L104.04 24.6938Z" fill="#2E575B"/>
<path d="M45.4365 32.1768L38.0685 24.9659L27.9033 29.7959L34.9302 42.7891C41.9799 35.7596 45.482 32.2222 45.4365 32.1768Z" fill="#2E575B"/>
<path d="M63.7887 31.6326L54.6469 25.4421L42.8444 31.1564L52.7366 42.8571L63.7887 31.6326Z" fill="#2E575B"/>
<path d="M68.9054 25.306L59.5588 32.1768L70.4062 43.6734L80.5714 30.9523L68.9054 25.306Z" fill="#2E575B"/>
<path d="M25.3786 50.068C34.7023 51.8367 44.4582 52.5624 54.6461 52.2449C65.9256 51.9274 76.5455 50.4082 86.506 47.6871C96.1027 45.0113 104.153 41.4739 110.657 37.0748C109.019 32.7211 106.905 28.6395 104.312 24.8299C99.4001 27.415 93.1009 29.4331 85.4145 30.8843C77.5006 32.4263 68.9955 33.1973 59.8992 33.1973C51.0303 33.1973 42.6844 32.4716 34.8615 31.0204C27.3116 29.6145 21.0805 27.6871 16.1685 25.2381L15.5545 24.966L15.4181 24.8299L14.9405 24.6258L14.8041 24.4898L14.3947 24.2857L14.19 24.2177L13.0985 23.5374L12.962 23.4694L12.6209 23.1973L12.4163 23.1292C12.3708 23.0385 12.2571 22.9478 12.0752 22.8571L11.9387 22.7891L11.4611 22.449L11.3929 22.517L11.12 22.9252L10.9154 23.1292L10.1649 24.2177L10.0285 24.4898L9.68737 24.8979L9.07335 25.7823V25.8503L8.80048 26.1905L8.39112 26.9388L6.7538 29.7959L6.61735 29.932L6.34444 30.5442L6.27624 30.6122L5.86692 31.3605C4.00216 35.2154 2.63771 38.9116 1.77356 42.449C8.50486 45.805 16.3732 48.3447 25.3786 50.068Z" fill="#EF7A55"/>
</g>
<defs>
<clipPath id="clip0_674_21954">
<rect width="114" height="160" fill="white"/>
</clipPath>
</defs>
</svg>
