<svg width="493" height="392" viewBox="0 0 493 392" fill="none" xmlns="http://www.w3.org/2000/svg">
<path d="M30.3607 0C10.1202 58.0741 0 115.664 0 172.77C0 238.588 17.349 291.338 52.0469 331.022C86.7449 371.674 137.346 392 203.85 392V300.533C152.767 300.533 127.226 267.625 127.226 201.807V180.03H219.754V0H30.3607ZM303.607 0C284.33 59.042 274.692 116.632 274.692 172.77C274.692 238.588 291.559 291.338 325.293 331.022C359.991 371.674 410.592 392 477.097 392V300.533C426.978 300.533 401.918 267.625 401.918 201.807V180.03H493V0H303.607Z" fill="#67C3D3" fill-opacity="0.3"/>
<path d="M30.3607 0C10.1202 58.0741 0 115.664 0 172.77C0 238.588 17.349 291.338 52.0469 331.022C86.7449 371.674 137.346 392 203.85 392V300.533C152.767 300.533 127.226 267.625 127.226 201.807V180.03H219.754V0H30.3607ZM303.607 0C284.33 59.042 274.692 116.632 274.692 172.77C274.692 238.588 291.559 291.338 325.293 331.022C359.991 371.674 410.592 392 477.097 392V300.533C426.978 300.533 401.918 267.625 401.918 201.807V180.03H493V0H303.607Z" fill="url(#paint0_linear_674_22075)"/>
<defs>
<linearGradient id="paint0_linear_674_22075" x1="200.487" y1="400.045" x2="200.506" y2="19.7463" gradientUnits="userSpaceOnUse">
<stop stop-color="white" stop-opacity="0"/>
<stop offset="1" stop-color="white"/>
</linearGradient>
</defs>
</svg>
