<svg width="24" height="24" viewBox="0 0 24 24" fill="none" xmlns="http://www.w3.org/2000/svg">
<path d="M19.125 3.375C17.4375 3.375 15.975 4.95 15.75 5.625C11.8125 3.9375 3.375 5.2875 3.375 11.25C3.375 13.275 3.375 14.625 5.625 16.3125V20.25H10.125V18H13.5V20.25H18V15.75C19.125 15.1875 19.9125 14.625 20.25 13.5H22.5V9H20.25C20.25 7.875 19.6875 7.3125 19.125 6.75V3.375Z" stroke="#602D90" stroke-width="2" stroke-linecap="round" stroke-linejoin="round"/>
<path d="M1.5 8.99997C1.5 10.2375 2.1375 11.25 3.375 11.25" stroke="#602D90" stroke-width="1.33333" stroke-linecap="round" stroke-linejoin="round"/>
<path d="M11.25 8.19644C10.0125 8.19644 8.83929 8.19644 8.03572 9.00001" stroke="#602D90" stroke-width="2" stroke-linecap="round" stroke-linejoin="round"/>
</svg>
