<svg width="288" height="204" viewBox="0 0 288 204" fill="none" xmlns="http://www.w3.org/2000/svg">
<g clip-path="url(#clip0_1130_44797)">
<path d="M130.828 147.71C128.637 153.982 128.482 160.045 130.363 165.9C132.058 171.174 135.309 175.982 140.116 180.322C143.835 183.834 148.333 186.801 153.609 189.223C153.806 189.348 154.053 189.32 154.351 189.14C162.389 192.575 170.575 194.165 178.909 193.911C187.749 193.654 195.036 191.374 200.768 187.07C203.519 185.029 205.742 182.401 207.44 179.185C209.222 176.345 210.595 173.316 211.56 170.097C212.453 167.063 211.993 162.018 210.178 154.959C208.443 148.505 208.397 143.676 210.041 140.472C217.085 136.492 222.336 131.675 225.793 126.021C229.955 119.244 230.744 112.244 228.16 105.021C225.515 97.529 220.562 91.6655 213.301 87.4308C206.315 83.4166 198.751 81.713 190.609 82.32C187.458 82.5839 184.212 83.5488 180.87 85.2147C177.677 86.7901 174.908 88.7501 172.564 91.0946L171.354 92.4736C166.557 96.6781 163.834 101.967 163.186 108.341C163.031 109.904 162.915 112.138 162.837 115.042C162.715 117.504 162.285 119.47 161.546 120.94C160.924 121.93 160.32 122.747 159.733 123.39C158.819 124.333 157.863 125.089 156.864 125.656C155.622 126.391 153.647 127.378 150.942 128.616C148.224 129.8 146.217 130.766 144.921 131.514C141.937 133.268 139.14 135.603 136.53 138.517C133.742 141.642 131.841 144.706 130.828 147.71Z" fill="#DD8A45"/>
<path d="M193.746 114.633C192.384 113.585 190.946 112.95 189.432 112.728C187.971 112.494 186.169 112.621 184.026 113.109C182.741 113.401 181.37 113.94 179.913 114.724L177.505 116.036C174.641 117.819 173.31 120.414 173.514 123.821C172.865 128.44 174.634 132.792 178.82 136.877C180.854 138.905 183.348 139.979 186.304 140.099C188.794 140.155 191.461 139.492 194.303 138.109C199.221 135.689 201.749 131.661 201.888 126.026C201.909 120.87 199.195 117.073 193.746 114.633Z" fill="#C63A33"/>
<path d="M193.195 135.814C197.458 133.486 199.5 130.05 199.321 125.506C199.089 120.974 196.7 117.867 192.153 116.184C187.344 114.335 183.163 114.522 179.609 116.746L178.735 117.369C176.818 119.107 175.768 121.072 175.586 123.264C175.566 124.175 175.617 125.153 175.74 126.201C176.781 130.322 178.971 133.418 182.309 135.489C185.857 137.738 189.486 137.847 193.195 135.814Z" fill="#C63A33"/>
<path d="M230.644 15.9034C231.703 15.6059 233.775 15.927 236.859 16.8669C238.523 17.507 240.774 18.7496 243.611 20.5946C244.991 21.4694 245.76 22.2567 245.917 22.9567L246.016 23.0192L246.264 22.623C247.425 20.7741 248.263 19.3667 248.777 18.4006C249.76 16.7621 250.537 15.3399 251.111 14.1341C252.191 11.6808 251.776 9.70937 249.863 8.21996C249.26 7.79122 247.183 6.82044 243.632 5.30756C240.994 4.09646 238.685 3.34811 236.706 3.06252C235.538 2.87553 234.649 3.30421 234.039 4.34851C233.678 4.99662 233.31 5.98603 232.934 7.31682C232.763 7.8085 232.098 9.23324 230.94 11.591C229.983 13.8462 229.885 15.2837 230.644 15.9034Z" fill="#817672"/>
<path d="M234.163 17.6501C232.826 17.2183 231.763 17.1207 230.971 17.3574C229.026 22.7242 226.117 29.1875 222.244 36.7475C220.11 41.0253 216.864 47.3672 212.506 55.7734C211.472 57.9331 210.096 61.0761 208.379 65.2025C206.537 69.5271 205.14 72.7032 204.189 74.7309C203.699 75.8046 202.996 77.436 202.081 79.6252C201.225 81.5746 200.325 83.0811 199.382 84.1447C202.82 84.1551 205.589 84.5723 207.689 85.3963C210.147 86.3088 212.314 87.4289 214.19 88.7568C216.98 83.1411 222.197 71.7945 229.839 54.7169C232.708 47.9513 234.908 42.8381 236.437 39.377C239.064 33.289 241.514 28.2884 243.787 24.3753C243.595 24.0228 243.635 23.7023 243.908 23.4138C243.597 23.0318 243.134 22.5995 242.518 22.117C241.795 21.6587 241.297 21.3194 241.022 21.099C239.618 20.1165 238.301 19.3972 237.072 18.941C235.502 18.2227 234.533 17.7923 234.163 17.6501Z" fill="#D1BDB4"/>
<path d="M234.522 11.3707L235.588 11.9773C230.762 21.0559 225.014 32.665 218.343 46.8047C208.096 68.3236 202.506 80.01 201.572 81.8639C197.889 89.2675 192.502 100.483 185.412 115.511L177.835 131.753C177.273 133.012 176.36 134.833 175.094 137.215C174.007 139.387 173.305 141.273 172.99 142.873L172.015 142.67C171.657 142.582 171.288 142.694 170.908 143.007C170.54 143.374 170.506 143.721 170.805 144.049C171.583 145.004 172.65 145.865 174.005 146.633C174.256 146.745 175.515 147.336 177.783 148.405C178.482 148.755 179.601 149.35 181.142 150.188C182.473 150.847 183.63 151.235 184.614 151.351C185.543 151.479 186.319 151.048 186.941 150.057C187.563 149.067 187.295 148.505 186.139 148.372L185.522 148.258C185.896 146.418 186.718 144.193 187.989 141.583C189.533 138.685 190.6 136.546 191.19 135.167L198.99 118.789C207.807 100.426 213.242 89.1709 215.293 85.0252C226.99 61.1953 237.65 38.7616 247.273 17.7243C247.821 17.6563 248.234 17.3643 248.512 16.8482C248.79 16.3321 248.684 15.9882 248.195 15.8165C245.647 14.7547 243.746 13.942 242.493 13.3781C240.261 12.4708 238.331 11.7778 236.702 11.2992C236.666 11.1377 236.541 11.0813 236.326 11.13L234.895 10.7764C234.764 10.6931 234.609 10.7566 234.431 10.9669C234.295 11.1111 234.325 11.2458 234.522 11.3707ZM236.278 12.4146L237.836 13.3336C233.135 22.2142 227.374 33.7695 220.555 47.9995C211.23 67.6106 205.66 79.2641 203.846 82.9597C200.175 90.4171 194.795 101.66 187.704 116.687L180.127 132.929C179.607 134.123 178.735 135.878 177.511 138.194C176.465 140.3 175.778 142.126 175.45 143.672L174.439 143.308L174.519 143.289C174.774 141.42 175.579 139.115 176.932 136.373C178.559 133.342 179.688 131.105 180.32 129.659L188.039 113.3C195.249 98.3016 200.716 87.0677 204.44 79.5982C215.511 56.9863 226.123 34.5918 236.278 12.4146ZM238.588 13.6719L240.666 14.6428C236.005 23.4573 230.251 35.0395 223.402 49.3895C214.497 68.1127 208.9 79.7722 206.613 84.3679C202.942 91.8253 197.562 103.068 190.471 118.095C188.739 121.659 186.214 127.073 182.894 134.337C182.362 135.477 181.511 137.199 180.34 139.503C179.335 141.543 178.636 143.315 178.243 144.819L176.838 144.205C177.158 142.378 177.968 140.099 179.268 137.37C180.854 134.405 181.968 132.227 182.612 130.836C185.985 123.559 188.559 118.106 190.332 114.476L206.715 80.694C217.277 59.3295 227.902 36.9888 238.588 13.6719ZM241.436 15.0618L244.184 16.3893C239.429 25.2821 233.675 36.8643 226.921 51.136C217.625 70.6272 212.029 82.2867 210.132 86.1145C206.461 93.5719 201.08 104.814 193.99 119.842C193.039 121.869 190.513 127.284 186.413 136.084C185.881 137.224 185.024 138.919 183.841 141.169C182.836 143.209 182.158 144.948 181.806 146.386L179.667 145.514C179.987 143.687 180.804 141.435 182.116 138.759C183.647 135.807 184.735 133.635 185.379 132.244L209.481 82.1022C219.696 61.4397 230.347 39.0929 241.436 15.0618ZM244.856 16.7459L246.477 17.5658C241.722 26.4586 235.967 38.0408 229.213 52.3125C219.918 71.8037 214.321 83.4633 212.424 87.291C208.753 94.7484 203.4 105.985 196.363 121C194.577 124.576 192.019 129.969 188.687 137.18C188.167 138.373 187.316 140.095 186.133 142.345C185.182 144.373 184.504 146.112 184.098 147.563L183.149 147.099C183.523 145.26 184.346 143.035 185.616 140.425C187.16 137.527 188.254 135.382 188.898 133.99C192.508 126.264 195.081 120.811 196.618 117.631L213 83.8487C224.822 59.8207 235.44 37.4531 244.856 16.7459Z" fill="#444041"/>
<path d="M140.654 148.955C141.231 148.768 141.585 148.461 141.714 148.035C142.818 143.935 146.733 141.064 153.459 139.42C160.387 137.674 164.413 135.174 165.538 131.918C165.609 131.732 165.531 131.636 165.305 131.631C165.079 131.626 164.897 131.696 164.761 131.84C163.807 133.359 161.814 134.633 158.779 135.663C154.917 136.768 152.007 137.6 150.049 138.158C142.646 140.295 139.186 143.686 139.669 148.331C139.736 148.881 140.065 149.09 140.654 148.955Z" fill="white"/>
</g>
<g clip-path="url(#clip1_1130_44797)">
<path d="M64.2451 65.6976C62.1521 61.5557 60.6146 56.201 59.6327 49.6334C59.2101 45.6765 58.8539 42.6962 58.564 40.6926C58.0776 37.1207 57.2801 34.2604 56.1717 32.1119C54.4529 28.6105 50.9704 28.0508 45.7243 30.4329C41.9098 32.1129 38.5991 34.3878 35.7921 37.2576C25.9473 47.0927 19.5211 56.6853 16.5136 66.0355C15.0998 70.3338 14.361 73.8627 14.2971 76.6222C14.1795 80.465 15.2356 83.7841 17.4652 86.5796C19.1827 88.8065 21.5829 89.6003 24.6656 88.9612C28.4967 89.603 33.154 89.7264 38.6376 89.3312C39.6963 89.2632 44.3446 88.7755 52.5828 87.8683C57.3001 87.3447 62.0557 88.2522 66.8497 90.5908C69.6846 92.0156 73.8151 94.7218 79.2411 98.7097C75.1981 97.8266 72.2015 99.0144 70.2514 102.273C68.4891 105.302 68.0823 108.966 69.031 113.264C70.2786 118.99 74.3291 125.146 81.1828 131.731C85.4978 135.77 91.411 140.406 98.9224 145.638C104.222 149.296 109.018 151.809 113.312 153.177C120.135 155.294 124.992 154.235 127.883 150.003C129.618 147.428 129.598 144.294 127.824 140.602C126.944 138.642 124.894 135.643 121.674 131.605C125.15 134.103 128.551 136.287 131.879 138.159C131.915 138.228 134.478 140.058 139.568 143.65C144.508 146.44 146.563 145.589 145.733 141.097C145.278 138.52 144.316 136.91 142.848 136.268C139.754 134.935 137.934 134.036 137.389 133.573C136.105 132.527 134.336 130.921 132.081 128.754C129.702 126.432 127.941 124.799 126.798 123.856L128.16 122.553L129.97 123.39C130.582 123.643 130.986 123.366 131.182 122.56C131.379 121.754 131.241 121.189 130.767 120.864L128.326 117.915C127.726 117.26 127.079 116.938 126.384 116.948C125.552 117.031 125.239 117.655 125.447 118.822C125.467 118.944 125.612 119.395 125.884 120.177C125.252 120.902 124.933 121.64 124.926 122.391L124.505 122.083C123.61 121.45 121.997 120.444 119.666 119.064L119.844 118.773C120.521 117.541 121.02 116.6 121.341 115.949L121.473 116.078C122.492 116.866 123.26 116.532 123.777 115.075C124.311 113.566 124.078 112.478 123.078 111.812C121.99 111.06 121.148 110.531 120.553 110.225C119.942 109.973 119.502 110.18 119.234 110.847C118.999 111.409 118.911 111.961 118.971 112.501C119.086 113.233 119.435 113.952 120.019 114.659C119.42 115.279 118.784 115.742 118.111 116.049C117.559 116.337 117.244 116.786 117.167 117.399L116.799 117.195L116.716 116.908L111.838 112.92C114.389 111.591 115.81 110.191 116.102 108.72C116.311 108.786 116.469 108.924 116.577 109.132C116.874 109.284 117.073 109.203 117.172 108.887C117.324 108.588 117.312 108.353 117.136 108.181L116.146 106.388C115.759 104.875 115.166 104.744 114.368 105.995C113.57 107.247 113.737 107.995 114.87 108.24C114.547 108.716 113.747 109.243 112.47 109.821C111.278 110.31 110.601 110.905 110.437 111.606L110.388 111.763C107.361 109.119 101.572 103.452 93.0197 94.7614C85.9132 87.516 79.9444 82.0521 75.1135 78.3697C70.3018 74.8092 66.679 70.5851 64.2451 65.6976ZM81.2829 110.046C83.1244 107.679 85.7704 106.872 89.2209 107.624C89.7611 107.738 90.0344 107.42 90.0408 106.669C92.7647 108.811 96.8077 112.069 102.17 116.441C107.48 120.798 111.505 124.021 114.245 126.11C114.448 126.928 114.906 127.942 115.619 129.154C116.474 130.643 117.01 131.683 117.228 132.273C120.154 139.982 119.35 143.808 114.816 143.753C112.053 143.741 108.307 142.374 103.577 139.65C97.2688 135.902 92.0618 132.042 87.9562 128.07C85.9488 126.214 84.5473 124.811 83.7517 123.863C82.1632 122.14 81.0969 120.498 80.5529 118.934C79.1291 115.411 79.3724 112.448 81.2829 110.046Z" fill="#F7C538"/>
<path d="M82.3469 100.916C82.1476 101.548 81.8041 101.815 81.3163 101.717C70.9377 108.313 69.0565 115.097 75.6727 122.07C77.4311 124.716 80.8094 128.254 85.8076 132.684C91.7227 138.044 97.2694 142.563 102.448 146.24C105.307 148.136 108.397 149.758 111.717 151.105L114.962 152.053C122.546 153.949 125.964 149.507 125.216 138.728C124.732 137.706 123.65 136.203 121.971 134.22C120.416 132.392 119.395 130.879 118.908 129.682C118.101 129.135 116.924 128.21 115.376 126.905C116.082 128.868 117.464 131.885 119.521 135.958C120.79 139.606 120.216 142.521 117.799 144.704C116.016 146.337 112.966 146.233 108.648 144.394C107.284 143.786 104.412 142.204 100.032 139.65C87.4869 132.293 79.9705 124.338 77.483 115.785C76.2942 111.699 76.8478 108.575 79.144 106.411C81.3877 104.23 84.4399 103.871 88.3003 105.333L82.3469 100.916Z" fill="#F7C538"/>
<path d="M57.3354 47.5985C56.1732 53.6565 53.0571 60.337 47.9871 67.6399C44.1074 73.1794 39.6671 78.3954 34.6661 83.2879C33.4325 84.4584 31.9895 85.5621 30.337 86.5992C34.2434 86.4542 40.1075 85.9487 47.9293 85.0825C54.7665 84.5974 60.3938 85.1167 64.811 86.6403C67.5527 87.6299 70.8462 89.5193 74.6912 92.3084C76.834 93.9179 79.9078 96.2295 83.9125 99.2432C87.2647 101.586 91.0241 104.463 95.191 107.876C97.6007 109.918 101.189 112.973 105.956 117.04L114.371 124.066L114.66 124.245C118.318 127.264 121.969 129.846 125.613 131.992C126.787 132.656 128.94 133.776 132.072 135.354C134.715 136.881 136.544 138.391 137.558 139.882C135.794 137.117 135.75 135.887 137.426 136.191C135.691 135.117 133.194 133.076 129.937 130.069C129.32 129.467 126.797 127.418 122.368 123.922C119.099 121.316 116.764 119.037 115.363 117.085C112.305 115.821 109.432 114.152 106.744 112.079C104.513 110.384 101.986 108.073 99.1639 105.146C93.872 99.6375 85.3352 91.9942 73.5536 82.2164C68.3817 77.7882 64.5686 72.4321 62.1143 66.1482C60.9765 63.1794 59.3835 56.9962 57.3354 47.5985Z" fill="#F7C538"/>
<path d="M17.9922 74.499C17.1301 80.8843 19.0986 84.2335 23.8976 84.5468C26.8361 84.7304 30.2305 82.8297 34.0808 78.8446C35.5519 77.2864 38.1278 74.0534 41.8083 69.1454C53.2584 53.8568 56.9122 42.3671 52.7697 34.6764C49.8977 31.9078 45.7065 32.7729 40.196 37.2714C35.287 41.3245 30.5773 47.1206 26.0666 54.6597C21.4705 62.2874 18.779 68.9005 17.9922 74.499Z" fill="#FCE624"/>
<path d="M55.4612 58.468C53.907 62.6637 51.577 66.6701 48.4712 70.4871C47.3448 71.8655 44.1802 75.2295 38.9775 80.5789C38.7208 80.8446 38.6749 81.2643 38.8396 81.838C38.952 82.3951 39.215 82.5658 39.6288 82.3502C43.7498 80.2466 47.3319 76.9289 50.3752 72.397C53.0264 68.3771 54.9931 63.8786 56.2753 58.9013C56.3583 58.6382 56.2773 58.4385 56.0321 58.3025C55.7869 58.1664 55.5966 58.2216 55.4612 58.468Z" fill="#444041"/>
<path d="M122.791 140.388C122.736 140.197 122.614 140.129 122.423 140.184C122.216 140.292 122.149 140.415 122.22 140.553C122.474 142.488 122.307 144.114 121.718 145.432C121.03 147.066 119.801 147.948 118.031 148.079C117.198 148.161 116.146 148.116 114.876 147.942C113.17 147.688 112.151 147.537 111.821 147.49C111.542 147.459 111.397 147.644 111.386 148.046C111.339 148.379 111.411 148.605 111.604 148.724C112.937 149.612 114.49 150.078 116.263 150.122C118.088 150.182 119.68 149.792 121.04 148.951C122.262 148.182 122.99 146.88 123.224 145.043C123.512 143.398 123.368 141.846 122.791 140.388Z" fill="white"/>
</g>
<defs>
<clipPath id="clip0_1130_44797">
<rect width="152.469" height="174.441" fill="white" transform="matrix(0.975086 -0.221826 0.219708 0.975566 100.504 33.8215)"/>
</clipPath>
<clipPath id="clip1_1130_44797">
<rect width="146.723" height="99.323" fill="white" transform="matrix(0.952783 0.303651 -0.30088 0.953662 30.3842 22.0696)"/>
</clipPath>
</defs>
</svg>
