<svg width="151" height="160" viewBox="0 0 151 160" fill="none" xmlns="http://www.w3.org/2000/svg">
<g clip-path="url(#clip0_674_21926)">
<path d="M85.3553 35.5068L81.6597 40.9863C79.2684 44.6393 78.2176 46.6118 78.5075 46.904C80.0292 48.2191 81.08 49.2419 81.6597 49.9725C83.6162 52.3835 85.1379 55.452 86.2248 59.178C87.3118 62.6118 87.7829 65.5707 87.6379 68.0547L43.7249 125.699C42.2031 127.744 41.6234 130.046 41.9857 132.603C42.2756 135.16 43.435 137.205 45.464 138.74C47.493 140.347 49.7756 140.968 52.3118 140.603C54.8481 140.237 56.8771 139.032 58.3988 136.986L106.551 73.863L107.094 72.9862H107.312C111.587 73.4246 116.732 74.2648 122.747 75.5068L130.79 65.8629L85.3553 35.5068Z" fill="#43BBB6"/>
<path d="M85.3553 35.5069L130.79 65.863L139.16 55.2329L92.3119 24.9862L85.3553 35.5069Z" fill="#9FD1C5"/>
<path d="M93.9424 35.1782C94.3047 34.886 94.4496 34.4842 94.3771 33.9727C94.3047 33.5344 94.0873 33.1691 93.725 32.8769C93.4351 32.5846 93.0366 32.4385 92.5293 32.4385C92.0946 32.5115 91.696 32.7307 91.3337 33.096C91.0438 33.4613 90.9351 33.8631 91.0076 34.3014C91.08 34.7398 91.2612 35.1051 91.5511 35.3973C91.9134 35.7626 92.3482 35.9088 92.8554 35.8357C93.2902 35.7627 93.6525 35.5435 93.9424 35.1782Z" fill="#373535"/>
<path d="M102.964 40.767C103.544 39.8903 103.471 39.0867 102.747 38.3561C101.805 37.6986 101.008 37.7716 100.355 38.5752C99.6308 39.4519 99.7032 40.2557 100.573 40.9863C100.935 41.2785 101.334 41.4245 101.768 41.4245C102.276 41.3514 102.674 41.1323 102.964 40.767Z" fill="#373535"/>
<path d="M112.312 46.9041C112.964 46.1004 112.892 45.2968 112.094 44.4932C111.225 43.9087 110.428 43.9817 109.703 44.7123C108.979 45.7351 109.051 46.5389 109.921 47.1234C110.863 47.7809 111.66 47.7077 112.312 46.9041Z" fill="#373535"/>
<path d="M121.66 52.6027C122.312 51.653 122.239 50.8492 121.442 50.1917C120.428 49.4611 119.631 49.5342 119.051 50.411C118.761 50.7763 118.616 51.1781 118.616 51.6164C118.689 52.1278 118.906 52.5296 119.268 52.8219C120.065 53.4794 120.863 53.4064 121.66 52.6027Z" fill="#373535"/>
<path d="M130.464 59.6164C130.826 59.3242 130.971 58.9223 130.899 58.4109C130.826 57.9725 130.609 57.5707 130.247 57.2054C129.45 56.5479 128.653 56.621 127.855 57.4247C127.203 58.3744 127.276 59.178 128.073 59.8356C128.435 60.2009 128.87 60.347 129.377 60.2739C129.812 60.2009 130.174 59.9817 130.464 59.6164Z" fill="#373535"/>
<path d="M121.442 9.9727C122.602 5.36996 120.718 3.72612 115.79 5.04119C114.374 5.39279 113.179 5.83109 112.203 6.35621C112.567 5.76517 112.784 5.29036 112.855 4.93163C113.145 3.68962 113.037 2.59373 112.529 1.64396C111.877 0.621127 110.899 0.0731814 109.594 0.00012207C108.145 0.00012207 106.768 1.02287 105.464 3.06853C104.739 4.16443 103.87 5.77176 102.855 7.89048L92.5293 24.9863L106.551 34.3014L106.66 34.4111L138.725 55.781L148.942 39.7809L152.638 35.2877C153 29.5161 151.696 27.6531 148.725 29.6987C145.247 33.0595 143.037 34.7398 142.094 34.7398L144.812 29.5892C146.334 26.7398 145.899 24.9499 143.508 24.2193C142.565 23.927 141.66 24.3288 140.79 25.4247C140.355 26.0092 139.667 26.9224 138.725 28.1645C138.073 29.4065 137.566 30.064 137.203 30.1371C136.913 30.2102 136.37 30.064 135.573 29.6987C134.776 29.3334 134.413 29.0778 134.486 28.9317C135.573 27.3974 136.37 26.1919 136.877 25.3152C137.819 23.7079 138.218 22.3563 138.073 21.2604C137.493 17.6805 135.754 16.8768 132.855 18.8494C132.348 19.2147 130.464 21.0412 127.203 24.3288C125.971 23.6713 125.464 23.1965 125.681 22.9043C128 19.9819 129.45 17.7535 130.029 16.2192C130.899 14.1736 130.681 12.4932 129.377 11.1782C128.073 9.86308 126.479 9.68043 124.595 10.6302C124.015 10.8494 122.674 12.0184 120.573 14.1371C118.326 16.2559 117.421 17.4978 117.855 17.8631L116.986 17.2055C119.522 13.9909 121.008 11.58 121.442 9.9727Z" fill="#373535"/>
<path d="M81.551 109.479C106.479 141.333 119.232 157.479 119.812 157.918L126.986 159.89L81.551 109.479Z" fill="#B3B4B6"/>
<path d="M66.5509 81.4247C61.9133 77.4795 57.2031 73.3882 52.4205 69.1508C42.9277 60.7489 38.0364 56.0001 37.7466 54.9042C37.6017 54.2466 37.5292 52.8951 37.5292 50.8494C37.5292 49.3152 37.2756 48.3653 36.7683 48C36.3335 47.7078 35.4278 47.3791 34.0509 47.0138C32.3118 46.6485 30.8625 46.1736 29.7031 45.5891C26.6596 43.9818 24.377 42.8494 22.8553 42.1919C20.1016 41.0229 17.5654 40.6211 15.2466 40.9864C11.7683 41.644 8.54368 43.5069 5.57267 46.5754C2.38426 49.7901 0.753826 53.1507 0.681362 56.6576C0.608898 61.0411 2.02194 65.0229 4.92049 68.6028C7.67411 72.0366 11.1886 74.3745 15.464 75.6165C17.7104 76.3471 20.5002 76.8586 23.8336 77.1508C24.8481 77.2239 27.8553 77.4065 32.8553 77.6988C42.2031 78.2832 49.9205 81.0595 56.0074 86.0275C58.6161 88.2193 62.7828 91.6531 68.5074 96.3289L66.5509 81.4247ZM30.464 54.9042C33.7973 58.2649 35.9712 61.0046 36.9857 63.1234C38.2901 66.0457 37.819 68.3105 35.5727 69.9178C33.0364 71.8174 28.6524 72.1827 22.4205 71.0137C16.0437 69.7717 11.6959 67.5799 9.37702 64.4384C7.27557 61.516 6.80456 58.5206 7.96398 55.4521C8.90601 52.9681 10.7901 50.6302 13.6161 48.4384C15.4277 47.0503 17.9278 46.9773 21.1162 48.2193C24.1596 49.3882 27.2756 51.6165 30.464 54.9042Z" fill="#007562"/>
<path d="M67.0944 42.3015C63.7611 34.1919 58.1089 27.2512 50.1379 21.4796C46.1524 18.5572 43.3263 16.5845 41.6597 15.5617C38.0365 13.3699 34.848 12.0914 32.0944 11.7261C29.7031 11.3608 27.348 11.6896 25.0292 12.7124C22.4205 13.9544 20.2104 15.5983 18.3988 17.6439C16.2249 20.0549 15.1379 22.5023 15.1379 24.9863C15.0655 30.2466 19.0872 35.2878 27.2031 40.1097C31.6234 42.8129 34.6307 44.8585 36.2249 46.2466C38.1814 48.0001 41.7683 51.8722 46.9857 57.8631C54.0872 66.1188 61.551 74.2649 69.377 82.3015L80.2466 83.2878L69.1596 64.8768C68.5075 63.7809 68.1451 62.1006 68.0727 59.8357C68.0727 59.5435 68.1452 57.8266 68.2901 54.6851C68.3625 51.6897 68.3625 49.5709 68.2901 48.3289C68.1452 45.9179 67.7466 43.9088 67.0944 42.3015ZM50.464 28.822C56.1886 33.1325 59.8118 38.064 61.3336 43.6165C62.7828 48.8768 61.9133 52.3837 58.7248 54.1371C56.4785 55.3792 54.051 54.8312 51.4423 52.4933C47.3118 48.1828 43.435 44.3105 39.8118 40.8768C37.9278 39.1233 33.1814 35.7992 25.5727 30.9042C20.935 27.9087 18.9785 25.3152 19.7031 23.1234C20.7901 19.6896 23.1089 17.8631 26.6596 17.6439C32.2393 17.2056 40.1742 20.9316 50.464 28.822Z" fill="#007562"/>
<path d="M71.1163 83.7262L66.6598 83.2878L67.4206 92.6028L69.4859 93.9179L81.5511 109.48L126.986 159.891C128.653 161.425 129.16 161.279 128.508 159.452C128 158.137 125.754 154.082 121.768 147.288C117.855 140.566 115.355 136.475 114.269 135.014C112.819 133.114 100.899 116.238 78.5076 84.3837L78.1815 84.2741L78.725 83.5069L71.3337 82.411L71.1163 83.7262Z" fill="#D5D4D6"/>
<path d="M77.7466 93.2603C76.8046 93.9909 76.2611 94.9407 76.1162 96.1096C76.0437 97.3516 76.3699 98.4475 77.0945 99.3973C77.8191 100.42 78.7611 101.041 79.9206 101.26C81.08 101.48 82.1307 101.224 83.0728 100.493C84.0148 99.7626 84.5583 98.8128 84.7032 97.6439C84.8481 96.4749 84.5583 95.3791 83.8336 94.3562C83.109 93.4065 82.1669 92.822 81.0075 92.6028C79.8481 92.3836 78.7611 92.6028 77.7466 93.2603Z" fill="#007562"/>
</g>
<defs>
<clipPath id="clip0_674_21926">
<rect width="150" height="160" fill="white" transform="translate(0.681396)"/>
</clipPath>
</defs>
</svg>
