<svg width="213" height="265" viewBox="0 0 213 265" fill="none" xmlns="http://www.w3.org/2000/svg">
<path d="M135.85 241.1C135.85 241.333 135.867 241.583 135.9 241.85C135.067 242.15 134.3 242.65 133.6 243.35C132.267 244.683 131.6 246.283 131.6 248.15C131.6 250.016 132.267 251.616 133.6 252.95C134.933 254.283 136.533 254.95 138.4 254.95C139.1 254.95 139.75 254.866 140.35 254.7C140.75 255.5 141.3 256.25 142 256.95C143.7 258.65 145.733 259.5 148.1 259.5C150.467 259.5 152.483 258.65 154.15 256.95C155.85 255.283 156.7 253.266 156.7 250.9C156.7 248.533 155.85 246.5 154.15 244.8C153.35 244 152.483 243.4 151.55 243C151.683 242.4 151.75 241.766 151.75 241.1C151.75 238.9 150.967 237.016 149.4 235.45C147.867 233.916 146 233.15 143.8 233.15C141.6 233.15 139.717 233.916 138.15 235.45C136.617 237.016 135.85 238.9 135.85 241.1ZM166.6 246.5C166 247.133 165.7 247.9 165.7 248.8C165.7 249.7 166 250.45 166.6 251.05C166.633 251.083 166.683 251.133 166.75 251.2C166.15 252.033 165.85 253 165.85 254.1C165.85 255.533 166.367 256.766 167.4 257.8C168.433 258.833 169.667 259.35 171.1 259.35C172.533 259.35 173.767 258.833 174.8 257.8C175.833 256.766 176.35 255.533 176.35 254.1C176.35 252.666 175.833 251.433 174.8 250.4C174 249.6 173.1 249.116 172.1 248.95C172.1 248.883 172.1 248.833 172.1 248.8C172.1 247.9 171.783 247.133 171.15 246.5C170.55 245.9 169.8 245.6 168.9 245.6C168 245.6 167.233 245.9 166.6 246.5ZM97.8 130.95C97.2 130.35 96.6 129.8 96 129.3C98.4667 126.733 99.7 123.783 99.7 120.45C99.7 116.216 97.7 112.6 93.7 109.6C89.7333 106.6 84.9333 105.1 79.3 105.1C75.3 105.1 71.7167 105.866 68.55 107.4C66.1833 105.8 63.5667 105 60.7 105C56.1 105 52.1667 107.016 48.9 111.05C45.6333 115.083 44 119.95 44 125.65C44 131.35 45.6333 136.216 48.9 140.25C52.1667 144.283 56.1 146.3 60.7 146.3C61.5 146.3 62.2667 146.25 63 146.15C63.1667 151.45 65.15 156 68.95 159.8C72.95 163.8 77.7667 165.8 83.4 165.8C89.0333 165.8 93.8333 163.8 97.8 159.8C101.8 155.833 103.8 151.033 103.8 145.4C103.8 139.766 101.8 134.95 97.8 130.95ZM194.3 202.35C191.633 199.683 188.417 198.35 184.65 198.35C180.883 198.35 177.65 199.683 174.95 202.35C174.85 202.45 174.767 202.55 174.7 202.65C174.667 202.616 174.633 202.583 174.6 202.55C172.933 200.883 170.917 200.05 168.55 200.05C166.183 200.05 164.15 200.883 162.45 202.55C160.783 204.25 159.95 206.283 159.95 208.65C159.95 211.016 160.783 213.033 162.45 214.7C162.95 215.2 163.467 215.616 164 215.95C161.933 218.05 160.9 220.6 160.9 223.6C160.9 226.633 161.967 229.216 164.1 231.35C166.233 233.483 168.817 234.55 171.85 234.55C174.883 234.55 177.467 233.483 179.6 231.35C181.233 229.716 182.25 227.816 182.65 225.65C183.283 225.716 183.95 225.75 184.65 225.75C188.417 225.75 191.633 224.4 194.3 221.7C197 219.033 198.35 215.816 198.35 212.05C198.35 208.283 197 205.05 194.3 202.35ZM142.35 199C140.517 198.233 138.683 197.866 136.85 197.9C137.683 196.966 138.383 195.833 138.95 194.5C140.15 191.6 140.15 188.7 138.95 185.8C137.75 182.9 135.683 180.85 132.75 179.65C129.85 178.45 126.95 178.45 124.05 179.65C123.15 180.016 122.317 180.466 121.55 181C120.317 179.633 118.767 178.55 116.9 177.75C113.633 176.416 110.367 176.433 107.1 177.8C103.833 179.133 101.517 181.433 100.15 184.7C98.7833 188.033 98.7667 191.333 100.1 194.6C101.067 196.9 102.517 198.716 104.45 200.05C104.117 200.65 103.817 201.266 103.55 201.9C101.717 206.333 101.733 210.766 103.6 215.2C105.433 219.633 108.55 222.766 112.95 224.6C117.35 226.466 121.767 226.466 126.2 224.6C127.033 224.266 127.833 223.883 128.6 223.45C129.533 224.05 130.533 224.583 131.6 225.05C135.2 226.55 138.8 226.55 142.4 225.05C146 223.583 148.533 221.033 150 217.4C151.5 213.8 151.5 210.2 150 206.6C148.5 203 145.95 200.466 142.35 199ZM127.9 152.5C127.9 150.5 127.2 148.8 125.8 147.4C124.4 146 122.7 145.3 120.7 145.3C118.7 145.3 117 146 115.6 147.4C114.2 148.8 113.5 150.5 113.5 152.5C113.5 152.533 113.5 152.566 113.5 152.6C112.133 152.833 110.933 153.466 109.9 154.5C108.567 155.833 107.9 157.433 107.9 159.3C107.9 161.166 108.567 162.766 109.9 164.1C111.233 165.433 112.833 166.1 114.7 166.1C115.4 166.1 116.067 166.016 116.7 165.85C117 166.316 117.367 166.766 117.8 167.2C119.367 168.766 121.267 169.55 123.5 169.55C125.733 169.55 127.633 168.766 129.2 167.2C130.767 165.633 131.55 163.733 131.55 161.5C131.55 159.266 130.767 157.366 129.2 155.8C128.7 155.3 128.183 154.883 127.65 154.55C127.817 153.916 127.9 153.233 127.9 152.5ZM211.6 257.85C211.233 257.483 210.817 257.2 210.35 257C210.317 255.333 209.7 253.9 208.5 252.7C207.267 251.466 205.767 250.85 204 250.85C202.233 250.85 200.733 251.466 199.5 252.7C198.267 253.933 197.65 255.433 197.65 257.2C197.65 258.966 198.267 260.466 199.5 261.7C200.733 262.933 202.233 263.55 204 263.55C204.667 263.55 205.283 263.466 205.85 263.3C205.883 263.333 205.933 263.383 206 263.45C206.767 264.216 207.7 264.6 208.8 264.6C209.9 264.6 210.833 264.216 211.6 263.45C212.367 262.683 212.75 261.75 212.75 260.65C212.75 259.55 212.367 258.616 211.6 257.85Z" fill="white"/>
<path d="M38.6021 128.43C37.6822 125.316 37.4345 122.415 37.8591 119.726C38.2836 116.33 39.7342 113.924 42.2108 112.509C44.7582 111.023 46.7749 109.749 48.2608 108.687L49.7468 107.414L21.3012 79.2866L18.0108 82.1524C15.5342 84.4875 13.5176 86.7872 11.9608 89.0515C10.3334 91.3866 9.48423 93.3679 9.41347 94.9954C9.34271 97.0474 10.4041 99.5947 12.5977 102.637C17.0556 109.147 23.3179 117.037 31.3845 126.307C32.8705 127.934 34.5334 130.092 36.3731 132.781C37.6468 134.409 38.5313 134.586 39.0266 133.312C39.3804 132.534 39.4866 131.72 39.345 130.871C38.9912 129.88 38.7436 129.066 38.6021 128.43Z" fill="#007562"/>
<path d="M89.5521 66.3375C88.4907 62.7287 87.1816 60.2875 85.6249 59.0138C84.3512 58.0232 82.2638 57.4217 79.3626 57.2094C76.6738 56.9264 73.6311 57.0325 70.2346 57.5279L65.8828 58.2708L69.5977 98.0735L71.4021 97.7551C73.2419 97.3305 75.5416 96.5521 78.3012 95.42C81.1316 94.3586 83.8205 94.677 86.3679 96.3752C86.5802 96.5167 88.3138 98.1442 91.5688 101.258C92.2764 101.895 93.0194 102.956 93.7977 104.442C94.3638 105.291 95.2129 105.892 96.3451 106.246C97.6188 106.6 98.0433 105.822 97.6188 103.911C96.6989 100.727 96.062 98.0381 95.7083 95.8445C95.2129 92.3773 94.3284 87.6363 93.0547 81.6217C91.7103 75.1118 90.5427 70.0171 89.5521 66.3375Z" fill="#007562"/>
<path d="M2.08977 54.9804C3.50497 60.1459 6.61842 65.9483 11.4301 72.3874C13.1991 74.7933 15.9941 78.3313 19.8152 83.0015C33.8257 99.7009 43.3784 110.598 48.4731 115.693L77.131 102.85C69.9134 68.8848 65.2433 49.6027 63.1205 45.0032C60.3608 38.9886 58.2734 34.9907 56.8582 33.0094C52.2588 26.4995 45.395 20.3433 36.267 14.541C33.0827 19.0696 28.9079 23.1383 23.7424 26.7471C16.1711 32.2664 8.38743 35.5214 0.391522 36.512C0.250002 36.5828 0.214619 37.998 0.285379 40.7576C0.35614 42.2436 0.426901 43.8357 0.497661 45.534C0.851462 49.355 1.38216 52.5038 2.08977 54.9804Z" fill="#F16922"/>
<path d="M1.02747 28.9762L0.390625 36.5122C8.38653 35.5216 16.1702 32.2666 23.7415 26.7473C28.907 23.1385 33.0818 19.0698 36.2661 14.5411L30.2161 10.9324C28.0225 13.7628 25.3336 16.4871 22.1494 19.1052C15.4272 24.483 8.38653 27.7733 1.02747 28.9762Z" fill="#43BBB6"/>
<path d="M4.63221 9.55245C2.93397 16.9823 1.73104 23.4568 1.02344 28.9761C8.3825 27.7732 15.4231 24.4829 22.1454 19.1051C25.3296 16.487 28.0185 13.7627 30.212 10.9323C23.2775 7.04045 15.5293 3.39631 6.9673 -0.000183105L4.63221 9.55245Z" fill="#007562"/>
<path d="M4.63221 9.55245C2.93397 16.9823 1.73104 23.4568 1.02344 28.9761C8.3825 27.7732 15.4231 24.4829 22.1454 19.1051C25.3296 16.487 28.0185 13.7627 30.212 10.9323C23.2775 7.04045 15.5293 3.39631 6.9673 -0.000183105L4.63221 9.55245Z" fill="#007562"/>
<path d="M5.80086 30.5682C5.3763 30.4267 4.95174 30.4621 4.52718 30.6744C4.17338 30.8867 3.92571 31.2051 3.78419 31.6297C3.43039 32.6203 3.74881 33.2925 4.73945 33.6463C5.16402 33.7878 5.58857 33.7525 6.01314 33.5402C6.36694 33.3279 6.6146 33.0449 6.75612 32.6911C7.10992 31.6297 6.7915 30.922 5.80086 30.5682Z" fill="#007562"/>
<path d="M12.918 28.2331C11.8566 27.9501 11.1844 28.3039 10.9014 29.2945C10.5476 30.2852 10.866 30.9574 11.8566 31.3112C12.918 31.665 13.6256 31.3466 13.9794 30.3559C14.2625 29.2945 13.9087 28.5869 12.918 28.2331Z" fill="#007562"/>
<path d="M18.543 24.9429C18.1185 24.8014 17.6939 24.8014 17.2694 24.9429C16.9156 25.1552 16.6679 25.4736 16.5264 25.8981C16.1726 26.9595 16.491 27.6671 17.4816 28.0209C18.543 28.304 19.2506 27.9502 19.6044 26.9595C19.8875 25.8981 19.5337 25.2259 18.543 24.9429Z" fill="#007562"/>
<path d="M23.8438 20.9094C22.9239 20.5556 22.2517 20.9094 21.8272 21.9708C21.4734 22.9615 21.7918 23.6337 22.7824 23.9875C23.7731 24.3413 24.4807 24.0229 24.9052 23.0322C25.0468 22.6077 25.0114 22.1831 24.7991 21.7586C24.5868 21.334 24.2684 21.0509 23.8438 20.9094Z" fill="#007562"/>
<path d="M29.1547 16.3454C28.0933 16.0623 27.3856 16.4161 27.0318 17.4068C26.7488 18.539 27.1026 19.2112 28.0933 19.4234C29.0839 19.7772 29.7561 19.4588 30.1099 18.4682C30.4637 17.4068 30.1453 16.6992 29.1547 16.3454Z" fill="#007562"/>
<path d="M74.154 118.028L92.1979 123.441L74.5786 108.157L57.0654 116.117C52.6783 125.387 50.7324 129.88 51.2277 129.597C51.6523 129.314 54.4827 126.625 59.7189 121.531L60.5681 137.558L67.1488 120.894L79.8856 134.055L74.154 118.028Z" fill="#FFD02E"/>
<path d="M64.173 124.821L65.5528 117.391L73.0888 121.743L69.7985 114.313L77.3344 114.737L69.48 108.9L58.2292 115.693C58.0169 115.976 57.7692 117.533 57.4862 120.363C57.2031 123.264 57.1324 124.467 57.2739 123.972L61.6256 118.134C63.2531 123.087 64.1022 125.316 64.173 124.821Z" fill="#C5281C"/>
<path d="M78.2983 97.1182L44.1211 116.86L46.8807 121.212L83.0746 105.609L78.2983 97.1182Z" fill="#007562"/>
</svg>
