<svg width="185" height="56" viewBox="0 0 185 56" fill="none" xmlns="http://www.w3.org/2000/svg">
<rect width="185" height="56" rx="28" fill="white"/>
<path d="M22 44.5078V11.5078L51.622 27.5531L22 44.5078Z" fill="#019FA9"/>
<path d="M22 11.5078L42.9498 32.4901L51.622 27.5531L22 11.5078Z" fill="#BCD393"/>
<path d="M42.7874 22.7784L22 44.5077L51.622 27.553L42.7874 22.7784Z" fill="#BE4360"/>
<path d="M44.9958 31.3532L51.6218 27.553L44.8334 23.8827L42.7872 22.7784L41.1631 24.4673L40.1563 25.5067C39.6041 26.0913 38.0775 27.6504 38.0775 27.6504C38.0775 27.6504 39.5716 29.1445 40.1887 29.7616L41.2931 30.8659C41.8128 31.3856 43.0145 32.4575 43.0145 32.4575C43.0145 32.4575 44.4112 31.678 44.9633 31.3532H44.9958Z" fill="#F49B76"/>
<path d="M68.2207 20.5H65.5275V11.7727H68.34C69.1866 11.7727 69.911 11.9474 70.5133 12.2969C71.1156 12.6435 71.5772 13.142 71.8983 13.7926C72.2193 14.4403 72.3798 15.2159 72.3798 16.1193C72.3798 17.0284 72.2179 17.8111 71.894 18.4673C71.5701 19.1207 71.0985 19.6236 70.4792 19.9759C69.8599 20.3253 69.1071 20.5 68.2207 20.5ZM66.5843 19.5625H68.1525C68.8741 19.5625 69.4721 19.4233 69.9466 19.1449C70.421 18.8665 70.7747 18.4702 71.0076 17.956C71.2406 17.4418 71.3571 16.8295 71.3571 16.1193C71.3571 15.4148 71.242 14.8082 71.0119 14.2997C70.7818 13.7884 70.438 13.3963 69.9806 13.1236C69.5233 12.848 68.9537 12.7102 68.2718 12.7102H66.5843V19.5625ZM76.6752 20.6364C76.0843 20.6364 75.5659 20.4957 75.1199 20.2145C74.6767 19.9332 74.3301 19.5398 74.0801 19.0341C73.8329 18.5284 73.7093 17.9375 73.7093 17.2614C73.7093 16.5795 73.8329 15.9844 74.0801 15.4759C74.3301 14.9673 74.6767 14.5724 75.1199 14.2912C75.5659 14.0099 76.0843 13.8693 76.6752 13.8693C77.2662 13.8693 77.7832 14.0099 78.2264 14.2912C78.6724 14.5724 79.019 14.9673 79.2662 15.4759C79.5162 15.9844 79.6412 16.5795 79.6412 17.2614C79.6412 17.9375 79.5162 18.5284 79.2662 19.0341C79.019 19.5398 78.6724 19.9332 78.2264 20.2145C77.7832 20.4957 77.2662 20.6364 76.6752 20.6364ZM76.6752 19.733C77.1241 19.733 77.4934 19.6179 77.7832 19.3878C78.073 19.1577 78.2875 18.8551 78.4267 18.4801C78.5659 18.1051 78.6355 17.6989 78.6355 17.2614C78.6355 16.8239 78.5659 16.4162 78.4267 16.0384C78.2875 15.6605 78.073 15.3551 77.7832 15.1222C77.4934 14.8892 77.1241 14.7727 76.6752 14.7727C76.2264 14.7727 75.8571 14.8892 75.5673 15.1222C75.2775 15.3551 75.063 15.6605 74.9238 16.0384C74.7846 16.4162 74.715 16.8239 74.715 17.2614C74.715 17.6989 74.7846 18.1051 74.9238 18.4801C75.063 18.8551 75.2775 19.1577 75.5673 19.3878C75.8571 19.6179 76.2264 19.733 76.6752 19.733ZM82.4366 20.5L80.4423 13.9545H81.4991L82.9139 18.9659H82.9821L84.3798 13.9545H85.4537L86.8343 18.9489H86.9025L88.3173 13.9545H89.3741L87.3798 20.5H86.3912L84.9593 15.4716H84.8571L83.4252 20.5H82.4366ZM91.7093 16.5625V20.5H90.7037V13.9545H91.6752V14.9773H91.7605C91.9139 14.6449 92.1468 14.3778 92.4593 14.1761C92.7718 13.9716 93.1752 13.8693 93.6696 13.8693C94.1127 13.8693 94.5005 13.9602 94.8329 14.142C95.1653 14.321 95.4238 14.5938 95.6085 14.9602C95.7931 15.3239 95.8855 15.7841 95.8855 16.3409V20.5H94.8798V16.4091C94.8798 15.8949 94.7463 15.4943 94.4792 15.2074C94.2122 14.9176 93.8457 14.7727 93.3798 14.7727C93.0588 14.7727 92.7718 14.8423 92.519 14.9815C92.269 15.1207 92.0716 15.3239 91.9267 15.5909C91.7818 15.858 91.7093 16.1818 91.7093 16.5625ZM98.7289 11.7727V20.5H97.7232V11.7727H98.7289ZM103.23 20.6364C102.639 20.6364 102.121 20.4957 101.675 20.2145C101.231 19.9332 100.885 19.5398 100.635 19.0341C100.388 18.5284 100.264 17.9375 100.264 17.2614C100.264 16.5795 100.388 15.9844 100.635 15.4759C100.885 14.9673 101.231 14.5724 101.675 14.2912C102.121 14.0099 102.639 13.8693 103.23 13.8693C103.821 13.8693 104.338 14.0099 104.781 14.2912C105.227 14.5724 105.574 14.9673 105.821 15.4759C106.071 15.9844 106.196 16.5795 106.196 17.2614C106.196 17.9375 106.071 18.5284 105.821 19.0341C105.574 19.5398 105.227 19.9332 104.781 20.2145C104.338 20.4957 103.821 20.6364 103.23 20.6364ZM103.23 19.733C103.679 19.733 104.048 19.6179 104.338 19.3878C104.628 19.1577 104.842 18.8551 104.981 18.4801C105.121 18.1051 105.19 17.6989 105.19 17.2614C105.19 16.8239 105.121 16.4162 104.981 16.0384C104.842 15.6605 104.628 15.3551 104.338 15.1222C104.048 14.8892 103.679 14.7727 103.23 14.7727C102.781 14.7727 102.412 14.8892 102.122 15.1222C101.832 15.3551 101.618 15.6605 101.479 16.0384C101.339 16.4162 101.27 16.8239 101.27 17.2614C101.27 17.6989 101.339 18.1051 101.479 18.4801C101.618 18.8551 101.832 19.1577 102.122 19.3878C102.412 19.6179 102.781 19.733 103.23 19.733ZM109.657 20.6534C109.242 20.6534 108.866 20.5753 108.528 20.419C108.19 20.2599 107.921 20.0312 107.722 19.733C107.524 19.4318 107.424 19.0682 107.424 18.642C107.424 18.267 107.498 17.9631 107.646 17.7301C107.794 17.4943 107.991 17.3097 108.238 17.1761C108.485 17.0426 108.758 16.9432 109.056 16.8778C109.357 16.8097 109.66 16.7557 109.964 16.7159C110.362 16.6648 110.684 16.6264 110.931 16.6009C111.181 16.5724 111.363 16.5256 111.477 16.4602C111.593 16.3949 111.651 16.2812 111.651 16.1193V16.0852C111.651 15.6648 111.536 15.3381 111.306 15.1051C111.079 14.8722 110.734 14.7557 110.271 14.7557C109.791 14.7557 109.414 14.8608 109.142 15.071C108.869 15.2812 108.677 15.5057 108.566 15.7443L107.612 15.4034C107.782 15.0057 108.009 14.696 108.294 14.4744C108.58 14.25 108.893 14.0937 109.231 14.0057C109.572 13.9148 109.907 13.8693 110.237 13.8693C110.447 13.8693 110.688 13.8949 110.961 13.946C111.237 13.9943 111.502 14.0952 111.758 14.2486C112.017 14.402 112.231 14.6335 112.401 14.9432C112.572 15.2528 112.657 15.6676 112.657 16.1875V20.5H111.651V19.6136H111.6C111.532 19.7557 111.419 19.9077 111.259 20.0696C111.1 20.2315 110.889 20.3693 110.624 20.483C110.36 20.5966 110.038 20.6534 109.657 20.6534ZM109.811 19.75C110.208 19.75 110.544 19.6719 110.816 19.5156C111.092 19.3594 111.299 19.1577 111.438 18.9105C111.58 18.6634 111.651 18.4034 111.651 18.1307V17.2102C111.609 17.2614 111.515 17.3082 111.37 17.3509C111.228 17.3906 111.063 17.4261 110.876 17.4574C110.691 17.4858 110.511 17.5114 110.335 17.5341C110.161 17.554 110.021 17.571 109.913 17.5852C109.651 17.6193 109.407 17.6747 109.18 17.7514C108.955 17.8253 108.774 17.9375 108.634 18.0881C108.498 18.2358 108.43 18.4375 108.43 18.6932C108.43 19.0426 108.559 19.3068 108.818 19.4858C109.079 19.6619 109.41 19.75 109.811 19.75ZM116.964 20.6364C116.419 20.6364 115.937 20.4986 115.52 20.223C115.102 19.9446 114.775 19.5526 114.54 19.0469C114.304 18.5384 114.186 17.9375 114.186 17.2443C114.186 16.5568 114.304 15.9602 114.54 15.4545C114.775 14.9489 115.104 14.5582 115.524 14.2827C115.944 14.0071 116.43 13.8693 116.981 13.8693C117.407 13.8693 117.744 13.9403 117.991 14.0824C118.241 14.2216 118.432 14.3807 118.562 14.5597C118.696 14.7358 118.8 14.8807 118.873 14.9943H118.959V11.7727H119.964V20.5H118.993V19.4943H118.873C118.8 19.6136 118.694 19.7642 118.558 19.946C118.422 20.125 118.227 20.2855 117.974 20.4276C117.721 20.5668 117.385 20.6364 116.964 20.6364ZM117.101 19.733C117.504 19.733 117.845 19.6278 118.123 19.4176C118.402 19.2045 118.613 18.9105 118.758 18.5355C118.903 18.1577 118.976 17.7216 118.976 17.2273C118.976 16.7386 118.905 16.3111 118.763 15.9446C118.621 15.5753 118.41 15.2884 118.132 15.0838C117.854 14.8764 117.51 14.7727 117.101 14.7727C116.675 14.7727 116.319 14.8821 116.035 15.1009C115.754 15.3168 115.542 15.6108 115.4 15.983C115.261 16.3523 115.192 16.767 115.192 17.2273C115.192 17.6932 115.263 18.1165 115.405 18.4972C115.55 18.875 115.763 19.1761 116.044 19.4006C116.328 19.6222 116.68 19.733 117.101 19.733ZM127.98 20.6364C127.389 20.6364 126.871 20.4957 126.425 20.2145C125.981 19.9332 125.635 19.5398 125.385 19.0341C125.138 18.5284 125.014 17.9375 125.014 17.2614C125.014 16.5795 125.138 15.9844 125.385 15.4759C125.635 14.9673 125.981 14.5724 126.425 14.2912C126.871 14.0099 127.389 13.8693 127.98 13.8693C128.571 13.8693 129.088 14.0099 129.531 14.2912C129.977 14.5724 130.324 14.9673 130.571 15.4759C130.821 15.9844 130.946 16.5795 130.946 17.2614C130.946 17.9375 130.821 18.5284 130.571 19.0341C130.324 19.5398 129.977 19.9332 129.531 20.2145C129.088 20.4957 128.571 20.6364 127.98 20.6364ZM127.98 19.733C128.429 19.733 128.798 19.6179 129.088 19.3878C129.378 19.1577 129.592 18.8551 129.731 18.4801C129.871 18.1051 129.94 17.6989 129.94 17.2614C129.94 16.8239 129.871 16.4162 129.731 16.0384C129.592 15.6605 129.378 15.3551 129.088 15.1222C128.798 14.8892 128.429 14.7727 127.98 14.7727C127.531 14.7727 127.162 14.8892 126.872 15.1222C126.582 15.3551 126.368 15.6605 126.229 16.0384C126.089 16.4162 126.02 16.8239 126.02 17.2614C126.02 17.6989 126.089 18.1051 126.229 18.4801C126.368 18.8551 126.582 19.1577 126.872 19.3878C127.162 19.6179 127.531 19.733 127.98 19.733ZM133.487 16.5625V20.5H132.481V13.9545H133.453V14.9773H133.538C133.691 14.6449 133.924 14.3778 134.237 14.1761C134.549 13.9716 134.953 13.8693 135.447 13.8693C135.89 13.8693 136.278 13.9602 136.61 14.142C136.943 14.321 137.201 14.5938 137.386 14.9602C137.57 15.3239 137.663 15.7841 137.663 16.3409V20.5H136.657V16.4091C136.657 15.8949 136.524 15.4943 136.257 15.2074C135.99 14.9176 135.623 14.7727 135.157 14.7727C134.836 14.7727 134.549 14.8423 134.296 14.9815C134.046 15.1207 133.849 15.3239 133.704 15.5909C133.559 15.858 133.487 16.1818 133.487 16.5625ZM145.722 13.9545V14.8068H142.33V13.9545H145.722ZM143.319 12.3864H144.324V18.625C144.324 18.9091 144.366 19.1222 144.448 19.2642C144.533 19.4034 144.641 19.4972 144.772 19.5455C144.905 19.5909 145.046 19.6136 145.194 19.6136C145.305 19.6136 145.395 19.608 145.466 19.5966C145.537 19.5824 145.594 19.571 145.637 19.5625L145.841 20.4659C145.773 20.4915 145.678 20.517 145.556 20.5426C145.434 20.571 145.279 20.5852 145.091 20.5852C144.807 20.5852 144.529 20.5241 144.256 20.402C143.986 20.2798 143.762 20.0938 143.583 19.8438C143.407 19.5938 143.319 19.2784 143.319 18.8977V12.3864ZM148.381 16.5625V20.5H147.376V11.7727H148.381V14.9773H148.466C148.62 14.6392 148.85 14.3707 149.157 14.1719C149.466 13.9702 149.878 13.8693 150.393 13.8693C150.839 13.8693 151.229 13.9588 151.564 14.1378C151.9 14.3139 152.16 14.5852 152.344 14.9517C152.532 15.3153 152.626 15.7784 152.626 16.3409V20.5H151.62V16.4091C151.62 15.8892 151.485 15.4872 151.215 15.2031C150.948 14.9162 150.577 14.7727 150.103 14.7727C149.773 14.7727 149.478 14.8423 149.216 14.9815C148.958 15.1207 148.753 15.3239 148.603 15.5909C148.455 15.858 148.381 16.1818 148.381 16.5625ZM157.21 20.6364C156.579 20.6364 156.035 20.4972 155.578 20.2188C155.123 19.9375 154.772 19.5455 154.525 19.0426C154.281 18.5369 154.159 17.9489 154.159 17.2784C154.159 16.608 154.281 16.017 154.525 15.5057C154.772 14.9915 155.116 14.5909 155.556 14.304C155.999 14.0142 156.517 13.8693 157.107 13.8693C157.448 13.8693 157.785 13.9261 158.117 14.0398C158.45 14.1534 158.752 14.3381 159.025 14.5938C159.298 14.8466 159.515 15.1818 159.677 15.5994C159.839 16.017 159.92 16.5312 159.92 17.142V17.5682H154.874V16.6989H158.897C158.897 16.3295 158.823 16 158.676 15.7102C158.531 15.4205 158.323 15.1918 158.053 15.0241C157.786 14.8565 157.471 14.7727 157.107 14.7727C156.707 14.7727 156.36 14.8722 156.068 15.071C155.778 15.267 155.555 15.5227 155.399 15.8381C155.242 16.1534 155.164 16.4915 155.164 16.8523V17.4318C155.164 17.9261 155.249 18.3452 155.42 18.6889C155.593 19.0298 155.833 19.2898 156.14 19.4688C156.447 19.6449 156.803 19.733 157.21 19.733C157.474 19.733 157.713 19.696 157.926 19.6222C158.142 19.5455 158.328 19.4318 158.484 19.2812C158.64 19.1278 158.761 18.9375 158.846 18.7102L159.818 18.983C159.715 19.3125 159.544 19.6023 159.302 19.8523C159.061 20.0994 158.762 20.2926 158.407 20.4318C158.052 20.5682 157.653 20.6364 157.21 20.6364Z" fill="#090909"/>
<path d="M74.2254 31.6406C74.1359 31.3295 74.0102 31.0547 73.8483 30.8161C73.6863 30.5732 73.4882 30.3686 73.2538 30.2024C73.0237 30.032 72.7595 29.902 72.4612 29.8125C72.1672 29.723 71.8412 29.6783 71.4832 29.6783C70.8142 29.6783 70.2261 29.8445 69.719 30.1768C69.2162 30.5092 68.8241 30.9929 68.5429 31.6278C68.2616 32.2585 68.121 33.0298 68.121 33.9418C68.121 34.8537 68.2595 35.6293 68.5365 36.2685C68.8135 36.9077 69.2055 37.3956 69.7126 37.7322C70.2197 38.0646 70.8184 38.2308 71.5088 38.2308C72.1352 38.2308 72.67 38.12 73.1132 37.8984C73.5606 37.6726 73.9015 37.3551 74.1359 36.946C74.3746 36.5369 74.4939 36.0533 74.4939 35.495L75.0564 35.5781H71.6814V33.4943H77.1594V35.1435C77.1594 36.294 76.9165 37.2827 76.4307 38.1094C75.9449 38.9318 75.2758 39.5668 74.4236 40.0142C73.5713 40.4574 72.5954 40.679 71.496 40.679C70.2687 40.679 69.1906 40.4084 68.2616 39.8672C67.3327 39.3217 66.6082 38.5483 66.0883 37.5469C65.5727 36.5412 65.3149 35.348 65.3149 33.9673C65.3149 32.9062 65.4683 31.9602 65.7751 31.1293C66.0862 30.294 66.5209 29.5866 67.0791 29.0071C67.6373 28.4276 68.2872 27.9865 69.0287 27.6839C69.7702 27.3814 70.5734 27.2301 71.4385 27.2301C72.18 27.2301 72.8703 27.3388 73.5095 27.5561C74.1487 27.7692 74.7155 28.0717 75.2098 28.4638C75.7084 28.8558 76.1153 29.3224 76.4307 29.8636C76.746 30.4006 76.9484 30.9929 77.0379 31.6406H74.2254ZM83.6233 40.6918C82.6304 40.6918 81.7718 40.4808 81.0473 40.0589C80.3271 39.6328 79.771 39.0405 79.379 38.282C78.9869 37.5192 78.7909 36.6349 78.7909 35.6293C78.7909 34.6151 78.9869 33.7287 79.379 32.9702C79.771 32.2074 80.3271 31.6151 81.0473 31.1932C81.7718 30.767 82.6304 30.554 83.6233 30.554C84.6162 30.554 85.4727 30.767 86.1929 31.1932C86.9173 31.6151 87.4756 32.2074 87.8676 32.9702C88.2597 33.7287 88.4557 34.6151 88.4557 35.6293C88.4557 36.6349 88.2597 37.5192 87.8676 38.282C87.4756 39.0405 86.9173 39.6328 86.1929 40.0589C85.4727 40.4808 84.6162 40.6918 83.6233 40.6918ZM83.6361 38.5824C84.0878 38.5824 84.4649 38.4545 84.7675 38.1989C85.07 37.9389 85.298 37.5852 85.4514 37.1378C85.6091 36.6903 85.6879 36.1811 85.6879 35.6101C85.6879 35.0391 85.6091 34.5298 85.4514 34.0824C85.298 33.6349 85.07 33.2812 84.7675 33.0213C84.4649 32.7614 84.0878 32.6314 83.6361 32.6314C83.1801 32.6314 82.7966 32.7614 82.4855 33.0213C82.1787 33.2812 81.9465 33.6349 81.7888 34.0824C81.6354 34.5298 81.5587 35.0391 81.5587 35.6101C81.5587 36.1811 81.6354 36.6903 81.7888 37.1378C81.9465 37.5852 82.1787 37.9389 82.4855 38.1989C82.7966 38.4545 83.1801 38.5824 83.6361 38.5824ZM94.6624 40.6918C93.6695 40.6918 92.8108 40.4808 92.0864 40.0589C91.3662 39.6328 90.8101 39.0405 90.4181 38.282C90.026 37.5192 89.83 36.6349 89.83 35.6293C89.83 34.6151 90.026 33.7287 90.4181 32.9702C90.8101 32.2074 91.3662 31.6151 92.0864 31.1932C92.8108 30.767 93.6695 30.554 94.6624 30.554C95.6553 30.554 96.5118 30.767 97.232 31.1932C97.9564 31.6151 98.5146 32.2074 98.9067 32.9702C99.2987 33.7287 99.4948 34.6151 99.4948 35.6293C99.4948 36.6349 99.2987 37.5192 98.9067 38.282C98.5146 39.0405 97.9564 39.6328 97.232 40.0589C96.5118 40.4808 95.6553 40.6918 94.6624 40.6918ZM94.6752 38.5824C95.1269 38.5824 95.504 38.4545 95.8066 38.1989C96.1091 37.9389 96.3371 37.5852 96.4905 37.1378C96.6482 36.6903 96.727 36.1811 96.727 35.6101C96.727 35.0391 96.6482 34.5298 96.4905 34.0824C96.3371 33.6349 96.1091 33.2812 95.8066 33.0213C95.504 32.7614 95.1269 32.6314 94.6752 32.6314C94.2192 32.6314 93.8357 32.7614 93.5246 33.0213C93.2178 33.2812 92.9855 33.6349 92.8279 34.0824C92.6744 34.5298 92.5977 35.0391 92.5977 35.6101C92.5977 36.1811 92.6744 36.6903 92.8279 37.1378C92.9855 37.5852 93.2178 37.9389 93.5246 38.1989C93.8357 38.4545 94.2192 38.5824 94.6752 38.5824ZM105.689 44.3864C104.807 44.3864 104.05 44.2649 103.419 44.022C102.793 43.7834 102.294 43.4574 101.924 43.044C101.553 42.6307 101.312 42.1662 101.201 41.6506L103.72 41.3118C103.797 41.5078 103.918 41.6911 104.084 41.8615C104.25 42.032 104.47 42.1683 104.743 42.2706C105.02 42.3771 105.356 42.4304 105.753 42.4304C106.345 42.4304 106.833 42.2855 107.216 41.9957C107.604 41.7102 107.798 41.2308 107.798 40.5575V38.7614H107.683C107.564 39.0341 107.385 39.2919 107.146 39.5348C106.907 39.7777 106.601 39.9759 106.226 40.1293C105.851 40.2827 105.403 40.3594 104.883 40.3594C104.146 40.3594 103.475 40.1889 102.87 39.848C102.269 39.5028 101.79 38.9766 101.432 38.2692C101.078 37.5575 100.901 36.6584 100.901 35.5717C100.901 34.4595 101.082 33.5305 101.444 32.7848C101.807 32.0391 102.288 31.4808 102.889 31.1101C103.494 30.7393 104.157 30.554 104.877 30.554C105.427 30.554 105.887 30.6477 106.258 30.8352C106.628 31.0185 106.927 31.2486 107.152 31.5256C107.383 31.7983 107.559 32.0668 107.683 32.331H107.785V30.6818H110.489V40.5959C110.489 41.4311 110.285 42.13 109.875 42.6925C109.466 43.255 108.9 43.6768 108.175 43.9581C107.455 44.2436 106.626 44.3864 105.689 44.3864ZM105.746 38.3139C106.185 38.3139 106.556 38.2053 106.858 37.9879C107.165 37.7663 107.4 37.451 107.562 37.0419C107.728 36.6286 107.811 36.1342 107.811 35.5589C107.811 34.9837 107.73 34.4851 107.568 34.0632C107.406 33.6371 107.172 33.3068 106.865 33.0724C106.558 32.8381 106.185 32.7209 105.746 32.7209C105.299 32.7209 104.922 32.8423 104.615 33.0852C104.308 33.3239 104.076 33.6562 103.918 34.0824C103.76 34.5085 103.682 35.0007 103.682 35.5589C103.682 36.1257 103.76 36.6158 103.918 37.0291C104.08 37.4382 104.312 37.7557 104.615 37.9815C104.922 38.2031 105.299 38.3139 105.746 38.3139ZM115.379 27.4091V40.5H112.656V27.4091H115.379ZM122.035 40.6918C121.025 40.6918 120.155 40.4872 119.427 40.0781C118.702 39.6648 118.144 39.081 117.752 38.3267C117.36 37.5682 117.164 36.6712 117.164 35.6357C117.164 34.6257 117.36 33.7393 117.752 32.9766C118.144 32.2138 118.696 31.6193 119.408 31.1932C120.123 30.767 120.963 30.554 121.926 30.554C122.574 30.554 123.177 30.6584 123.735 30.8672C124.297 31.0717 124.788 31.3807 125.205 31.794C125.627 32.2074 125.955 32.7273 126.19 33.3537C126.424 33.9759 126.541 34.7045 126.541 35.5398V36.2876H118.251V34.6001H123.978C123.978 34.2081 123.893 33.8608 123.722 33.5582C123.552 33.2557 123.315 33.0192 123.013 32.8487C122.714 32.674 122.367 32.5866 121.971 32.5866C121.557 32.5866 121.191 32.6825 120.871 32.8743C120.556 33.0618 120.309 33.3153 120.13 33.6349C119.951 33.9503 119.859 34.3018 119.855 34.6896V36.294C119.855 36.7798 119.945 37.1996 120.123 37.5533C120.307 37.907 120.565 38.1797 120.897 38.3714C121.229 38.5632 121.623 38.6591 122.079 38.6591C122.382 38.6591 122.659 38.6165 122.91 38.5312C123.162 38.446 123.377 38.3182 123.556 38.1477C123.735 37.9773 123.871 37.7685 123.965 37.5213L126.484 37.6875C126.356 38.2926 126.094 38.821 125.697 39.2727C125.305 39.7202 124.798 40.0696 124.176 40.321C123.558 40.5682 122.844 40.6918 122.035 40.6918ZM132.535 40.5V27.4091H137.7C138.693 27.4091 139.539 27.5987 140.238 27.978C140.937 28.353 141.469 28.875 141.836 29.544C142.206 30.2088 142.392 30.9759 142.392 31.8452C142.392 32.7145 142.204 33.4815 141.829 34.1463C141.454 34.8111 140.911 35.3288 140.199 35.6996C139.492 36.0703 138.635 36.2557 137.63 36.2557H134.338V34.0376H137.182C137.715 34.0376 138.154 33.946 138.499 33.7628C138.848 33.5753 139.108 33.3175 139.279 32.9893C139.454 32.657 139.541 32.2756 139.541 31.8452C139.541 31.4105 139.454 31.0312 139.279 30.7074C139.108 30.3793 138.848 30.1257 138.499 29.9467C138.15 29.7635 137.706 29.6719 137.169 29.6719H135.303V40.5H132.535ZM146.861 27.4091V40.5H144.138V27.4091H146.861ZM151.842 40.6854C151.216 40.6854 150.658 40.5767 150.168 40.3594C149.678 40.1378 149.29 39.8118 149.004 39.3814C148.723 38.9467 148.582 38.4055 148.582 37.7578C148.582 37.2124 148.683 36.7543 148.883 36.3835C149.083 36.0128 149.356 35.7145 149.701 35.4886C150.046 35.2628 150.438 35.0923 150.877 34.9773C151.32 34.8622 151.785 34.7812 152.271 34.7344C152.842 34.6747 153.302 34.6193 153.651 34.5682C154.001 34.5128 154.254 34.4318 154.412 34.3253C154.57 34.2187 154.649 34.0611 154.649 33.8523V33.8139C154.649 33.4091 154.521 33.0959 154.265 32.8743C154.014 32.6527 153.656 32.5419 153.191 32.5419C152.701 32.5419 152.311 32.6506 152.021 32.8679C151.732 33.081 151.54 33.3494 151.446 33.6733L148.928 33.4688C149.055 32.8722 149.307 32.3565 149.682 31.9219C150.057 31.483 150.541 31.1463 151.133 30.9119C151.729 30.6733 152.42 30.554 153.204 30.554C153.749 30.554 154.271 30.6179 154.77 30.7457C155.273 30.8736 155.718 31.0717 156.106 31.3402C156.498 31.6087 156.807 31.9538 157.033 32.3757C157.259 32.7933 157.372 33.294 157.372 33.8778V40.5H154.789V39.1385H154.712C154.555 39.4453 154.344 39.7159 154.08 39.9503C153.815 40.1804 153.498 40.3615 153.127 40.4936C152.756 40.6214 152.328 40.6854 151.842 40.6854ZM152.622 38.8061C153.023 38.8061 153.377 38.7273 153.683 38.5696C153.99 38.4077 154.231 38.1903 154.406 37.9176C154.58 37.6449 154.668 37.3359 154.668 36.9908V35.9489C154.582 36.0043 154.465 36.0554 154.316 36.1023C154.171 36.1449 154.007 36.1854 153.824 36.2237C153.641 36.2578 153.457 36.2898 153.274 36.3196C153.091 36.3452 152.925 36.3686 152.776 36.3899C152.456 36.4368 152.177 36.5114 151.938 36.6136C151.7 36.7159 151.514 36.8544 151.382 37.0291C151.25 37.1996 151.184 37.4126 151.184 37.6683C151.184 38.0391 151.318 38.3224 151.587 38.5185C151.859 38.7102 152.205 38.8061 152.622 38.8061ZM160.814 44.1818C160.468 44.1818 160.145 44.1541 159.842 44.0987C159.544 44.0476 159.297 43.9815 159.101 43.9006L159.714 41.8679C160.034 41.9659 160.321 42.0192 160.577 42.0277C160.837 42.0362 161.061 41.9766 161.248 41.8487C161.44 41.7209 161.596 41.5036 161.715 41.1967L161.875 40.7812L158.353 30.6818H161.216L163.249 37.892H163.351L165.403 30.6818H168.286L164.47 41.5611C164.287 42.0895 164.037 42.5497 163.722 42.9418C163.411 43.3381 163.017 43.6428 162.54 43.8558C162.062 44.0732 161.487 44.1818 160.814 44.1818Z" fill="#090909"/>
</svg>
