<svg width="177" height="56" viewBox="0 0 177 56" fill="none" xmlns="http://www.w3.org/2000/svg">
<rect width="177" height="56" rx="28" fill="white"/>
<path d="M50.3712 38.2557C49.8326 39.5 49.1951 40.6454 48.4564 41.6985C47.4495 43.1341 46.6251 44.1278 45.9897 44.6796C45.0048 45.5853 43.9496 46.0492 42.8196 46.0756C42.0084 46.0756 41.03 45.8447 39.8913 45.3765C38.7487 44.9104 37.6987 44.6796 36.7387 44.6796C35.7318 44.6796 34.6519 44.9104 33.4969 45.3765C32.34 45.8447 31.4081 46.0888 30.6956 46.113C29.612 46.1591 28.5319 45.6821 27.4538 44.6796C26.7656 44.0794 25.905 43.0505 24.8739 41.5929C23.7676 40.0364 22.8581 38.2315 22.1456 36.1738C21.3825 33.9511 21 31.7988 21 29.7152C21 27.3283 21.5158 25.2697 22.5488 23.5445C23.3607 22.1589 24.4408 21.0658 25.7926 20.2634C27.1444 19.4609 28.6051 19.052 30.1781 19.0258C31.0388 19.0258 32.1674 19.2921 33.5701 19.8153C34.9687 20.3403 35.8668 20.6065 36.2605 20.6065C36.5549 20.6065 37.5525 20.2952 39.2438 19.6746C40.8432 19.0991 42.193 18.8607 43.2988 18.9546C46.2953 19.1964 48.5465 20.3777 50.0437 22.5058C47.3638 24.1296 46.0381 26.4038 46.0645 29.3214C46.0887 31.594 46.9131 33.4851 48.5333 34.9866C49.2676 35.6835 50.0876 36.2221 51 36.6047C50.8021 37.1785 50.5933 37.7281 50.3712 38.2557ZM43.4989 11.2126C43.4989 12.9938 42.8482 14.6569 41.5511 16.1962C39.9858 18.0262 38.0925 19.0837 36.0394 18.9168C36.0132 18.7031 35.998 18.4782 35.998 18.2419C35.998 16.5319 36.7424 14.7019 38.0643 13.2057C38.7243 12.4481 39.5637 11.8182 40.5816 11.3157C41.5972 10.8207 42.558 10.5469 43.4615 10.5C43.4879 10.7381 43.4989 10.9763 43.4989 11.2125V11.2126Z" fill="#090909"/>
<path d="M68.2207 20.5H65.5275V11.7727H68.34C69.1866 11.7727 69.911 11.9474 70.5133 12.2969C71.1156 12.6435 71.5772 13.142 71.8983 13.7926C72.2193 14.4403 72.3798 15.2159 72.3798 16.1193C72.3798 17.0284 72.2179 17.8111 71.894 18.4673C71.5701 19.1207 71.0985 19.6236 70.4792 19.9759C69.8599 20.3253 69.1071 20.5 68.2207 20.5ZM66.5843 19.5625H68.1525C68.8741 19.5625 69.4721 19.4233 69.9466 19.1449C70.421 18.8665 70.7747 18.4702 71.0076 17.956C71.2406 17.4418 71.3571 16.8295 71.3571 16.1193C71.3571 15.4148 71.242 14.8082 71.0119 14.2997C70.7818 13.7884 70.438 13.3963 69.9806 13.1236C69.5233 12.848 68.9537 12.7102 68.2718 12.7102H66.5843V19.5625ZM76.6752 20.6364C76.0843 20.6364 75.5659 20.4957 75.1199 20.2145C74.6767 19.9332 74.3301 19.5398 74.0801 19.0341C73.8329 18.5284 73.7093 17.9375 73.7093 17.2614C73.7093 16.5795 73.8329 15.9844 74.0801 15.4759C74.3301 14.9673 74.6767 14.5724 75.1199 14.2912C75.5659 14.0099 76.0843 13.8693 76.6752 13.8693C77.2662 13.8693 77.7832 14.0099 78.2264 14.2912C78.6724 14.5724 79.019 14.9673 79.2662 15.4759C79.5162 15.9844 79.6412 16.5795 79.6412 17.2614C79.6412 17.9375 79.5162 18.5284 79.2662 19.0341C79.019 19.5398 78.6724 19.9332 78.2264 20.2145C77.7832 20.4957 77.2662 20.6364 76.6752 20.6364ZM76.6752 19.733C77.1241 19.733 77.4934 19.6179 77.7832 19.3878C78.073 19.1577 78.2875 18.8551 78.4267 18.4801C78.5659 18.1051 78.6355 17.6989 78.6355 17.2614C78.6355 16.8239 78.5659 16.4162 78.4267 16.0384C78.2875 15.6605 78.073 15.3551 77.7832 15.1222C77.4934 14.8892 77.1241 14.7727 76.6752 14.7727C76.2264 14.7727 75.8571 14.8892 75.5673 15.1222C75.2775 15.3551 75.063 15.6605 74.9238 16.0384C74.7846 16.4162 74.715 16.8239 74.715 17.2614C74.715 17.6989 74.7846 18.1051 74.9238 18.4801C75.063 18.8551 75.2775 19.1577 75.5673 19.3878C75.8571 19.6179 76.2264 19.733 76.6752 19.733ZM82.4366 20.5L80.4423 13.9545H81.4991L82.9139 18.9659H82.9821L84.3798 13.9545H85.4537L86.8343 18.9489H86.9025L88.3173 13.9545H89.3741L87.3798 20.5H86.3912L84.9593 15.4716H84.8571L83.4252 20.5H82.4366ZM91.7093 16.5625V20.5H90.7037V13.9545H91.6752V14.9773H91.7605C91.9139 14.6449 92.1468 14.3778 92.4593 14.1761C92.7718 13.9716 93.1752 13.8693 93.6696 13.8693C94.1127 13.8693 94.5005 13.9602 94.8329 14.142C95.1653 14.321 95.4238 14.5938 95.6085 14.9602C95.7931 15.3239 95.8855 15.7841 95.8855 16.3409V20.5H94.8798V16.4091C94.8798 15.8949 94.7463 15.4943 94.4792 15.2074C94.2122 14.9176 93.8457 14.7727 93.3798 14.7727C93.0588 14.7727 92.7718 14.8423 92.519 14.9815C92.269 15.1207 92.0716 15.3239 91.9267 15.5909C91.7818 15.858 91.7093 16.1818 91.7093 16.5625ZM98.7289 11.7727V20.5H97.7232V11.7727H98.7289ZM103.23 20.6364C102.639 20.6364 102.121 20.4957 101.675 20.2145C101.231 19.9332 100.885 19.5398 100.635 19.0341C100.388 18.5284 100.264 17.9375 100.264 17.2614C100.264 16.5795 100.388 15.9844 100.635 15.4759C100.885 14.9673 101.231 14.5724 101.675 14.2912C102.121 14.0099 102.639 13.8693 103.23 13.8693C103.821 13.8693 104.338 14.0099 104.781 14.2912C105.227 14.5724 105.574 14.9673 105.821 15.4759C106.071 15.9844 106.196 16.5795 106.196 17.2614C106.196 17.9375 106.071 18.5284 105.821 19.0341C105.574 19.5398 105.227 19.9332 104.781 20.2145C104.338 20.4957 103.821 20.6364 103.23 20.6364ZM103.23 19.733C103.679 19.733 104.048 19.6179 104.338 19.3878C104.628 19.1577 104.842 18.8551 104.981 18.4801C105.121 18.1051 105.19 17.6989 105.19 17.2614C105.19 16.8239 105.121 16.4162 104.981 16.0384C104.842 15.6605 104.628 15.3551 104.338 15.1222C104.048 14.8892 103.679 14.7727 103.23 14.7727C102.781 14.7727 102.412 14.8892 102.122 15.1222C101.832 15.3551 101.618 15.6605 101.479 16.0384C101.339 16.4162 101.27 16.8239 101.27 17.2614C101.27 17.6989 101.339 18.1051 101.479 18.4801C101.618 18.8551 101.832 19.1577 102.122 19.3878C102.412 19.6179 102.781 19.733 103.23 19.733ZM109.657 20.6534C109.242 20.6534 108.866 20.5753 108.528 20.419C108.19 20.2599 107.921 20.0312 107.722 19.733C107.524 19.4318 107.424 19.0682 107.424 18.642C107.424 18.267 107.498 17.9631 107.646 17.7301C107.794 17.4943 107.991 17.3097 108.238 17.1761C108.485 17.0426 108.758 16.9432 109.056 16.8778C109.357 16.8097 109.66 16.7557 109.964 16.7159C110.362 16.6648 110.684 16.6264 110.931 16.6009C111.181 16.5724 111.363 16.5256 111.477 16.4602C111.593 16.3949 111.651 16.2812 111.651 16.1193V16.0852C111.651 15.6648 111.536 15.3381 111.306 15.1051C111.079 14.8722 110.734 14.7557 110.271 14.7557C109.791 14.7557 109.414 14.8608 109.142 15.071C108.869 15.2812 108.677 15.5057 108.566 15.7443L107.612 15.4034C107.782 15.0057 108.009 14.696 108.294 14.4744C108.58 14.25 108.893 14.0937 109.231 14.0057C109.572 13.9148 109.907 13.8693 110.237 13.8693C110.447 13.8693 110.688 13.8949 110.961 13.946C111.237 13.9943 111.502 14.0952 111.758 14.2486C112.017 14.402 112.231 14.6335 112.401 14.9432C112.572 15.2528 112.657 15.6676 112.657 16.1875V20.5H111.651V19.6136H111.6C111.532 19.7557 111.419 19.9077 111.259 20.0696C111.1 20.2315 110.889 20.3693 110.624 20.483C110.36 20.5966 110.038 20.6534 109.657 20.6534ZM109.811 19.75C110.208 19.75 110.544 19.6719 110.816 19.5156C111.092 19.3594 111.299 19.1577 111.438 18.9105C111.58 18.6634 111.651 18.4034 111.651 18.1307V17.2102C111.609 17.2614 111.515 17.3082 111.37 17.3509C111.228 17.3906 111.063 17.4261 110.876 17.4574C110.691 17.4858 110.511 17.5114 110.335 17.5341C110.161 17.554 110.021 17.571 109.913 17.5852C109.651 17.6193 109.407 17.6747 109.18 17.7514C108.955 17.8253 108.774 17.9375 108.634 18.0881C108.498 18.2358 108.43 18.4375 108.43 18.6932C108.43 19.0426 108.559 19.3068 108.818 19.4858C109.079 19.6619 109.41 19.75 109.811 19.75ZM116.964 20.6364C116.419 20.6364 115.937 20.4986 115.52 20.223C115.102 19.9446 114.775 19.5526 114.54 19.0469C114.304 18.5384 114.186 17.9375 114.186 17.2443C114.186 16.5568 114.304 15.9602 114.54 15.4545C114.775 14.9489 115.104 14.5582 115.524 14.2827C115.944 14.0071 116.43 13.8693 116.981 13.8693C117.407 13.8693 117.744 13.9403 117.991 14.0824C118.241 14.2216 118.432 14.3807 118.562 14.5597C118.696 14.7358 118.8 14.8807 118.873 14.9943H118.959V11.7727H119.964V20.5H118.993V19.4943H118.873C118.8 19.6136 118.694 19.7642 118.558 19.946C118.422 20.125 118.227 20.2855 117.974 20.4276C117.721 20.5668 117.385 20.6364 116.964 20.6364ZM117.101 19.733C117.504 19.733 117.845 19.6278 118.123 19.4176C118.402 19.2045 118.613 18.9105 118.758 18.5355C118.903 18.1577 118.976 17.7216 118.976 17.2273C118.976 16.7386 118.905 16.3111 118.763 15.9446C118.621 15.5753 118.41 15.2884 118.132 15.0838C117.854 14.8764 117.51 14.7727 117.101 14.7727C116.675 14.7727 116.319 14.8821 116.035 15.1009C115.754 15.3168 115.542 15.6108 115.4 15.983C115.261 16.3523 115.192 16.767 115.192 17.2273C115.192 17.6932 115.263 18.1165 115.405 18.4972C115.55 18.875 115.763 19.1761 116.044 19.4006C116.328 19.6222 116.68 19.733 117.101 19.733ZM127.98 20.6364C127.389 20.6364 126.871 20.4957 126.425 20.2145C125.981 19.9332 125.635 19.5398 125.385 19.0341C125.138 18.5284 125.014 17.9375 125.014 17.2614C125.014 16.5795 125.138 15.9844 125.385 15.4759C125.635 14.9673 125.981 14.5724 126.425 14.2912C126.871 14.0099 127.389 13.8693 127.98 13.8693C128.571 13.8693 129.088 14.0099 129.531 14.2912C129.977 14.5724 130.324 14.9673 130.571 15.4759C130.821 15.9844 130.946 16.5795 130.946 17.2614C130.946 17.9375 130.821 18.5284 130.571 19.0341C130.324 19.5398 129.977 19.9332 129.531 20.2145C129.088 20.4957 128.571 20.6364 127.98 20.6364ZM127.98 19.733C128.429 19.733 128.798 19.6179 129.088 19.3878C129.378 19.1577 129.592 18.8551 129.731 18.4801C129.871 18.1051 129.94 17.6989 129.94 17.2614C129.94 16.8239 129.871 16.4162 129.731 16.0384C129.592 15.6605 129.378 15.3551 129.088 15.1222C128.798 14.8892 128.429 14.7727 127.98 14.7727C127.531 14.7727 127.162 14.8892 126.872 15.1222C126.582 15.3551 126.368 15.6605 126.229 16.0384C126.089 16.4162 126.02 16.8239 126.02 17.2614C126.02 17.6989 126.089 18.1051 126.229 18.4801C126.368 18.8551 126.582 19.1577 126.872 19.3878C127.162 19.6179 127.531 19.733 127.98 19.733ZM133.487 16.5625V20.5H132.481V13.9545H133.453V14.9773H133.538C133.691 14.6449 133.924 14.3778 134.237 14.1761C134.549 13.9716 134.953 13.8693 135.447 13.8693C135.89 13.8693 136.278 13.9602 136.61 14.142C136.943 14.321 137.201 14.5938 137.386 14.9602C137.57 15.3239 137.663 15.7841 137.663 16.3409V20.5H136.657V16.4091C136.657 15.8949 136.524 15.4943 136.257 15.2074C135.99 14.9176 135.623 14.7727 135.157 14.7727C134.836 14.7727 134.549 14.8423 134.296 14.9815C134.046 15.1207 133.849 15.3239 133.704 15.5909C133.559 15.858 133.487 16.1818 133.487 16.5625ZM145.722 13.9545V14.8068H142.33V13.9545H145.722ZM143.319 12.3864H144.324V18.625C144.324 18.9091 144.366 19.1222 144.448 19.2642C144.533 19.4034 144.641 19.4972 144.772 19.5455C144.905 19.5909 145.046 19.6136 145.194 19.6136C145.305 19.6136 145.395 19.608 145.466 19.5966C145.537 19.5824 145.594 19.571 145.637 19.5625L145.841 20.4659C145.773 20.4915 145.678 20.517 145.556 20.5426C145.434 20.571 145.279 20.5852 145.091 20.5852C144.807 20.5852 144.529 20.5241 144.256 20.402C143.986 20.2798 143.762 20.0938 143.583 19.8438C143.407 19.5938 143.319 19.2784 143.319 18.8977V12.3864ZM148.381 16.5625V20.5H147.376V11.7727H148.381V14.9773H148.466C148.62 14.6392 148.85 14.3707 149.157 14.1719C149.466 13.9702 149.878 13.8693 150.393 13.8693C150.839 13.8693 151.229 13.9588 151.564 14.1378C151.9 14.3139 152.16 14.5852 152.344 14.9517C152.532 15.3153 152.626 15.7784 152.626 16.3409V20.5H151.62V16.4091C151.62 15.8892 151.485 15.4872 151.215 15.2031C150.948 14.9162 150.577 14.7727 150.103 14.7727C149.773 14.7727 149.478 14.8423 149.216 14.9815C148.958 15.1207 148.753 15.3239 148.603 15.5909C148.455 15.858 148.381 16.1818 148.381 16.5625ZM157.21 20.6364C156.579 20.6364 156.035 20.4972 155.578 20.2188C155.123 19.9375 154.772 19.5455 154.525 19.0426C154.281 18.5369 154.159 17.9489 154.159 17.2784C154.159 16.608 154.281 16.017 154.525 15.5057C154.772 14.9915 155.116 14.5909 155.556 14.304C155.999 14.0142 156.517 13.8693 157.107 13.8693C157.448 13.8693 157.785 13.9261 158.117 14.0398C158.45 14.1534 158.752 14.3381 159.025 14.5938C159.298 14.8466 159.515 15.1818 159.677 15.5994C159.839 16.017 159.92 16.5312 159.92 17.142V17.5682H154.874V16.6989H158.897C158.897 16.3295 158.823 16 158.676 15.7102C158.531 15.4205 158.323 15.1918 158.053 15.0241C157.786 14.8565 157.471 14.7727 157.107 14.7727C156.707 14.7727 156.36 14.8722 156.068 15.071C155.778 15.267 155.555 15.5227 155.399 15.8381C155.242 16.1534 155.164 16.4915 155.164 16.8523V17.4318C155.164 17.9261 155.249 18.3452 155.42 18.6889C155.593 19.0298 155.833 19.2898 156.14 19.4688C156.447 19.6449 156.803 19.733 157.21 19.733C157.474 19.733 157.713 19.696 157.926 19.6222C158.142 19.5455 158.328 19.4318 158.484 19.2812C158.64 19.1278 158.761 18.9375 158.846 18.7102L159.818 18.983C159.715 19.3125 159.544 19.6023 159.302 19.8523C159.061 20.0994 158.762 20.2926 158.407 20.4318C158.052 20.5682 157.653 20.6364 157.21 20.6364Z" fill="#090909"/>
<path d="M67.5758 40.5H64.6099L69.1291 27.4091H72.6958L77.2086 40.5H74.2427L70.9636 30.4006H70.8613L67.5758 40.5ZM67.3904 35.3544H74.3961V37.5149H67.3904V35.3544ZM78.7331 44.1818V30.6818H81.4178V32.331H81.5392C81.6586 32.0668 81.8311 31.7983 82.057 31.5256C82.2871 31.2486 82.5854 31.0185 82.9519 30.8352C83.3226 30.6477 83.7828 30.554 84.3326 30.554C85.0485 30.554 85.709 30.7415 86.3141 31.1165C86.9192 31.4872 87.4029 32.0476 87.7651 32.7976C88.1273 33.5433 88.3084 34.4787 88.3084 35.6037C88.3084 36.6989 88.1316 37.6236 87.7779 38.3778C87.4284 39.1278 86.9512 39.6967 86.3461 40.0845C85.7452 40.468 85.0719 40.6598 84.3262 40.6598C83.7978 40.6598 83.3482 40.5724 82.9775 40.3977C82.611 40.223 82.3105 40.0036 82.0762 39.7393C81.8418 39.4709 81.6628 39.2003 81.5392 38.9276H81.4561V44.1818H78.7331ZM81.3986 35.5909C81.3986 36.1747 81.4796 36.6839 81.6415 37.1186C81.8034 37.5533 82.0378 37.892 82.3446 38.1349C82.6515 38.3736 83.0243 38.4929 83.4632 38.4929C83.9064 38.4929 84.2814 38.3714 84.5882 38.1286C84.8951 37.8814 85.1273 37.5405 85.285 37.1058C85.4469 36.6669 85.5279 36.1619 85.5279 35.5909C85.5279 35.0241 85.449 34.5256 85.2914 34.0952C85.1337 33.6648 84.9015 33.3281 84.5946 33.0852C84.2878 32.8423 83.9107 32.7209 83.4632 32.7209C83.0201 32.7209 82.6451 32.8381 82.3382 33.0724C82.0357 33.3068 81.8034 33.6392 81.6415 34.0696C81.4796 34.5 81.3986 35.0071 81.3986 35.5909ZM90.1238 44.1818V30.6818H92.8084V32.331H92.9299C93.0492 32.0668 93.2218 31.7983 93.4476 31.5256C93.6777 31.2486 93.976 31.0185 94.3425 30.8352C94.7132 30.6477 95.1735 30.554 95.7232 30.554C96.4391 30.554 97.0996 30.7415 97.7047 31.1165C98.3098 31.4872 98.7935 32.0476 99.1557 32.7976C99.5179 33.5433 99.699 34.4787 99.699 35.6037C99.699 36.6989 99.5222 37.6236 99.1685 38.3778C98.8191 39.1278 98.3418 39.6967 97.7367 40.0845C97.1358 40.468 96.4625 40.6598 95.7168 40.6598C95.1884 40.6598 94.7388 40.5724 94.3681 40.3977C94.0016 40.223 93.7012 40.0036 93.4668 39.7393C93.2324 39.4709 93.0534 39.2003 92.9299 38.9276H92.8468V44.1818H90.1238ZM92.7892 35.5909C92.7892 36.1747 92.8702 36.6839 93.0321 37.1186C93.1941 37.5533 93.4284 37.892 93.7353 38.1349C94.0421 38.3736 94.415 38.4929 94.8539 38.4929C95.2971 38.4929 95.6721 38.3714 95.9789 38.1286C96.2857 37.8814 96.5179 37.5405 96.6756 37.1058C96.8375 36.6669 96.9185 36.1619 96.9185 35.5909C96.9185 35.0241 96.8397 34.5256 96.682 34.0952C96.5243 33.6648 96.2921 33.3281 95.9853 33.0852C95.6784 32.8423 95.3013 32.7209 94.8539 32.7209C94.4107 32.7209 94.0357 32.8381 93.7289 33.0724C93.4263 33.3068 93.1941 33.6392 93.0321 34.0696C92.8702 34.5 92.7892 35.0071 92.7892 35.5909ZM108.667 31.174C108.616 30.6584 108.396 30.2578 108.009 29.9723C107.621 29.6868 107.095 29.544 106.43 29.544C105.978 29.544 105.597 29.608 105.286 29.7358C104.975 29.8594 104.736 30.032 104.57 30.2536C104.408 30.4751 104.327 30.7266 104.327 31.0078C104.318 31.2422 104.367 31.4467 104.474 31.6214C104.585 31.7962 104.736 31.9474 104.928 32.0753C105.119 32.1989 105.341 32.3075 105.593 32.4013C105.844 32.4908 106.112 32.5675 106.398 32.6314L107.574 32.9126C108.145 33.0405 108.669 33.2109 109.146 33.424C109.624 33.6371 110.037 33.8991 110.387 34.2102C110.736 34.5213 111.007 34.8878 111.198 35.3097C111.394 35.7315 111.494 36.2152 111.499 36.7607C111.494 37.5618 111.29 38.2564 110.885 38.8445C110.485 39.4283 109.905 39.8821 109.146 40.206C108.392 40.5256 107.482 40.6854 106.417 40.6854C105.36 40.6854 104.44 40.5234 103.656 40.1996C102.876 39.8757 102.267 39.3963 101.828 38.7614C101.393 38.1222 101.165 37.3317 101.144 36.3899H103.822C103.852 36.8288 103.977 37.1953 104.199 37.4893C104.425 37.7791 104.725 37.9986 105.1 38.1477C105.48 38.2926 105.908 38.3651 106.385 38.3651C106.854 38.3651 107.261 38.2969 107.606 38.1605C107.955 38.0241 108.226 37.8345 108.418 37.5916C108.61 37.3487 108.705 37.0696 108.705 36.7543C108.705 36.4602 108.618 36.2131 108.443 36.0128C108.273 35.8125 108.021 35.642 107.689 35.5014C107.361 35.3608 106.958 35.233 106.481 35.1179L105.056 34.7599C103.952 34.4915 103.08 34.0717 102.441 33.5007C101.802 32.9297 101.485 32.1605 101.489 31.1932C101.485 30.4006 101.695 29.7081 102.122 29.1158C102.552 28.5234 103.142 28.0611 103.892 27.7287C104.642 27.3963 105.494 27.2301 106.449 27.2301C107.421 27.2301 108.269 27.3963 108.993 27.7287C109.722 28.0611 110.289 28.5234 110.693 29.1158C111.098 29.7081 111.307 30.3942 111.32 31.174H108.667ZM118.532 30.6818V32.7273H112.619V30.6818H118.532ZM113.961 28.3295H116.684V37.483C116.684 37.7344 116.723 37.9304 116.799 38.071C116.876 38.2074 116.983 38.3033 117.119 38.3587C117.26 38.4141 117.422 38.4418 117.605 38.4418C117.733 38.4418 117.86 38.4311 117.988 38.4098C118.116 38.3842 118.214 38.3651 118.282 38.3523L118.711 40.3786C118.574 40.4212 118.382 40.4702 118.135 40.5256C117.888 40.5852 117.588 40.6214 117.234 40.6342C116.578 40.6598 116.002 40.5724 115.508 40.3722C115.018 40.1719 114.637 39.8608 114.364 39.4389C114.091 39.017 113.957 38.4844 113.961 37.8409V28.3295ZM124.636 40.6918C123.643 40.6918 122.784 40.4808 122.06 40.0589C121.34 39.6328 120.784 39.0405 120.392 38.282C120 37.5192 119.804 36.6349 119.804 35.6293C119.804 34.6151 120 33.7287 120.392 32.9702C120.784 32.2074 121.34 31.6151 122.06 31.1932C122.784 30.767 123.643 30.554 124.636 30.554C125.629 30.554 126.485 30.767 127.206 31.1932C127.93 31.6151 128.488 32.2074 128.88 32.9702C129.272 33.7287 129.468 34.6151 129.468 35.6293C129.468 36.6349 129.272 37.5192 128.88 38.282C128.488 39.0405 127.93 39.6328 127.206 40.0589C126.485 40.4808 125.629 40.6918 124.636 40.6918ZM124.649 38.5824C125.1 38.5824 125.478 38.4545 125.78 38.1989C126.083 37.9389 126.311 37.5852 126.464 37.1378C126.622 36.6903 126.701 36.1811 126.701 35.6101C126.701 35.0391 126.622 34.5298 126.464 34.0824C126.311 33.6349 126.083 33.2812 125.78 33.0213C125.478 32.7614 125.1 32.6314 124.649 32.6314C124.193 32.6314 123.809 32.7614 123.498 33.0213C123.191 33.2812 122.959 33.6349 122.801 34.0824C122.648 34.5298 122.571 35.0391 122.571 35.6101C122.571 36.1811 122.648 36.6903 122.801 37.1378C122.959 37.5852 123.191 37.9389 123.498 38.1989C123.809 38.4545 124.193 38.5824 124.649 38.5824ZM131.239 40.5V30.6818H133.879V32.3949H133.981C134.16 31.7855 134.461 31.3253 134.882 31.0142C135.304 30.6989 135.79 30.5412 136.34 30.5412C136.476 30.5412 136.623 30.5497 136.781 30.5668C136.939 30.5838 137.077 30.6072 137.196 30.6371V33.0533C137.069 33.0149 136.892 32.9808 136.666 32.951C136.44 32.9212 136.233 32.9062 136.046 32.9062C135.645 32.9062 135.287 32.9936 134.972 33.1683C134.661 33.3388 134.414 33.5774 134.23 33.8842C134.051 34.1911 133.962 34.5447 133.962 34.9453V40.5H131.239ZM142.622 40.6918C141.612 40.6918 140.742 40.4872 140.014 40.0781C139.289 39.6648 138.731 39.081 138.339 38.3267C137.947 37.5682 137.751 36.6712 137.751 35.6357C137.751 34.6257 137.947 33.7393 138.339 32.9766C138.731 32.2138 139.283 31.6193 139.994 31.1932C140.71 30.767 141.55 30.554 142.513 30.554C143.161 30.554 143.764 30.6584 144.322 30.8672C144.884 31.0717 145.374 31.3807 145.792 31.794C146.214 32.2074 146.542 32.7273 146.776 33.3537C147.011 33.9759 147.128 34.7045 147.128 35.5398V36.2876H138.838V34.6001H144.565C144.565 34.2081 144.48 33.8608 144.309 33.5582C144.139 33.2557 143.902 33.0192 143.6 32.8487C143.301 32.674 142.954 32.5866 142.558 32.5866C142.144 32.5866 141.778 32.6825 141.458 32.8743C141.143 33.0618 140.896 33.3153 140.717 33.6349C140.538 33.9503 140.446 34.3018 140.442 34.6896V36.294C140.442 36.7798 140.531 37.1996 140.71 37.5533C140.894 37.907 141.151 38.1797 141.484 38.3714C141.816 38.5632 142.21 38.6591 142.666 38.6591C142.969 38.6591 143.246 38.6165 143.497 38.5312C143.749 38.446 143.964 38.3182 144.143 38.1477C144.322 37.9773 144.458 37.7685 144.552 37.5213L147.07 37.6875C146.943 38.2926 146.681 38.821 146.284 39.2727C145.892 39.7202 145.385 40.0696 144.763 40.321C144.145 40.5682 143.431 40.6918 142.622 40.6918Z" fill="#090909"/>
</svg>
