<svg width="185" height="56" viewBox="0 0 185 56" fill="none" xmlns="http://www.w3.org/2000/svg">
<rect width="184.701" height="56" rx="28" fill="#EFF0F3"/>
<path d="M64.4981 20.9672L63.8683 19.1677H60.2395L59.6097 20.9672H58.5L61.4691 12.7797H62.6387L65.6078 20.9672H64.4981ZM60.5094 18.328H63.5384L62.0389 14.0993L60.5394 18.328H60.5094Z" fill="#010101"/>
<path d="M66.2678 14.4892H67.4075L69.3868 19.9775L71.3962 14.4892H72.5658L70.0167 20.9972H68.787L66.2678 14.4892Z" fill="#010101"/>
<path d="M74.0648 20.1275C73.465 19.4977 73.165 18.6879 73.165 17.6982C73.165 16.7085 73.4649 15.8988 74.0348 15.299C74.6346 14.6992 75.3544 14.3693 76.2541 14.3693C76.7939 14.3693 77.2738 14.4892 77.6936 14.7591C78.1135 15.0291 78.4134 15.359 78.6233 15.7788V14.4892H79.703V20.9972H78.6233V19.6776C78.4134 20.0975 78.1135 20.4574 77.6936 20.6973C77.2738 20.9672 76.7939 21.0872 76.2541 21.0872C75.3843 21.0872 74.6346 20.7573 74.0348 20.1275H74.0648ZM78.0235 19.4977C78.4434 19.0478 78.6533 18.478 78.6533 17.7282C78.6533 16.9784 78.4434 16.4086 78.0235 15.9588C77.6037 15.5089 77.0638 15.299 76.464 15.299C75.8642 15.299 75.3544 15.5089 74.9045 15.9288C74.4846 16.3486 74.2747 16.9185 74.2747 17.6682C74.2747 18.418 74.4846 18.9878 74.9345 19.4677C75.3844 19.9475 75.8942 20.1575 76.494 20.1575C77.0938 20.1575 77.6037 19.9475 78.0235 19.4977Z" fill="#010101"/>
<path d="M82.5829 13.2296C82.5829 13.2296 82.283 13.4396 82.073 13.4396C81.8631 13.4396 81.6832 13.3796 81.5632 13.2296C81.4133 13.0797 81.3533 12.8997 81.3533 12.7198C81.3533 12.5398 81.4133 12.3299 81.5632 12.2099C81.7132 12.06 81.8631 12 82.073 12C82.283 12 82.4329 12.06 82.5829 12.2099C82.7328 12.3599 82.7928 12.5398 82.7928 12.7198C82.7928 12.8997 82.7328 13.1097 82.5829 13.2296ZM81.5332 20.9672V14.4592H82.6129V20.9672H81.5332Z" fill="#010101"/>
<path d="M84.3816 20.9672V12.21H85.4613V20.9672H84.3816Z" fill="#010101"/>
<path d="M87.6807 20.1275C87.0809 19.4977 86.781 18.6879 86.781 17.6982C86.781 16.7085 87.0809 15.8988 87.6507 15.299C88.2505 14.6992 88.9703 14.3693 89.87 14.3693C90.4099 14.3693 90.8897 14.4892 91.3096 14.7591C91.7295 15.0291 92.0294 15.359 92.2393 15.7788V14.4892H93.319V20.9972H92.2393V19.6776C92.0294 20.0975 91.7295 20.4574 91.3096 20.6973C90.8897 20.9672 90.4099 21.0872 89.87 21.0872C89.0003 21.0872 88.2505 20.7573 87.6507 20.1275H87.6807ZM91.6395 19.4977C92.0594 19.0478 92.2693 18.478 92.2693 17.7282C92.2693 16.9784 92.0594 16.4086 91.6395 15.9588C91.2196 15.5089 90.6798 15.299 90.08 15.299C89.4802 15.299 88.9703 15.5089 88.5205 15.9288C88.1006 16.3486 87.8907 16.9185 87.8907 17.6682C87.8907 18.418 88.1006 18.9878 88.5505 19.4677C89.0003 19.9475 89.5102 20.1575 90.11 20.1575C90.7098 20.1575 91.2196 19.9475 91.6395 19.4977Z" fill="#010101"/>
<path d="M98.6276 14.3693C99.5273 14.3693 100.247 14.6692 100.847 15.299C101.447 15.8988 101.717 16.7085 101.717 17.6982C101.717 18.6879 101.417 19.4977 100.817 20.1275C100.217 20.7573 99.4973 21.0872 98.5976 21.0872C98.0577 21.0872 97.5779 20.9672 97.158 20.6973C96.7381 20.4274 96.4382 20.0975 96.1983 19.6776V20.9972H95.1187V12.2399H96.1983V15.8088C96.4083 15.3889 96.7381 15.059 97.158 14.7891C97.5779 14.5192 98.0577 14.3993 98.5976 14.3993L98.6276 14.3693ZM98.4176 20.1575C99.0174 20.1575 99.5273 19.9175 99.9771 19.4677C100.397 19.0178 100.607 18.418 100.607 17.6682C100.607 16.9185 100.397 16.3486 99.9771 15.9288C99.5573 15.5089 99.0174 15.299 98.4176 15.299C97.8178 15.299 97.308 15.5089 96.8581 15.9588C96.4382 16.4086 96.2283 16.9784 96.2283 17.6982C96.2283 18.418 96.4382 19.0178 96.8581 19.4677C97.278 19.9175 97.8178 20.1275 98.4176 20.1275V20.1575Z" fill="#010101"/>
<path d="M103.067 20.9672V12.21H104.146V20.9672H103.067Z" fill="#010101"/>
<path d="M108.644 21.0872C107.714 21.0872 106.965 20.7873 106.365 20.1575C105.795 19.5276 105.495 18.7179 105.495 17.7282C105.495 16.7385 105.795 15.8988 106.395 15.299C106.995 14.6992 107.744 14.3693 108.704 14.3693C109.664 14.3693 110.414 14.6692 110.983 15.239C111.553 15.8088 111.853 16.5586 111.853 17.4583C111.853 17.6982 111.853 17.9082 111.793 18.0881H106.635C106.665 18.7179 106.875 19.2577 107.235 19.6176C107.594 19.9775 108.074 20.1874 108.674 20.1874C109.124 20.1874 109.484 20.0975 109.784 19.8875C110.084 19.6776 110.324 19.4377 110.444 19.1078H111.613C111.403 19.6776 111.043 20.1575 110.564 20.5173C110.054 20.8772 109.424 21.0572 108.674 21.0572L108.644 21.0872ZM110.084 15.8388C109.694 15.4789 109.214 15.269 108.644 15.269C108.074 15.269 107.594 15.4489 107.205 15.8088C106.815 16.1687 106.605 16.6785 106.575 17.3083H110.654C110.654 16.6785 110.444 16.1987 110.054 15.8088L110.084 15.8388Z" fill="#010101"/>
<path d="M117.162 20.1575C116.562 19.5276 116.262 18.7479 116.262 17.7282C116.262 16.7085 116.562 15.9288 117.192 15.299C117.821 14.6692 118.601 14.3693 119.531 14.3693C120.461 14.3693 121.24 14.6692 121.87 15.299C122.5 15.9288 122.8 16.7385 122.8 17.7282C122.8 18.7179 122.47 19.5276 121.81 20.1575C121.15 20.7873 120.371 21.0872 119.441 21.0872C118.511 21.0872 117.732 20.7873 117.132 20.1575H117.162ZM119.471 20.1874C120.071 20.1874 120.611 19.9775 121.06 19.5276C121.51 19.0778 121.72 18.478 121.72 17.6982C121.72 16.9185 121.51 16.3187 121.09 15.8988C120.671 15.4789 120.161 15.239 119.531 15.239C118.901 15.239 118.421 15.4489 118.001 15.8988C117.582 16.3486 117.372 16.9485 117.372 17.6982C117.372 18.448 117.582 19.0778 117.971 19.5276C118.361 19.9775 118.871 20.1874 119.471 20.1874Z" fill="#010101"/>
<path d="M125.259 14.4892V15.5389C125.709 14.7591 126.399 14.3693 127.388 14.3693C128.108 14.3693 128.708 14.6092 129.188 15.089C129.667 15.5689 129.907 16.2587 129.907 17.1284V20.9672H128.858V17.3083C128.858 16.6486 128.708 16.1687 128.378 15.8088C128.078 15.4789 127.628 15.299 127.058 15.299C126.488 15.299 126.069 15.4789 125.739 15.8088C125.409 16.1387 125.259 16.6486 125.259 17.3083V20.9672H124.179V14.4592H125.259V14.4892Z" fill="#010101"/>
<path d="M137.286 20.0975H138.186V20.9672H137.106C135.966 20.9672 135.426 20.3974 135.426 19.2877V15.3289H134.587V14.4592H135.426V12.8397H136.506V14.4592H138.186V15.3289H136.506V19.2877C136.506 19.5876 136.566 19.7975 136.686 19.9175C136.806 20.0375 137.016 20.0975 137.316 20.0975H137.286Z" fill="#010101"/>
<path d="M140.434 12.2099V15.5089C140.884 14.7291 141.574 14.3393 142.564 14.3393C143.284 14.3393 143.883 14.5792 144.363 15.059C144.843 15.5389 145.083 16.2287 145.083 17.0984V20.9372H144.033V17.2783C144.033 16.6185 143.883 16.1387 143.553 15.7788C143.254 15.4489 142.804 15.269 142.234 15.269C141.664 15.269 141.244 15.4489 140.914 15.7788C140.584 16.1087 140.434 16.6185 140.434 17.2783V20.9372H139.355V12.1799H140.434V12.2099Z" fill="#010101"/>
<path d="M149.492 21.0872C148.562 21.0872 147.812 20.7873 147.213 20.1575C146.643 19.5276 146.343 18.7179 146.343 17.7282C146.343 16.7385 146.643 15.8988 147.243 15.299C147.842 14.6992 148.592 14.3693 149.552 14.3693C150.511 14.3693 151.261 14.6692 151.831 15.239C152.401 15.8088 152.701 16.5586 152.701 17.4583C152.701 17.6982 152.701 17.9082 152.641 18.0881H147.482C147.512 18.7179 147.722 19.2577 148.082 19.6176C148.442 19.9775 148.922 20.1874 149.522 20.1874C149.972 20.1874 150.332 20.0975 150.631 19.8875C150.931 19.6776 151.171 19.4377 151.291 19.1078H152.461C152.251 19.6776 151.891 20.1575 151.411 20.5173C150.901 20.8772 150.272 21.0572 149.522 21.0572L149.492 21.0872ZM150.931 15.8388C150.541 15.4789 150.062 15.269 149.492 15.269C148.922 15.269 148.442 15.4489 148.052 15.8088C147.662 16.1687 147.452 16.6785 147.422 17.3083H151.501C151.501 16.6785 151.291 16.1987 150.901 15.8088L150.931 15.8388Z" fill="#010101"/>
<path d="M68.4569 38.9616L67.4072 35.9925H61.3791L60.3294 38.9616H58.5L63.4185 25.4358H65.3679L70.2563 38.9616H68.4269H68.4569ZM61.889 34.5829H66.8974L64.4082 27.5951L61.919 34.5829H61.889Z" fill="#010101"/>
<path d="M78.3537 28.075C79.8232 28.075 81.0528 28.5848 82.0125 29.5745C82.9722 30.5942 83.4521 31.9138 83.4521 33.5333C83.4521 35.1528 82.9722 36.5023 81.9825 37.552C80.9928 38.6017 79.7932 39.1115 78.3237 39.1115C77.4239 39.1115 76.6142 38.9016 75.9244 38.4517C75.2346 38.0019 74.7248 37.432 74.3649 36.7423V44H72.5955V28.1949H74.3649V30.3543C74.7248 29.6645 75.2646 29.0947 75.9244 28.6748C76.6142 28.2549 77.3939 28.045 78.3237 28.045L78.3537 28.075ZM78.0238 37.612C79.0134 37.612 79.8832 37.2521 80.573 36.5023C81.2927 35.7526 81.6226 34.7629 81.6226 33.5633C81.6226 32.3636 81.2627 31.3739 80.573 30.6842C79.8532 29.9944 79.0134 29.6345 78.0238 29.6345C77.0341 29.6345 76.1643 29.9944 75.4746 30.7141C74.7848 31.4339 74.4249 32.4236 74.4249 33.6232C74.4249 34.8229 74.7848 35.7826 75.4746 36.5323C76.1943 37.2821 77.0341 37.642 78.0238 37.642V37.612Z" fill="#010101"/>
<path d="M91.4298 28.075C92.8994 28.075 94.129 28.5848 95.0887 29.5745C96.0484 30.5942 96.5282 31.9138 96.5282 33.5333C96.5282 35.1528 96.0484 36.5023 95.0587 37.552C94.069 38.6017 92.8694 39.1115 91.3998 39.1115C90.5001 39.1115 89.6904 38.9016 89.0006 38.4517C88.3108 38.0019 87.801 37.432 87.4411 36.7423V44H85.6716V28.1949H87.4411V30.3543C87.801 29.6645 88.3408 29.0947 89.0006 28.6748C89.6904 28.2549 90.4701 28.045 91.3998 28.045L91.4298 28.075ZM91.0999 37.612C92.0896 37.612 92.9593 37.2521 93.6491 36.5023C94.3689 35.7526 94.6988 34.7629 94.6988 33.5633C94.6988 32.3636 94.3389 31.3739 93.6491 30.6842C92.9294 29.9944 92.0896 29.6345 91.0999 29.6345C90.1102 29.6345 89.2405 29.9944 88.5507 30.7141C87.8609 31.4339 87.5011 32.4236 87.5011 33.6232C87.5011 34.8229 87.8609 35.7826 88.5507 36.5323C89.2705 37.2821 90.1102 37.642 91.0999 37.642V37.612Z" fill="#010101"/>
<path d="M106.095 29.0347C106.095 29.5445 106.245 29.9344 106.515 30.2643C106.785 30.5942 107.145 30.8341 107.565 30.9841C107.985 31.134 108.465 31.284 109.004 31.404C109.544 31.5239 110.054 31.6439 110.594 31.7938C111.134 31.9438 111.614 32.1237 112.034 32.3637C112.453 32.6036 112.813 32.9635 113.083 33.4133C113.353 33.8932 113.503 34.463 113.503 35.1528C113.503 36.2025 113.113 37.1322 112.303 37.9119C111.494 38.6917 110.414 39.0816 109.034 39.0816C107.655 39.0816 106.545 38.7517 105.675 38.1219C104.806 37.4921 104.386 36.6223 104.386 35.5427H106.275C106.335 36.1425 106.575 36.6523 106.995 37.0122C107.415 37.4021 108.075 37.582 108.944 37.582C109.814 37.582 110.474 37.3721 110.984 36.9222C111.494 36.4724 111.734 35.9625 111.734 35.3627C111.734 34.7629 111.584 34.3131 111.314 33.9832C111.044 33.6533 110.684 33.4133 110.264 33.2634C109.844 33.1134 109.364 32.9635 108.825 32.8735C108.285 32.7535 107.775 32.6336 107.235 32.4836C106.695 32.3337 106.245 32.1237 105.795 31.8838C105.376 31.6439 105.016 31.284 104.746 30.8041C104.476 30.3243 104.326 29.7245 104.326 29.0347C104.326 27.8951 104.746 26.9653 105.556 26.2756C106.365 25.5858 107.415 25.2259 108.735 25.2259C110.054 25.2259 111.074 25.5258 111.854 26.1256C112.633 26.7254 113.083 27.5652 113.203 28.6448H111.224C111.164 28.105 110.924 27.6551 110.474 27.2653C110.024 26.8754 109.424 26.6954 108.645 26.6954C107.865 26.6954 107.265 26.8754 106.785 27.2653C106.305 27.6551 106.065 28.225 106.065 28.9447L106.095 29.0347Z" fill="#010101"/>
<path d="M119.621 37.5221H121.09V38.9616H119.291C117.431 38.9616 116.502 38.0319 116.502 36.2025V29.6945H115.122V28.255H116.502V25.6158H118.301V28.255H121.06V29.6945H118.301V36.2025C118.301 36.6823 118.391 37.0122 118.601 37.2222C118.811 37.4321 119.141 37.5221 119.621 37.5221Z" fill="#010101"/>
<path d="M123.79 37.612C122.8 36.5924 122.32 35.2728 122.32 33.6233C122.32 31.9738 122.83 30.6242 123.85 29.6045C124.869 28.5849 126.159 28.075 127.719 28.075C129.278 28.075 130.568 28.5849 131.587 29.6045C132.607 30.6242 133.117 31.9738 133.117 33.5933C133.117 35.2128 132.577 36.5624 131.497 37.582C130.418 38.6017 129.128 39.1116 127.569 39.1116C126.009 39.1116 124.75 38.6017 123.76 37.582L123.79 37.612ZM127.599 37.672C128.588 37.672 129.458 37.3121 130.208 36.5924C130.958 35.8726 131.318 34.8829 131.318 33.5933C131.318 32.3037 130.958 31.314 130.268 30.5942C129.578 29.8745 128.708 29.5146 127.689 29.5146C126.669 29.5146 125.829 29.8745 125.169 30.5942C124.48 31.314 124.15 32.3037 124.15 33.5933C124.15 34.8829 124.48 35.8726 125.139 36.5924C125.799 37.3121 126.609 37.672 127.629 37.672H127.599Z" fill="#010101"/>
<path d="M137.135 28.2549V30.0844C137.765 28.7648 138.844 28.105 140.404 28.105V29.9644H139.924C139.024 29.9644 138.305 30.2043 137.855 30.6842C137.405 31.164 137.135 31.9738 137.135 33.1434V38.9916H135.365V28.2849H137.135V28.2549Z" fill="#010101"/>
<path d="M147.033 39.1416C145.503 39.1416 144.243 38.6317 143.284 37.612C142.324 36.5924 141.844 35.2428 141.844 33.5933C141.844 31.9438 142.324 30.5942 143.314 29.5745C144.303 28.5549 145.563 28.075 147.123 28.075C148.682 28.075 149.912 28.5549 150.871 29.5146C151.801 30.4743 152.281 31.7039 152.281 33.1734C152.281 33.5633 152.281 33.8932 152.191 34.2231H143.674C143.734 35.3028 144.064 36.1425 144.663 36.7423C145.293 37.3721 146.073 37.672 147.033 37.672C147.752 37.672 148.382 37.5221 148.892 37.1922C149.402 36.8623 149.762 36.4424 150.002 35.9026H151.921C151.591 36.8323 150.991 37.612 150.182 38.2418C149.342 38.8416 148.322 39.1715 147.063 39.1715L147.033 39.1416ZM149.432 30.4743C148.802 29.8445 147.992 29.5446 147.063 29.5446C146.133 29.5446 145.323 29.8445 144.723 30.4443C144.124 31.0441 143.764 31.8838 143.704 32.9335H150.452C150.452 31.9138 150.122 31.0741 149.462 30.4743H149.432Z" fill="#010101"/>
<path d="M34.1293 13.6795H48.7947C49.9944 13.6795 50.9841 14.6392 50.9841 15.8688V40.701C50.9841 41.9006 50.0244 42.8603 48.8247 42.8603H34.1593C32.9597 42.8603 32 41.9006 32 40.701V15.8388C32 14.6392 32.9897 13.6495 34.1893 13.6495L34.1293 13.6795Z" fill="#010101"/>
<path d="M49.9342 17.1884H32.9895V37.672H49.9342V17.1884Z" fill="#EFF0F3"/>
<path d="M44.9257 14.9691H37.9678C37.6979 14.9691 37.458 15.209 37.458 15.4789C37.458 15.7488 37.6979 15.9887 37.9678 15.9887H44.9257C45.1956 15.9887 45.4355 15.7488 45.4355 15.4789C45.4355 15.209 45.1956 14.9691 44.9257 14.9691Z" fill="#EFF0F3"/>
<path d="M39.7974 40.1312C39.7974 39.2015 40.5471 38.4517 41.4769 38.4517C42.4066 38.4517 43.1563 39.2015 43.1563 40.1312C43.1563 41.0609 42.4066 41.8107 41.4769 41.8107C40.5471 41.8107 39.7974 41.0609 39.7974 40.1312Z" fill="#EFF0F3"/>
</svg>
