<svg xmlns="http://www.w3.org/2000/svg" width="198" height="56" viewBox="0 0 198 56" fill="none">
    <rect x="0.700684" width="196.378" height="56" rx="28" fill="#EFF0F3"/>
    <path d="M70.9367 16.6299L70.5903 15.622H68.5745L68.2281 16.6299H67.6296L69.2989 12.063H69.9603L71.6296 16.6299H70.9997H70.9367ZM68.732 15.1496H70.4328L69.5824 12.7874L68.732 15.1496Z" fill="#010101"/>
    <path d="M75.3779 12.063H75.9763V16.6299H75.3779L72.9527 13.0079V16.6299H72.3542V12.063H72.9527L75.3779 15.685V12.063Z" fill="#010101"/>
    <path d="M78.4012 12.063C79.1256 12.063 79.724 12.2835 80.1335 12.6929C80.5429 13.1024 80.7634 13.6693 80.7634 14.3937C80.7634 15.1181 80.5429 15.6535 80.1335 16.063C79.6926 16.4724 79.1256 16.6614 78.4012 16.6614H76.9524V12.0945H78.4012V12.063ZM77.5508 16.1575H78.4012C78.9681 16.1575 79.4091 16 79.724 15.685C80.039 15.3701 80.165 14.9291 80.165 14.3622C80.165 13.7953 80.0075 13.3543 79.724 13.0394C79.4091 12.7244 78.9681 12.5669 78.4012 12.5669H77.5508V16.1575Z" fill="#010101"/>
    <path d="M82.1495 14.7402V16.6299H81.551V12.063H83.0313C83.5353 12.063 83.9447 12.189 84.1967 12.4409C84.4802 12.6929 84.6061 13.0079 84.6061 13.3543C84.6061 13.7008 84.5117 14.0157 84.3227 14.2677C84.1337 14.5197 83.8187 14.6457 83.4408 14.7087L84.7006 16.6299H83.9447L82.7479 14.7402H82.1495ZM82.1495 12.5354V14.2677H83.0313C83.3463 14.2677 83.5983 14.2047 83.7558 14.0472C83.9132 13.8898 84.0077 13.6693 84.0077 13.4173C84.0077 12.8504 83.6928 12.5669 83.0313 12.5669H82.1495V12.5354Z" fill="#010101"/>
    <path d="M87.6928 16.6614C87.0314 16.6614 86.4959 16.4409 86.0235 16C85.5825 15.5591 85.3621 14.9921 85.3621 14.3307C85.3621 13.6693 85.5825 13.1024 86.0235 12.6614C86.4644 12.2205 87.0314 12 87.6928 12C88.3542 12 88.8896 12.2205 89.3306 12.6614C89.7715 13.1024 89.992 13.6693 89.992 14.3307C89.992 14.9921 89.7715 15.5591 89.3306 16C88.8896 16.4409 88.3227 16.6614 87.6928 16.6614ZM88.9211 15.622C89.2361 15.3071 89.3936 14.8661 89.3936 14.3307C89.3936 13.7953 89.2361 13.3543 88.9211 13.0394C88.6062 12.7244 88.1967 12.5354 87.6928 12.5354C87.1888 12.5354 86.7794 12.6929 86.4644 13.0394C86.1495 13.3543 85.992 13.7953 85.992 14.3307C85.992 14.8661 86.1495 15.3071 86.4644 15.622C86.7794 15.937 87.1888 16.126 87.6928 16.126C88.1967 16.126 88.6062 15.9685 88.9211 15.622Z" fill="#010101"/>
    <path d="M90.7478 16.6299V12.063H91.3462V16.6299H90.7478Z" fill="#010101"/>
    <path d="M93.8029 12.063C94.5274 12.063 95.1258 12.2835 95.5352 12.6929C95.9447 13.1024 96.1652 13.6693 96.1652 14.3937C96.1652 15.1181 95.9447 15.6535 95.5352 16.063C95.0943 16.4724 94.5274 16.6614 93.8029 16.6614H92.3541V12.0945H93.8029V12.063ZM92.9526 16.1575H93.8029C94.3699 16.1575 94.8108 16 95.1258 15.685C95.4407 15.3701 95.5667 14.9291 95.5667 14.3622C95.5667 13.7953 95.4092 13.3543 95.1258 13.0394C94.8108 12.7244 94.3699 12.5669 93.8029 12.5669H92.9526V16.1575Z" fill="#010101"/>
    <path d="M102.055 16.6299L101.708 15.622H99.6927L99.3462 16.6299H98.7478L100.417 12.063H101.079L102.748 16.6299H102.118H102.055ZM99.8502 15.1496H101.551L100.701 12.7874L99.8502 15.1496Z" fill="#010101"/>
    <path d="M106.118 12.4409C106.401 12.6929 106.527 13.0079 106.527 13.4173C106.527 13.8268 106.401 14.1417 106.149 14.3937C105.897 14.6457 105.488 14.7716 104.953 14.7716H104.071V16.6614H103.472V12.0945H104.953C105.457 12.0945 105.866 12.2205 106.118 12.4724V12.4409ZM104.071 14.2677H104.953C105.268 14.2677 105.52 14.2047 105.677 14.0472C105.834 13.8898 105.929 13.6693 105.929 13.4173C105.929 12.8504 105.614 12.5669 104.953 12.5669H104.071V14.2992V14.2677Z" fill="#010101"/>
    <path d="M109.929 12.4409C110.212 12.6929 110.338 13.0079 110.338 13.4173C110.338 13.8268 110.212 14.1417 109.96 14.3937C109.708 14.6457 109.299 14.7716 108.764 14.7716H107.882V16.6614H107.283V12.0945H108.764C109.267 12.0945 109.677 12.2205 109.929 12.4724V12.4409ZM107.882 14.2677H108.764C109.078 14.2677 109.33 14.2047 109.488 14.0472C109.645 13.8898 109.74 13.6693 109.74 13.4173C109.74 12.8504 109.425 12.5669 108.764 12.5669H107.882V14.2992V14.2677Z" fill="#010101"/>
    <path d="M115.157 16.6614C114.496 16.6614 113.96 16.4409 113.488 16C113.047 15.5591 112.827 14.9921 112.827 14.3307C112.827 13.6693 113.047 13.1024 113.488 12.6614C113.929 12.2205 114.496 12 115.157 12C115.819 12 116.354 12.2205 116.795 12.6614C117.236 13.1024 117.456 13.6693 117.456 14.3307C117.456 14.9921 117.236 15.5591 116.795 16C116.354 16.4409 115.787 16.6614 115.157 16.6614ZM116.386 15.622C116.701 15.3071 116.858 14.8661 116.858 14.3307C116.858 13.7953 116.701 13.3543 116.386 13.0394C116.071 12.7244 115.661 12.5354 115.157 12.5354C114.653 12.5354 114.244 12.6929 113.929 13.0394C113.614 13.3543 113.456 13.7953 113.456 14.3307C113.456 14.8661 113.614 15.3071 113.929 15.622C114.244 15.937 114.653 16.126 115.157 16.126C115.661 16.126 116.071 15.9685 116.386 15.622Z" fill="#010101"/>
    <path d="M121.205 12.063H121.803V16.6299H121.205L118.779 13.0079V16.6299H118.181V12.063H118.779L121.205 15.685V12.063Z" fill="#010101"/>
    <path d="M71.6298 35.5906C70.0235 35.5906 68.6061 35.0236 67.4723 33.8898C66.3069 32.7559 65.74 31.3386 65.74 29.5748C65.74 27.811 66.3069 26.4252 67.4723 25.2914C68.6376 24.1575 70.0549 23.5906 71.7242 23.5906C72.9526 23.5906 74.0234 23.874 74.9998 24.441C75.9447 25.0079 76.6691 25.8583 77.1101 26.9292H75.2518C74.5589 25.6063 73.3935 24.9449 71.7242 24.9449C70.4329 24.9449 69.3935 25.3544 68.5746 26.2047C67.7557 27.0551 67.3148 28.1575 67.3148 29.5433C67.3148 30.9292 67.7242 32.063 68.5746 32.9134C69.3935 33.7638 70.4329 34.1733 71.6927 34.1733C72.9526 34.1733 73.929 33.8268 74.6849 33.1339C75.4408 32.441 75.8817 31.4961 76.0077 30.2992H71.1573V29.0709H77.6455V30.2992C77.488 31.811 76.8581 33.0709 75.7557 34.0788C74.6534 35.0866 73.299 35.5591 71.6927 35.5591L71.6298 35.5906Z" fill="#010101"/>
    <path d="M80.1969 34.2992C79.3465 33.4173 78.9055 32.252 78.9055 30.8346C78.9055 29.4173 79.3465 28.252 80.2598 27.3386C81.1417 26.4567 82.2756 26.0157 83.6299 26.0157C84.9843 26.0157 86.0866 26.4567 87 27.3386C87.8819 28.2205 88.3543 29.3858 88.3543 30.8031C88.3543 32.2205 87.8819 33.3858 86.9685 34.2677C86.0236 35.1496 84.8898 35.5906 83.5669 35.5906C82.2441 35.5906 81.1102 35.1496 80.2598 34.2677L80.1969 34.2992ZM83.5039 34.3622C84.3858 34.3622 85.1417 34.0472 85.7717 33.4173C86.4016 32.7874 86.7165 31.937 86.7165 30.8031C86.7165 29.6693 86.4016 28.8189 85.8032 28.2205C85.2047 27.5905 84.4488 27.2756 83.5669 27.2756C82.6851 27.2756 81.9606 27.5905 81.3622 28.2205C80.7638 28.8504 80.4803 29.7008 80.4803 30.8346C80.4803 31.9685 80.7638 32.8189 81.3307 33.4488C81.8976 34.0787 82.6221 34.3937 83.4724 34.3937L83.5039 34.3622Z" fill="#010101"/>
    <path d="M90.9052 34.2992C90.0548 33.4173 89.6139 32.252 89.6139 30.8346C89.6139 29.4173 90.0548 28.252 90.9682 27.3386C91.8501 26.4567 92.984 26.0157 94.3383 26.0157C95.6926 26.0157 96.795 26.4567 97.7084 27.3386C98.5903 28.2205 99.0627 29.3858 99.0627 30.8031C99.0627 32.2205 98.5903 33.3858 97.6769 34.2677C96.732 35.1496 95.5981 35.5906 94.2753 35.5906C92.9525 35.5906 91.8186 35.1496 90.9682 34.2677L90.9052 34.2992ZM94.2123 34.3622C95.0942 34.3622 95.8501 34.0472 96.48 33.4173C97.11 32.7874 97.4249 31.937 97.4249 30.8031C97.4249 29.6693 97.11 28.8189 96.5115 28.2205C95.9131 27.5905 95.1572 27.2756 94.2753 27.2756C93.3934 27.2756 92.669 27.5905 92.0706 28.2205C91.4722 28.8504 91.1887 29.7008 91.1887 30.8346C91.1887 31.9685 91.4722 32.8189 92.0391 33.4488C92.606 34.0787 93.3304 34.3937 94.1808 34.3937L94.2123 34.3622Z" fill="#010101"/>
    <path d="M101.614 34.2677C100.764 33.3543 100.354 32.189 100.354 30.7717C100.354 29.3543 100.764 28.189 101.614 27.3386C102.464 26.4567 103.504 26.0157 104.795 26.0157C105.582 26.0157 106.275 26.2047 106.874 26.5827C107.472 26.9606 107.913 27.4331 108.228 28.0315V26.1732H109.803V35.7165C109.803 37.0079 109.393 38.0472 108.575 38.8346C107.756 39.6535 106.716 40.0315 105.425 40.0315C104.134 40.0315 103.126 39.748 102.275 39.1496C101.456 38.5512 100.984 37.7953 100.858 36.8504H102.37C102.527 37.3858 102.874 37.8268 103.409 38.1732C103.945 38.5197 104.638 38.7087 105.425 38.7087C106.212 38.7087 106.905 38.4567 107.441 37.9213C107.976 37.3858 108.26 36.6614 108.26 35.7165V33.5748C107.945 34.1732 107.504 34.6772 106.905 35.0551C106.307 35.4331 105.614 35.622 104.827 35.622C103.567 35.622 102.496 35.1811 101.645 34.2677H101.614ZM107.283 33.3543C107.913 32.7244 108.197 31.874 108.197 30.8346C108.197 29.7953 107.882 28.9449 107.283 28.315C106.653 27.685 105.929 27.3701 105.047 27.3701C104.165 27.3701 103.441 27.685 102.811 28.2835C102.181 28.8819 101.897 29.7323 101.897 30.7717C101.897 31.811 102.212 32.6929 102.842 33.3228C103.472 33.9528 104.197 34.2992 105.079 34.2992C105.96 34.2992 106.685 33.9843 107.283 33.3543Z" fill="#010101"/>
    <path d="M112.323 35.4961V22.9606H113.866V35.4961H112.323Z" fill="#010101"/>
    <path d="M120.323 35.622C119 35.622 117.898 35.1811 117.079 34.2992C116.228 33.4173 115.819 32.252 115.819 30.8031C115.819 29.3543 116.228 28.189 117.079 27.3071C117.929 26.4252 119.031 25.9843 120.386 25.9843C121.74 25.9843 122.811 26.3937 123.63 27.2441C124.449 28.063 124.858 29.1339 124.858 30.4252C124.858 30.7402 124.858 31.0551 124.795 31.3386H117.394C117.425 32.252 117.74 33.0079 118.276 33.5433C118.811 34.0787 119.504 34.3622 120.323 34.3622C120.953 34.3622 121.488 34.2362 121.929 33.9528C122.37 33.6693 122.685 33.2913 122.874 32.8189H124.543C124.26 33.6378 123.756 34.2992 123.031 34.8346C122.307 35.3701 121.425 35.622 120.323 35.622ZM122.402 28.0945C121.835 27.5591 121.173 27.2756 120.354 27.2756C119.535 27.2756 118.842 27.5276 118.307 28.063C117.772 28.5984 117.457 29.3228 117.394 30.2362H123.252C123.252 29.3543 122.968 28.6299 122.402 28.0945Z" fill="#010101"/>
    <path d="M138.716 24.6929C139.409 25.3543 139.756 26.1732 139.756 27.1811C139.756 28.189 139.409 29.0079 138.748 29.6693C138.086 30.3307 137.047 30.6457 135.693 30.6457H133.425V35.4961H131.882V23.748H135.693C137.016 23.748 138.023 24.063 138.716 24.7244V24.6929ZM133.425 29.4173H135.693C136.543 29.4173 137.173 29.2284 137.583 28.8189C137.992 28.4095 138.212 27.874 138.212 27.1811C138.212 25.7008 137.362 24.9449 135.693 24.9449H133.425V29.3858V29.4173Z" fill="#010101"/>
    <path d="M141.677 35.4961V22.9606H143.22V35.4961H141.677Z" fill="#010101"/>
    <path d="M146.401 34.2677C145.551 33.3543 145.141 32.189 145.141 30.7717C145.141 29.3543 145.551 28.189 146.401 27.3386C147.252 26.4567 148.291 26.0157 149.582 26.0157C150.37 26.0157 151.063 26.2047 151.661 26.5827C152.26 26.9606 152.701 27.4331 153.015 28.0315V26.1732H154.59V35.4961H153.015V33.6063C152.701 34.2047 152.26 34.7087 151.661 35.0866C151.063 35.4646 150.37 35.6535 149.582 35.6535C148.323 35.6535 147.252 35.2126 146.401 34.2992V34.2677ZM152.071 33.3543C152.701 32.7244 152.984 31.874 152.984 30.8346C152.984 29.7953 152.669 28.9449 152.071 28.315C151.441 27.685 150.716 27.3701 149.834 27.3701C148.952 27.3701 148.228 27.685 147.598 28.2835C146.968 28.8819 146.685 29.7323 146.685 30.7717C146.685 31.811 147 32.6929 147.63 33.3228C148.26 33.9528 148.984 34.2992 149.866 34.2992C150.748 34.2992 151.472 33.9843 152.071 33.3543Z" fill="#010101"/>
    <path d="M159.724 35.3386L156.039 26.1733H157.74L160.575 33.7008L163.473 26.1733H165.079L159.473 39.8426H157.866L159.724 35.3386Z" fill="#010101"/>
    <path d="M32.7007 44V12L61.4251 27.5591L32.7007 44Z" fill="#019FA9"/>
    <path d="M32.7007 12L53.0156 32.3465L61.4251 27.5591L32.7007 12Z" fill="#BCD393"/>
    <path d="M52.8582 22.9291L32.7007 44L61.4251 27.5591L52.8582 22.9291Z" fill="#BE4360"/>
    <path d="M54.9997 31.2441L61.4249 27.5591L54.8422 24L52.8579 22.9291L51.2831 24.5669L50.3068 25.5748C49.7713 26.1417 48.291 27.6535 48.291 27.6535C48.291 27.6535 49.7398 29.1024 50.3383 29.7008L51.4091 30.7717C51.9131 31.2756 53.0784 32.315 53.0784 32.315C53.0784 32.315 54.4327 31.5591 54.9682 31.2441H54.9997Z" fill="#F49B76"/>
    </svg>