<svg xmlns="http://www.w3.org/2000/svg" width="702" height="200" viewBox="0 0 702 200" fill="none">
    <path
        d="M607.416 160.294H484.427V120.882L594.824 5.88235H669.789V117.941H702V160.294H669.789V194.118H607.416V160.294ZM607.416 57.0588L548.557 117.941H607.416V57.0588Z"
        fill="#8CC63F" />
    <path
        d="M269.74 171.765C252.17 155.588 243.385 131.471 243.385 100C243.385 68.2353 252.17 44.4118 269.74 28.2353C290.531 9.41177 318.642 0 353.782 0C389.8 0 417.912 9.41177 438.41 28.2353C455.98 44.4118 464.764 68.8235 464.764 101.471C464.764 132.353 455.98 155.588 438.41 171.765C418.204 190.588 390.093 200 354.075 200C318.057 200 289.945 190.588 269.74 171.765ZM311.614 100.294C311.614 138.529 325.67 157.647 354.075 157.647C381.894 157.647 396.535 138.235 396.535 100.882C396.535 62.0588 382.479 42.647 354.075 42.647C325.67 42.647 311.614 61.7647 311.614 100.294Z"
        fill="#8CC63F" />
    <path
        d="M122.989 160.294H0V120.882L110.397 5.88235H185.361V117.941H217.573V160.294H185.361V194.118H122.989V160.294ZM122.989 57.0588L64.1297 117.941H122.989V57.0588Z"
        fill="#8CC63F" />
</svg>