<svg width="272" height="48" viewBox="0 0 272 48" fill="none" xmlns="http://www.w3.org/2000/svg">
    <g clip-path="url(#clip0_1655_7039)">
    <path d="M19.949 47.9901C26.4839 47.9901 31.7814 42.6021 31.7814 35.9557C31.7814 29.3094 26.4839 23.9214 19.949 23.9214C13.4142 23.9214 8.11667 29.3094 8.11667 35.9557C8.11667 42.6021 13.4142 47.9901 19.949 47.9901Z" fill="#2589BB"/>
    <path d="M5.98375 15.9118C9.28848 15.9118 11.9675 13.187 11.9675 9.82588C11.9675 6.46474 9.28848 3.73999 5.98375 3.73999C2.67902 3.73999 0 6.46474 0 9.82588C0 13.187 2.67902 15.9118 5.98375 15.9118Z" fill="#8CC63F"/>
    <path d="M33.1036 18.238C38.0554 18.238 42.0696 14.1553 42.0696 9.11902C42.0696 4.08272 38.0554 0 33.1036 0C28.1519 0 24.1377 4.08272 24.1377 9.11902C24.1377 14.1553 28.1519 18.238 33.1036 18.238Z" fill="#527889"/>
    <path d="M136.246 32.1276C136.246 35.4454 134.615 38.1546 131.353 40.2552C128.091 42.3558 123.719 43.4061 118.247 43.4061C112.774 43.4061 108.344 42.3558 105.082 40.2552C101.82 38.1546 100.189 35.4454 100.189 32.1276V10.9546H106.241V30.9104C106.241 35.5632 110.246 37.8896 118.247 37.8896C126.247 37.8896 130.195 35.5632 130.195 30.9104V10.9546H136.246V32.1374V32.1276Z" fill="white"/>
    <path d="M170.508 25.3644C174.175 25.3644 175.999 23.9313 175.999 21.0552C175.999 18.0123 174.05 16.4908 170.151 16.4908H152.402V25.3644H170.508ZM182.861 42.4932H175.932L167.815 30.9006H152.412V42.4932H146.361V10.9546H171.425C174.716 10.9546 177.341 11.8577 179.291 13.6736C181.24 15.4896 182.215 17.9141 182.215 20.957C182.215 26.1889 179.648 29.3889 174.503 30.5472L182.871 42.4932H182.861Z" fill="white"/>
    <path d="M212.915 36.957C215.878 36.957 218.301 36.0147 220.202 34.1202C222.103 32.2258 223.049 29.8208 223.049 26.9055C223.049 23.784 222.036 21.2613 220.019 19.357C218.001 17.4527 215.309 16.4908 211.95 16.4908H197.473V36.957H212.906H212.915ZM211.506 10.9546C216.95 10.9546 221.322 12.4074 224.622 15.3129C227.913 18.2184 229.564 21.9485 229.564 26.4932C229.564 30.6356 227.836 34.6012 224.371 38.3902C223.397 39.4797 221.852 40.4221 219.729 41.2073C217.413 42.0613 215.01 42.4834 212.52 42.4834H191.441V10.9546H211.516H211.506Z" fill="white"/>
    <path d="M272 10.9546L254.348 30.0859V42.4932H248.297V30.0859L230.751 10.9546H238.134L251.395 25.335L264.675 10.9546H272Z" fill="white"/>
    <path d="M94.2441 42.4934H60.0016V5.35962H66.0529V36.9572H94.2441V42.4934Z" fill="white"/>
    </g>
    <defs>
    <clipPath id="clip0_1655_7039">
    <rect width="272" height="48" fill="white"/>
    </clipPath>
    </defs>
    </svg>
    