<svg width="53" height="30" viewBox="0 0 53 30" fill="none" xmlns="http://www.w3.org/2000/svg">
<path d="M2.80005 13C1.69548 13 0.800049 13.8954 0.800049 15C0.800049 16.1046 1.69548 17 2.80005 17L2.80005 13ZM52.2143 16.4142C52.9953 15.6332 52.9953 14.3668 52.2143 13.5858L39.4863 0.857864C38.7053 0.0768156 37.439 0.0768156 36.6579 0.857864C35.8769 1.63891 35.8769 2.90524 36.6579 3.68629L47.9716 15L36.6579 26.3137C35.8769 27.0948 35.8769 28.3611 36.6579 29.1421C37.439 29.9232 38.7053 29.9232 39.4863 29.1421L52.2143 16.4142ZM2.80005 17L50.8 17V13L2.80005 13L2.80005 17Z" fill="#9F9F9F"/>
</svg>
