<svg xmlns="http://www.w3.org/2000/svg" width="26" height="30" viewBox="0 0 26 30" fill="none">
<path d="M26 24.55C26 21.8167 25.15 19.35 23.45 17.15C21.7833 14.9833 19.6333 13.5 17 12.7C18.6333 11.4 19.45 9.68333 19.45 7.55V6.55C19.45 4.75 18.8167 3.21667 17.55 1.95C16.2833 0.65 14.75 0 12.95 0C11.1833 0 9.65 0.65 8.35 1.95C7.08333 3.21667 6.45 4.75 6.45 6.55V7.55C6.45 9.65 7.28333 11.3667 8.95 12.7C6.35 13.5 4.21667 14.9667 2.55 17.1C0.883333 19.2667 0.0333333 21.7 0 24.4C1.66667 26.1667 3.65 27.5333 5.95 28.5C8.31667 29.5 10.8 30 13.4 30C15.8 30 18.1 29.5833 20.3 28.75C22.4333 27.9167 24.3167 26.7333 25.95 25.2L26 24.55ZM10.5 4.05C11.1667 3.35 11.9833 3 12.95 3C13.9167 3 14.75 3.35 15.45 4.05C16.1167 4.75 16.45 5.58333 16.45 6.55V7.55C16.45 8.51667 16.1167 9.35 15.45 10.05C14.75 10.7167 13.9167 11.05 12.95 11.05C11.9833 11.05 11.1667 10.7167 10.5 10.05C9.8 9.35 9.45 8.51667 9.45 7.55V6.55C9.45 5.58333 9.8 4.75 10.5 4.05ZM3.05 23.2C3.41667 20.9 4.51667 18.9667 6.35 17.4C8.25 15.8333 10.45 15.05 12.95 15.05C15.5833 15.05 17.8667 15.9 19.8 17.6C21.7 19.3 22.75 21.3667 22.95 23.8C20.2167 25.9333 17.0333 27 13.4 27C9.4 27 5.95 25.7333 3.05 23.2Z" fill="#231F20"/>
</svg>