<svg xmlns="http://www.w3.org/2000/svg" width="44" height="38" viewBox="0 0 44 38" fill="none">
<path d="M15.5 2.41663L2 8.91663C10.9808 14.0894 29 24.4166 29 24.4166L42 16.4166C42 16.4166 24.4968 7.25581 15.5 2.41663Z" stroke="#231F20" stroke-width="3" stroke-linecap="round" stroke-linejoin="round"/>
<path d="M28.5 2.41663L41.5 8.91663C32.5192 13.9745 15 23.9166 15 23.9166L2 16.0944C2 16.0944 19.5032 7.14827 28.5 2.41663Z" stroke="#231F20" stroke-width="3" stroke-linecap="round" stroke-linejoin="round"/>
<path d="M22 35.5834V20.5834" stroke="#231F20" stroke-width="3" stroke-linecap="round" stroke-linejoin="round"/>
<path d="M35.3334 20.9166V27.0333C35.3341 27.6624 35.1619 28.2795 34.8356 28.8174C34.5094 29.3553 34.0416 29.7932 33.4834 30.0833L23.4834 35.2166C23.0252 35.4547 22.5164 35.5791 22.0001 35.5791C21.4837 35.5791 20.9749 35.4547 20.5167 35.2166L10.5167 30.0833C9.95856 29.7932 9.4908 29.3553 9.16455 28.8174C8.8383 28.2795 8.6661 27.6624 8.66675 27.0333L8.66675 20.4166" stroke="#231F20" stroke-width="3" stroke-linecap="round" stroke-linejoin="round"/>
</svg>