<svg width="24" height="24" viewBox="0 0 24 24" fill="none" xmlns="http://www.w3.org/2000/svg">
<g clip-path="url(#clip0_1109_4053)">
<path fill-rule="evenodd" clip-rule="evenodd" d="M11.2956 20.4706C6.22759 20.4706 2.11914 16.3622 2.11914 11.2941C2.11914 6.22612 6.22759 2.11768 11.2956 2.11768C16.3636 2.11768 20.4721 6.22612 20.4721 11.2941C20.4721 13.4467 19.731 15.4261 18.49 16.9911L22.0197 20.5208L20.5222 22.0182L16.9926 18.4885C15.4275 19.7295 13.4481 20.4706 11.2956 20.4706ZM16.008 16.5497C14.7584 17.6709 13.1067 18.353 11.2956 18.353C7.39713 18.353 4.23679 15.1926 4.23679 11.2941C4.23679 7.39567 7.39713 4.23532 11.2956 4.23532C15.1941 4.23532 18.3544 7.39567 18.3544 11.2941C18.3544 13.1052 17.6724 14.757 16.5512 16.0066L16.008 16.5497Z" fill="white"/>
<mask id="mask0_1109_4053" style="mask-type:luminance" maskUnits="userSpaceOnUse" x="2" y="2" width="21" height="21">
<path fill-rule="evenodd" clip-rule="evenodd" d="M11.2956 20.4706C6.22759 20.4706 2.11914 16.3622 2.11914 11.2941C2.11914 6.22612 6.22759 2.11768 11.2956 2.11768C16.3636 2.11768 20.4721 6.22612 20.4721 11.2941C20.4721 13.4467 19.731 15.4261 18.49 16.9911L22.0197 20.5208L20.5222 22.0182L16.9926 18.4885C15.4275 19.7295 13.4481 20.4706 11.2956 20.4706ZM16.008 16.5497C14.7584 17.6709 13.1067 18.353 11.2956 18.353C7.39713 18.353 4.23679 15.1926 4.23679 11.2941C4.23679 7.39567 7.39713 4.23532 11.2956 4.23532C15.1941 4.23532 18.3544 7.39567 18.3544 11.2941C18.3544 13.1052 17.6724 14.757 16.5512 16.0066L16.008 16.5497Z" fill="white"/>
</mask>
<g mask="url(#mask0_1109_4053)">
<rect x="-9.17578" y="-9.17645" width="42.3529" height="42.3529" fill="white"/>
</g>
</g>
<defs>
<clipPath id="clip0_1109_4053">
<rect width="24" height="24" fill="white"/>
</clipPath>
</defs>
</svg>
