<svg xmlns="http://www.w3.org/2000/svg" width="40" height="40" viewBox="0 0 40 40" fill="none">
<rect x="1" y="1" width="38" height="38" rx="19" fill="white"/>
<path d="M19.9997 13.9788C19.9997 13.9788 20.5619 13.2054 21.5853 12.2252C22.6075 11.4559 23.8728 11 25.2454 11C28.6477 11 31.4059 13.7914 31.4059 17.2348C31.4059 19.1096 30.5849 20.7868 29.2912 21.929L20.5619 30.7643C20.4128 30.9152 20.2106 31 19.9997 31C19.7888 31 19.5867 30.9152 19.4376 30.7643L10.7082 21.929C9.41457 20.7868 8.59375 19.1096 8.59375 17.2348C8.59375 13.7914 11.3511 11 14.7534 11C16.1261 11 17.3917 11.4559 18.4141 12.2253C19.4376 13.1813 19.9997 13.9788 19.9997 13.9788Z" fill="#231F20"/>
<path d="M27.6118 20.6868L27.7254 20.5794C28.5687 19.8349 29.3593 18.3816 29.3593 17.2347C29.3593 15.0672 27.5048 12.9465 25.363 12.9465C24.0023 12.9465 22.6492 14.0274 21.9441 15.1884L19.9994 18.5789L18.055 15.1883C17.3501 14.0276 15.8696 12.9465 14.5086 12.9465C12.3671 12.9465 10.6606 15.0669 10.6606 17.2347C10.6606 18.3817 11.3001 19.8349 12.1433 20.5794L12.2569 20.6868L19.9994 28.4647L27.6118 20.6868Z" fill="white"/>
<rect x="1" y="1" width="38" height="38" rx="19" stroke="#231F20" stroke-width="2"/>
</svg>