<svg xmlns="http://www.w3.org/2000/svg" width="34" height="30" viewBox="0 0 34 30" fill="none">
<path fill-rule="evenodd" clip-rule="evenodd" d="M19.2936 2.30643C17.8131 3.72435 16.9999 4.84306 16.9999 4.84306C16.9999 4.84306 16.1867 3.68953 14.7061 2.30656C13.2271 1.19352 11.3963 0.533997 9.41053 0.533997C4.48878 0.533997 0.5 4.57199 0.5 9.55328C0.5 12.2653 1.6874 14.6916 3.55883 16.3439L16.1867 29.1251C16.4023 29.3434 16.6948 29.466 16.9999 29.466C17.305 29.466 17.5975 29.3434 17.8131 29.1251L30.441 16.3439C32.3125 14.6916 33.5 12.2653 33.5 9.55328C33.5 4.57199 29.5101 0.533997 24.5883 0.533997C22.6026 0.533997 20.7723 1.19347 19.2936 2.30643ZM28.1761 14.3916L28.0118 14.547L16.9997 25.7985L5.79934 14.547L5.63506 14.3917C4.41529 13.3148 3.49024 11.2125 3.49024 9.55328C3.49024 6.41734 5.95881 3.34997 9.05669 3.34997C11.0254 3.34997 13.1672 4.91387 14.1869 6.59294L16.9997 11.4977L19.8128 6.5931C20.8329 4.91353 22.7903 3.34997 24.7587 3.34997C27.857 3.34997 30.5398 6.41769 30.5398 9.55328C30.5398 11.2124 29.396 13.3147 28.1761 14.3916Z" fill="#231F20"/>
</svg>