<svg xmlns="http://www.w3.org/2000/svg" width="25" height="24" viewBox="0 0 25 24" fill="none">
<g clip-path="url(#clip0_1109_3421)">
<path d="M9.66699 6L7.16699 3.5C6.91055 3.21069 6.5523 3.03157 6.16699 3C5.34999 3 4.66699 3.683 4.66699 4.5V17C4.66699 17.5304 4.87771 18.0391 5.25278 18.4142C5.62785 18.7893 6.13656 19 6.66699 19H18.667C19.1974 19 19.7061 18.7893 20.0812 18.4142C20.4563 18.0391 20.667 17.5304 20.667 17V12" stroke="#231F20" stroke-width="2" stroke-linecap="round" stroke-linejoin="round"/>
<path d="M10.667 5L8.66699 7" stroke="#231F20" stroke-width="2" stroke-linecap="round" stroke-linejoin="round"/>
<path d="M2.66699 12H22.667" stroke="#231F20" stroke-width="2" stroke-linecap="round" stroke-linejoin="round"/>
<path d="M7.66699 19V21" stroke="#231F20" stroke-width="2" stroke-linecap="round" stroke-linejoin="round"/>
<path d="M17.667 19V21" stroke="#231F20" stroke-width="2" stroke-linecap="round" stroke-linejoin="round"/>
</g>
<defs>
<clipPath id="clip0_1109_3421">
<rect width="24" height="24" fill="white" transform="translate(0.666992)"/>
</clipPath>
</defs>
</svg>