<svg xmlns="http://www.w3.org/2000/svg" width="24" height="24" viewBox="0 0 24 24" fill="none">
<path fill-rule="evenodd" clip-rule="evenodd" d="M17.3767 0H6.62296C2.97105 0 -3.05176e-05 2.97122 -3.05176e-05 6.62313V17.3769C-3.05176e-05 21.0289 2.97105 24 6.62296 24H17.3767C21.0289 24 24 21.0288 24 17.3769V6.62313C24.0001 2.97122 21.0289 0 17.3767 0ZM21.8707 17.3768C21.8707 19.8547 19.8547 21.8705 17.3768 21.8705H6.62294C4.14517 21.8707 2.12934 19.8547 2.12934 17.3768V6.62306C2.12934 4.14529 4.14517 2.12932 6.62294 2.12932H17.3767C19.8546 2.12932 21.8706 4.14529 21.8706 6.62306V17.3768H21.8707ZM5.61699 11.7447C5.61699 8.36582 8.3658 5.61694 11.7446 5.61694C15.1235 5.61694 17.8723 8.36582 17.8723 11.7447C17.8723 15.1235 15.1235 17.8723 11.7446 17.8723C8.3658 17.8723 5.61699 15.1235 5.61699 11.7447ZM11.7446 15.7622C9.52934 15.7622 7.7269 13.96 7.7269 11.7447C7.7269 9.52918 9.5292 7.72684 11.7446 7.72684C13.9601 7.72684 15.7624 9.52918 15.7624 11.7447C15.7624 13.96 13.9599 15.7622 11.7446 15.7622ZM17.3008 4.5335C17.5851 4.248 17.9805 4.08506 18.3829 4.08506C18.7868 4.08506 19.1823 4.248 19.4664 4.5335C19.7519 4.8176 19.9149 5.21311 19.9149 5.61698C19.9149 6.01945 19.7519 6.41497 19.4664 6.70046C19.1809 6.98456 18.7868 7.14889 18.3829 7.14889C17.9805 7.14889 17.585 6.98456 17.3008 6.70046C17.0154 6.41497 16.851 6.01959 16.851 5.61698C16.851 5.21311 17.0152 4.8176 17.3008 4.5335Z" fill="#231F20"/>
</svg>