<svg width="48" height="48" viewBox="0 0 48 48" fill="none" xmlns="http://www.w3.org/2000/svg">
<path fill-rule="evenodd" clip-rule="evenodd" d="M23.2 33.6C17.4562 33.6 12.8 28.9438 12.8 23.2C12.8 17.4563 17.4562 12.8 23.2 12.8C28.9437 12.8 33.6 17.4563 33.6 23.2C33.6 25.6396 32.7601 27.8829 31.3536 29.6566L35.3539 33.6569L33.6568 35.354L29.6565 31.3537C27.8828 32.7601 25.6395 33.6 23.2 33.6ZM29.1563 28.5408L28.5407 29.1563C27.1245 30.4271 25.2525 31.2 23.2 31.2C18.7817 31.2 15.2 27.6183 15.2 23.2C15.2 18.7818 18.7817 15.2 23.2 15.2C27.6183 15.2 31.2 18.7818 31.2 23.2C31.2 25.2526 30.427 27.1246 29.1563 28.5408Z" fill="#231F20"/>
<mask id="mask0_1001_5848" style="mask-type:luminance" maskUnits="userSpaceOnUse" x="12" y="12" width="24" height="24">
<path fill-rule="evenodd" clip-rule="evenodd" d="M23.2 33.6C17.4562 33.6 12.8 28.9438 12.8 23.2C12.8 17.4563 17.4562 12.8 23.2 12.8C28.9437 12.8 33.6 17.4563 33.6 23.2C33.6 25.6396 32.7601 27.8829 31.3536 29.6566L35.3539 33.6569L33.6568 35.354L29.6565 31.3537C27.8828 32.7601 25.6395 33.6 23.2 33.6ZM29.1563 28.5408L28.5407 29.1563C27.1245 30.4271 25.2525 31.2 23.2 31.2C18.7817 31.2 15.2 27.6183 15.2 23.2C15.2 18.7818 18.7817 15.2 23.2 15.2C27.6183 15.2 31.2 18.7818 31.2 23.2C31.2 25.2526 30.427 27.1246 29.1563 28.5408Z" fill="white"/>
</mask>
<g mask="url(#mask0_1001_5848)">
<rect width="48" height="48" fill="#231F20"/>
</g>
</svg>
