<svg width="40" height="40" viewBox="0 0 40 40" fill="none" xmlns="http://www.w3.org/2000/svg">
<path d="M33.3337 16.6666C33.3337 26.6666 20.0003 36.6666 20.0003 36.6666C20.0003 36.6666 6.66699 26.6666 6.66699 16.6666C6.66699 13.1304 8.07175 9.73898 10.5722 7.23849C13.0727 4.73801 16.4641 3.33325 20.0003 3.33325C23.5365 3.33325 26.9279 4.73801 29.4284 7.23849C31.9289 9.73898 33.3337 13.1304 33.3337 16.6666Z" fill="#231F20"/>
<path d="M20 23.1665C23.5899 23.1665 26.5 20.2564 26.5 16.6665C26.5 13.0767 23.5899 10.1665 20 10.1665C16.4101 10.1665 13.5 13.0767 13.5 16.6665C13.5 20.2564 16.4101 23.1665 20 23.1665Z" fill="#D1AE73"/>
</svg>
