<svg xmlns="http://www.w3.org/2000/svg" width="16" height="16" viewBox="0 0 16 16" fill="none">
    <g clip-path="url(#clip0_1655_7033)">
        <path fill-rule="evenodd" clip-rule="evenodd"
            d="M2.08331 7.99992C2.08331 4.73223 4.73229 2.08325 7.99998 2.08325C11.2677 2.08325 13.9166 4.73223 13.9166 7.99992C13.9166 11.2676 11.2677 13.9166 7.99998 13.9166C4.73229 13.9166 2.08331 11.2676 2.08331 7.99992ZM7.99998 0.583252C3.90387 0.583252 0.583313 3.90381 0.583313 7.99992C0.583313 12.096 3.90387 15.4166 7.99998 15.4166C12.0961 15.4166 15.4166 12.096 15.4166 7.99992C15.4166 3.90381 12.0961 0.583252 7.99998 0.583252ZM8.74998 3.99992C8.74998 3.5857 8.41419 3.24992 7.99998 3.24992C7.58577 3.24992 7.24998 3.5857 7.24998 3.99992V7.99992C7.24998 8.284 7.41048 8.54369 7.66457 8.67074L10.3312 10.0041C10.7017 10.1893 11.1522 10.0391 11.3375 9.66866C11.5227 9.29818 11.3725 8.84767 11.0021 8.66243L8.74998 7.53639V3.99992Z"
            fill="white" />
    </g>
    <defs>
        <clipPath id="clip0_1655_7033">
            <rect width="16" height="16" fill="white" />
        </clipPath>
    </defs>
</svg>