<svg xmlns="http://www.w3.org/2000/svg" width="24" height="24" viewBox="0 0 24 24" fill="none">
    <path fill-rule="evenodd" clip-rule="evenodd"
        d="M1.87868 3.87868C2.44129 3.31607 3.20435 3 4 3H20C20.7957 3 21.5587 3.31607 22.1213 3.87868C22.6839 4.44129 23 5.20435 23 6V13C23 13.5523 22.5523 14 22 14C21.4477 14 21 13.5523 21 13V6C21 5.73478 20.8946 5.48043 20.7071 5.29289C20.5196 5.10536 20.2652 5 20 5H4C3.73478 5 3.48043 5.10536 3.29289 5.29289C3.10536 5.48043 3 5.73478 3 6V18C3 18.5477 3.45228 19 4 19H12C12.5523 19 13 19.4477 13 20C13 20.5523 12.5523 21 12 21H4C2.34772 21 1 19.6523 1 18V6C1 5.20435 1.31607 4.44129 1.87868 3.87868ZM17.2929 21.7071L15.2929 19.7071C14.9024 19.3166 14.9024 18.6834 15.2929 18.2929C15.6834 17.9024 16.3166 17.9024 16.7071 18.2929L18 19.5858L21.2929 16.2929C21.6834 15.9024 22.3166 15.9024 22.7071 16.2929C23.0976 16.6834 23.0976 17.3166 22.7071 17.7071L18.7071 21.7071C18.3166 22.0976 17.6834 22.0976 17.2929 21.7071ZM9.70711 15.7071L15.7071 9.70711C16.0976 9.31658 16.0976 8.68342 15.7071 8.29289C15.3166 7.90237 14.6834 7.90237 14.2929 8.29289L8.29289 14.2929C7.90237 14.6834 7.90237 15.3166 8.29289 15.7071C8.68342 16.0976 9.31658 16.0976 9.70711 15.7071ZM15 15.5C15.2761 15.5 15.5 15.2761 15.5 15C15.5 14.7239 15.2761 14.5 15 14.5C14.7239 14.5 14.5 14.7239 14.5 15C14.5 15.2761 14.7239 15.5 15 15.5ZM15 17C16.1046 17 17 16.1046 17 15C17 13.8954 16.1046 13 15 13C13.8954 13 13 13.8954 13 15C13 16.1046 13.8954 17 15 17ZM9.5 9C9.5 9.27614 9.27614 9.5 9 9.5C8.72386 9.5 8.5 9.27614 8.5 9C8.5 8.72386 8.72386 8.5 9 8.5C9.27614 8.5 9.5 8.72386 9.5 9ZM11 9C11 10.1046 10.1046 11 9 11C7.89543 11 7 10.1046 7 9C7 7.89543 7.89543 7 9 7C10.1046 7 11 7.89543 11 9Z"
        fill="#21242C" />
</svg>