<svg xmlns="http://www.w3.org/2000/svg" width="24" height="24" viewBox="0 0 24 24" fill="none">
    <path fill-rule="evenodd" clip-rule="evenodd"
        d="M3 7.29593V17.25C3 17.543 3.31811 18 4 18H20C20.6819 18 21 17.543 21 17.25V7.29593L13.5631 13.4261L13.5577 13.4305L13.5577 13.4305C13.1191 13.7869 12.5792 14 12 14C11.4208 14 10.8809 13.7869 10.4423 13.4305L10.4369 13.4261L10.4369 13.4261L3 7.29593ZM19.4278 6H4.5722L11.7059 11.8801C11.8221 11.9739 11.9239 12 12 12C12.0761 12 12.178 11.9739 12.2942 11.8801L12.2963 11.8784L19.4278 6ZM4 4C2.47275 4 1 5.10996 1 6.75V17.25C1 18.89 2.47275 20 4 20H20C21.5272 20 23 18.89 23 17.25V6.75C23 5.10996 21.5272 4 20 4H4Z"
        fill="#21242C" />
</svg>