<svg xmlns="http://www.w3.org/2000/svg" width="24" height="24" viewBox="0 0 24 24" fill="none">
    <path fill-rule="evenodd" clip-rule="evenodd"
        d="M1.92728 4.75999C2.497 4.26149 3.24427 4 4 4H20C20.7557 4 21.503 4.26149 22.0727 4.75999C22.6467 5.26222 23 5.97429 23 6.75V10V12.875C23 13.4273 22.5523 13.875 22 13.875C21.4477 13.875 21 13.4273 21 12.875V11H3V17.25C3 17.539 3.32268 18 4 18H12C12.5523 18 13 18.4477 13 19C13 19.5523 12.5523 20 12 20H4C2.47732 20 1 18.886 1 17.25V10V6.75C1 5.97429 1.3533 5.26222 1.92728 4.75999ZM21 6.75V9H3V6.75C3 6.59746 3.06812 6.41929 3.24429 6.26514C3.42472 6.10726 3.69486 6 4 6H20C20.3051 6 20.5753 6.10726 20.7557 6.26514C20.9319 6.41929 21 6.59746 21 6.75ZM22.7071 17.7071C23.0976 17.3166 23.0976 16.6834 22.7071 16.2929C22.3166 15.9024 21.6834 15.9024 21.2929 16.2929L18 19.5858L16.7071 18.2929C16.3166 17.9024 15.6834 17.9024 15.2929 18.2929C14.9024 18.6834 14.9024 19.3166 15.2929 19.7071L17.2929 21.7071C17.6834 22.0976 18.3166 22.0976 18.7071 21.7071L22.7071 17.7071Z"
        fill="#21242C" />
</svg>