<svg xmlns="http://www.w3.org/2000/svg" width="24" height="24" viewBox="0 0 24 24" fill="none">
    <path fill-rule="evenodd" clip-rule="evenodd"
        d="M16.9677 11C16.7892 8.23716 15.8742 5.5816 14.3315 3.30493C17.8601 4.24871 20.5342 7.2833 20.9451 11H16.9677ZM14.9629 11C14.7596 8.26127 13.7253 5.64942 12 3.51467C10.2747 5.64942 9.2404 8.26127 9.03706 11H14.9629ZM9.03706 13H14.9629C14.7596 15.7387 13.7253 18.3506 12 20.4853C10.2747 18.3506 9.2404 15.7387 9.03706 13ZM7.03227 11C7.21079 8.23716 8.12575 5.58161 9.6685 3.30493C6.13988 4.24871 3.46579 7.2833 3.05493 11H7.03227ZM3.05493 13H7.03227C7.21079 15.7628 8.12575 18.4184 9.6685 20.6951C6.13988 19.7513 3.46579 16.7167 3.05493 13ZM1 12C1 5.92487 5.92487 1 12 1C18.0751 1 23 5.92487 23 12C23 18.0751 18.0751 23 12 23C5.92487 23 1 18.0751 1 12ZM20.9451 13C20.5342 16.7167 17.8601 19.7513 14.3315 20.6951C15.8742 18.4184 16.7892 15.7628 16.9677 13H20.9451Z"
        fill="#21242C" />
</svg>