<svg xmlns="http://www.w3.org/2000/svg" width="24" height="24" viewBox="0 0 24 24" fill="none">
    <path fill-rule="evenodd" clip-rule="evenodd"
        d="M7.05025 5.05025C8.36301 3.7375 10.1435 3 12 3C13.8565 3 15.637 3.7375 16.9497 5.05025C18.2625 6.36301 19 8.14348 19 10C19 12.605 17.2295 15.3616 15.2526 17.5856C14.2876 18.6713 13.3195 19.5792 12.5915 20.2162C12.3688 20.411 12.1693 20.5799 12 20.7202C11.8307 20.5799 11.6312 20.411 11.4085 20.2162C10.6805 19.5792 9.71242 18.6713 8.74741 17.5856C6.77047 15.3616 5 12.605 5 10C5 8.14348 5.7375 6.36301 7.05025 5.05025ZM11.3995 22.7997C11.3998 22.7998 11.4 22.8 12 22L11.4 22.8C11.7556 23.0667 12.2444 23.0667 12.6 22.8L12 22C12.6 22.8 12.6002 22.7998 12.6005 22.7997L12.6011 22.7992L12.603 22.7978L12.6088 22.7933L12.6291 22.778C12.6463 22.7648 12.6709 22.746 12.7024 22.7216C12.7654 22.6728 12.8559 22.6017 12.9701 22.51C13.1984 22.3265 13.5218 22.0597 13.9085 21.7213C14.6805 21.0458 15.7124 20.0787 16.7474 18.9144C18.7705 16.6384 21 13.395 21 10C21 7.61305 20.0518 5.32387 18.364 3.63604C16.6761 1.94821 14.3869 1 12 1C9.61305 1 7.32387 1.94821 5.63604 3.63604C3.94821 5.32387 3 7.61305 3 10C3 13.395 5.22953 16.6384 7.25259 18.9144C8.28758 20.0787 9.31946 21.0458 10.0915 21.7213C10.4782 22.0597 10.8016 22.3265 11.0299 22.51C11.1441 22.6017 11.2346 22.6728 11.2976 22.7216C11.3291 22.746 11.3537 22.7648 11.3709 22.778L11.3912 22.7933L11.397 22.7978L11.3989 22.7992L11.3995 22.7997ZM10 10C10 8.89543 10.8954 8 12 8C13.1046 8 14 8.89543 14 10C14 11.1046 13.1046 12 12 12C10.8954 12 10 11.1046 10 10ZM12 6C9.79086 6 8 7.79086 8 10C8 12.2091 9.79086 14 12 14C14.2091 14 16 12.2091 16 10C16 7.79086 14.2091 6 12 6Z"
        fill="#21242C" />
</svg>