<svg xmlns="http://www.w3.org/2000/svg" width="24" height="24" viewBox="0 0 24 24" fill="none">
    <path fill-rule="evenodd" clip-rule="evenodd"
        d="M21.9917 10.9743C21.4905 10.9743 21.0496 10.5931 20.9994 10.0816C20.799 8.27617 19.9772 6.57105 18.6843 5.28719C17.3914 4.00334 15.6876 3.1909 13.8735 3.00032C13.3223 2.94014 12.9214 2.44867 12.9816 1.89701C13.0417 1.34535 13.5428 0.954177 14.084 1.00433C16.3491 1.24505 18.4838 2.25809 20.0974 3.86292C21.711 5.46774 22.7433 7.59413 22.9939 9.86094C23.054 10.4126 22.6632 10.9041 22.1119 10.9743H22.0017H21.9917ZM19.937 23C19.8468 23 19.7566 23 19.6664 22.99C16.4291 22.6389 13.2821 21.5155 10.5661 19.7502C8.04041 18.1454 5.85554 15.9588 4.25196 13.4312C2.478 10.703 1.36552 7.54355 1.01473 4.30382C0.974645 3.87252 1.01473 3.46129 1.15505 3.06008C1.28534 2.65888 1.50583 2.29779 1.78646 1.98686C2.06708 1.67593 2.40784 1.4352 2.79872 1.26469C3.17957 1.09418 3.59048 1.00391 4.01142 1.00391H7.01813C7.72972 1.00391 8.44131 1.25466 9.00256 1.73611C9.55379 2.21755 9.9146 2.86951 10.0148 3.59168C10.1351 4.48436 10.3556 5.36701 10.6663 6.19952C10.8667 6.74114 10.9068 7.32289 10.7865 7.88458C10.6663 8.44627 10.3856 8.96783 9.98475 9.36904L9.26314 10.0912C10.4458 11.9368 12.0093 13.5115 13.8634 14.695L14.585 13.9729C14.9959 13.5616 15.5171 13.2808 16.0784 13.1705C16.6396 13.0501 17.2209 13.0902 17.7621 13.3009C18.594 13.6118 19.4759 13.8324 20.3579 13.9428H20.3679C21.0996 14.0431 21.761 14.4142 22.2421 14.9759C22.7232 15.5376 22.9737 16.2597 22.9537 16.9919V19.9809C22.9537 20.4022 22.8735 20.8134 22.7031 21.1946C22.5328 21.5757 22.2922 21.9167 21.9815 22.2076C21.6708 22.4985 21.31 22.7091 20.9091 22.8395C20.5984 22.9498 20.2777 23 19.947 23H19.937ZM7.03818 3.00993H4.01142C3.87111 3.00993 3.7308 3.04002 3.61053 3.1002C3.48024 3.16038 3.36999 3.24063 3.27979 3.34093C3.18959 3.44123 3.10941 3.56159 3.06932 3.70201C3.02923 3.8324 3.00919 3.97283 3.01921 4.11325C3.3299 7.03202 4.34216 9.88057 5.93572 12.358C7.38896 14.6449 9.36337 16.6208 11.6485 18.0752C14.114 19.68 16.9603 20.683 19.8668 21.004C19.9871 21.004 20.1274 21.004 20.2577 20.9538C20.388 20.9137 20.5082 20.8335 20.6185 20.7432C20.7187 20.6529 20.7989 20.5326 20.859 20.4122C20.9192 20.2818 20.9392 20.1414 20.9392 20.001V16.9919C20.9392 16.7211 20.859 16.4804 20.6987 16.2898C20.5383 16.0993 20.3178 15.9789 20.0773 15.9488C19.045 15.8184 18.0227 15.5576 17.0505 15.1965C16.8701 15.1263 16.6697 15.1163 16.4893 15.1564C16.2988 15.1965 16.1285 15.2868 15.9882 15.4272L14.7153 16.7011C14.3946 17.022 13.9035 17.0822 13.5126 16.8615C10.8467 15.347 8.64176 13.1303 7.11836 10.4724C6.89786 10.0812 6.958 9.5897 7.27871 9.26874L8.55155 7.99491C8.68185 7.86452 8.77205 7.69401 8.81214 7.50343C8.85223 7.31286 8.8422 7.12229 8.77205 6.94175C8.41124 5.95879 8.15066 4.93572 8.01035 3.90262C7.98028 3.67192 7.86001 3.45126 7.66959 3.29078C7.48918 3.13029 7.25867 3.05005 7.01813 3.05005L7.03818 3.00993ZM16.9504 10.211C17.0406 10.6925 17.4615 11.0335 17.9326 11.0335C17.9927 11.0335 18.0529 11.0235 18.113 11.0134C18.6542 10.9131 19.015 10.3916 18.9148 9.84995C18.6943 8.65636 18.133 7.57311 17.2811 6.71052C16.4292 5.84793 15.3468 5.26618 14.1642 5.03549C13.623 4.92515 13.1018 5.28624 12.9916 5.82787C12.8913 6.36949 13.2421 6.89106 13.7833 7.00139C14.5751 7.15184 15.2867 7.54302 15.858 8.11474C16.4292 8.69648 16.8001 9.41865 16.9504 10.211Z"
        fill="#21242C" />
</svg>