<svg xmlns="http://www.w3.org/2000/svg" width="24" height="24" viewBox="0 0 24 24" fill="none">
    <path
        d="M5.63603 18.364C6.02656 18.7545 6.65972 18.7545 7.05025 18.364L18.364 7.05025C18.7545 6.65972 18.7545 6.02656 18.364 5.63603C17.9734 5.24551 17.3403 5.24551 16.9497 5.63603L5.63603 16.9497C5.24551 17.3403 5.24551 17.9734 5.63603 18.364Z"
        fill="#21242C" />
    <path
        d="M5.63603 5.63603C5.24551 6.02656 5.24551 6.65972 5.63603 7.05025L16.9497 18.364C17.3403 18.7545 17.9734 18.7545 18.364 18.364C18.7545 17.9734 18.7545 17.3403 18.364 16.9497L7.05025 5.63603C6.65972 5.24551 6.02656 5.24551 5.63603 5.63603Z"
        fill="#21242C" />
</svg>